<svg xmlns="http://www.w3.org/2000/svg" viewBox="0 0 425.2 425.2"><defs><style>.cls-1{fill:#7aa6d8;}.cls-2{fill:#231f20;}.cls-3{fill:#fbad56;}</style></defs><g id="two"><g id="_2.matter" data-name="2.matter"><path id="sector" class="cls-1" d="M212.6,413.86c111.15,0,201.26-90.11,201.26-201.26H11.34C11.34,323.75,101.45,413.86,212.6,413.86Z"/><g id="text"><polygon class="cls-2" points="71.42 317.35 65.6 311.39 100.39 277.44 106.17 283.36 105.33 311.37 133.42 311.37 139.19 317.21 104.39 351.16 98.58 345.19 124.97 319.51 96.98 319.51 97.81 291.6 71.42 317.35"/><path class="cls-2" d="M126.86,364.37l-8.67-3.56L159,325.05l8.67,3.55,4,54.18-8.61-3.53-.93-11.63-26.59-10.9Zm33-28.8-17.19,15,18.88,7.74Z"/><polygon class="cls-2" points="187.32 343.19 188 334.87 215.72 337.14 215.04 345.45 205.34 344.66 202.06 384.83 193.75 384.15 197.03 343.98 187.32 343.19"/><polygon class="cls-2" points="240.14 334.08 241.16 342.35 226.69 344.14 228.13 355.86 241.92 354.15 242.94 362.42 229.16 364.12 230.6 375.84 245.08 374.05 246.1 382.32 223.36 385.13 217.39 336.89 240.14 334.08"/><path class="cls-2" d="M261.14,360.35l5.66,16.4-7.87,2.72-15.88-45.93,9.19-3.18a16.23,16.23,0,0,1,12.41.41,14.66,14.66,0,0,1,8.11,9A15,15,0,0,1,272,352a16.42,16.42,0,0,1-9.53,7.92Zm-7.49-21.66,4.76,13.78,1.31-.45c4.27-1.48,6.55-5.5,5.17-9.5s-5.66-5.76-9.93-4.28Z"/><polygon class="cls-2" points="318.46 350.91 311.39 355.32 296.68 331.75 302.26 361.01 295.19 365.43 269.45 324.18 276.53 319.77 291.23 343.34 285.66 314.07 292.73 309.66 318.46 350.91"/><path class="cls-2" d="M334.83,336.73l-7.4,7.51-3.12-23.74A15.15,15.15,0,0,1,307.94,317a14.66,14.66,0,0,1-4.65-11.21,16.16,16.16,0,0,1,5-11.38l6.83-6.92,34.62,34.13-5.85,5.93L332.09,316Zm-9.27-27.19L315.17,299.3l-1,1c-3.17,3.22-3.43,7.83-.41,10.81s7.62,2.64,10.79-.57Z"/></g></g><g id="_1.conciousness" data-name="1.conciousness"><path id="sector-2" data-name="sector" class="cls-3" d="M212.6,11.34c-111.15,0-201.26,90.11-201.26,201.26H413.86C413.86,101.45,323.75,11.34,212.6,11.34Z"/><g id="text-2" data-name="text"><path class="cls-2" d="M69.56,121.47,72,128.94a17.32,17.32,0,0,0-11.67,9.11,16,16,0,0,0-1.1,12.8,17.2,17.2,0,0,0,21,10.65A16,16,0,0,0,89.93,153a17.34,17.34,0,0,0,.44-14.8l7.46-2.45a24,24,0,0,1-.65,20.92c-3.22,6.35-8,10.53-14.39,12.53A24.25,24.25,0,0,1,64,167.6,24.23,24.23,0,0,1,51.5,153.39a23.58,23.58,0,0,1,1.58-19A24,24,0,0,1,69.56,121.47Z"/><path class="cls-2" d="M89.5,120.19A24.72,24.72,0,0,1,91.09,85.3,24.74,24.74,0,0,1,126,86.89a24.72,24.72,0,0,1-1.6,34.9,24.71,24.71,0,0,1-34.89-1.6Zm6-5.47A16.58,16.58,0,0,0,120,92.36,16.58,16.58,0,0,0,95.5,114.72Z"/><path class="cls-2" d="M144.87,87.06l.85,1.85a6.4,6.4,0,0,0,8.71,3.22,6.33,6.33,0,0,0,3.29-8.73c-1.58-3.45-5-5-9.41-3l-3.08,1.41-3.39-7.38L144.92,73c4-1.83,5-4.92,3.57-8.12a5.68,5.68,0,0,0-7.9-2.92,5.78,5.78,0,0,0-2.87,7.87l.57,1.23-7.39,3.38-.56-1.23c-3.53-7.69-.83-15.11,6.86-18.64A13.71,13.71,0,0,1,148,53.87a13,13,0,0,1,7.69,7.34,12,12,0,0,1-.68,11.49,12.46,12.46,0,0,1,10.19,7.61,13.67,13.67,0,0,1,.58,11.14,16.14,16.14,0,0,1-19.33,8.87,14.48,14.48,0,0,1-8.15-8l-.85-1.84Z"/><polygon class="cls-2" points="219.61 84.64 211.55 85.63 209.16 66.14 178.93 69.86 181.32 89.34 173.26 90.33 167.48 43.3 175.54 42.31 177.93 61.8 208.17 58.08 205.77 38.6 213.83 37.61 219.61 84.64"/><path class="cls-2" d="M228.69,86.09l-8.83-2.38L255,44.12l8.82,2.38,10.53,51.92-8.76-2.37-2.32-11.14-27.06-7.3ZM257.06,54.2,242.27,70.82,261.49,76Z"/><polygon class="cls-2" points="311.23 127.88 304.79 122.93 316.73 107.36 292.56 88.82 280.61 104.39 274.17 99.45 303.01 61.85 309.45 66.8 297.51 82.37 321.67 100.91 333.62 85.33 340.07 90.28 311.23 127.88"/><polygon class="cls-2" points="328.08 153.43 323.4 146.79 345.55 131.22 317.37 138.21 312.7 131.57 351.45 104.31 356.12 110.96 333.98 126.53 362.16 119.54 366.83 126.18 328.08 153.43"/><polygon class="cls-2" points="382.29 159.62 374.79 162.75 369.31 149.62 358.69 154.06 363.9 166.56 356.4 169.68 351.19 157.18 340.57 161.62 346.04 174.74 338.54 177.87 329.94 157.25 373.68 139 382.29 159.62"/></g></g></g></svg>