<svg id="Layer_1" data-name="Layer 1" xmlns="http://www.w3.org/2000/svg" viewBox="0 0 100 100">
  <defs>
    <style>
      .cls-1 {
        fill: #fff;
        stroke: #93278f;
        stroke-miterlimit: 10;
      }

      .cls-2 {
        fill: #93278f;
      }
    </style>
  </defs>
  <title>Space inv</title>
  <polygon class="cls-1" points="50 12.26 89.69 41.09 74.53 87.74 25.47 87.74 10.31 41.09 50 12.26"/>
  <g>
    <path class="cls-2" d="M50,60.2a5.66,5.66,0,1,1,5.66-5.66A5.66,5.66,0,0,1,50,60.2Zm0-8.49a2.83,2.83,0,1,0,2.83,2.83A2.83,2.83,0,0,0,50,51.71Z"/>
    <path class="cls-2" d="M50,66.57a12,12,0,1,1,12-12A12,12,0,0,1,50,66.57Zm0-21.23a9.2,9.2,0,1,0,9.2,9.2A9.2,9.2,0,0,0,50,45.34Z"/>
    <path class="cls-2" d="M57,71.45a1.42,1.42,0,0,1-.61-2.7,15.57,15.57,0,0,0,0-28.43,1.42,1.42,0,1,1,1-2.65l.16.07a18.4,18.4,0,0,1,0,33.58A1.42,1.42,0,0,1,57,71.45Z"/>
    <path class="cls-2" d="M43,71.45a1.42,1.42,0,0,1-.58-.13,18.4,18.4,0,0,1,0-33.58,1.42,1.42,0,1,1,1.19,2.58h0a15.57,15.57,0,0,0,0,28.43,1.42,1.42,0,0,1-.58,2.7Z"/>
    <path class="cls-2" d="M37.23,75.5a1.42,1.42,0,0,1-.76-.23,24.76,24.76,0,0,1,0-41.48A1.42,1.42,0,1,1,38,36.18,22,22,0,0,0,38,73a1.42,1.42,0,0,1-.78,2.6Z"/>
    <path class="cls-2" d="M62.77,75.5A1.42,1.42,0,0,1,62,72.9a22,22,0,0,0,0-36.81,1.42,1.42,0,1,1,1.5-2.29,24.77,24.77,0,0,1,0,41.48A1.42,1.42,0,0,1,62.77,75.5Z"/>
  </g>
</svg>
