<svg id="Layer_1" data-name="Layer 1" xmlns="http://www.w3.org/2000/svg" viewBox="0 0 526.07 921.57"><defs><style>.cls-1,.cls-2,.cls-3,.cls-4,.cls-5,.cls-6,.cls-7{fill:none;stroke-width:9px;}.cls-1{stroke:#f9c716;}.cls-1,.cls-2{stroke-miterlimit:10;}.cls-2{stroke:#ff4f00;}.cls-3{stroke:#6b1687;}.cls-3,.cls-4,.cls-5,.cls-6,.cls-7{stroke-linejoin:round;}.cls-4{stroke:#4fa0ca;}.cls-4,.cls-5,.cls-6{stroke-linecap:round;}.cls-5{stroke:#80c41c;}.cls-6{stroke:#13007c;}.cls-7{stroke:red;}.cls-12,.cls-14,.cls-19,.cls-20,.cls-23,.cls-24,.cls-8{font-size:33px;font-family:Lineatura;}.cls-8{fill:#13007c;}.cls-9{letter-spacing:-0.14em;}.cls-10{letter-spacing:-0.09em;}.cls-11{letter-spacing:-0.04em;}.cls-12{fill:#6b1687;}.cls-13{letter-spacing:-0.06em;}.cls-14{fill:#80c41c;}.cls-14,.cls-22{letter-spacing:-0.03em;}.cls-15{letter-spacing:0em;}.cls-16{letter-spacing:-0.14em;}.cls-17{letter-spacing:-0.04em;}.cls-18{letter-spacing:0em;}.cls-19{fill:#ff4f00;}.cls-20{fill:#4fa0ca;}.cls-21{letter-spacing:-0.02em;}.cls-23{fill:#f9c716;}.cls-24{fill:red;}</style></defs><g id="Learner"><path class="cls-1" d="M210.54,703.38c-3.12,0-4.39-2.21-2.84-4.91l52.5-90.92c1.56-2.7,4.11-2.7,5.67,0l52.5,90.92c1.56,2.7.28,4.91-2.84,4.91Z"/><line class="cls-1" x1="263.04" y1="670.73" x2="292.77" y2="653.56"/><line class="cls-1" x1="263.04" y1="670.73" x2="233.3" y2="653.56"/><line class="cls-1" x1="263.04" y1="670.73" x2="263.04" y2="705.07"/></g><g id="Master"><path class="cls-2" d="M315.53,412.13c3.12,0,4.4,2.21,2.84,4.91L265.87,508c-1.56,2.7-4.11,2.7-5.67,0L207.7,417c-1.55-2.7-.28-4.91,2.84-4.91Z"/><line class="cls-2" x1="263.79" y1="445.17" x2="316.9" y2="414.5"/><line class="cls-2" x1="263.79" y1="445.17" x2="210.67" y2="414.5"/><line class="cls-2" x1="262.98" y1="445.17" x2="262.98" y2="506.5"/></g><g id="Part"><path class="cls-3" d="M211.16,68.32a5.44,5.44,0,0,1,2.45-4.25l47-27.12a5.44,5.44,0,0,1,4.91,0l47,27.12a5.44,5.44,0,0,1,2.45,4.25v54.23a5.46,5.46,0,0,1-2.45,4.26l-47,27.11a5.44,5.44,0,0,1-4.91,0l-47-27.11a5.46,5.46,0,0,1-2.45-4.26Z"/><line class="cls-3" x1="263.04" y1="94.53" x2="312.04" y2="66.24"/><line class="cls-3" x1="263.04" y1="94.53" x2="214.03" y2="66.24"/><line class="cls-3" x1="263.04" y1="94.53" x2="263.04" y2="151.12"/></g><g id="Teacher"><path class="cls-4" d="M185.62,611.49H71.06a5.64,5.64,0,0,1-5.62-5.63V496.94a5.65,5.65,0,0,1,5.62-5.63H185.62"/><line class="cls-4" x1="185.62" y1="491.39" x2="167.54" y2="460.08"/><line class="cls-4" x1="185.62" y1="491.39" x2="167.54" y2="522.54"/></g><g id="Mentor"><line class="cls-5" x1="95.6" y1="280.32" x2="95.6" y2="392.68"/><line class="cls-5" x1="155.45" y1="280.32" x2="155.45" y2="310.08"/><line class="cls-5" x1="155.28" y1="280.32" x2="125.53" y2="280.32"/><path class="cls-5" d="M151.65,392.68l-50.3-50.3a5.64,5.64,0,0,1,0-8l54.1-54.1"/></g><g id="Admin"><path class="cls-6" d="M213.39,272.58l46.83-81.12c1.55-2.68,4.08-2.68,5.63,0l46.83,81.12"/><path class="cls-6" d="M296.55,248.26a40.39,40.39,0,0,1-66.83.2"/></g><g id="Guest"><path class="cls-7" d="M305.42,854.33a10.7,10.7,0,0,1-4.95,8.44l-46.23,25.87c-2.72,1.52-5,.22-5-2.9v-73a10.7,10.7,0,0,1,5-8.44l46.23-25.87c2.72-1.52,4.95-.22,4.95,2.9Z"/><path class="cls-7" d="M249.43,861.9H226.32a5.69,5.69,0,0,1-5.67-5.67v-73a5.69,5.69,0,0,1,5.67-5.67h73.43a5.68,5.68,0,0,1,5.67,5.67v59.46"/></g><text class="cls-8" transform="translate(341.96 229.58)">АДМИНИ-<tspan x="0" y="39.6">СТ</tspan><tspan class="cls-9" x="39.1" y="39.6">Р</tspan><tspan class="cls-10" x="49.83" y="39.6">А</tspan><tspan class="cls-11" x="75.04" y="39.6">Т</tspan><tspan x="88.9" y="39.6">ОР</tspan></text><text class="cls-12" transform="translate(341.96 108.83)">М<tspan class="cls-13" x="29.7" y="0">А</tspan><tspan x="55.9" y="0">СТЕР</tspan></text><text class="cls-14" transform="translate(194.79 354)">К<tspan class="cls-15" x="15.71" y="0">У</tspan><tspan class="cls-16" x="44.62" y="0">Р</tspan><tspan class="cls-10" x="55.34" y="0">А</tspan><tspan class="cls-17" x="80.55" y="0">Т</tspan><tspan class="cls-18" x="94.41" y="0">ОР</tspan></text><text class="cls-19" transform="translate(341.96 473.63)">УМЕЛЕЦ</text><text class="cls-20" transform="translate(144.98 572.23)">ПРЕП<tspan class="cls-21" x="62.53" y="0">О</tspan><tspan class="cls-18" x="88.6" y="0">ДА</tspan><tspan class="cls-22" x="135.27" y="0">В</tspan><tspan class="cls-10" x="149.46" y="0">А</tspan><tspan x="174.67" y="0">ТЕЛЬ</tspan></text><text class="cls-23" transform="translate(341.96 670.73)">УЧЕНИК</text><text class="cls-24" transform="translate(341.96 833.53)"><tspan class="cls-11">Г</tspan><tspan x="12.21" y="0">ОСТЬ</tspan></text></svg>