<svg viewBox="0 0 48.19 48.19" xmlns="http://www.w3.org/2000/svg"><rect fill="#78bb5d" height="45.04" rx="22.52" width="45.04" x="1.63" y="1.57"/><g fill="#1d1d1b"><path d="m20.14 19.19h-3.85v-3.85h3.85zm-3.3-.55h2.75v-2.75h-2.75z"/><path d="m20.14 25.79h-3.85v-3.85h3.85zm-3.3-.55h2.75v-2.75h-2.75z"/><path d="m20.14 32.4h-3.85v-3.86h3.85zm-3.3-.55h2.75v-2.76h-2.75z"/><path d="m33.07 36.8h-18.71a1.37 1.37 0 0 1 -1.36-1.38v-23.11a1.37 1.37 0 0 1 1.37-1.37h18.7a1.37 1.37 0 0 1 1.37 1.37v23.11a1.37 1.37 0 0 1 -1.37 1.38zm-19.53-24.49c0 24.17-.42 23.94.82 23.94 19.29 0 19.53.41 19.53-.83 0-24.16.42-23.93-.82-23.93-19.29 0-19.53-.42-19.53.82z"/><path d="m22.62 16.99h8.8v.55h-8.8z"/><path d="m22.62 23.59h8.8v.55h-8.8z"/><path d="m22.62 30.19h8.8v.55h-8.8z"/></g></svg>