<svg id="Layer_1" data-name="Layer 1" xmlns="http://www.w3.org/2000/svg" viewBox="0 0 100 100">
  <defs>
    <style>
      .cls-1 {
        fill: #fff;
      }

      .cls-1, .cls-2 {
        stroke: #eddb12;
        stroke-miterlimit: 10;
      }

      .cls-2 {
        fill: none;
        stroke-width: 3px;
      }
    </style>
  </defs>
  <title>Earth inv</title>
  <g>
    <rect class="cls-1" x="7.41" y="6.47" width="85.57" height="85.57"/>
    <g>
      <line class="cls-2" x1="21.77" y1="30.25" x2="78.53" y2="30.25"/>
      <line class="cls-2" x1="21.77" y1="39.83" x2="78.53" y2="39.83"/>
      <line class="cls-2" x1="21.77" y1="49.4" x2="78.53" y2="49.4"/>
      <line class="cls-2" x1="21.77" y1="58.97" x2="78.53" y2="58.97"/>
      <line class="cls-2" x1="21.77" y1="68.55" x2="78.53" y2="68.55"/>
      <line class="cls-2" x1="35.29" y1="21.02" x2="35.29" y2="30.25"/>
      <line class="cls-2" x1="65.18" y1="21.02" x2="65.18" y2="30.25"/>
      <line class="cls-2" x1="50.23" y1="30.25" x2="50.23" y2="39.83"/>
      <line class="cls-2" x1="35.29" y1="40.08" x2="35.29" y2="49.32"/>
      <line class="cls-2" x1="65.18" y1="40.08" x2="65.18" y2="49.32"/>
      <line class="cls-2" x1="50.23" y1="49.32" x2="50.23" y2="58.89"/>
      <line class="cls-2" x1="35.29" y1="59.23" x2="35.29" y2="68.46"/>
      <line class="cls-2" x1="65.18" y1="59.23" x2="65.18" y2="68.46"/>
      <line class="cls-2" x1="50.23" y1="68.46" x2="50.23" y2="78.04"/>
    </g>
    <rect class="cls-2" x="21.89" y="20.95" width="56.77" height="56.77"/>
  </g>
</svg>
