<svg id="Layer_1" data-name="Layer 1" xmlns="http://www.w3.org/2000/svg" viewBox="0 0 100 100">
  <defs>
    <style>
      .cls-1 {
        fill: #fff;
        stroke: #f05a25;
        stroke-miterlimit: 10;
      }

      .cls-2 {
        fill: #f05a25;
      }
    </style>
  </defs>
  <title>Fire inv</title>
  <g>
    <polygon class="cls-1" points="50.27 10.07 93 84.07 7.55 84.07 50.27 10.07"/>
    <path class="cls-2" d="M57.67,50.8a8.14,8.14,0,0,1-1-8.34c-2.27,2.23-3.55,5-2.66,7.76a6.65,6.65,0,0,1,.24,1.05l0,.43-.13,0-.54-1.23a9.78,9.78,0,0,1-.13-6.59c1.5-4.45-.46-8.82-4-12.32a13.15,13.15,0,0,1-1.84,13.33A14.29,14.29,0,0,0,46,47.43l-.25.56,0-.15c.67-2.87-.79-5.47-3.23-7.43a8.24,8.24,0,0,1-.38,8.42c-1.54,3-1.93,6.64-.73,9.36,1.89,3.94,4.4,5.76,7.8,5.85A10.74,10.74,0,0,0,50.74,64c2.78-.3,6.26-1.66,7.38-4.88C59.22,56.33,59.75,53.5,57.67,50.8Z"/>
    <path class="cls-2" d="M31.12,67.16A5.14,5.14,0,1,1,28,76.38l3.58-1a2.12,2.12,0,0,0,.6-.94A4,4,0,0,0,30.9,70a2.07,2.07,0,0,0-1-.55l-3.56,1A5.14,5.14,0,0,1,31.12,67.16ZM63,69.31a9.48,9.48,0,0,1-4,.93l-18.53,0a9.19,9.19,0,0,1-3.91-.93,6,6,0,0,1,0,5.84,9.74,9.74,0,0,1,4-1H59.06a9.7,9.7,0,0,1,4,1,6.05,6.05,0,0,1,0-5.84Zm10.57,4L69.5,74.45a3.61,3.61,0,0,1-.44-.38,3.67,3.67,0,0,1-.87-3.82l.06-.16,4.09-1.18a5.16,5.16,0,1,0-6.74,7.72,5.1,5.1,0,0,0,2.91.89A5.16,5.16,0,0,0,73.58,73.27Z"/>
  </g>
</svg>
