<svg viewBox="0 0 48.19 48.19" xmlns="http://www.w3.org/2000/svg"><rect fill="#6eb52c" height="45.04" rx="22.52" width="45.04" x="1.63" y="1.58"/><path d="m23.75 5.65v4.78a13.51 13.51 0 0 0 -13.09 13.09h-4.77a.4.4 0 1 0 0 .79h4.77a13.49 13.49 0 0 0 13.09 13.09v4.78a.4.4 0 0 0 .8 0v-4.78a13.49 13.49 0 0 0 13.09-13.09h4.79a.37.37 0 0 0 .38-.37.39.39 0 0 0 -.39-.42h-4.78a13.51 13.51 0 0 0 -13.09-13.09v-4.78a.4.4 0 0 0 -.8 0zm0 5.57v4.78a7.94 7.94 0 0 0 -7.53 7.53h-4.76a12.67 12.67 0 0 1 12.29-12.31zm.8 0a12.69 12.69 0 0 1 12.29 12.3h-4.76a7.94 7.94 0 0 0 -7.53-7.52zm-.8 5.58v6.72h-6.75a7.11 7.11 0 0 1 6.75-6.72zm.8 0a7.11 7.11 0 0 1 6.72 6.72h-6.72zm-13.09 7.51h4.76a7.94 7.94 0 0 0 7.53 7.53v4.77a12.69 12.69 0 0 1 -12.29-12.3zm5.57 0h6.72v6.69a7.12 7.12 0 0 1 -6.75-6.69zm7.52 0h6.72a7.12 7.12 0 0 1 -6.72 6.69zm7.53 0h4.76a12.69 12.69 0 0 1 -12.29 12.3v-4.77a8 8 0 0 0 7.53-7.53z" fill="#1d1d1b"/></svg>