<svg viewBox="0 0 234 66" xmlns="http://www.w3.org/2000/svg"><g fill="#ffa640"><path d="m180.46 13.38c3.59-2.62 7.09-1.58 9.93 1.86l6.61 8.23c6.93-8.51 8.6-11.56 12.64-11.56 5.45 0 8.78 7.09 5.39 10.88l-11.19 12.28c0 14.77.53 15.91-2 18.5-4 4.36-11.61 1.57-11.61-4.88v-13.62c-8.41-9.2-17.46-16-9.81-21.69z"/><path d="m145.26 50.68a6.37 6.37 0 0 1 -.55-2.58c0-26.55-2.3-35.73 6.83-35.73h16.15a6 6 0 0 1 4.92 9c-2.24 3.91-5.75 3-14.33 3v3.59c4.4 0 13.94-1.38 13.94 5.83 0 7-8.66 5.79-13.93 5.79v3.71c5 0 15.23-1.42 15.23 6a6.05 6.05 0 0 1 -6.23 5.89c-16 0-19.52 1.21-22-4.42z"/><path d="m118.25 55.09a7 7 0 0 1 -7.12-7.39c0-27-1.91-35.79 6.83-35.79a6.84 6.84 0 0 1 6.83 6.92v24.44c7.52 0 15.66-1.55 15.66 6a5.76 5.76 0 0 1 -5.73 5.82z"/><path d="m75.39 33.72c0 13.31 18.17 13.32 18.17.07s-18.17-13.43-18.17-.07zm-9.52 12.22c-14.69-20.81 13.76-45.94 33.61-28.5a21.55 21.55 0 0 1 6.52 22.63c-5.77 17.91-29.87 21-40.08 5.87z"/><path d="m26.51 33.72c0 14.49 20.49 12.59 18-1.83-2-11.87-18-10.4-18 1.83zm-9.51 12.22c-14.78-20.94 13.84-45.85 33.59-28.5 25.57 22.46-15.68 55.12-33.59 28.5z"/></g></svg>