<svg id="Crop_Marks" data-name="Crop Marks" xmlns="http://www.w3.org/2000/svg" viewBox="0 0 558.1 164.29"><defs><style>.cls-1{fill:#faa543;}.cls-2{fill:#333;}</style></defs><path class="cls-1" d="M558.1,82.15A78.8,78.8,0,0,0,479.53,3.57h-401A78.81,78.81,0,0,0,0,82.15H0a78.81,78.81,0,0,0,78.57,78.57h401A78.8,78.8,0,0,0,558.1,82.15Z"/><path class="cls-2" d="M430.63,35.42c8.54-6.23,16.87-3.74,23.64,4.44l15.78,19.61c16.51-20.27,20.48-27.54,30.1-27.54,13,0,20.9,16.89,12.84,25.9L486.28,87.07c0,35.18,1.28,37.89-4.65,44.06C472.1,141.5,454,134.87,454,119.51V87.07c-20-21.9-41.56-38-23.34-51.65Z"/><path class="cls-2" d="M346.81,124.24a15.34,15.34,0,0,1-1.3-6.15C345.51,54.87,340,33,361.77,33h38.46c10.1,0,17.26,11.65,11.71,21.31-5.34,9.31-13.7,7.1-34.13,7.1V70C388.28,70,411,66.7,411,83.87c0,16.62-20.62,13.78-33.18,13.78v8.83c11.87,0,36.27-3.38,36.27,14.27,0,8.41-7.32,14-14.83,14-38.11,0-46.48,2.88-52.46-10.52Z"/><path class="cls-2" d="M282.5,134.75c-9.44,0-16.95-7-16.95-17.61,0-64.35-4.54-85.2,16.26-85.2A16.28,16.28,0,0,1,298.07,48.4v58.2c17.9,0,37.3-3.68,37.3,14.29a13.72,13.72,0,0,1-13.65,13.85Z"/><path class="cls-2" d="M180.46,83.87c0,31.69,43.25,31.72,43.25.15,0-31.82-43.25-32-43.25-.15ZM157.79,113c-35-49.55,32.76-109.38,80-67.85,13,11.44,22.43,32,15.41,53.88-13.74,42.63-71.12,50.07-95.43,14Z"/><path class="cls-2" d="M64.08,83.87c0,34.49,48.79,30,42.83-4.36C102,51.25,64.08,54.75,64.08,83.87ZM41.4,113c-35.16-49.83,33-109.17,80-67.85,60.87,53.47-37.35,131.22-80,67.85Z"/></svg>