<svg xmlns="http://www.w3.org/2000/svg" viewBox="0 0 234 66"><defs><style>.cls-1{fill:#ffa640;}</style></defs><g id="Layer_4" data-name="Layer 4"><path class="cls-1" d="M180.46,13.38c3.59-2.62,7.09-1.58,9.93,1.86L197,23.47c6.93-8.51,8.6-11.56,12.64-11.56,5.45,0,8.78,7.09,5.39,10.88L203.84,35.07c0,14.77.53,15.91-2,18.5-4,4.36-11.61,1.57-11.61-4.88V35.07c-8.41-9.2-17.46-16-9.81-21.69Z"/><path class="cls-1" d="M145.26,50.68a6.37,6.37,0,0,1-.55-2.58c0-26.55-2.3-35.73,6.83-35.73h16.15a6,6,0,0,1,4.92,9c-2.24,3.91-5.75,3-14.33,3v3.59c4.4,0,13.94-1.38,13.94,5.83,0,7-8.66,5.79-13.93,5.79v3.71c5,0,15.23-1.42,15.23,6a6.05,6.05,0,0,1-6.23,5.89c-16,0-19.52,1.21-22-4.42Z"/><path class="cls-1" d="M118.25,55.09a7,7,0,0,1-7.12-7.39c0-27-1.91-35.79,6.83-35.79a6.84,6.84,0,0,1,6.83,6.92V43.27c7.52,0,15.66-1.55,15.66,6a5.76,5.76,0,0,1-5.73,5.82Z"/><path class="cls-1" d="M75.39,33.72c0,13.31,18.17,13.32,18.17.07s-18.17-13.43-18.17-.07ZM65.87,45.94C51.18,25.13,79.63,0,99.48,17.44A21.55,21.55,0,0,1,106,40.07c-5.77,17.91-29.87,21-40.08,5.87Z"/><path class="cls-1" d="M26.51,33.72c0,14.49,20.49,12.59,18-1.83-2-11.87-18-10.4-18,1.83ZM17,45.94C2.22,25,30.84.09,50.59,17.44,76.16,39.9,34.91,72.56,17,45.94Z"/></g></svg>