<svg viewBox="0 0 380.85 380.85" xmlns="http://www.w3.org/2000/svg"><path d="m285.64 285.64h95.21v95.21h-95.21z" fill="#afd796"/><path d="m190.43 285.64h95.21v95.21h-95.21z" fill="#b5e4fa"/><path d="m95.21 285.64h95.21v95.21h-95.21z" fill="#7aa6d8"/><path d="m0 285.64h95.21v95.21h-95.21z" fill="#8e91c7"/><path d="m285.64 190.43h95.21v95.21h-95.21z" fill="#a8d26d"/><path d="m190.43 190.43h95.21v95.21h-95.21z" fill="#afd796" opacity=".31"/><path d="m95.21 190.43h95.21v95.21h-95.21z" fill="#8e91c7" opacity=".31"/><path d="m0 190.43h95.21v95.21h-95.21z" fill="#967eba"/><path d="m285.64 95.21h95.21v95.21h-95.21z" fill="#cfdf68"/><path d="m190.43 95.21h95.21v95.21h-95.21z" fill="#ebdc61" opacity=".31"/><path d="m95.21 95.21h95.21v95.21h-95.21z" fill="#f06faa" opacity=".31"/><path d="m0 95.21h95.21v95.21h-95.21z" fill="#ed8dba"/><path d="m285.64 0h95.21v95.21h-95.21z" fill="#ebdc61"/><path d="m190.43 0h95.21v95.21h-95.21z" fill="#fbad56"/><path d="m95.21 0h95.21v95.21h-95.21z" fill="#f26849"/><path d="m0 0h95.21v95.21h-95.21z" fill="#f06faa"/><g fill="#231f20"><path d="m35.46 31.72a5.76 5.76 0 0 0 6-6 5.83 5.83 0 0 0 -6-6 6.18 6.18 0 0 0 -4.13 1.5 5.77 5.77 0 0 0 -1.9 4.49 5.82 5.82 0 0 0 6.03 6.01zm-3.85-6a3.67 3.67 0 0 1 3.85-3.81 4 4 0 0 1 2.65.95 3.69 3.69 0 0 1 1.19 2.86 3.67 3.67 0 0 1 -3.85 3.8 4 4 0 0 1 -2.65-.95 3.65 3.65 0 0 1 -1.19-2.83z"/><path d="m58.44 25.23.27-.27-1.55-1.55-9.42 9.42c-1.29 1.17-2.24 1.17-9.48 1.05-2.52 0-10.47-.06-10.47-.06a4.47 4.47 0 0 0 -3.64 2.8 5.43 5.43 0 0 0 .7 5.21h-.13l13.1 13.17 1.55-1.55-12.37-12.45a3.82 3.82 0 0 1 -1-2.56 2.11 2.11 0 0 1 .48-1.61c1-1 4.05-1 10.75-.88 2.23 0 4.86.06 8 .06a6 6 0 0 0 4.08-1.6z"/><path d="m46.35 19.7v10.73l.54-.21a4.74 4.74 0 0 0 1.37-.86l.28-.28v-7.19h24.62v16.11h-26.81v2.2h29v-20.5z"/><path d="m42.12 74.1h2.19v-25.32l-2.19 2.19z"/><path d="m35.77 74.1h2.19v-17.48l-2.19-2.2z"/><path d="m29.42 74.1h2.19v-23.13l-2.19-2.19z"/><path d="m167 24.84-3.3.88a5.61 5.61 0 0 0 -7.31-1.43c-6 3.56-.94 13.22 5.79 9.48 2.9-1.82 3.06-5.37 2-5.27a.6.6 0 0 0 -.66.67 4.18 4.18 0 0 1 -7.72 2.07c-.11-.11-.16-.31-.26-.42 1.74-.47 4.07-.66 3.61-2.38l8.24-2.21c.91-.23.43-1.61-.39-1.39zm-4.77 1.21-7 1.87a4.18 4.18 0 0 1 6.99-1.87z"/><path d="m159.16 35a6 6 0 0 1 -3-11 6 6 0 0 1 7.66 1.33l3-.82a1.1 1.1 0 0 1 1.34.82 1.06 1.06 0 0 1 -.77 1.33l-7.9 2.11a1.46 1.46 0 0 1 -.2.9c-.49.81-1.72 1.09-2.91 1.37l-.34.08a3.82 3.82 0 0 0 4.25 1.59 3.62 3.62 0 0 0 2.73-3.5 1 1 0 0 1 1.11-1.05.87.87 0 0 1 .85.7c.42 1.24-.39 3.86-2.67 5.29a6.6 6.6 0 0 1 -3.15.85zm.07-11.09a5.24 5.24 0 0 0 -2.65.71 5 5 0 0 0 -1.71 7 5 5 0 0 0 7.13 1.81c2.06-1.29 2.61-3.54 2.33-4.37 0 0-.06-.17-.12-.17h-.06a.24.24 0 0 0 -.19.06.2.2 0 0 0 -.07.19 4.44 4.44 0 0 1 -3.3 4.27 4.51 4.51 0 0 1 -5.13-2 1.09 1.09 0 0 1 -.15-.25.74.74 0 0 0 -.08-.13l-.41-.47.61-.16c.28-.08.57-.14.86-.21 1-.23 2.1-.49 2.42-1a.86.86 0 0 0 .05-.68l-.1-.38 8.62-2.31a.26.26 0 0 0 .21-.36c0-.12-.15-.36-.38-.27l-3.55 1-.16-.21a5.16 5.16 0 0 0 -4.17-2.07zm-4.57 4.57.19-.67a4.65 4.65 0 0 1 3.31-3.23 4.49 4.49 0 0 1 4.34 1.19l.48.48zm4.63-3.27a3.71 3.71 0 0 0 -.93.12 3.85 3.85 0 0 0 -2.48 2l5.51-1.47a3.68 3.68 0 0 0 -2.1-.65z"/><path d="m156.7 48.46 1.11-4.05a.7.7 0 1 0 -1.36-.34l-1.11 4a.69.69 0 0 0 .51.85.77.77 0 0 0 .85-.46z"/><path d="m156 49.38h-.22a1.09 1.09 0 0 1 -.78-1.38l1.11-4a1.11 1.11 0 0 1 .77-.8 1.19 1.19 0 0 1 1.1.33 1.05 1.05 0 0 1 .25 1l-1.12 4.06a1.18 1.18 0 0 1 -1.11.79zm1.11-5.45h-.11s-.15 0-.21.25l-1.11 4a.28.28 0 0 0 0 .22.42.42 0 0 0 .21.16.45.45 0 0 0 .38-.26l1.1-4a.23.23 0 0 0 -.06-.27.37.37 0 0 0 -.21-.1z"/><path d="m153.8 37.64c-6.79-1.85-7.7-2.54-9.31-1.75a2.62 2.62 0 0 0 .65 4.78c10.17 2.66 7.29 2.71 15.28.57a.68.68 0 1 0 -.35-1.32c-7.78 2.08-4.95 2.07-14.64-.53-1.68-.35-.88-3 .62-2.43 9.34 2.53 6 2.48 15.28 0a3.12 3.12 0 0 1 3.86 3.85c-4.19 15.78-.49 12.19-17.32 16.66a.72.72 0 0 0 -.5.49c-4.26 16-1.46 14.11-11.29 11.44-1.31-.75 2.6-.56 2.25-1.88-.25-.94-1.61-.27-2.62 0a1.79 1.79 0 0 0 -1.23 1.48c-11.27-3.06-20.27-5.49-20.48-2 2 7.59 7.31 11.61 13.46 12.52.14.07 16.75-4.42 16.91-4.46a5.39 5.39 0 0 0 3-2.16 3.23 3.23 0 0 1 4.11-1 4.6 4.6 0 0 0 5.94-1.59 3.23 3.23 0 0 1 4.16-1.11c1.26.67 4.13.9 3.77-.45a.65.65 0 0 0 -.84-.48 3.17 3.17 0 0 1 -2.32-.23 4.64 4.64 0 0 0 -5.94 1.6 3.23 3.23 0 0 1 -4.16 1.11 4.59 4.59 0 0 0 -5.91 1.44c-1.35 1.92-2.19 1.58-18.69 6a14.62 14.62 0 0 1 -12.14-11c0-.15.21-.27.29-.22 15.94.34 28.35 9.31 29.82 3.89l3.17-11.86c17-4.55 13.47-1 18.06-17.57a4.77 4.77 0 0 0 -.44-3.49c-2.13-4.13-6.54-1.89-12.45-.3z"/><path d="m127.41 79.88c-6.85-1-11.88-5.68-13.79-12.81v-.06-.01a1.82 1.82 0 0 1 .78-1.45c2.38-1.7 10 .35 19.81 3a2.15 2.15 0 0 1 1.41-1.36l.57-.17a2.85 2.85 0 0 1 2-.19 1 1 0 0 1 .48.64.91.91 0 0 1 -.24.94l4.79-1.29c.39-.07.41 0 .47.25s.06.22-.3.38v.1l-5.91 1.58 2 .63c1.89.6 3 1 3.64.61.78-.44 1.18-2.18 2-5.65.43-1.87 1-4.19 1.76-7.14a1.12 1.12 0 0 1 .78-.77c2.64-.7 4.78-1.21 6.5-1.62 7.41-1.76 7.41-1.76 9-8.7.37-1.61.84-3.61 1.5-6.06a2.47 2.47 0 0 0 -.58-2.55 2.73 2.73 0 0 0 -2.8-.82c-1.48.4-2.65.74-3.59 1-4.1 1.19-4.18 1.19-8.48-.06-.91-.26-2-.58-3.41-.95a.65.65 0 0 0 -.73.08 1.14 1.14 0 0 0 -.31 1.06.71.71 0 0 0 .6.52l3.81 1.06c4.35 1.25 4.35 1.24 8.12.18l2.53-.7a1.08 1.08 0 0 1 1.24 1.53 1.05 1.05 0 0 1 -.68.55c-1.07.28-1.94.53-2.68.74-4.06 1.15-4.14 1.14-9.13-.28l-3.57-1.09a2.9 2.9 0 0 1 -2.18-2.42 3 3 0 0 1 1.43-3.06c1.37-.68 2.24-.42 5.52.54 1.05.3 2.34.68 4 1.13.93-.25 1.82-.51 2.67-.77 4.56-1.32 8.22-2.42 10.16 1.31a5.12 5.12 0 0 1 .47 3.78c-.61 2.24-1.08 4.16-1.45 5.7-2.07 8.44-2.17 8.54-10.5 10.53-1.65.4-3.71.89-6.17 1.55l-3.08 11.58a2.51 2.51 0 0 1 -1.21 1.63c-1.8 1-5.16 0-9.81-1.46l-1.58-.48-4.37 1.17v-.1c-.4.06-.42 0-.46-.18s-.08-.3.29-.44l1.07-.29 2.09-.56a61.82 61.82 0 0 0 -16-2.86 14.12 14.12 0 0 0 11.61 10.43c4.23-1.13 7.42-2 9.85-2.57 7.08-1.82 7.63-2 8.55-3.26a5 5 0 0 1 6.4-1.56 2.85 2.85 0 0 0 3.65-1 5 5 0 0 1 6.45-1.72 2.76 2.76 0 0 0 2 .19 1 1 0 0 1 1.31.76 1 1 0 0 1 -.32 1.09c-.86.69-3 .34-4-.19a2.84 2.84 0 0 0 -3.65 1 5 5 0 0 1 -6.45 1.72 2.85 2.85 0 0 0 -3.61.91 5.74 5.74 0 0 1 -3.25 2.31c-14.34 3.87-16.59 4.43-17.06 4.45zm-13-12.94c1.84 6.76 6.6 11.18 13.08 12.15.75-.13 8.88-2.3 16.74-4.42a5 5 0 0 0 2.87-2 3.6 3.6 0 0 1 4.62-1.15 4.21 4.21 0 0 0 5.4-1.52 3.61 3.61 0 0 1 4.67-1.25c1 .5 2.69.65 3.15.28.06 0 .11-.1.06-.28s-.16-.25-.36-.2a3.65 3.65 0 0 1 -2.6-.26 4.23 4.23 0 0 0 -5.43 1.46 3.6 3.6 0 0 1 -4.67 1.25 4.23 4.23 0 0 0 -5.41 1.32c-1.1 1.54-1.85 1.73-9 3.57-2.45.62-10 2.61-10 2.61h-.08a15.1 15.1 0 0 1 -12.45-11.3.55.55 0 0 1 .22-.58.72.72 0 0 1 .51-.13 64.93 64.93 0 0 1 17.56 3.26l1.27-.35h-.18c-9-2.44-17.42-4.73-19.53-3.23a1.08 1.08 0 0 0 -.46.77zm20.31 3.24.38.12c4.3 1.31 7.69 2.35 9.2 1.51a1.71 1.71 0 0 0 .84-1.15l3.19-12 .22-.06c2.57-.69 4.7-1.2 6.41-1.61 7.94-1.89 7.94-1.89 9.92-9.95.38-1.55.85-3.47 1.45-5.73a4.27 4.27 0 0 0 -.41-3.21c-1.63-3.14-4.81-2.19-9.21-.88q-1.33.4-2.79.81h-.1s-3.14-.88-4.21-1.2c-3.25-1-3.9-1.11-4.92-.6a2.21 2.21 0 0 0 -1 2.25 2.14 2.14 0 0 0 1.6 1.8c1.5.41 2.71.75 3.71 1 4.82 1.38 4.82 1.38 8.7.28l2.68-.75a.27.27 0 0 0 .21-.36.29.29 0 0 0 -.12-.18.28.28 0 0 0 -.24 0c-1 .26-1.82.5-2.52.69-3.94 1.12-4 1.11-8.54-.18-1-.28-2.23-.63-3.78-1.05a1.47 1.47 0 0 1 -1.17-1.08 1.9 1.9 0 0 1 .55-1.85 1.41 1.41 0 0 1 1.49-.24l3.38.95c4.12 1.19 4.12 1.2 8 .06.95-.27 2.12-.61 3.61-1a3.54 3.54 0 0 1 3.58 1 3.27 3.27 0 0 1 .75 3.31c-.65 2.41-1.12 4.4-1.49 6-1.73 7.34-1.82 7.43-9.62 9.28-1.72.41-3.86.92-6.48 1.62a.3.3 0 0 0 -.23.24c-.76 2.98-1.34 5.29-1.76 7.15-.91 3.93-1.29 5.55-2.36 6.16-.91.52-2.11.14-4.27-.54-.88-.28-2-.63-3.28-1zm2.93-2.75a5.09 5.09 0 0 0 -1.21.28c-.21.07-.41.14-.6.19a1.39 1.39 0 0 0 -1 1.14v.29l.6-.16v-.11c.06-.42.53-.55 1.19-.73s1.37-.33 1.37-.7c0-.12-.08-.15-.1-.16a.43.43 0 0 0 -.27-.04z"/><path d="m141.83 32.29-8.5 31.62-4.1-15.3a.68.68 0 1 0 -1.32.35l4.78 17.81a.74.74 0 0 0 .63.54c.94-.25 9.58-33.66 9.83-34.6s-1.05-1.35-1.32-.42z"/><path d="m133.34 67.71h-.09a1.1 1.1 0 0 1 -.94-.82l-4.77-17.81a1.08 1.08 0 0 1 1.53-1.24 1.07 1.07 0 0 1 .54.68l3.72 13.91 8.13-30.23a1.06 1.06 0 0 1 1.26-.79 1.16 1.16 0 0 1 .81 1.4l-.15.58c-8.86 34-9.57 34.22-9.95 34.32zm-4.75-19.23h-.09a.26.26 0 0 0 -.21.36l4.77 17.81a.29.29 0 0 0 .12.18c.87-1.75 4.44-14.46 9.45-33.68l.14-.56a.36.36 0 0 0 -.24-.46c-.08 0-.25 0-.32.24l-8.88 33-4.48-16.71c-.05-.14-.16-.18-.26-.18z"/><path d="m143.42 42.19a19 19 0 0 1 -2.25 3.22.66.66 0 0 0 .65 1.1c.63-.17 2.44-3.14 2.76-3.71a.66.66 0 1 0 -1.16-.61z"/><path d="m141.63 46.92a1 1 0 0 1 -.88-.5 1.08 1.08 0 0 1 .15-1.29 17.84 17.84 0 0 0 2.18-3.13 1 1 0 0 1 .93-.56 1.06 1.06 0 0 1 .92.52 1 1 0 0 1 0 1s-2.08 3.65-3 3.89a.92.92 0 0 1 -.3.07zm2.14-4.54a20.41 20.41 0 0 1 -2.3 3.28.29.29 0 0 0 0 .36.23.23 0 0 0 .29.11 16.12 16.12 0 0 0 2.51-3.52c.1-.16.05-.24 0-.26a.31.31 0 0 0 -.25-.14.27.27 0 0 0 -.25.17z"/><path d="m126.4 38.83 15.47-26.71 4.82-1.29c.55 2.56.23 3.07-3.39 16.12a.7.7 0 0 0 1.36.34c6-21.46 4.75-18.6-3.34-16.43-.41.11-15.88 26.93-16.09 27.29a.66.66 0 0 0 .25.93.67.67 0 0 0 .92-.25z"/><path d="m125.83 39.56a1.08 1.08 0 0 1 -.55-.15 1 1 0 0 1 -.5-.64 1 1 0 0 1 .11-.81l.27-.46c15.52-26.88 15.82-27 16.06-27 .93-.25 1.77-.51 2.51-.74 2.18-.68 3.62-1.12 4.43-.35 1.31 1.26.29 5.33-3.12 18a1.08 1.08 0 0 1 -.77.79 1.17 1.17 0 0 1 -1.1-.32 1.05 1.05 0 0 1 -.25-1c.67-2.47 1.22-4.5 1.68-6.17 1.8-6.54 2.1-7.64 1.79-9.35l-4.26 1.14-15.39 26.5a1.06 1.06 0 0 1 -.65.51 1.09 1.09 0 0 1 -.26.05zm15.7-28.36c-.74 1-6.56 10.88-15.7 26.69l-.26.46a.25.25 0 0 0 0 .22.32.32 0 0 0 .14.17.25.25 0 0 0 .22 0 .26.26 0 0 0 .17-.14l15.56-26.84 5.34-1.41.08.4c.47 2.17.26 2.92-1.71 10.13-.46 1.67-1 3.69-1.68 6.16a.25.25 0 0 0 .06.28.37.37 0 0 0 .34.11s.15 0 .21-.25c3-11 4.32-16.27 3.33-17.22-.47-.45-1.81 0-3.66.53-.73.22-1.54.51-2.44.71z"/><path d="m139.75 68.06a.7.7 0 0 0 1.36.35c4.45-16.57.77-12.73 17.13-17.11a.68.68 0 1 0 -.35-1.32l-11.75 3.15c-3.28.73-3.08 2.99-6.39 14.93z"/><path d="m140.42 69.31a1.09 1.09 0 0 1 -1-1.35c.58-2.14 1-4 1.45-5.54 1.87-7.29 2.31-9 5.24-9.67l11.73-3.15a1.08 1.08 0 1 1 .55 2.08c-2.64.71-4.77 1.2-6.48 1.6-7.05 1.64-7.05 1.64-8.8 8.95-.39 1.67-.89 3.74-1.57 6.28a1.11 1.11 0 0 1 -1.12.8zm17.67-19a.18.18 0 0 0 -.1 0l-11.75 3.15c-2.4.54-2.78 1.77-4.67 9.11-.4 1.57-.85 3.41-1.44 5.55a.25.25 0 0 0 .18.34.33.33 0 0 0 .44-.23c.66-2.5 1.16-4.57 1.55-6.23 1.84-7.71 1.93-7.79 9.38-9.53 1.71-.4 3.83-.89 6.46-1.6a.3.3 0 0 0 0-.58z"/><path d="m127.18 55.73c-5.11-19.06 18.24-31.36 18.62-22.1a.67.67 0 0 0 1.34 0c-.57-12-26.86 1.65-21.28 22.47a.68.68 0 1 0 1.32-.37z"/><path d="m126.51 57a1 1 0 0 1 -1-.8c-3.37-12.6 4.85-20.84 7.45-23.07 4.26-3.65 9.08-5.23 12-3.94 1.14.5 2.51 1.68 2.59 4.43a1 1 0 0 1 -1 1.07h-.07a1 1 0 0 1 -1-1 2.53 2.53 0 0 0 -1.48-2.54c-2.07-.95-6.1.53-9.58 3.48-2.39 2-10 9.54-6.88 21a1.05 1.05 0 0 1 -.74 1.37 1.35 1.35 0 0 1 -.29 0zm16.13-27.47c-2.62 0-6.1 1.54-9.2 4.19-2.52 2.14-10.44 10.11-7.2 22.28a.27.27 0 0 0 .36.21.28.28 0 0 0 .2-.37c-3.2-11.9 4.65-19.69 7.13-21.79 3.76-3.2 8-4.66 10.41-3.6a3.23 3.23 0 0 1 1.85 3.19.3.3 0 0 0 .28.27c.08 0 .29-.06.28-.25-.06-1.9-.77-3.16-2.12-3.76a5 5 0 0 0 -1.99-.38z"/><path d="m244.76 81.64c0-2 1.55-1.73 3.55-1.73 0-11-.76-13 1.3-14.21 13.16-7.77 15.18-25.58 4.42-35.62-14.03-13.08-36.86-3.41-37.44 15.51a22.08 22.08 0 0 0 11.41 20.11c2 1.26 1.3 3 1.3 14.21 2.86 0 3.55-.22 3.55 2.6h12.05v-.87zm1.82-6h-15.58v-1.8h15.6zm0-3.55h-15.58v-1.71h15.6zm-17.77-7.89a20.15 20.15 0 0 1 -10.49-18.54c.59-17.67 21.87-26.18 34.5-14.22a20.48 20.48 0 0 1 -4.08 32.85c-1.86.87-2.16 2.52-2.16 4.33h-15.58c0-1.8-.33-3.39-2.19-4.4zm14.3 16.56h-8.67a3.19 3.19 0 0 0 -3.46-2.6v-.76h15.6v.78a3.26 3.26 0 0 0 -3.47 2.6z"/><path d="m245.32 82.9h-12.83v-.39c0-1.09-.11-1.66-.36-1.91s-1-.31-2.21-.3h-1v-.39c0-2.84 0-5 .08-6.83.11-5.34.09-6.25-1.2-7.06a22.59 22.59 0 1 1 22 0c-1.27.79-1.29 1.82-1.18 7.16 0 1.76.08 4 .08 6.71v.39h-1.59a2.54 2.54 0 0 0 -1.67.35 1 1 0 0 0 -.27.61h.15zm-12-.78h11.27v-.12h-.17v-.39a2.1 2.1 0 0 1 .52-1.56c.62-.6 1.62-.59 2.78-.57h.25c0-2.58 0-4.64-.09-6.3-.1-5.35-.14-6.79 1.57-7.85a21.84 21.84 0 0 0 4.36-35 21.83 21.83 0 1 0 -25.54 35c1.72 1.08 1.69 2.36 1.58 7.74 0 1.7-.08 3.79-.08 6.43h.19c1.36 0 2.23 0 2.77.52a2.91 2.91 0 0 1 .54 2.1zm10.16-1h-9.31l-.06-.31a2.79 2.79 0 0 0 -3.11-2.24h-.4v-1.57h16.4v1.56h-.4a2.86 2.86 0 0 0 -3.08 2.29zm-8.68-.78h8.05a3.56 3.56 0 0 1 3.38-2.59h-14.86a3.51 3.51 0 0 1 3.38 2.64zm12.2-4.29h-16.42v-2.6h16.42zm-15.6-.78h14.81v-1h-14.84zm15.6-2.77h-16.42v-2.5h16.42zm-15.6-.78h14.81v-1h-14.84zm15.6-2.72h-16.42v-.39c0-1.87-.33-3.19-2-4.07a20.82 20.82 0 0 1 2.42-37.48 20.89 20.89 0 0 1 28.6 21.82 20.79 20.79 0 0 1 -10.62 15.77c-1.64.76-2 2.15-2 4zm-15.61-.78h14.83c.05-1.65.43-3.38 2.39-4.29a20.06 20.06 0 0 0 4-32.21 20.1 20.1 0 0 0 -33.84 13.94 19.89 19.89 0 0 0 10.23 18.22c1.93 1.03 2.31 2.69 2.36 4.37z"/><path d="m238.78 30a16.33 16.33 0 0 0 -16.3 16.29h1.74a14.59 14.59 0 0 1 14.56-14.56z"/><path d="m224.6 46.67h-2.51v-.39a16.7 16.7 0 0 1 16.69-16.68h.39v2.51h-.39a14.19 14.19 0 0 0 -14.18 14.17zm-1.72-.78h1a15 15 0 0 1 14.56-14.55v-.95a15.91 15.91 0 0 0 -15.56 15.5z"/><path d="m265.64 46.11h7.8v1.73h-7.8z"/><path d="m273.83 48.23h-8.58v-2.51h8.58zm-7.8-.78h7v-1h-7z"/><path d="m204.11 46.11h7.8v1.73h-7.8z"/><path d="m212.3 48.23h-8.58v-2.51h8.58zm-7.8-.78h7v-1h-7z"/><path d="m237.91 11.44h1.73v7.8h-1.73z"/><path d="m240 19.63h-2.51v-8.58h2.51zm-1.73-.78h.95v-7h-.95z"/><path d="m256.69 23.84h7.71v1.73h-7.71z" transform="matrix(.70710678 -.70710678 .70710678 .70710678 58.84 191.47)"/><path d="m258.43 28.6-1.78-1.77 6-6 1.78 1.78zm-.67-1.77.67.67 4.9-4.9-.67-.68z"/><path d="m213.11 67.44h7.71v1.73h-7.71z" transform="matrix(.70710678 -.70710678 .70710678 .70710678 15.24 173.42)"/><path d="m214.85 72.2-1.78-1.78 6-6 1.77 1.78zm-.68-1.78.68.68 4.9-4.9-.67-.68z"/><path d="m216.15 20.86h1.73v7.71h-1.73z" transform="matrix(.70710678 -.70710678 .70710678 .70710678 46.08 160.69)"/><path d="m219.13 28.61-6-6 1.78-1.78 6 6zm-4.9-6 4.9 4.91.67-.68-4.9-4.9z"/><path d="m259.69 64.5h1.73v7.71h-1.73z" transform="matrix(.70710678 -.70710678 .70710678 .70710678 27.98 204.26)"/><path d="m262.67 72.25-6-6 1.78-1.78 6 6zm-4.9-6 4.9 4.9.67-.67-4.9-4.9z"/><path d="m331.17 6.87v10.57a20.9 20.9 0 0 0 -19.83 20.82v33.59a8.84 8.84 0 0 0 8.81 8.81h24.23a8.83 8.83 0 0 0 8.81-8.81v-33.48a20.9 20.9 0 0 0 -19.82-20.82v-10.68a1.1 1.1 0 1 0 -2.2 0zm6.6 30.84c0 7.3-11 7.29-11 0s11-7.3 11 0zm13.22.66v33.48a6.63 6.63 0 0 1 -6.61 6.61h-24.23a6.64 6.64 0 0 1 -6.61-6.61v-33.48a18.7 18.7 0 0 1 17.63-18.62v10.36c-9.43 1.38-8.42 15.31 1.1 15.31s10.51-13.93 1.1-15.31v-10.47a18.72 18.72 0 0 1 17.63 18.73z"/><path d="m344.38 81.05h-24.23a9.21 9.21 0 0 1 -9.2-9.2v-33.59a21.24 21.24 0 0 1 19.83-21.19v-10.2a1.49 1.49 0 0 1 3 0v10.31a21.23 21.23 0 0 1 19.82 21.19v33.48a9.21 9.21 0 0 1 -9.22 9.2zm-12.11-74.9a.67.67 0 0 0 -.71.72v10.94h-.38a20.46 20.46 0 0 0 -19.45 20.43v33.61a8.43 8.43 0 0 0 8.42 8.42h24.23a8.43 8.43 0 0 0 8.42-8.42v-33.48a20.45 20.45 0 0 0 -19.45-20.43h-.37v-11a.68.68 0 0 0 -.71-.79zm12.11 72.7h-24.23a7 7 0 0 1 -7-7v-33.48a19.07 19.07 0 0 1 18-19h.42v11.08h-.34a7.11 7.11 0 0 0 -6.23 7.81 7.28 7.28 0 0 0 14.53 0 7.11 7.11 0 0 0 -6.22-7.78h-.33v-11.25h.41a19.12 19.12 0 0 1 18 19.12v33.5a7 7 0 0 1 -7.01 7zm-13.6-58.68a18.28 18.28 0 0 0 -16.85 18.2v33.48a6.23 6.23 0 0 0 6.22 6.22h24.23a6.23 6.23 0 0 0 6.22-6.22v-33.48a18.34 18.34 0 0 0 -16.84-18.31v9.71a7.85 7.85 0 0 1 6.55 8.55 8.06 8.06 0 0 1 -16.08 0 7.84 7.84 0 0 1 6.55-8.55zm1.49 23.4a6.13 6.13 0 0 1 -4-1.46 5.7 5.7 0 0 1 -1.85-4.4 5.9 5.9 0 0 1 11.79 0 5.63 5.63 0 0 1 -5.94 5.86zm0-11a4.89 4.89 0 0 0 -5.11 5.09 4.92 4.92 0 0 0 1.59 3.81 5.3 5.3 0 0 0 3.53 1.27 4.89 4.89 0 0 0 5.11-5.08 4.92 4.92 0 0 0 -1.59-3.82 5.33 5.33 0 0 0 -3.54-1.22z"/><path d="m319.05 54.23h26.43v2.2h-26.43z"/><path d="m345.87 56.82h-27.21v-3h27.21zm-26.43-.82h25.65v-1.38h-25.65z"/><path d="m319.05 65.24h26.43v2.2h-26.43z"/><path d="m345.87 67.84h-27.21v-3h27.21zm-26.43-.79h25.65v-1.42h-25.65z"/><path d="m366.25 127.24c-.06-.36-.11-.6-4-3.2l-.16-.11a1.23 1.23 0 0 0 -1.68.3l-6 8.53v-19.18a1.2 1.2 0 0 0 -1.2-1.2h-41.39a1.21 1.21 0 0 0 -1.21 1.2v59.66a1.21 1.21 0 0 0 1.21 1.2h41.46a1.2 1.2 0 0 0 1.2-1.2v-28.55c11.89-16.78 11.83-17.14 11.77-17.45zm-14.18 9c-2.54 3.64-6.61 9.41-6.61 9.41-7 10-7 10-7.56 13.29v.23c-.09.55-.2 1.2-.36 2a1.16 1.16 0 0 0 .49 1.22 1.19 1.19 0 0 0 1.33 0c.74-.47 1.36-.83 1.88-1.14l.13-.08c3-1.77 3-1.77 7.32-8.08.92-1.34 2-3 3.42-5v23.91h-39.11v-57.21h39zm-10.81 22.14-.63-.52.29-1.44 19.22-27.51 1.63 1.14-19.21 27.52zm22.12-30.61-.22.31-1.64-1.15.22-.31z"/><path d="m327.34 149.73c-4.78 0-9.91 3.07-9.91 9.84a9.47 9.47 0 0 0 3.11 7.37 10.25 10.25 0 0 0 6.8 2.46c4.78 0 9.92-3.08 9.92-9.83s-5.14-9.84-9.92-9.84zm7.5 9.84c0 5.1-3.89 7.42-7.5 7.42s-7.5-2.32-7.5-7.42 3.89-7.44 7.5-7.44a7.79 7.79 0 0 1 5.18 1.86 7.18 7.18 0 0 1 2.32 5.58z"/><path d="m345.83 134.49a3.26 3.26 0 1 0 0-6.51 3.44 3.44 0 0 0 -2.26.81 3.1 3.1 0 0 0 -1 2.42 3.18 3.18 0 0 0 3.26 3.28zm-.88-3.28a.89.89 0 0 1 1.77 0 .81.81 0 0 1 -.26.65 1 1 0 0 1 -1 .13.79.79 0 0 1 -.46-.78z"/><path d="m322.24 147.28a1.18 1.18 0 0 0 1.12.76c.39 0 18.54-7.45 18.72-7.52a1.25 1.25 0 0 0 .66-.66 1.22 1.22 0 0 0 0-.92l-.12-.31c-8.11-20.07-8.29-20.14-8.62-20.28s-.52-.29-19.23 7.42a1.25 1.25 0 0 0 -.65.65 1.2 1.2 0 0 0 0 .93zm10.59-26.28 7.22 17.71-16 6.53-7.21-17.71z"/><path d="m332.3 199.68v10a28.38 28.38 0 0 0 -27.53 27.53h-10a.84.84 0 0 0 0 1.67h10a28.38 28.38 0 0 0 27.53 27.53v10a.84.84 0 0 0 1.67 0v-10a28.4 28.4 0 0 0 27.53-27.53h10.09a.8.8 0 0 0 .79-.79.82.82 0 0 0 -.83-.88h-10.05a28.39 28.39 0 0 0 -27.5-27.48v-10a.84.84 0 0 0 -1.7-.05zm0 11.72v10a16.7 16.7 0 0 0 -15.84 15.84h-10a26.65 26.65 0 0 1 25.84-25.84zm1.67 0a26.68 26.68 0 0 1 25.86 25.86h-10a16.7 16.7 0 0 0 -15.83-15.84zm-1.67 11.72v14.14h-14.14a15 15 0 0 1 14.14-14.14zm1.67 0a15 15 0 0 1 14.14 14.14h-14.11zm-27.53 15.81h10a16.7 16.7 0 0 0 15.84 15.84v10a26.68 26.68 0 0 1 -25.84-25.84zm11.72 0h14.14v14.14a15 15 0 0 1 -14.14-14.14zm15.81 0h14.14a15 15 0 0 1 -14.11 14.14zm15.84 0h10a26.69 26.69 0 0 1 -25.81 25.86v-10c9.38-.49 15.81-8.62 15.81-15.86z"/><path d="m333.13 277.72a1.18 1.18 0 0 1 -1.22-1.22v-9.66a28.79 28.79 0 0 1 -27.52-27.52h-9.67a1.23 1.23 0 0 1 0-2.45h9.67a28.79 28.79 0 0 1 27.52-27.52v-9.67a1.23 1.23 0 0 1 2.45 0v9.67a28.79 28.79 0 0 1 27.52 27.52h9.67a1.22 1.22 0 0 1 1.22 1.27 1.18 1.18 0 0 1 -1.18 1.18h-9.71a28.79 28.79 0 0 1 -27.52 27.52v9.66a1.19 1.19 0 0 1 -1.23 1.22zm-38.41-40.07a.45.45 0 0 0 0 .89h10.43v.38a28 28 0 0 0 27.15 27.15h.38v10.43a.45.45 0 0 0 .89 0v-10.42h.43a28 28 0 0 0 27.15-27.15v-.38h10.47a.4.4 0 0 0 .4-.4.44.44 0 0 0 -.44-.49h-10.46v-.38a28 28 0 0 0 -27.12-27.16h-.38v-10.44a.45.45 0 0 0 -.89 0v10.43h-.38a28 28 0 0 0 -27.15 27.15v.38zm38.86 27.54v-10.8h.42c9.25-.46 15.47-8.36 15.47-15.45v-.39h10.81v.4a27.12 27.12 0 0 1 -26.28 26.23zm.78-10.05v9.24a26.34 26.34 0 0 0 25.06-25.06h-9.23c-.19 7.25-6.51 15.16-15.83 15.82zm-1.67 10.05h-.41a27.12 27.12 0 0 1 -26.23-26.24v-.4h10.79v.37a16.24 16.24 0 0 0 15.46 15.47h.38zm-25.84-25.87a26.32 26.32 0 0 0 25.06 25.06v-9.24a17 17 0 0 1 -15.82-15.82zm26.73 14.16v-14.94h14.94v.41a15.36 15.36 0 0 1 -14.52 14.51zm.78-14.16v13.33a14.58 14.58 0 0 0 13.33-13.33zm-1.67 14.16h-.41a15.37 15.37 0 0 1 -14.52-14.48v-.41h14.95zm-14.12-14.16a14.59 14.59 0 0 0 13.34 13.33v-13.33zm41.66-1.67h-10.8v-.37a16.24 16.24 0 0 0 -15.43-15.47h-.37v-10.81h.4a27.12 27.12 0 0 1 26.24 26.24zm-10.05-.78h9.24a26.33 26.33 0 0 0 -25.06-25.06v9.24a17 17 0 0 1 15.82 15.82zm-1.66.78h-14.94v-15h.41a15.36 15.36 0 0 1 14.51 14.51zm-14.16-.78h13.33a14.59 14.59 0 0 0 -13.33-13.34zm-1.67.78h-14.95v-.41a15.37 15.37 0 0 1 14.52-14.51h.41zm-14.12-.78h13.34v-13.34a14.6 14.6 0 0 0 -13.34 13.34zm-1.74.78h-10.83v-.4a27.16 27.16 0 0 1 26.28-26.25h.41v10.79h-.38a16.22 16.22 0 0 0 -15.46 15.47zm-10-.78h9.24a17 17 0 0 1 15.82-15.82v-9.24a26.35 26.35 0 0 0 -25.04 25.06z"/><path d="m324.7 323.17h-8.1v-8.1h8.1zm-6.95-1.17h5.79v-5.79h-5.79z"/><path d="m325.09 323.56h-8.89v-8.88h8.89zm-8.1-.78h7.31v-7.32h-7.3zm6.94-.37h-6.57v-6.57h6.57zm-5.79-.78h5v-5h-5z"/><path d="m324.7 337.06h-8.1v-8.06h8.1zm-6.95-1.16h5.79v-5.78h-5.79z"/><path d="m325.09 337.45h-8.89v-8.88h8.89zm-8.1-.78h7.31v-7.32h-7.3zm6.94-.38h-6.57v-6.56h6.57zm-5.79-.78h5v-5h-5z"/><path d="m324.7 351h-8.1v-8.1h8.1zm-6.95-1.16h5.79v-5.84h-5.79z"/><path d="m325.09 351.34h-8.89v-8.88h8.89zm-8.1-.78h7.31v-7.32h-7.3zm6.94-.38h-6.57v-6.57h6.57zm-5.79-.78h5v-5h-5z"/><path d="m351.89 360.21h-39.34a2.9 2.9 0 0 1 -2.9-2.9v-48.6a2.89 2.89 0 0 1 2.9-2.89h39.34a2.89 2.89 0 0 1 2.89 2.89v48.6a2.89 2.89 0 0 1 -2.89 2.9zm-41.08-51.5c0 50.83-.88 50.34 1.74 50.34 40.56 0 41.08.88 41.08-1.74 0-50.82.87-50.34-1.74-50.34-40.56.03-41.08-.87-41.08 1.74z"/><path d="m351.89 360.6h-39.34a3.3 3.3 0 0 1 -3.29-3.29v-48.6a3.29 3.29 0 0 1 3.29-3.28h39.34a3.28 3.28 0 0 1 3.28 3.28v48.6a3.29 3.29 0 0 1 -3.28 3.29zm-39.34-54.39a2.51 2.51 0 0 0 -2.51 2.5v48.6a2.52 2.52 0 0 0 2.51 2.51h39.34a2.51 2.51 0 0 0 2.5-2.51v-48.6a2.5 2.5 0 0 0 -2.5-2.5zm32.08 53.37c-2.22 0-21.91-.14-32.08-.14a1.77 1.77 0 0 1 -1.38-.37c-1-1-.95-4-.85-20.87 0-7 .1-16.68.1-29.49a1.76 1.76 0 0 1 .41-1.38c1-1 3.82-.93 17.51-.85 5.66 0 13.4.1 23.55.1a1.73 1.73 0 0 1 1.37.37c1 1 .95 4 .86 20.91-.05 7-.1 16.66-.1 29.45a1.79 1.79 0 0 1 -.41 1.39c-.71.71-2.48.88-8.98.88zm-32.16-.92c10.25 0 18 0 23.66.09 12.11.09 16.2.12 16.93-.61.15-.15.18-.36.18-.83 0-12.79.05-22.42.09-29.45.09-15.07.12-19.62-.62-20.36-.13-.13-.34-.1-.74-.14-10.23 0-18-.05-23.63-.09-12.15-.08-16.23-.12-17 .61-.14.15-.17.37-.17.83 0 12.82-.05 22.45-.1 29.49-.09 15-.11 19.58.63 20.32.16.13.3.17.77.14z"/><path d="m329.9 318.55h18.52v1.16h-18.52z"/><path d="m348.81 320.09h-19.3v-1.94h19.3zm-18.52-.78h17.71v-.37h-17.71z"/><path d="m329.9 332.43h18.52v1.16h-18.52z"/><path d="m348.81 334h-19.3v-2h19.3zm-18.52-.78h17.71v-.38h-17.71z"/><path d="m329.9 346.32h18.52v1.16h-18.52z"/><path d="m348.81 347.87h-19.3v-1.94h19.3zm-18.52-.79h17.71v-.37h-17.71z"/><path d="m267.1 319a4.58 4.58 0 0 0 -4.57-4.57h-12.79v-2.74a4.58 4.58 0 0 0 -4.57-4.57h-12.8a4.58 4.58 0 0 0 -4.57 4.57v2.74h-12.8a4.58 4.58 0 0 0 -4.57 4.57v29.25a4.58 4.58 0 0 0 4.57 4.57h47.51a4.58 4.58 0 0 0 4.57-4.57zm-21.92-10.06c3 0 2.74 2.88 2.74 5.49h-18.28c0-6.43-.92-5.5 15.54-5.5zm-30.18 7.31c50 0 50.25-1 50.25 2.74v7.31h-53v-7.3a2.74 2.74 0 0 1 2.75-2.75zm36.55 11.88h3.65v4.57h-3.65zm-29.24 0h3.69v4.57h-3.65zm40.22 22.87c-50 0-50.25 1-50.25-2.74v-20.13h8.22v6.4h7.3v-6.4h21.93v6.4h7.27v-6.4h8.22c.03 19.87.97 22.87-2.69 22.87z"/><path d="m262.53 353.2h-47.53a5 5 0 0 1 -5-5v-29.2a5 5 0 0 1 5-5h12.39v-2.35a5 5 0 0 1 5-5h12.79a5 5 0 0 1 5 5v2.35h12.4a5 5 0 0 1 5 5v29.24a5 5 0 0 1 -5.05 4.96zm-47.53-38.39a4.18 4.18 0 0 0 -4.18 4.18v29.24a4.19 4.19 0 0 0 4.18 4.19h47.51a4.19 4.19 0 0 0 4.18-4.19v-29.23a4.19 4.19 0 0 0 -4.18-4.18h-13.16v-3.13a4.19 4.19 0 0 0 -4.19-4.18h-12.79a4.18 4.18 0 0 0 -4.18 4.18v3.13zm11 36.69c-9.7 0-12.55-.22-13.58-1.25a2.63 2.63 0 0 1 -.54-2v-20.51h9v6.4h6.52v-6.4h22.71v6.4h6.52v-6.4h9s0 7.59.07 10.31c.09 8.29.13 11.39-1.11 12.64a2.81 2.81 0 0 1 -2.07.68c-10.73 0-33.61.13-36.52.13zm-13.34-23v19.71c0 .74 0 1.17.31 1.47 1.11 1.1 6.36 1.08 23.73 1 6.72 0 15.08-.08 25.82-.08a2 2 0 0 0 1.51-.45c1-1 1-4.48.89-12.08 0-2.63-.07-5.78-.07-9.54h-7.44v6.4h-8.08v-6.4h-21.14v6.4h-8.08v-6.4zm42.94 4.57h-4.44v-5.35h4.44zm-3.65-.78h2.87v-3.79h-2.82zm-25.59.78h-4.44v-5.35h4.44zm-3.65-.78h2.87v-3.79h-2.87zm42.94-5.62h-53.76v-7.67a3.13 3.13 0 0 1 3.13-3.13c10.76 0 19.14-.05 25.86-.09 18.51-.09 22.9-.12 24.24 1.2a2.63 2.63 0 0 1 .54 2zm-53-.78h52.21v-6.89c0-.73 0-1.16-.31-1.46-1.11-1.1-6.36-1.07-23.68-1-6.73 0-15.11.08-25.87.08a2.35 2.35 0 0 0 -2.35 2.35zm35.64-11.1h-19.04v-1.36c0-2 0-3.16.74-3.94 1.08-1.07 3.38-1.05 9.52-1h5.67a3 3 0 0 1 2.18.78c1 1 1 2.74.95 4.43zm-18.29-.79h17.5v-.29c0-1.53 0-3.11-.73-3.87a2.17 2.17 0 0 0 -1.63-.55c-2.18 0-4.06 0-5.68 0-5.57-.06-8.11-.07-8.95.77-.55.55-.54 1.61-.52 3.38z"/><path d="m237.86 320.82h1.83v1.83h-1.83z"/><path d="m240.08 323h-2.61v-2.61h2.61zm-1.83-.78h1.05v-1.05h-1.05z"/><path d="m234.2 320.82h1.83v1.83h-1.83z"/><path d="m236.42 323h-2.61v-2.61h2.61zm-1.83-.78h1v-1.05h-1z"/><path d="m241.52 320.82h1.83v1.83h-1.83z"/><path d="m243.74 323h-2.61v-2.61h2.61zm-1.83-.78h1.09v-1.05h-1.05z"/><path d="m152.1 331.21h-17.33a.86.86 0 0 0 -.87.86v12.93c0 7 19.06 7.07 19.06 0v-12.93a.85.85 0 0 0 -.86-.86zm-.86 1.72v4.07h-15.61v-4.1zm-15.61 12.07v-6.25h15.61v6.25c0 4.7-15.61 4.71-15.61 0zm35.75-24.28c0-7.71-9.92-8.37-9.92-14.79a1 1 0 0 0 -2 0c0 7.7 9.92 8.37 9.92 14.79 0 5.41-5.14 6.26-6.44 6.39-1.44-.66-9.68-4.92-9.68-14.64 0-10.29-3.58-16.19-9.83-16.19s-9.83 5.9-9.83 16.19c0 9.84-8.25 14-9.69 14.65-1.14-.09-6.52-.83-6.52-6.4 0-6.43 9.92-7.08 9.92-14.79a1 1 0 0 0 -2 0c0 6.43-9.92 7.07-9.92 14.79 0 5.76 4.59 7.88 7.7 8.32 0 30.19-.64 30.65 1 30.65 40.08 0 39.69.64 39.69-1v-29.69c3.1-.44 7.6-2.57 7.6-8.27zm-27.95-22.44c6.4 0 7.68 7.84 7.82 13.19h-15.63c.13-5.34 1.38-13.18 7.81-13.18zm18.35 59.4h-36.69v-28.9c2.27-1.14 10-5.72 10.49-15.3h15.71c.5 9.58 8.22 14.16 10.49 15.3z"/><path d="m156.89 360.21c-1.94 0-21.52-.12-32.8-.12a1.21 1.21 0 0 1 -.93-.29c-.64-.66-.63-2.36-.55-11.79 0-4.39.09-10.38.09-18.62-3.79-.66-7.7-3.25-7.7-8.66 0-4.23 2.9-6.47 5.45-8.45 2.3-1.78 4.47-3.47 4.47-6.34a1.39 1.39 0 0 1 2.78 0c0 4.22-2.89 6.47-5.44 8.45-2.3 1.78-4.48 3.46-4.48 6.34 0 5.08 4.84 5.88 6.06 6 1.77-.81 9.37-4.88 9.37-14.25 0-10.54 3.73-16.58 10.22-16.58s10.22 6 10.22 16.58c0 9.24 7.58 13.4 9.36 14.24 1.54-.17 6-1.09 6-6 0-2.88-2.17-4.56-4.48-6.35-2.55-2-5.44-4.23-5.44-8.44a1.39 1.39 0 0 1 2.78 0c0 2.87 2.17 4.56 4.47 6.34 2.56 2 5.45 4.23 5.45 8.45 0 5.35-3.86 8-7.6 8.64v29.34a1.17 1.17 0 0 1 -.26.91c-.5.48-1.64.6-7.04.6zm-30.58-54.87a.57.57 0 0 0 -.61.6c0 3.26-2.42 5.14-4.77 7-2.53 2-5.15 4-5.15 7.83 0 6.54 6.13 7.76 7.36 7.94l.34.05s0 14.85-.09 19.29c-.06 7.87-.09 10.82.33 11.24 0 0 .13.06.37.06 11.28 0 19.29.05 25.14.08 10.25.07 13.7.09 14.13-.33a.73.73 0 0 0 0-.32v-30l.33-.05c3.52-.54 7.27-2.9 7.27-7.92 0-3.84-2.62-5.87-5.15-7.84-2.34-1.81-4.77-3.7-4.77-6.95a.61.61 0 0 0 -1.22 0c0 3.83 2.61 5.86 5.14 7.83 2.35 1.82 4.78 3.7 4.78 7 0 5.82-5.66 6.67-6.79 6.78h-.11-.09c-1.66-.77-9.91-5.11-9.91-15 0-10-3.44-15.8-9.44-15.8s-9.44 5.76-9.44 15.8-8.26 14.26-9.92 15h-.09-.1c-1.15-.09-6.88-.87-6.88-6.79 0-3.26 2.43-5.14 4.78-7 2.53-2 5.14-4 5.14-7.83a.57.57 0 0 0 -.58-.67zm35.86 52.75h-37.47v-29.55l.21-.11c2.29-1.15 9.78-5.64 10.28-15v-.37h16.45v.37c.49 9.33 8 13.82 10.28 15l.21.11zm-36.69-.79h35.91v-28.3c-2.57-1.34-9.8-5.92-10.47-15.15h-14.92c-.68 9.23-7.91 13.81-10.47 15.15zm18-6.6c-4.79 0-9.94-1.79-9.94-5.69v-12.94a1.26 1.26 0 0 1 1.26-1.25h17.3a1.25 1.25 0 0 1 1.25 1.25v12.93c0 1.8-1.1 3.29-3.18 4.32a15.56 15.56 0 0 1 -6.72 1.38zm-8.68-19.1a.48.48 0 0 0 -.48.47v12.93c0 3.22 4.61 4.9 9.16 4.9a14.69 14.69 0 0 0 6.37-1.28c1.26-.62 2.75-1.75 2.75-3.62v-12.93a.47.47 0 0 0 -.47-.47zm8.66 17.32a15.2 15.2 0 0 1 -5.51-.91c-1.75-.7-2.68-1.74-2.68-3v-6.64h16.39v6.63c-.03 2.7-4.28 3.92-8.23 3.92zm-7.46-9.77v5.85c0 2.06 3.73 3.13 7.41 3.13s7.42-1.07 7.42-3.13v-5.86zm15.61-1.73h-16.37v-4.87h16.39zm-15.61-.78h14.83v-3.31h-14.83zm15.63-24.77h-16.41v-.4c.21-8.75 3.13-13.57 8.2-13.57s8 4.82 8.21 13.57zm-15.63-.78h14.82c-.17-4.82-1.39-12.41-7.41-12.41s-7.22 7.59-7.41 12.41z"/><path d="m76.51 333.26c0-27.39-33.51-39.7-51.28-17.43l1.67 1.33c16.57-20.8 47.48-9.12 47.48 16l-8.38-7.08-1.38 1.63 11.47 9.72 8.91-12.29-1.73-1.26zm-.77 1.06-.68-.57h1.09zm-5 11.74 1.79 1.16c-17.37 26.78-56.27 11.4-52.53-18.07l-7.28 8.85-1.65-1.35 9.62-11.76 10.89 10.36-1.47 1.54-8-7.63c-3.69 27.03 32.24 42.15 48.63 16.9z"/><path d="m48.32 361.44a29.7 29.7 0 0 1 -10.07-1.77c-10.42-3.79-20.09-14.26-18.82-29.26l-6.66 8.13-2.25-1.85 10.13-12.38 11.48 10.91-2 2.12-7.75-7.34c-1.5 13.74 7.29 23.4 16.82 26.94 8.93 3.32 22.47 2.41 31.22-11.07l.21-.32 2.44 1.58-.21.33c-6.72 10.35-16.1 13.98-24.54 13.98zm-27.81-33.59-.17 1.35c-1.91 15.27 7.75 25.94 18.18 29.74 9.61 3.51 24.1 2.54 33.47-11.61l-1.13-.73c-9 13.54-22.8 14.43-31.93 11-10-3.71-19.2-14-17.23-28.54l.1-.75 8.29 7.88.93-1-10.3-9.79-9.1 11.12 1 .86zm55.67 10.15-12.09-10.24 1.91-2.23 8 6.78a25.87 25.87 0 0 0 -17.32-24c-10.7-3.75-22-.25-29.45 9.12l-.25.31-2.27-1.82.25-.3c8.26-10.37 20.8-14.22 32.71-10a28.75 28.75 0 0 1 19.24 26.54l6.35-8.75 2.35 1.71zm-11-10.34 10.82 9.2 8.45-11.64-1.09-.79-7.6 10.46-9.73-8.26zm9.58 5.7h1.35v-.1c0-12.41-7.36-23-18.73-27s-23.55-.38-31.61 9.49l1 .84c7.69-9.41 19.17-12.88 30.08-9.06a26.67 26.67 0 0 1 17.86 25.61z"/><path d="m47.45 203.62a33.93 33.93 0 1 0 33.93 33.93 33.93 33.93 0 0 0 -33.93-33.93zm0 1.58a32.35 32.35 0 1 1 -32.35 32.35 32.35 32.35 0 0 1 32.35-32.35zm-.79 15v16.57h-16.57a.79.79 0 1 0 0 1.58h16.57v16.57a.79.79 0 1 0 1.58 0v-16.58h16.57a.79.79 0 1 0 0-1.58h-16.57v-16.57a.79.79 0 1 0 -1.58 0z"/><path d="m47.45 271.86a34.32 34.32 0 1 1 34.32-34.31 34.35 34.35 0 0 1 -34.32 34.31zm0-67.84a33.53 33.53 0 1 0 33.55 33.53 33.57 33.57 0 0 0 -33.55-33.55zm0 66.27a32.74 32.74 0 1 1 32.74-32.74 32.78 32.78 0 0 1 -32.74 32.74zm0-64.7a32 32 0 1 0 32 32 32 32 0 0 0 -32-32zm0 50.5a1.23 1.23 0 0 1 -.62-.17 1.12 1.12 0 0 1 -.56-1v-16.19h-16.18a1.12 1.12 0 0 1 -1.06-.52 1.3 1.3 0 0 1 0-1.32 1.06 1.06 0 0 1 1.1-.52h16.14v-16.17a1.16 1.16 0 0 1 .35-.87 1.17 1.17 0 0 1 1.7 0 1.19 1.19 0 0 1 .31.84v16.17h16.19a1.17 1.17 0 0 1 .83.34 1.18 1.18 0 0 1 -.83 2h-16.19v16.18a1.11 1.11 0 0 1 -.55 1 1.27 1.27 0 0 1 -.63.23zm-.79-18.09h.39v17a.37.37 0 0 0 .17.34.5.5 0 0 0 .46 0 .35.35 0 0 0 .17-.34v-17h17a.41.41 0 0 0 .41-.4.38.38 0 0 0 -.12-.28.39.39 0 0 0 -.28-.12h-17v-17a.4.4 0 0 0 -.11-.3.39.39 0 0 0 -.29-.13.38.38 0 0 0 -.28.12.42.42 0 0 0 -.12.3v17h-17a.34.34 0 0 0 -.4.15.55.55 0 0 0 0 .5.36.36 0 0 0 .37.15z"/><path d="m48.05 110.39a31.68 31.68 0 1 0 31.68 31.68 31.71 31.71 0 0 0 -31.68-31.68zm0 61.47a29.79 29.79 0 1 1 29.79-29.79 29.82 29.82 0 0 1 -29.79 29.79z"/><path d="m48.05 174.14a32.07 32.07 0 1 1 32.07-32.07 32.11 32.11 0 0 1 -32.07 32.07zm0-63.36a31.29 31.29 0 1 0 31.29 31.29 31.33 31.33 0 0 0 -31.29-31.29zm0 61.47a30.18 30.18 0 1 1 30.18-30.18 30.21 30.21 0 0 1 -30.18 30.18zm0-59.58a29.4 29.4 0 1 0 29.4 29.4 29.43 29.43 0 0 0 -29.4-29.4z"/><path d="m45.23 152.63-12.09-11.79a1.18 1.18 0 0 1 1.65-1.69l11.25 11 15.05-15a1.18 1.18 0 0 1 1.66 1.67l-15.87 15.8a1.18 1.18 0 0 1 -1.65.01z"/><path d="m46.05 153.36a1.58 1.58 0 0 1 -1.09-.44l-12.09-11.8a1.5 1.5 0 0 1 -.44-1.47 1.67 1.67 0 0 1 1.16-1.18 1.49 1.49 0 0 1 1.47.4l11 10.72 14.77-14.71a1.54 1.54 0 0 1 1.48-.42 1.67 1.67 0 0 1 1.16 1.17 1.5 1.5 0 0 1 -.43 1.48l-15.88 15.79a1.56 1.56 0 0 1 -1.11.46zm-.55-1a.79.79 0 0 0 1.11 0l15.86-15.8a.7.7 0 0 0 .23-.72.94.94 0 0 0 -.62-.62.73.73 0 0 0 -.71.23l-15.37 15.24-11.48-11.26a.69.69 0 0 0 -.72-.21.9.9 0 0 0 -.61.63.69.69 0 0 0 .23.71z"/></g></svg>