<svg enable-background="new 0 0 200 60" viewBox="0 0 200 60" xmlns="http://www.w3.org/2000/svg"><path d="m35.85 17.12c.85 3.08 3.16 4.61 6.92 4.61 2.42 0 4.25-.82 5.5-2.45l5.11 2.95c-2.42 3.5-5.99 5.25-10.7 5.25-4.06 0-7.31-1.23-9.77-3.68-2.45-2.45-3.68-5.55-3.68-9.28 0-3.7 1.21-6.78 3.63-9.25s5.53-3.71 9.33-3.71c3.6 0 6.57 1.24 8.91 3.73s3.51 5.56 3.51 9.23c0 .82-.08 1.69-.25 2.6zm-.1-4.91h12.52c-.36-1.67-1.11-2.91-2.23-3.73-1.13-.82-2.41-1.23-3.85-1.23-1.7 0-3.11.43-4.22 1.3-1.13.87-1.86 2.09-2.22 3.66z"/><path d="m79.25 2.24v24.54h-6.33v-18.45h-6.77v8.2c0 7.59-3.45 11.01-10.36 10.26v-5.94c1.31.33 2.31.11 2.99-.66.69-.77 1.03-2.1 1.03-4v-13.95z"/><path d="m105.09 23.72c-2.52 2.5-5.6 3.76-9.23 3.76s-6.7-1.25-9.2-3.76c-2.5-2.5-3.76-5.57-3.76-9.2s1.25-6.7 3.76-9.2c2.5-2.5 5.57-3.76 9.2-3.76s6.71 1.25 9.23 3.76c2.52 2.5 3.78 5.57 3.78 9.2s-1.26 6.7-3.78 9.2zm-13.97-4.34c1.26 1.28 2.84 1.91 4.74 1.91s3.49-.64 4.76-1.91c1.28-1.28 1.91-2.9 1.91-4.86s-.64-3.58-1.91-4.86-2.86-1.91-4.76-1.91-3.48.64-4.74 1.91c-1.26 1.28-1.89 2.9-1.89 4.86s.63 3.58 1.89 4.86z"/><path d="m27.59 33.21v-12.36h-3.24v-18.61h-19.24v9.92c0 3.7-.7 6.59-2.11 8.69h-3v12.52h6.19v-6.58h15.21v6.42h-.02v6.09h7.76v18.46h6.33v-18.46h7.66v-6.09zm-9.43-12.36h-8.39c1.01-2.32 1.52-5.22 1.52-8.69v-4.22h6.87z"/><path d="m51.08 48.09c.85 3.08 3.16 4.61 6.92 4.61 2.42 0 4.25-.82 5.5-2.45l5.11 2.95c-2.42 3.5-5.99 5.25-10.7 5.25-4.06 0-7.31-1.23-9.77-3.68-2.45-2.45-3.68-5.55-3.68-9.28 0-3.7 1.21-6.78 3.63-9.25s5.53-3.71 9.33-3.71c3.6 0 6.57 1.24 8.91 3.73s3.51 5.56 3.51 9.23c0 .82-.08 1.69-.25 2.6zm-.1-4.91h12.52c-.36-1.67-1.11-2.91-2.23-3.73-1.13-.82-2.41-1.23-3.85-1.23-1.7 0-3.11.43-4.22 1.3s-1.86 2.09-2.22 3.66z"/><path d="m95.08 57.76h-7.31l-5.3-7.46-5.35 7.46h-7.32l8.98-12.52-8.59-12.03h7.31l4.96 6.92 4.96-6.92h7.27l-8.59 11.98z"/><path d="m113.56 33.21h6.33v24.54h-6.33v-9.33h-9.77v9.33h-6.33v-24.54h6.33v9.28h9.77z"/><path d="m142.73 33.21h4.71v24.54h-6.19v-13.94l-11.54 13.94h-4.71v-24.54h6.19v13.94z"/><path d="m175.19 57.76h-7.36l-8.93-11.14v11.14h-6.33v-24.55h6.33v10.8l8.44-10.8h7.56l-9.87 12.13z"/><path d="m195.29 33.21h4.71v24.54h-6.19v-13.94l-11.54 13.94h-4.71v-24.54h6.19v13.94z"/></svg>