<?xml version="1.0" encoding="UTF-8"?> <!-- Generator: Adobe Illustrator 25.0.1, SVG Export Plug-In . SVG Version: 6.00 Build 0) --> <svg xmlns="http://www.w3.org/2000/svg" xmlns:xlink="http://www.w3.org/1999/xlink" id="Layer_1" x="0px" y="0px" viewBox="0 0 200 60" style="enable-background:new 0 0 200 60;" xml:space="preserve"> <g> <path d="M35.85,17.12c0.85,3.08,3.16,4.61,6.92,4.61c2.42,0,4.25-0.82,5.5-2.45l5.11,2.95c-2.42,3.5-5.99,5.25-10.7,5.25 c-4.06,0-7.31-1.23-9.77-3.68c-2.45-2.45-3.68-5.55-3.68-9.28c0-3.7,1.21-6.78,3.63-9.25c2.42-2.47,5.53-3.71,9.33-3.71 c3.6,0,6.57,1.24,8.91,3.73c2.34,2.49,3.51,5.56,3.51,9.23c0,0.82-0.08,1.69-0.25,2.6H35.85z M35.75,12.21h12.52 c-0.36-1.67-1.11-2.91-2.23-3.73c-1.13-0.82-2.41-1.23-3.85-1.23c-1.7,0-3.11,0.43-4.22,1.3C36.84,9.42,36.11,10.64,35.75,12.21z"></path> <path d="M79.25,2.24v24.54h-6.33V8.33h-6.77v8.2c0,7.59-3.45,11.01-10.36,10.26v-5.94c1.31,0.33,2.31,0.11,2.99-0.66 c0.69-0.77,1.03-2.1,1.03-4V2.24H79.25z"></path> <path d="M105.09,23.72c-2.52,2.5-5.6,3.76-9.23,3.76c-3.63,0-6.7-1.25-9.2-3.76c-2.5-2.5-3.76-5.57-3.76-9.2 c0-3.63,1.25-6.7,3.76-9.2c2.5-2.5,5.57-3.76,9.2-3.76c3.63,0,6.71,1.25,9.23,3.76c2.52,2.5,3.78,5.57,3.78,9.2 C108.87,18.15,107.61,21.22,105.09,23.72z M91.12,19.38c1.26,1.28,2.84,1.91,4.74,1.91s3.49-0.64,4.76-1.91 c1.28-1.28,1.91-2.9,1.91-4.86s-0.64-3.58-1.91-4.86s-2.86-1.91-4.76-1.91s-3.48,0.64-4.74,1.91c-1.26,1.28-1.89,2.9-1.89,4.86 S89.86,18.1,91.12,19.38z"></path> <path d="M27.59,33.21V20.85h-3.24V2.24H5.11v9.92c0,3.7-0.7,6.59-2.11,8.69H0v12.52h6.19v-6.58H21.4v6.42h-0.02v6.09h7.76v18.46 h6.33V39.3h7.66v-6.09H27.59z M18.16,20.85H9.77c1.01-2.32,1.52-5.22,1.52-8.69V7.94h6.87V20.85z"></path> <path d="M51.08,48.09c0.85,3.08,3.16,4.61,6.92,4.61c2.42,0,4.25-0.82,5.5-2.45l5.11,2.95c-2.42,3.5-5.99,5.25-10.7,5.25 c-4.06,0-7.31-1.23-9.77-3.68c-2.45-2.45-3.68-5.55-3.68-9.28c0-3.7,1.21-6.78,3.63-9.25c2.42-2.47,5.53-3.71,9.33-3.71 c3.6,0,6.57,1.24,8.91,3.73c2.34,2.49,3.51,5.56,3.51,9.23c0,0.82-0.08,1.69-0.25,2.6H51.08z M50.98,43.18H63.5 c-0.36-1.67-1.11-2.91-2.23-3.73c-1.13-0.82-2.41-1.23-3.85-1.23c-1.7,0-3.11,0.43-4.22,1.3S51.34,41.61,50.98,43.18z"></path> <path d="M95.08,57.76h-7.31l-5.3-7.46l-5.35,7.46H69.8l8.98-12.52l-8.59-12.03h7.31l4.96,6.92l4.96-6.92h7.27L86.1,45.19 L95.08,57.76z"></path> <path d="M113.56,33.21h6.33v24.54h-6.33v-9.33h-9.77v9.33h-6.33V33.21h6.33v9.28h9.77V33.21z"></path> <path d="M142.73,33.21h4.71v24.54h-6.19V43.81l-11.54,13.94h-4.71V33.21h6.19v13.94L142.73,33.21z"></path> <path d="M175.19,57.76h-7.36l-8.93-11.14v11.14h-6.33V33.21h6.33v10.8l8.44-10.8h7.56l-9.87,12.13L175.19,57.76z"></path> <path d="M195.29,33.21H200v24.54h-6.19V43.81l-11.54,13.94h-4.71V33.21h6.19v13.94L195.29,33.21z"></path> </g> </svg> 