<svg viewBox="0 0 198.43 198.43" xmlns="http://www.w3.org/2000/svg"><path d="m149.35 22c-2.16-.5 4.77-.34-97.34-.34a13.08 13.08 0 0 0 -13.07 13.03v93.86a13.09 13.09 0 0 0 13.06 13.07h23.75v24.86c0 8.44 7.61 12.9 15 8.78l59.41-33.26a19.52 19.52 0 0 0 9.33-15.9v-93.85c0-6.66-4.69-10.71-10.14-10.25zm-64.27 34.73a19.52 19.52 0 0 0 -9.33 15.9v57.42h-23.75c-2.16 0-1.5 5-1.5-95.36 0-2.15-3.28-1.5 76.64-1.5zm62.83 69.37a8.06 8.06 0 0 1 -3.4 5.8l-57.18 32v-91.27a8.06 8.06 0 0 1 3.4-5.8l57.18-32z" fill="#f00"/></svg>