<svg viewBox="0 0 100 100" xmlns="http://www.w3.org/2000/svg"><g fill="none" stroke-linecap="round" stroke-linejoin="round" stroke-width="2"><path d="m44.32 45.45h11.37v11.37h-11.37z" stroke="#eddb12"/><path d="m50 40.26a10.35 10.35 0 0 1 9 5.43 11.28 11.28 0 0 1 0 10.87 10.21 10.21 0 0 1 -18 0 11.28 11.28 0 0 1 0-10.86 10.35 10.35 0 0 1 9-5.44z" stroke="#52bb7f"/><path d="m50 23.22 24.77 42.9h-49.54z" stroke="#f05a25"/><path d="m77.69 67.93-27.69 15.99-27.69-15.99v-31.97l27.69-15.99 27.69 15.99z" stroke="#6dcef5"/><path d="m50 10.12 39.69 30.47-15.16 49.29h-49.06l-15.16-49.29z" stroke="#93278f"/></g></svg>