<svg viewBox="0 0 48.19 48.19" xmlns="http://www.w3.org/2000/svg"><rect fill="#6a97cf" height="45.04" rx="22.52" width="45.04" x="1.63" y="1.57"/><path d="m28.45 23h-8.24a.41.41 0 0 0 -.41.41v6.15c0 3.35 9.06 3.37 9.06 0v-6.14a.41.41 0 0 0 -.41-.42zm-.41.82v2h-7.42v-2zm-7.42 5.74v-3h7.38v3c0 2.24-7.38 2.25-7.38.01zm17-11.56c0-3.67-4.72-4-4.72-7a.48.48 0 0 0 -.9 0c0 3.67 4.72 4 4.72 7 0 2.57-2.45 3-3.06 3a7.87 7.87 0 0 1 -4.61-7c0-4.9-1.7-7.7-4.67-7.7s-4.67 2.8-4.67 7.7a7.78 7.78 0 0 1 -4.61 7c-.54 0-3.1-.4-3.1-3 0-1.46 1-2.24 2.17-3.14s2.55-2 2.55-3.9a.48.48 0 0 0 -1 0c0 1.46-1 2.24-2.17 3.14s-2.55 2-2.55 3.9a4 4 0 0 0 3.66 4c0 14.35-.31 14.57.47 14.57 19.06 0 18.88.3 18.88-.48v-14.09a3.94 3.94 0 0 0 3.61-4zm-13.29-10.64c3 0 3.65 3.73 3.72 6.27h-7.44c.07-2.54.68-6.27 3.72-6.27zm8.72 28.24h-17.44v-13.74a8.92 8.92 0 0 0 5-7.28h7.46a8.92 8.92 0 0 0 5 7.28z" fill="#1d1d1b"/></svg>