<svg viewBox="0 0 48.19 48.19" xmlns="http://www.w3.org/2000/svg"><rect fill="#efa252" height="45.04" rx="22.52" width="45.04" x="1.57" y="1.57"/><g fill="#1d1d1b"><path d="m26.94 40.25c0-1 .74-.83 1.69-.83 0-5.25-.35-6.15.62-6.76a10.57 10.57 0 1 0 -10.27 0c1 .61.62 1.41.62 6.76 1.48 0 1.69 0 1.69 1.24h5.71v-.41zm.86-2.85h-7.41v-.86h7.41zm0-1.69h-7.41v-.82h7.41zm-8.44-3.71a9.63 9.63 0 0 1 -5-8.82 9.74 9.74 0 1 1 14.47 8.82 2 2 0 0 0 -1 2.07h-7.44a2.09 2.09 0 0 0 -1.03-2.07zm6.79 7.87h-4.15a1.51 1.51 0 0 0 -1.64-1.23v-.37h7.44v.37a1.55 1.55 0 0 0 -1.65 1.19z"/><path d="m24.09 15.69a7.76 7.76 0 0 0 -7.74 7.74h.82a6.94 6.94 0 0 1 6.92-6.92z"/><path d="m36.87 23.35h3.71v.82h-3.71z"/><path d="m7.61 23.35h3.71v.82h-3.71z"/><path d="m23.68 6.87h.82v3.71h-.82z"/><path d="m32.61 12.76h3.67v.82h-3.67z" transform="matrix(.70710678 -.70710678 .70710678 .70710678 .77 28.22)"/><path d="m11.89 33.49h3.67v.82h-3.67z" transform="matrix(.70710678 -.70710678 .70710678 .70710678 -19.96 19.63)"/><path d="m13.34 11.35h.82v3.67h-.82z" transform="matrix(.70710678 -.70710678 .70710678 .70710678 -5.29 13.58)"/><path d="m34.04 32.09h.82v3.67h-.82z" transform="matrix(.70710678 -.70710678 .70710678 .70710678 -13.9 34.3)"/></g></svg>