<svg viewBox="0 0 100 100" xmlns="http://www.w3.org/2000/svg"><path d="m85.58 72.21-37.06 21.39-37.05-21.39v-42.79l37.05-21.39 37.06 21.39z" fill="#fff" stroke="#6dcef5" stroke-miterlimit="10"/><g fill="#6dcef5"><path d="m68.87 36.5-.53.45a26.66 26.66 0 0 0 1.54 4.51 8.65 8.65 0 0 0 1.4 2 4.7 4.7 0 0 0 0 .83c.16 3.94 1.86 8.4 5.29 10.6.37.24.76-.33.38-.57-2.56-1.64-3.95-4.41-4.6-7.32a11.43 11.43 0 0 1 -.45-3 5.27 5.27 0 0 0 2.1 1c2.59.58 4.91-2.44 3.13-4.58-.91-1.09-2.61-1-3.74-.4a4.11 4.11 0 0 0 -1.91 2.64 7.48 7.48 0 0 1 -1.19-2c-.56-1.31-1.38-4.15-1.38-4.15zm4 7.34a6.38 6.38 0 0 1 -.84-.65 4 4 0 0 1 .12-.41c.52-1.54 2.41-3.59 4.18-2.16a2 2 0 0 1 -.59 3.46 3.12 3.12 0 0 1 -2.91-.24z"/><path d="m49.31 35.71c-1.58 3.95-.92 8-.8 12.08 0 .36.1.82.1 1.17l.58-.49a74.26 74.26 0 0 1 -.28-8c.29-4 2.22-8.63 6.26-10.12a9 9 0 0 1 6.81.33 14.85 14.85 0 0 1 4.34 3c-6.45 5.61-41 35.65-41.1 35.78-.21.38-.2.45.3.28s44.36-34.26 44.36-34.26 2.05-1.53.67-3-3.19.4-3.19.4l-.5.43a12.84 12.84 0 0 0 -9.45-4c-3.79.2-6.73 2.98-8.1 6.4zm15.57.88 2.2-1.9a6 6 0 0 1 .52.93l.5-.48a6.15 6.15 0 0 0 -.5-.9l1.12-1a.59.59 0 1 1 .77.89l-3.83 3.32a.59.59 0 0 1 -.77-.89z"/><path d="m49 51.9-.64.55a12.11 12.11 0 0 1 -.12 1.26 8.75 8.75 0 0 1 -4.9 7.29c-.39.21-.09.82.29.62 4.08-2.2 5.18-5.79 5.37-9.72z"/><path d="m42.42 50c-.06.13 19.82 16.28 29.6 24.33l.48-.54c-8.38-8.14-24.94-24-27.69-26.42-.67.63-1.61 1.88-2.39 2.63z"/><path d="m25.32 31.39c1 1 2 2.23 3.47 2.65 4.6 1.37 5.07 2.81 7.45 6.41l-1.49 1.68c-4.27-1.2-7.62-5.07-9.73-8.37-1.69-2.69-2.12-5.59-1.93-5.61a24.62 24.62 0 0 0 2.23 3.24z"/><path d="m35.63 43 1.67-1.88c2.59-.35 5.62 3.54 6.55 5.13l-2.44 2.85c-.12.14-5.9-2.75-5.78-6.1z"/></g></svg>