<svg viewBox="0 0 425.2 425.2" xmlns="http://www.w3.org/2000/svg"><path d="m212.6 212.6v-201.26a200.35 200.35 0 0 0 -100.6 26.94z" fill="#f26849"/><path d="m142 38.37 1.17 2.89-1.39.56-3.26-8.11 1.62-.65a2.88 2.88 0 0 1 2.23 0 2.6 2.6 0 0 1 1.54 1.54 2.72 2.72 0 0 1 0 2.2 3 3 0 0 1 -1.64 1.5zm-1.53-3.83 1 2.44.23-.1a1.32 1.32 0 1 0 -1-2.43z" fill="#231f20"/><path d="m148.15 39.27-1.59.56 1.21-9.68 1.59-.56 7 6.79-1.58.56-1.51-1.45-4.87 1.71zm1-7.8-.51 4.07 3.46-1.22z" fill="#231f20"/><path d="m158.57 38-1.43.43-1-3.47h.18c.82-.25.88-1 .36-2.71l-1.36-4.54 4.06-1.22 2.07 6.93 1-.31 1 3.47-1.44.43-.6-2-3.41.99zm-.5-6.23c.13.44.21.77.27 1a2.88 2.88 0 0 1 0 1.54l1.64-.49-1.65-5.5-1.19.36z" fill="#231f20"/><path d="m162.42 30a4.56 4.56 0 1 1 8.33 1.24 4.45 4.45 0 0 1 -2.8 2.08 4.58 4.58 0 0 1 -5.53-3.32zm1.46-.36a3.05 3.05 0 0 0 5.58.83 3 3 0 0 0 .35-2.32 3.06 3.06 0 0 0 -5.93 1.49z" fill="#231f20"/><path d="m179.69 23.19-.81 1.21a3.21 3.21 0 0 0 -2.65-.67 3.06 3.06 0 1 0 1.18 6 3.19 3.19 0 0 0 2.2-1.61l1.2.81a4.53 4.53 0 0 1 -8.46-1.32 4.48 4.48 0 0 1 .65-3.43 4.37 4.37 0 0 1 2.94-1.92 4.44 4.44 0 0 1 3.75.93z" fill="#231f20"/><path d="m180.77 23.09-.23-1.48 4.94-.76.23 1.48-1.73.26 1.1 7.16-1.48.23-1.1-7.16z" fill="#231f20"/><path d="m188.54 23.6h.24a2.88 2.88 0 0 1 2.17.54 2.63 2.63 0 0 1 1.05 1.86 2.69 2.69 0 0 1 -.6 2.11 2.94 2.94 0 0 1 -2 1l-1.74.22-1.06-8.68 1.49-.18zm.18 1.48.32 2.61h.25a1.32 1.32 0 1 0 -.32-2.61z" fill="#231f20"/><rect fill="#f26849" height="46.98" rx="23.09" transform="matrix(.96592583 -.25881905 .25881905 .96592583 -11.39 46.84)" width="46.98" x="148.71" y="43.2"/><path d="m171.92 90.65a23.5 23.5 0 0 1 -22.67-17.39l-.2-.78a23.45 23.45 0 0 1 16.59-28.73l.77-.21a23.49 23.49 0 0 1 28.74 16.59l.21.78a23.45 23.45 0 0 1 -16.59 28.73l-.78.21a23.49 23.49 0 0 1 -6.07.8zm.56-47.16a22.87 22.87 0 0 0 -5.87.77l-.78.21a22.71 22.71 0 0 0 -16.06 27.82l.21.78a22.71 22.71 0 0 0 27.82 16.06l.77-.21a22.74 22.74 0 0 0 16.07-27.82l-.21-.78a22.76 22.76 0 0 0 -21.95-16.83z" fill="#231f20"/><path d="m184.08 55.43-1.64.43a2.8 2.8 0 0 0 -3.63-.71 2.76 2.76 0 0 0 2.87 4.71c1.44-.91 1.52-2.67 1-2.62a.3.3 0 0 0 -.33.34 2.07 2.07 0 0 1 -3.83 1c0-.05-.08-.15-.13-.21.86-.23 2-.33 1.79-1.18l4.09-1.1c.45-.09.22-.77-.19-.66zm-2.37.6-3.47.92a2.07 2.07 0 0 1 3.47-.95z" fill="#231f20"/><path d="m180.19 60.4a2.82 2.82 0 0 1 -2.41-1.46 2.77 2.77 0 0 1 1-3.89 2.91 2.91 0 0 1 3.74.67l1.55-.41a.48.48 0 0 1 .58.35.46.46 0 0 1 -.33.58l-4 1.06a.65.65 0 0 1 -.08.46c-.23.38-.82.52-1.4.65l-.26.06v.05a1.93 1.93 0 0 0 2.2.85 1.87 1.87 0 0 0 1.41-1.8.44.44 0 0 1 .13-.33.4.4 0 0 1 .34-.12.37.37 0 0 1 .37.3 2.56 2.56 0 0 1 -1.3 2.54 3.14 3.14 0 0 1 -1.54.44zm0-5.51a2.58 2.58 0 0 0 -1.34.37 2.63 2.63 0 0 0 2.74 4.49 2.33 2.33 0 0 0 1.19-2.25c0-.09-.07-.13-.13-.13a.27.27 0 0 0 -.17 0 .21.21 0 0 0 0 .15 2.12 2.12 0 0 1 -1.59 2 2.17 2.17 0 0 1 -2.47-.94l-.07-.12v-.08l-.14-.15h.2l.43-.1c.52-.13 1.06-.25 1.24-.54a.5.5 0 0 0 0-.39v-.12l4.15-1.08a.2.2 0 0 0 .15-.26c0-.1-.12-.23-.27-.18l-1.72.46v-.07a2.62 2.62 0 0 0 -2.17-1.06zm-2.16 2.24.06-.21a2.25 2.25 0 0 1 1.59-1.56 2.2 2.2 0 0 1 2.09.58l.15.15zm2.2-1.59a2 2 0 0 0 -1.82 1.23l3-.81a1.92 1.92 0 0 0 -1.15-.42z" fill="#231f20"/><path d="m179 67.14.55-2a.35.35 0 0 0 -.68-.16l-.55 2a.34.34 0 0 0 .26.42.37.37 0 0 0 .42-.26z" fill="#231f20"/><path d="m178.62 67.53h-.1a.54.54 0 0 1 -.31-.24.45.45 0 0 1 0-.34l.55-2a.48.48 0 1 1 .92.24l-.55 2a.52.52 0 0 1 -.51.34zm.55-2.71a.22.22 0 0 0 -.17.18l-.54 2a.22.22 0 0 0 0 .16.24.24 0 0 0 .15.11.25.25 0 0 0 .27-.17l.55-2a.21.21 0 0 0 -.16-.27z" fill="#231f20"/><path d="m177.53 61.77c-3.37-.91-3.82-1.26-4.61-.86a1.3 1.3 0 0 0 .32 2.37c5 1.32 3.61 1.34 7.58.28a.34.34 0 1 0 -.18-.65c-3.86 1-2.45 1-7.26-.27-.83-.17-.44-1.5.31-1.2 4.63 1.25 3 1.23 7.58 0a1.55 1.55 0 0 1 1.91 1.91c-2.1 7.82-.24 6-8.59 8.26a.38.38 0 0 0 -.25.24c-2.11 7.94-.72 7-5.6 5.68 12.52-3.36-12.52 3.35 0 0-.65-.38 1.3-.28 1.12-.93-.12-.47-.8-.14-1.3 0a.89.89 0 0 0 -.61.73c-5.59-1.52-10-2.72-10.16-1a8 8 0 0 0 6.68 6.21c.07 0 8.31-2.19 8.39-2.21a2.73 2.73 0 0 0 1.5-1.07 1.6 1.6 0 0 1 2-.51 2.27 2.27 0 0 0 2.94-.79 1.6 1.6 0 0 1 2.06-.55c.63.33 2 .44 1.87-.22a.31.31 0 0 0 -.41-.24 1.63 1.63 0 0 1 -1.15-.11 2.3 2.3 0 0 0 -3 .78 1.6 1.6 0 0 1 -2.06.56 2.28 2.28 0 0 0 -2.93.71c-.67 1-1.09.78-9.27 3a7.28 7.28 0 0 1 -6-5.47c0-.08.11-.14.15-.11 7.91.17 14.06 4.62 14.79 1.93l1.65-5.89c8.42-2.25 6.68-.5 9-8.71a2.39 2.39 0 0 0 -.22-1.73c-1.13-2.03-3.31-.91-6.25-.14z" fill="#231f20"/><path d="m164.45 82.65a8.12 8.12 0 0 1 -6.78-6.29.83.83 0 0 1 .36-.67c1.16-.83 5 .2 9.83 1.51a1 1 0 0 1 .67-.69l.29-.08a1.34 1.34 0 0 1 1-.1.42.42 0 0 1 .2.28c.13.46-.48.63-.89.73l3.23-.86c.12 0 .13 0 .15.08s0 .08-.1.13l-3.17.85 1.25.38c1 .32 1.53.49 1.86.3s.61-1.11 1-2.85c.21-.93.48-2.08.87-3.54a.49.49 0 0 1 .34-.33c1.31-.35 2.37-.6 3.22-.8 3.72-.89 3.72-.89 4.53-4.37.19-.8.42-1.79.75-3a1.34 1.34 0 0 0 -.3-1.34 1.47 1.47 0 0 0 -1.46-.42l-1.78.5c-2 .58-2.06.58-4.17 0l-1.69-.47a.38.38 0 0 0 -.43 0 .63.63 0 0 0 -.17.6.42.42 0 0 0 .35.31l1.89.52c2.17.62 2.17.62 4.06.09l1.25-.35a.46.46 0 0 1 .57.33.49.49 0 0 1 0 .34.47.47 0 0 1 -.3.23l-1.22.34c-2 .57-2.09.57-4.42-.08-.53-.15-1.18-.33-2-.54a1.43 1.43 0 0 1 -.36-2.6c.65-.32 1.08-.19 2.69.28.52.15 1.17.34 2 .56.47-.12.92-.25 1.34-.38 2.25-.67 4-1.2 4.95.59a2.5 2.5 0 0 1 .23 1.82c-.33 1.17-.57 2.15-.77 2.93-1 4.06-1.07 4.11-5.16 5.09-.82.2-1.83.44-3.05.77l-1.54 5.78a1.13 1.13 0 0 1 -.57.77c-.87.48-2.52 0-4.8-.72l-.81-.25-2.19.59c-.13 0-.14 0-.15-.07s0-.09.09-.14l1.8-.49a31.46 31.46 0 0 0 -8.28-1.49 7.15 7.15 0 0 0 5.87 5.33c2.14-.57 3.77-1 5-1.29 3.39-.87 3.75-1 4.22-1.63a2.41 2.41 0 0 1 3.09-.75 1.49 1.49 0 0 0 1.9-.51 2.42 2.42 0 0 1 3.1-.84 1.47 1.47 0 0 0 1.07.11.44.44 0 0 1 .57.33.42.42 0 0 1 -.15.47 2.24 2.24 0 0 1 -1.9-.11 1.49 1.49 0 0 0 -1.9.51 2.4 2.4 0 0 1 -3.11.83 1.49 1.49 0 0 0 -1.88.47 2.81 2.81 0 0 1 -1.57 1.12h-.07c-7.25 1.92-8.26 2.17-8.45 2.18zm-6.53-6.34a7.88 7.88 0 0 0 6.56 6.1c.31 0 4.64-1.21 8.28-2.19h.07a2.62 2.62 0 0 0 1.43-1 1.74 1.74 0 0 1 2.2-.55 2.17 2.17 0 0 0 2.78-.75 1.73 1.73 0 0 1 2.22-.59 2.09 2.09 0 0 0 1.64.13.17.17 0 0 0 .05-.21.19.19 0 0 0 -.26-.15 1.76 1.76 0 0 1 -1.24-.12 2.16 2.16 0 0 0 -2.78.74 1.75 1.75 0 0 1 -2.23.6 2.17 2.17 0 0 0 -2.77.67c-.52.75-.88.84-4.36 1.73-1.2.3-5 1.3-5 1.3a7.43 7.43 0 0 1 -6.13-5.56.19.19 0 0 1 .09-.21.25.25 0 0 1 .2-.06 32.64 32.64 0 0 1 8.72 1.62l1.14-.31a.13.13 0 0 1 0-.09c0-.17.22-.22.53-.31s.77-.22.72-.43a.17.17 0 0 0 -.08-.12c-.15-.08-.48 0-.77.11l-.3.1a.76.76 0 0 0 -.52.62v.14h-.13c-4.46-1.21-8.67-2.35-9.75-1.59a.58.58 0 0 0 -.31.38zm9.89 1.6.42.13c2.14.65 3.84 1.17 4.61.75a1 1 0 0 0 .45-.62l1.57-5.92h.07c1.26-.33 2.29-.58 3.13-.78 4-1 4-1 5-4.91.2-.79.44-1.77.77-2.93a2.27 2.27 0 0 0 -.23-1.63c-.84-1.61-2.44-1.13-4.66-.47-.43.13-.89.27-1.37.4l-2.06-.58c-1.57-.46-1.95-.57-2.5-.3a1.18 1.18 0 0 0 .3 2.14c.82.21 1.48.39 2 .54 2.29.64 2.29.64 4.28.08l1.23-.34a.22.22 0 0 0 .14-.11.25.25 0 0 0 0-.15.2.2 0 0 0 -.27-.15l-1.24.34c-1.94.55-2 .55-4.2-.08l-1.88-.53a.65.65 0 0 1 -.53-.49.85.85 0 0 1 .25-.84.63.63 0 0 1 .67-.11c.68.18 1.23.34 1.68.47 2.06.6 2.06.6 4 0l1.79-.5a1.67 1.67 0 0 1 1.7.5 1.55 1.55 0 0 1 .36 1.57c-.32 1.2-.55 2.19-.74 3-.85 3.61-.89 3.65-4.72 4.56-.85.2-1.91.45-3.21.8a.23.23 0 0 0 -.17.16c-.38 1.45-.65 2.6-.87 3.52-.45 1.93-.63 2.73-1.14 3s-1 0-2.06-.28c-.44-.14-1-.31-1.65-.49z" fill="#231f20"/><path d="m171.6 59.12-4.22 15.69-2-7.6a.34.34 0 1 0 -.66.18l2.37 8.84a.36.36 0 0 0 .32.26c.46-.12 4.75-16.7 4.87-17.16s-.55-.67-.68-.21z" fill="#231f20"/><path d="m167.38 76.62a.47.47 0 0 1 -.41-.35l-2.37-8.84a.47.47 0 0 1 .9-.24l1.91 7.14 4.1-15.23a.44.44 0 0 1 .54-.35.5.5 0 0 1 .35.62l-.11.41c-4.36 16.71-4.7 16.8-4.85 16.84zm-2.38-9.54a.21.21 0 0 0 -.15.27l2.37 8.83a.23.23 0 0 0 .16.16c.37-.62 2.11-6.79 4.68-16.64l.11-.41c0-.18-.06-.29-.17-.31s-.2 0-.24.17l-4.34 16.13-2.15-8a.21.21 0 0 0 -.27-.2z" fill="#231f20"/><path d="m172.39 64a9.79 9.79 0 0 1 -1.12 1.6.32.32 0 0 0 .32.54c.31-.08 1.21-1.55 1.37-1.84a.32.32 0 1 0 -.57-.3z" fill="#231f20"/><path d="m171.5 66.31a.43.43 0 0 1 -.38-.22.45.45 0 0 1 .06-.55 9.49 9.49 0 0 0 1.1-1.57.45.45 0 1 1 .79.42s-1 1.79-1.45 1.9zm1-2.22a10.06 10.06 0 0 1 -1.13 1.62.21.21 0 0 0 0 .26.17.17 0 0 0 .22.08 7.59 7.59 0 0 0 1.29-1.78.18.18 0 0 0 -.07-.27.19.19 0 0 0 -.31.09z" fill="#231f20"/><path d="m163.94 62.36 7.68-13.24 2.39-.64c.27 1.27.11 1.52-1.69 8a.35.35 0 0 0 .68.17c2.95-10.64 2.35-9.22-1.66-8.15-.2.06-7.87 13.36-8 13.54a.34.34 0 0 0 .12.46.32.32 0 0 0 .48-.14z" fill="#231f20"/><path d="m163.66 62.66a.53.53 0 0 1 -.24-.06.5.5 0 0 1 -.22-.28.48.48 0 0 1 .05-.35l.08-.14c7.74-13.4 7.9-13.44 8-13.46.45-.12.86-.25 1.22-.36 1.09-.33 1.81-.55 2.19-.18.62.6.12 2.66-1.6 8.84a.45.45 0 0 1 -.58.34.46.46 0 0 1 -.34-.57c.23-.8.42-1.51.6-2.14 1.17-4.18 1.31-4.68 1.11-5.67l-2.21.6-7.65 13.2a.46.46 0 0 1 -.41.23zm7.75-14.06c-.37.45-4.28 7.16-7.86 13.35l-.08.14a.23.23 0 0 0 0 .16.28.28 0 0 0 .11.13.19.19 0 0 0 .28-.08l7.68-13.3 2.56-.69v.13c.24 1.14.14 1.51-1.09 5.92l-.6 2.13a.22.22 0 0 0 .17.27.21.21 0 0 0 .27-.16c1.59-5.72 2.18-8.1 1.66-8.6-.27-.27-1 0-1.94.24z" fill="#231f20"/><path d="m170.56 76.87c-.12.43.53.6.68.16 2.21-8.21.38-6.31 8.49-8.48a.34.34 0 1 0 -.17-.65l-5.83 1.56c-1.62.36-1.52 1.48-3.17 7.41z" fill="#231f20"/><path d="m170.9 77.41a.39.39 0 0 1 -.15 0 .44.44 0 0 1 -.31-.56l.82-3c.87-3.34 1.08-4.14 2.45-4.45l5.82-1.56a.46.46 0 0 1 .57.33.49.49 0 0 1 0 .34.47.47 0 0 1 -.3.23c-1.31.35-2.37.6-3.21.79-3.55.83-3.55.83-4.42 4.5-.2.82-.44 1.85-.78 3.11a.47.47 0 0 1 -.49.27zm-.22-.51a.19.19 0 0 0 .14.25.23.23 0 0 0 .3-.16c.34-1.24.58-2.27.78-3.09.9-3.78.94-3.83 4.6-4.68.84-.2 1.9-.44 3.2-.79a.19.19 0 0 0 .14-.1.23.23 0 0 0 0-.16.22.22 0 0 0 -.09-.13.19.19 0 0 0 -.18 0l-5.82 1.56c-1.23.27-1.41 1-2.27 4.26-.19.81-.8 3.04-.8 3.04z" fill="#231f20"/><path d="m164.33 70.75c-2.53-9.46 9-15.56 9.23-11a.34.34 0 0 0 .67 0c-.28-6-13.32.82-10.55 11.14a.34.34 0 1 0 .65-.14z" fill="#231f20"/><path d="m164 71.3h-.13a.48.48 0 0 1 -.32-.33 11.16 11.16 0 0 1 3.61-11.35c2.08-1.8 4.45-2.59 5.9-2a2.23 2.23 0 0 1 1.29 2.14.4.4 0 0 1 -.2.38.49.49 0 0 1 -.48 0 .44.44 0 0 1 -.23-.4 1.35 1.35 0 0 0 -.78-1.3c-1.1-.48-3.09.26-4.86 1.78a10.25 10.25 0 0 0 -3.35 10.45.42.42 0 0 1 -.11.44.49.49 0 0 1 -.34.19zm8-13.62a7.82 7.82 0 0 0 -4.64 2.12 10.89 10.89 0 0 0 -3.52 11.09.21.21 0 0 0 .14.16.24.24 0 0 0 .22-.06.2.2 0 0 0 .05-.21 10.5 10.5 0 0 1 3.43-10.7c1.83-1.58 3.94-2.33 5.12-1.82a1.59 1.59 0 0 1 .93 1.52.19.19 0 0 0 .1.19.24.24 0 0 0 .23 0 .17.17 0 0 0 .08-.16 2 2 0 0 0 -1.14-1.94 2.44 2.44 0 0 0 -1-.19z" fill="#231f20"/><path d="m112 38.28a202.2 202.2 0 0 0 -73.72 73.72l174.32 100.6z" fill="#f06faa"/><path d="m55.99 114.5-.8 1.27-7.38-4.67 2.67-4.22 7.38 4.67-.8 1.26-6.11-3.86-1.07 1.68z" fill="#231f20"/><path d="m56.68 107.52 2.58 1.75-.84 1.24-7.23-4.91 1-1.44a2.85 2.85 0 0 1 1.81-1.28 2.63 2.63 0 0 1 2.14.43 2.68 2.68 0 0 1 1.2 1.83 3 3 0 0 1 -.52 2.17zm-3.41-2.32 2.17 1.48.14-.21a1.32 1.32 0 1 0 -2.17-1.47z" fill="#231f20"/><path d="m56.99 97.32 1.21.88-1.53 2.13 1.72 1.24 1.46-2.02 1.21.88-1.46 2.02 1.72 1.24 1.54-2.12 1.21.88-2.42 3.33-7.07-5.12z" fill="#231f20"/><path d="m67.06 102-.92 1.18-2.86-2.18.12-.14c.52-.68.16-1.29-1.29-2.42l-3.74-2.9 2.63-3.39 5.71 4.43.65-.84 2.83 2.26-.92 1.18-1.67-1.3-2.22 2.86zm-4-4.78c.37.28.62.5.79.65a2.89 2.89 0 0 1 .9 1.24l1-1.35-4.54-3.51-.76 1z" fill="#231f20"/><path d="m68.55 85.3.12 1.44a3.2 3.2 0 0 0 -2.49 1.14 2.94 2.94 0 0 0 -.74 2.25 3.16 3.16 0 0 0 3.31 2.8 2.94 2.94 0 0 0 2.1-1.1 3.18 3.18 0 0 0 .71-2.64l1.44-.12a4.45 4.45 0 0 1 -1 3.73 4.37 4.37 0 0 1 -3.11 1.63 4.68 4.68 0 0 1 -4.94-4.18 4.61 4.61 0 0 1 4.61-5z" fill="#231f20"/><path d="m69.34 84.53-1.11-1.01 3.38-3.68 1.1 1.01-1.18 1.29 5.33 4.89-1.01 1.1-5.33-4.89z" fill="#231f20"/><path d="m79.46 84.24-1.19 1.18-3.09-9.26 1.2-1.16 9.26 3.1-1.19 1.19-2-.66-3.65 3.62zm-2.46-7.48 1.29 3.9 2.6-2.59z" fill="#231f20"/><path d="m85.75 72a2.34 2.34 0 0 1 2.16.79 2.25 2.25 0 0 1 .62 1.81 2.66 2.66 0 0 1 -.91 1.76l-1.47 1.35-5.89-6.45 1.47-1.35a2.49 2.49 0 0 1 1.76-.7 2.16 2.16 0 0 1 1.67.75 2.29 2.29 0 0 1 .59 2.04zm-2 .84.37-.34a1 1 0 0 0 .05-1.42 1 1 0 0 0 -1.43-.08l-.36.34zm1 1.1 1.5 1.65.37-.33a1.11 1.11 0 0 0 .08-1.58 1.15 1.15 0 0 0 -1.56-.1z" fill="#231f20"/><path d="m89.14 73 .21-.13c.3-.26.32-.64.06-1.12a13.51 13.51 0 0 0 -1.62-2.19l-2.47-2.89 3.22-2.76 5.67 6.64-1.14 1-4.73-5.55-1 .85 1.58 1.86a10.89 10.89 0 0 1 2.08 3.12 1.64 1.64 0 0 1 -.48 2 2.19 2.19 0 0 1 -.45.32z" fill="#231f20"/><path d="m92.88 60.41.94 1.17-2.04 1.64 1.32 1.66 1.95-1.57.94 1.17-1.95 1.56 1.33 1.66 2.04-1.64.94 1.17-3.22 2.58-5.46-6.82z" fill="#231f20"/><path d="m106.14 61.4-1.2.88-2.14-2.91-4.52 3.33 2.14 2.91-1.2.89-5.18-7.02 1.2-.89 2.15 2.91 4.52-3.33-2.15-2.91 1.21-.89z" fill="#231f20"/><path d="m111.2 58-1.24.84-2.79-4.14 1.18 5.22-1.24.84-4.88-7.24 1.24-.84 2.79 4.14-1.18-5.22 1.24-.83z" fill="#231f20"/><path d="m111.04 47.77.8 1.27-2.22 1.39 1.13 1.8 2.11-1.33.8 1.26-2.11 1.33 1.13 1.8 2.22-1.4.79 1.27-3.48 2.19-4.65-7.38z" fill="#231f20"/><path d="m104.24 84.41a23.49 23.49 0 1 1 -23.49 23.49 23.49 23.49 0 0 1 23.49-23.49z" fill="#f06faa"/><path d="m104.24 131.77a23.87 23.87 0 1 1 23.87-23.87 23.9 23.9 0 0 1 -23.87 23.87zm0-47a23.12 23.12 0 1 0 23.12 23.11 23.14 23.14 0 0 0 -23.12-23.09z" fill="#231f20"/><path d="m101 97.08c0-3.7-5.6-3.7-5.6 0s5.6 3.7 5.6 0zm-.7 0a2.1 2.1 0 0 1 -4.2 0 2.1 2.1 0 0 1 4.16 0z" fill="#231f20"/><path d="m98.16 100a2.94 2.94 0 0 1 -2-5.08 3.05 3.05 0 0 1 2-.72 2.9 2.9 0 1 1 0 5.8zm0-5.55a2.55 2.55 0 1 0 1.84.66 2.77 2.77 0 0 0 -1.84-.68zm0 4.86a2.21 2.21 0 1 1 2.22-2.21 2.13 2.13 0 0 1 -2.22 2.19zm0-4.17a1.88 1.88 0 1 0 1.36.49 2.08 2.08 0 0 0 -1.36-.51z" fill="#231f20"/><path d="m104.87 101.23c.31-.29 4.32-4.31 4.55-4.54l-.5-.49-4.54 4.54c-.93.84-1.53.33-9.83.54-1.92 0-2.72 2.47-1.25 4l6 6 .5-.49-6-6a2.05 2.05 0 0 1 -.54-1.4c0-1.85 1.5-1.4 9.72-1.4a2.7 2.7 0 0 0 1.89-.76z" fill="#231f20"/><path d="m99.33 111.48-6.12-6.12a2.67 2.67 0 0 1 -.6-2.86 2.11 2.11 0 0 1 1.94-1.35c3.08-.07 5.12-.05 6.47 0 2.31 0 2.73 0 3.28-.46l4.62-4.69.67.67s-4.39 4.4-4.63 4.63a2.79 2.79 0 0 1 -2 .78c-1.54 0-2.82 0-4 0-3.34 0-4.87 0-5.39.46a1.11 1.11 0 0 0 -.26.85 1.94 1.94 0 0 0 .51 1.31l6.11 6.12zm-.54-10.13c-1.13 0-2.52 0-4.23.05a1.86 1.86 0 0 0 -1.72 1.2 2.39 2.39 0 0 0 .55 2.58l5.94 5.94.32-.31-5.94-5.94a2.27 2.27 0 0 1 -.58-1.49 1.36 1.36 0 0 1 .34-1c.59-.59 2-.57 5.56-.53h4a2.59 2.59 0 0 0 1.81-.71l4.45-4.45-.32-.32-4.45 4.46c-.63.56-1.12.55-3.46.53z" fill="#231f20"/><path d="m103.75 99.12a1.86 1.86 0 0 0 .63-.39l.07-.07v-3.66h12.6v8.4h-13.29v.7h14v-9.8h-14z" fill="#231f20"/><path d="m117.88 104.2h-14.25v-1h13.3v-8.1h-12.35v3.61l-.11.11a2.36 2.36 0 0 1 -.67.42l-.17.06v-5.14h14.25zm-14-.25h13.75v-9.54h-13.75v4.52a2.42 2.42 0 0 0 .42-.29v-3.79h12.85v8.65h-13.3z" fill="#231f20"/><path d="m101.66 120.87h.7v-11.89l-.7.7z" fill="#231f20"/><path d="m102.48 121h-1v-11.38l1-1zm-.7-.25h.45v-11.47l-.45.45z" fill="#231f20"/><path d="m98.51 120.87h.7v-8.4l-.7-.69z" fill="#231f20"/><path d="m99.33 121h-1v-9.53l1 1zm-.7-.25h.45v-8.22l-.45-.45z" fill="#231f20"/><path d="m95.36 120.87h.7v-11.19l-.7-.7z" fill="#231f20"/><path d="m96.18 121h-1v-12.33l1 1zm-.7-.25h.45v-11l-.45-.45z" fill="#231f20"/><path d="m212.6 212.6-174.32-100.6a200.35 200.35 0 0 0 -26.94 100.6z" fill="#ed8dba"/><path d="m27.94 202.67-.09 1.5-8.72-.53.3-4.99 8.72.53-.09 1.5-7.22-.44-.13 1.99z" fill="#231f20"/><path d="m25.31 196.24 3.11.29-.14 1.47-8.69-.8.16-1.74a2.89 2.89 0 0 1 1-2 2.63 2.63 0 0 1 2.08-.66 2.68 2.68 0 0 1 1.94 1 3 3 0 0 1 .59 2.15zm-4.09-.37 2.6.24v-.25a1.32 1.32 0 1 0 -2.61-.24z" fill="#231f20"/><path d="m24.44 191.88a4.55 4.55 0 1 1 4.24-7.27 4.56 4.56 0 0 1 -4.24 7.27zm.2-1.48a3 3 0 0 0 2.26-.6 2.93 2.93 0 0 0 1.18-2 2.89 2.89 0 0 0 -.6-2.26 2.93 2.93 0 0 0 -2-1.18 3 3 0 0 0 -2.26.6 3 3 0 0 0 -.58 4.28 3 3 0 0 0 2 1.16z" fill="#231f20"/><path d="m31.07 177.58-.27 1.47-4.91-.88 4.57 2.79-.26 1.47-8.6-1.54.26-1.48 4.91.88-4.57-2.78.27-1.48z" fill="#231f20"/><path d="m28.72 174.6.37.07a1.22 1.22 0 0 0 .51-2.38 1.2 1.2 0 0 0 -1.48 1.07l-.12.64-1.46-.31.13-.62a1.09 1.09 0 1 0 -2.11-.57 1.07 1.07 0 0 0 .85 1.29l.24.05-.31 1.46-.25-.05a2.45 2.45 0 0 1 -2-3.07 2.6 2.6 0 0 1 1.09-1.68 2.41 2.41 0 0 1 1.93-.33 2.25 2.25 0 0 1 1.63 1.37 2.3 2.3 0 0 1 2.24-.67 2.55 2.55 0 0 1 1.7 1.13 2.71 2.71 0 0 1 -2.9 4.15l-.37-.08z" fill="#231f20"/><path d="m29.11 165.79a2.41 2.41 0 0 1 2.25-.54 2.26 2.26 0 0 1 1.52 1.16 2.63 2.63 0 0 1 .22 2l-.48 1.94-8.48-2.09.48-1.94a2.49 2.49 0 0 1 1.07-1.56 2.13 2.13 0 0 1 1.81-.3 2.26 2.26 0 0 1 1.61 1.33zm-1.2 1.82.12-.48a1 1 0 0 0 -.75-1.21 1 1 0 0 0 -1.2.73l-.12.48zm1.45.36 2.17.54.12-.48a1.12 1.12 0 0 0 -.81-1.36 1.15 1.15 0 0 0 -1.35.78z" fill="#231f20"/><path d="m26.7 158.52 1.44.4-.7 2.53 2.04.57.67-2.41 1.44.4-.67 2.41 2.04.57.71-2.53 1.44.41-1.11 3.96-8.41-2.34z" fill="#231f20"/><path d="m37.76 159.42-.45 1.43-3.45-1.08v-.18c.26-.82-.29-1.27-2-1.82l-4.53-1.43 1.28-4 6.9 2.17.32-1 3.45 1.08-.44 1.41-2-.64-1.09 3.46zm-5.44-3.08 1 .33a2.94 2.94 0 0 1 1.27.86l.51-1.63-5.47-1.73-.38 1.2z" fill="#231f20"/><path d="m30.67 146.37 1.41.5-.87 2.47 2 .7.83-2.35 1.41.5-.82 2.35 2 .71.87-2.48 1.41.5-1.37 3.89-8.24-2.9z" fill="#231f20"/><path d="m42.46 140.16-.56 1.4-3.36-1.34-2.08 5.22 3.37 1.34-.56 1.39-8.12-3.23.56-1.4 3.36 1.34 2.08-5.22-3.37-1.34.56-1.39z" fill="#231f20"/><path d="m44.97 134.6-.62 1.37-4.55-2.04 3.76 3.8-.61 1.37-7.97-3.57.61-1.37 4.56 2.04-3.77-3.8.62-1.37z" fill="#231f20"/><path d="m39.41 126.02 1.35.65-1.15 2.36 1.91.93 1.09-2.25 1.35.66-1.09 2.24 1.9.92 1.15-2.35 1.35.65-1.8 3.7-7.86-3.81z" fill="#231f20"/><path d="m66.37 149a23.49 23.49 0 1 1 -23.49 23.49 23.49 23.49 0 0 1 23.49-23.49z" fill="#ed8dba"/><path d="m66.37 196.32a23.87 23.87 0 1 1 23.86-23.87 23.9 23.9 0 0 1 -23.86 23.87zm0-47a23.12 23.12 0 1 0 23.11 23.12 23.14 23.14 0 0 0 -23.11-23.11z" fill="#231f20"/><path d="m66.53 156.46a15.72 15.72 0 1 0 15.72 15.71 15.73 15.73 0 0 0 -15.72-15.71zm0 30.49a14.78 14.78 0 1 1 14.78-14.78 14.79 14.79 0 0 1 -14.78 14.83z" fill="#231f20"/><path d="m66.53 188a15.84 15.84 0 1 1 15.84-15.84 15.86 15.86 0 0 1 -15.84 15.84zm0-31.42a15.59 15.59 0 1 0 15.59 15.58 15.61 15.61 0 0 0 -15.59-15.57zm0 30.48a14.9 14.9 0 1 1 14.9-14.9 14.92 14.92 0 0 1 -14.9 14.91zm0-29.54a14.65 14.65 0 1 0 14.65 14.64 14.67 14.67 0 0 0 -14.65-14.63z" fill="#231f20"/><path d="m65.13 177.41-6-5.85a.58.58 0 1 1 .81-.83l5.58 5.45 7.48-7.43a.58.58 0 0 1 .82.82l-7.82 7.84a.58.58 0 0 1 -.87 0z" fill="#231f20"/><path d="m65.54 177.7a.69.69 0 0 1 -.5-.2l-6-5.85a.67.67 0 0 1 -.2-.66.74.74 0 0 1 .53-.54.7.7 0 0 1 .66.19l5.5 5.36 7.38-7.34a.65.65 0 0 1 .66-.19.76.76 0 0 1 .54.53.67.67 0 0 1 -.2.66l-7.91 7.84a.74.74 0 0 1 -.46.2zm-.32-.38a.45.45 0 0 0 .64 0l7.87-7.84a.4.4 0 0 0 .13-.42.5.5 0 0 0 -.35-.35.42.42 0 0 0 -.42.12l-7.55 7.52-5.68-5.53a.4.4 0 0 0 -.42-.13.53.53 0 0 0 -.35.36.41.41 0 0 0 .14.42z" fill="#231f20"/><path d="m11.34 212.6a200.31 200.31 0 0 0 26.94 100.64l174.32-100.64z" fill="#967eba"/><path d="m22.13 231.22.17 1.47-.43.05a.78.78 0 0 0 -.7.88.7.7 0 0 0 .46.56l.6.28 5.77-5.46.21 1.82-4.54 4.28 5.33 2.44.19 1.7-8.19-3.74a2 2 0 0 1 -1.29-1.7 2.14 2.14 0 0 1 .47-1.69 2.23 2.23 0 0 1 1.53-.84z" fill="#231f20"/><path d="m22.18 240.7a1 1 0 0 0 0 .25c.07.39.37.6.91.62a13.2 13.2 0 0 0 2.68-.25l3.7-.6.67 4.13-8.49 1.38-.24-1.46 7.1-1.15-.21-1.27-2.36.38a10.81 10.81 0 0 1 -3.72.14 1.6 1.6 0 0 1 -1.4-1.4 2.5 2.5 0 0 1 0-.54z" fill="#231f20"/><path d="m24.57 248.28.3 1.45-.42.09a.79.79 0 0 0 -.62.94.71.71 0 0 0 .51.51l.63.22 5.25-5.93.37 1.8-4.13 4.64 5.54 2 .35 1.68-8.5-3a2 2 0 0 1 -1.44-1.58 2.17 2.17 0 0 1 .31-1.73 2.26 2.26 0 0 1 1.45-1z" fill="#231f20"/><path d="m25.34 262.85-.34-1.44 3-.77a1.82 1.82 0 0 1 -.7-1.09c-.32-1.25.44-2.14 1.77-2.48l3.46-.89.36 1.43-3.33.86c-.59.15-.88.55-.74 1.07a.85.85 0 0 0 1.13.6l3.37-.86.37 1.43z" fill="#231f20"/><path d="m33.95 261.77.42 1.41-6.84 2.04.39 1.3 6.84-2.04.42 1.42-6.84 2.03.38 1.3 6.84-2.04.42 1.42-8.25 2.45-2.03-6.83z" fill="#231f20"/><path d="m37.64 273.5-1.4.47-.83-2.45-1.98.67.79 2.33-1.4.47-.79-2.33-1.98.67.83 2.44-1.4.48-1.3-3.85 8.16-2.75z" fill="#231f20"/><path d="m32.95 285.56-.52-1.38 3.33-1.28-1.98-5.17-3.33 1.27-.53-1.37 8.05-3.08.53 1.38-3.34 1.27 1.98 5.18 3.33-1.28.53 1.38z" fill="#231f20"/><path d="m35.46 291.34-.58-1.35 4.52-1.95-5.28.2-.59-1.36 7.92-3.41.58 1.35-4.52 1.95 5.28-.2.58 1.36z" fill="#231f20"/><path d="m45.55 292.62-1.34.63-1.09-2.34-1.9.89 1.05 2.22-1.34.63-1.05-2.23-1.89.89 1.1 2.34-1.34.62-1.72-3.68 7.8-3.65z" fill="#231f20"/><circle cx="67.76" cy="251.42" fill="#967eba" r="23.49" transform="matrix(.70710678 -.70710678 .70710678 .70710678 -157.94 121.55)"/><path d="m67.76 275.29a23.87 23.87 0 1 1 23.86-23.87 23.9 23.9 0 0 1 -23.86 23.87zm0-47a23.12 23.12 0 1 0 23.11 23.12 23.14 23.14 0 0 0 -23.11-23.11z" fill="#231f20"/><path d="m67.62 234.14a16.83 16.83 0 1 0 16.83 16.86 16.83 16.83 0 0 0 -16.83-16.86zm0 .78a16 16 0 1 1 -16 16 16 16 0 0 1 16-16zm-.39 7.44v8.21h-8.23a.4.4 0 1 0 0 .79h8.22v8.21a.39.39 0 1 0 .78 0v-8.21h8.22a.4.4 0 1 0 0-.79h-8.22v-8.21a.39.39 0 1 0 -.78 0z" fill="#231f20"/><path d="m67.62 267.91a17 17 0 1 1 16.95-17 17 17 0 0 1 -16.95 17zm0-33.65a16.7 16.7 0 1 0 16.7 16.74 16.72 16.72 0 0 0 -16.7-16.74zm0 32.87a16.17 16.17 0 1 1 16.17-16.13 16.19 16.19 0 0 1 -16.17 16.13zm0-32.08a15.92 15.92 0 1 0 15.92 15.95 15.93 15.93 0 0 0 -15.92-15.95zm0 25a.52.52 0 0 1 -.27-.07.48.48 0 0 1 -.24-.45v-8.09h-8.11a.49.49 0 0 1 -.47-.22.62.62 0 0 1 0-.59.5.5 0 0 1 .49-.22h8.08v-8.09a.5.5 0 0 1 .15-.38.45.45 0 0 1 .38-.15.48.48 0 0 1 .37.21.55.55 0 0 1 .14.37v8.09h8.1a.51.51 0 0 1 .36.15.52.52 0 0 1 -.36.88h-8.1v8.09a.52.52 0 0 1 -.24.45.55.55 0 0 1 -.28.06zm-.39-8.86h.13v8.34a.22.22 0 0 0 .11.23.32.32 0 0 0 .3 0 .22.22 0 0 0 .12-.22v-8.35h8.34a.27.27 0 0 0 .27-.26.24.24 0 0 0 -.08-.19.25.25 0 0 0 -.18-.08h-8.35v-8.34a.26.26 0 0 0 -.26-.28.25.25 0 0 0 -.2.07.26.26 0 0 0 -.07.2v8.35h-8.36a.24.24 0 0 0 -.25.1.31.31 0 0 0 0 .32.22.22 0 0 0 .24.11z" fill="#231f20"/><path d="m212.6 212.6-174.32 100.64a202.23 202.23 0 0 0 73.72 73.68z" fill="#8e91c7"/><path d="m59.13 331.07-1-1.3 9.41-2 1 1.3-4 8.74-1-1.29.86-1.88-3.18-4zm7.59-1.62-4 .84 2.28 2.83z" fill="#231f20"/><path d="m70.81 344.88-.99-1.11 2.67-2.37-3.68-4.13-2.67 2.37-.98-1.1 6.43-5.73.98 1.11-2.66 2.37 3.68 4.13 2.66-2.37.98 1.1z" fill="#231f20"/><path d="m72.67 346.83-1.17-1.18 9.14-3 1.17 1.18-3.07 9.13-1.17-1.17.65-2-3.59-3.62zm7.33-2.43-3.84 1.26 2.55 2.57z" fill="#231f20"/><path d="m80.15 352.26a.7.7 0 0 0 .15.19c.29.27.66.25 1.1-.07a13.63 13.63 0 0 0 2-1.84l2.54-2.76 3.06 2.83-5.83 6.33-1.09-1 4.88-5.29-1-.87-1.63 1.76a11 11 0 0 1 -2.81 2.46 1.62 1.62 0 0 1 -2-.25 2.71 2.71 0 0 1 -.36-.4z" fill="#231f20"/><path d="m87.86 361.04-1.12-.97 3.22-3.73-4.66 2.49-1.12-.97 5.62-6.53 1.12.97-3.21 3.73 4.66-2.48 1.12.96z" fill="#231f20"/><path d="m91.69 360.49-.23.29a1.2 1.2 0 0 0 1.87 1.51 1.18 1.18 0 0 0 -.28-1.78l-.48-.38.93-1.13.48.39a1.08 1.08 0 1 0 -.07-1.43l-.16.19-1.14-.93.15-.19a2.4 2.4 0 0 1 3.59-.39 2.49 2.49 0 0 1 1 1.7 2.34 2.34 0 0 1 -.57 1.85 2.19 2.19 0 0 1 -1.92.82 2.27 2.27 0 0 1 -.41 2.27 2.48 2.48 0 0 1 -1.77 1 2.67 2.67 0 0 1 -2.36-4.4l.23-.28z" fill="#231f20"/><circle cx="106.07" cy="319.83" fill="#8e91c7" r="23.49" transform="matrix(.70710678 -.70710678 .70710678 .70710678 -195.09 168.68)"/><path d="m106.07 343.7a23.87 23.87 0 1 1 23.86-23.87 23.9 23.9 0 0 1 -23.86 23.87zm0-47a23.12 23.12 0 1 0 23.11 23.12 23.14 23.14 0 0 0 -23.11-23.11z" fill="#231f20"/><path d="m120.34 319.72c0-13.59-16.61-19.7-25.43-8.65l.83.66c8.22-10.31 23.55-4.52 23.55 7.94l-4.15-3.51-.68.8 5.69 4.82 4.42-6.09-.85-.62zm-.38.52-.33-.28h.54zm-2.47 5.82.88.58c-8.61 13.3-27.91 5.65-26.08-9l-3.59 4.38-.81-.67 4.77-5.83 5.4 5.14-.73.76-4-3.78c-1.79 13.45 16.02 20.95 24.16 8.42z" fill="#231f20"/><path d="m106.37 333.62a14.65 14.65 0 0 1 -5-.87 14 14 0 0 1 -9.27-14.67l-3.4 4.16-1-.83 4.94-6 5.59 5.31-.9.95-3.89-3.7a12.69 12.69 0 0 0 8.36 13.57c4.46 1.65 11.21 1.2 15.57-5.51l.07-.11 1.09.71-.06.11a14.13 14.13 0 0 1 -12.1 6.88zm-13.9-16.36v.43a13.72 13.72 0 0 0 9.06 14.83 13.88 13.88 0 0 0 16.72-5.85l-.68-.43c-4.44 6.73-11.27 7.18-15.79 5.5a12.94 12.94 0 0 1 -8.5-14.08v-.24l4.07 3.87.55-.59-5.21-4.95-4.61 5.62.63.51zm27.7 4.7-5.89-5 .85-1 4 3.42a12.91 12.91 0 0 0 -8.64-12.14c-5.34-1.87-11-.12-14.69 4.55l-.07.1-1-.82.07-.1c4.09-5.11 10.27-7 16.16-4.95a14.2 14.2 0 0 1 9.49 13.3l3.23-4.45 1.06.77zm-5.54-5 5.5 4.65 4.27-5.89-.65-.47-3.75 5.17-4.82-4.09zm4.78 2.88h.81v-.12a14 14 0 0 0 -25.13-8.66l.63.5a13.16 13.16 0 0 1 23.69 8.12z" fill="#231f20"/><path d="m212.6 212.6-100.6 174.32a200.35 200.35 0 0 0 100.6 26.94z" fill="#7aa6d8"/><path d="m140.55 392.43-1.37-.54 3.16-8.01 4.57 1.8-3.16 8.01-1.37-.54 2.62-6.64-1.83-.72z" fill="#231f20"/><path d="m147.46 391.88-1 2.9-1.39-.5 2.9-8.11 1.62.58a2.85 2.85 0 0 1 1.67 1.44 2.57 2.57 0 0 1 .12 2.14 2.63 2.63 0 0 1 -1.46 1.6 2.91 2.91 0 0 1 -2.19 0zm1.37-3.82-.88 2.43.24.09a1.3 1.3 0 1 0 .87-2.44z" fill="#231f20"/><path d="m151.75 392.14a4.49 4.49 0 1 1 2.95 5.63 4.5 4.5 0 0 1 -2.95-5.63zm1.41.44a3 3 0 0 0 5.76 1.8 3 3 0 0 0 -5.76-1.8z" fill="#231f20"/><path d="m164.53 400.38-4.22-1.12 2.21-8.32 1.43.37-1.83 6.9 1.78.47 1.83-6.89 1.43.38-1.83 6.89 1.01.27-.91 3.44-1.43-.38z" fill="#231f20"/><path d="m172.88 393.51-.34 1.44-2.51-.58-.48 2.03 2.4.56-.33 1.44-2.4-.56-.47 2.04 2.52.58-.33 1.44-3.96-.91 1.94-8.39z" fill="#231f20"/><path d="m181.33 396.65-1.18.8a3.15 3.15 0 0 0 -2.17-1.58 2.95 2.95 0 0 0 -3.53 2.39 2.95 2.95 0 0 0 2.39 3.53 3.19 3.19 0 0 0 2.61-.67l.8 1.18a4.36 4.36 0 0 1 -3.69.93 4.26 4.26 0 0 1 -2.91-1.88 4.62 4.62 0 0 1 1.21-6.26 4.29 4.29 0 0 1 3.4-.67 4.34 4.34 0 0 1 3.07 2.23z" fill="#231f20"/><path d="m190.08 397.93-1.14.85a3.16 3.16 0 0 0 -2.25-1.48 3 3 0 1 0 -.85 6 3.16 3.16 0 0 0 2.57-.79l.85 1.14a4.34 4.34 0 0 1 -3.63 1.11 4.28 4.28 0 0 1 -3-1.75 4.6 4.6 0 0 1 .91-6.3 4.26 4.26 0 0 1 3.36-.84 4.38 4.38 0 0 1 3.18 2.06z" fill="#231f20"/><path d="m173.21 334.24a23.49 23.49 0 1 1 -23.5 23.49 23.49 23.49 0 0 1 23.5-23.49z" fill="#7aa6d8"/><path d="m173.21 381.6a23.87 23.87 0 1 1 23.86-23.87 23.9 23.9 0 0 1 -23.86 23.87zm0-47a23.12 23.12 0 1 0 23.11 23.12 23.14 23.14 0 0 0 -23.11-23.11z" fill="#231f20"/><path d="m177.69 356.6h-8.6a.42.42 0 0 0 -.42.43v6.41c0 3.5 9.45 3.51 9.45 0v-6.44a.43.43 0 0 0 -.43-.4zm-.43.85v2h-7.74v-2zm-7.74 6v-3.1h7.74v3.1c0 2.32-7.74 2.33-7.74-.01zm17.73-12c0-3.82-4.92-4.15-4.92-7.34a.5.5 0 0 0 -1 0c0 3.82 4.92 4.16 4.92 7.34 0 2.68-2.55 3.11-3.19 3.17-.71-.33-4.8-2.44-4.8-7.26 0-5.1-1.78-8-4.88-8s-4.87 2.93-4.87 8a8.15 8.15 0 0 1 -4.81 7.27c-.56-.05-3.23-.42-3.23-3.18 0-3.19 4.92-3.51 4.92-7.33a.49.49 0 0 0 -1 0c0 3.18-4.93 3.5-4.93 7.33a4.12 4.12 0 0 0 3.82 4.13c0 15-.32 15.2.5 15.2 19.88 0 19.69.32 19.69-.5v-14.76a4.1 4.1 0 0 0 3.78-4.12zm-13.86-11.13c3.18 0 3.81 3.89 3.88 6.54h-7.75c.06-2.7.7-6.59 3.87-6.59zm9.1 29.46h-18.2v-14.38a9.26 9.26 0 0 0 5.21-7.59h7.79a9.27 9.27 0 0 0 5.2 7.59z" fill="#231f20"/><path d="m180 370.91c-1 0-10.66-.06-16.24-.06a.54.54 0 0 1 -.41-.12c-.3-.3-.29-1.25-.26-5.79 0-2.19.05-5.18.05-9.3a4.2 4.2 0 0 1 -3.82-4.24c0-2.06 1.36-3.12 2.68-4.14 1.15-.89 2.24-1.73 2.24-3.19a.62.62 0 0 1 1.24 0c0 2.06-1.36 3.11-2.67 4.13-1.16.9-2.25 1.74-2.25 3.2 0 2.61 2.5 3 3.09 3.05a8 8 0 0 0 4.7-7.14c0-5.18 1.82-8.16 5-8.16s5 3 5 8.16a8.06 8.06 0 0 0 4.7 7.14 3.1 3.1 0 0 0 3-3.05c0-1.46-1.09-2.3-2.25-3.2s-2.67-2.08-2.67-4.14a.62.62 0 0 1 1.24 0c0 1.46 1.09 2.31 2.24 3.2 1.32 1 2.68 2.08 2.68 4.14a4.2 4.2 0 0 1 -3.77 4.23v14.6a.53.53 0 0 1 -.11.41c-.13.22-.76.27-3.41.27zm-15.1-27.21a.35.35 0 0 0 -.37.37c0 1.58-1.14 2.46-2.34 3.39s-2.58 2-2.58 3.94a4.06 4.06 0 0 0 3.71 4h.11s0 7.31-.05 9.52c0 4.14 0 5.39.19 5.61 0 .05.1.05.23.05h12.45c5.26 0 6.84 0 7.07-.19 0 0 0-.08 0-.2v-14.77h.11a4 4 0 0 0 3.66-4c0-1.94-1.31-2.95-2.58-3.94s-2.34-1.81-2.34-3.4a.37.37 0 1 0 -.74 0c0 1.94 1.31 3 2.57 3.94s2.35 1.82 2.35 3.4c0 2.82-2.76 3.24-3.31 3.3h-.04a8.31 8.31 0 0 1 -4.88-7.38c0-5-1.73-7.91-4.75-7.91s-4.75 2.89-4.75 7.91a8.19 8.19 0 0 1 -4.88 7.38h-.06c-.56 0-3.35-.42-3.35-3.3 0-1.58 1.14-2.46 2.34-3.4s2.58-2 2.58-3.93a.35.35 0 0 0 -.35-.39zm17.72 26.16h-18.45v-14.54h.07a9.11 9.11 0 0 0 5.13-7.48v-.12h8v.12a9.13 9.13 0 0 0 5.14 7.48h.07zm-18.2-.25h18v-14.14a9.38 9.38 0 0 1 -5.2-7.54h-7.55a9.4 9.4 0 0 1 -5.2 7.54zm9-3.42c-2.34 0-4.86-.86-4.86-2.75v-6.44a.56.56 0 0 1 .55-.56h8.6a.55.55 0 0 1 .55.56v6.41a2.36 2.36 0 0 1 -1.54 2.09 7.64 7.64 0 0 1 -3.32.69zm-4.31-9.47a.31.31 0 0 0 -.3.31v6.41c0 1.65 2.32 2.5 4.61 2.5a7.31 7.31 0 0 0 3.19-.64 2.16 2.16 0 0 0 1.4-1.86v-6.44a.3.3 0 0 0 -.3-.31zm4.3 8.6c-1.92 0-4-.59-4-1.88v-3.22h8v3.22c-.02 1.29-2.09 1.88-4.02 1.88zm-3.74-4.85v3c0 1.07 1.88 1.63 3.74 1.63s3.75-.56 3.75-1.63v-3zm7.74-.86h-8v-2.28h8zm-7.74-.25h7.49v-1.78h-7.49zm7.75-12.42h-8v-.13c.06-2.49.67-6.66 4-6.66s3.94 4.17 4 6.66zm-7.75-.25h7.49c-.17-5.47-2.42-6.29-3.75-6.29s-3.59.82-3.76 6.29z" fill="#231f20"/><path d="m212.6 212.6v201.26a200.31 200.31 0 0 0 100.64-26.94z" fill="#b5e4fa"/><path d="m218.41 401.81a2.37 2.37 0 0 1 1.09 2 2.2 2.2 0 0 1 -.72 1.74 2.56 2.56 0 0 1 -1.81.72l-2 .05-.19-8.61h2a2.45 2.45 0 0 1 1.76.61 2.15 2.15 0 0 1 .76 1.64 2.26 2.26 0 0 1 -.89 1.85zm-2-.68h.49a1 1 0 0 0 0-2h-.49zm0 1.48.05 2.2h.49a1.1 1.1 0 0 0 1.09-1.12 1.13 1.13 0 0 0 -1.1-1.08z" fill="#231f20"/><path d="m220.48 402a4.49 4.49 0 0 1 9-.58 4.49 4.49 0 1 1 -9 .58zm1.52 0a2.87 2.87 0 0 0 1 2.06 2.84 2.84 0 0 0 2.18.75 3 3 0 0 0 1.79-5.27 3 3 0 0 0 -4.25.28 2.86 2.86 0 0 0 -.72 2.18z" fill="#231f20"/><path d="m231.94 402.64v.36a1.2 1.2 0 0 0 2.39-.25 1.17 1.17 0 0 0 -1.45-1.06l-.62.06-.15-1.46.61-.07c.79-.08 1.15-.56 1.08-1.19a1 1 0 0 0 -1.19-1 1 1 0 0 0 -1 1.19v.24l-1.47.16v-.24a2.41 2.41 0 0 1 2.26-2.82 2.47 2.47 0 0 1 1.91.5 2.34 2.34 0 0 1 .9 1.71 2.15 2.15 0 0 1 -.78 1.94 2.24 2.24 0 0 1 1.32 1.9 2.48 2.48 0 0 1 -.54 2 2.68 2.68 0 0 1 -1.85.93 2.52 2.52 0 0 1 -2.94-2.37v-.37z" fill="#231f20"/><path d="m238.9 404.71-1.46.23-1.32-8.51 1.44-.22 3.97 3.01 2.86-4.07 1.45-.22 1.32 8.5-1.46.23-1-6.45-2.86 4.05-3.94-3z" fill="#231f20"/><path d="m247.66 399a4.5 4.5 0 0 1 6.84-4.7 4.37 4.37 0 0 1 1.94 2.83 4.49 4.49 0 0 1 -8.78 1.87zm1.44-.3a3 3 0 0 0 5.9-1.26 3 3 0 0 0 -5.9 1.26z" fill="#231f20"/><path d="m260 400.61-1.56.41 1.11-4.74-3.35-3.57 1.56-.42 2.87 3-.94-3.51 1.43-.39.94 3.52.98-4.03 1.57-.42-1.12 4.77 3.35 3.54-1.58.43-2.86-2.99.94 3.5-1.42.38-.94-3.5z" fill="#231f20"/><path d="m276.1 395.81-1.4.46-1.1-3.4-5.27 1.7 1.1 3.4-1.4.45-2.65-8.19 1.4-.45 1.1 3.39 5.27-1.7-1.1-3.4 1.4-.45z" fill="#231f20"/><path d="m275.86 391.34a4.49 4.49 0 1 1 8.29.23 4.29 4.29 0 0 1 -2.49 2.36 4.33 4.33 0 0 1 -3.44-.1 4.29 4.29 0 0 1 -2.36-2.49zm1.38-.53a2.87 2.87 0 0 0 1.59 1.67 2.84 2.84 0 0 0 2.3.07 3 3 0 0 0 .15-5.56 3 3 0 0 0 -4 1.52 2.88 2.88 0 0 0 -.04 2.3z" fill="#231f20"/><path d="m291.29 381.9-.52 1.33a3.14 3.14 0 0 0 -2.69-.07 2.91 2.91 0 0 0 -1.63 1.67 3.12 3.12 0 0 0 1.73 3.92 2.87 2.87 0 0 0 2.33-.07 3.14 3.14 0 0 0 1.77-2l1.33.52a4.34 4.34 0 0 1 -2.5 2.86 4.29 4.29 0 0 1 -3.47.1 4.34 4.34 0 0 1 -2.45-2.4 4.4 4.4 0 0 1 -.12-3.43 4.55 4.55 0 0 1 6.22-2.4z" fill="#231f20"/><path d="m292.01 381.58-.64-1.32 4.42-2.16.65 1.33-1.55.75 3.13 6.41-1.33.65-3.13-6.41z" fill="#231f20"/><path d="m304.86 383.07-1.31.69-2.29-4.35.61 5.24-1.31.68-4.01-7.61 1.31-.69 2.29 4.35-.61-5.24 1.31-.69z" fill="#231f20"/><path d="m251.22 333.2a23.49 23.49 0 1 1 -23.49 23.49 23.49 23.49 0 0 1 23.49-23.49z" fill="#b5e4fa"/><path d="m251.22 380.56a23.87 23.87 0 1 1 23.86-23.87 23.9 23.9 0 0 1 -23.86 23.87zm0-47a23.12 23.12 0 1 0 23.11 23.12 23.15 23.15 0 0 0 -23.11-23.11z" fill="#231f20"/><path d="m265.27 349.5a2.27 2.27 0 0 0 -2.27-2.27h-6.35v-1.36a2.26 2.26 0 0 0 -2.26-2.26h-6.39a2.27 2.27 0 0 0 -2.27 2.26v1.36h-6.34a2.27 2.27 0 0 0 -2.26 2.27v14.5a2.26 2.26 0 0 0 2.26 2.26h23.61a2.27 2.27 0 0 0 2.27-2.26zm-10.88-5c1.52 0 1.36 1.43 1.36 2.72h-9.06c0-3.22-.46-2.71 7.7-2.71zm-15 3.63c24.82 0 24.93-.51 24.93 1.36v3.63h-26.25v-3.62a1.36 1.36 0 0 1 1.36-1.36zm18.17 5.87h1.82v2.27h-1.82zm-14.5 0h1.81v2.27h-1.81zm19.94 11.37c-24.82 0-24.93.51-24.93-1.36v-10.01h4.08v3.18h3.62v-3.18h10.88v3.18h3.62v-3.18h4.08c0 9.91.46 11.37-1.35 11.37z" fill="#231f20"/><path d="m263 366.4h-23.57a2.4 2.4 0 0 1 -2.43-2.4v-14.5a2.4 2.4 0 0 1 2.39-2.39h6.22v-1.24a2.39 2.39 0 0 1 2.39-2.39h6.35a2.39 2.39 0 0 1 2.39 2.39v1.24h6.26a2.39 2.39 0 0 1 2.39 2.39v14.5a2.39 2.39 0 0 1 -2.39 2.4zm-23.57-19a2.14 2.14 0 0 0 -2.14 2.14v14.46a2.14 2.14 0 0 0 2.14 2.14h23.57a2.14 2.14 0 0 0 2.14-2.14v-14.5a2.14 2.14 0 0 0 -2.14-2.14h-6.47v-1.49a2.14 2.14 0 0 0 -2.14-2.14h-6.39a2.14 2.14 0 0 0 -2.14 2.14v1.49zm5.39 18.2c-4.74 0-6.13-.11-6.62-.6a1.23 1.23 0 0 1 -.2-1v-10.1h4.33v3.17h3.37v-3.17h11.12v3.17h3.38v-3.17h4.32s0 3.73 0 5c0 4.09.06 5.62-.53 6.22a1.33 1.33 0 0 1 -1 .31c-5.33.06-16.72.13-18.17.13zm-6.62-11.4v9.8c0 .38 0 .6.18.77.56.57 3.17.55 11.79.5h12.83a1.05 1.05 0 0 0 .8-.24c.52-.53.5-2.14.46-6 0-1.3 0-2.91 0-4.81h-3.86v3.17h-3.88v-3.17h-10.62v3.17h-3.9v-3.17zm21.3 2.26h-2.06v-2.51h2.06zm-1.81-.25h1.56v-2h-1.56zm-12.69.25h-2.07v-2.51h2.07zm-1.82-.25h1.57v-2h-1.57zm21.3-2.92h-26.48v-3.79a1.48 1.48 0 0 1 1.48-1.48h12.83c9.16-.05 11.33-.06 12 .58a1.22 1.22 0 0 1 .25.95zm-26.28-.29h26v-3.5c0-.38 0-.61-.17-.77-.57-.57-3.17-.55-11.79-.51-3.34 0-7.5 0-12.84 0a1.23 1.23 0 0 0 -1.23 1.23zm17.68-5.64h-9.32v-.61c0-1 0-1.54.35-1.9.51-.52 1.64-.51 4.67-.48h2.81a1.4 1.4 0 0 1 1 .36 3.06 3.06 0 0 1 .45 2.15zm-9.07-.25h8.82v-.21a2.9 2.9 0 0 0 -.38-2 1.12 1.12 0 0 0 -.86-.29h-2.81c-2.87 0-4.05 0-4.49.4-.29.29-.29.83-.28 1.73z" fill="#231f20"/><path d="m250.76 350.41h.91v.91h-.91z" fill="#231f20"/><path d="m251.79 351.44h-1.15v-1.16h1.15zm-.9-.25h.65v-.66h-.65z" fill="#231f20"/><path d="m248.95 350.41h.91v.91h-.91z" fill="#231f20"/><path d="m250 351.44h-1.16v-1.16h1.16zm-.91-.25h.66v-.66h-.66z" fill="#231f20"/><path d="m252.58 350.41h.91v.91h-.91z" fill="#231f20"/><path d="m253.61 351.44h-1.16v-1.16h1.16zm-.91-.25h.66v-.66h-.66z" fill="#231f20"/><path d="m212.6 212.6 100.64 174.32a202.26 202.26 0 0 0 73.68-73.68z" fill="#afd796"/><path d="m333.07 360.81.24.29a1.16 1.16 0 0 0 1.68.16 1.14 1.14 0 0 0 .17-1.68 1.17 1.17 0 0 0 -1.79-.09l-.48.39-.93-1.14.47-.39a1 1 0 0 0 .25-1.59 1 1 0 0 0 -1.52-.15 1.05 1.05 0 0 0 -.14 1.51l.16.19-1.14.94-.16-.19a2.41 2.41 0 0 1 .34-3.59 2.46 2.46 0 0 1 1.87-.63 2.35 2.35 0 0 1 1.7.93 2.21 2.21 0 0 1 .41 2.05 2.24 2.24 0 0 1 2.14.87 2.51 2.51 0 0 1 .62 1.93 2.64 2.64 0 0 1 -1 1.78 2.61 2.61 0 0 1 -1.95.67 2.65 2.65 0 0 1 -1.8-1l-.24-.29z" fill="#231f20"/><path d="m339.79 358.94-1.24 1.11-2.55-9.28 1.23-1.11 9 3.52-1.23 1.11-1.93-.75-3.83 3.46zm-2.06-7.48 1.07 3.9 2.69-2.42z" fill="#231f20"/><path d="m349 353.29-1 1-2.51-2.55.13-.12c.61-.6.33-1.25-.93-2.53l-3.29-3.33 3-2.94 5 5.08.75-.73 2.5 2.54-1.05 1-1.47-1.49-2.54 2.5zm-3.31-5.2c.32.32.54.57.69.74a2.86 2.86 0 0 1 .71 1.33l1.2-1.18-4-4-.88.86z" fill="#231f20"/><path d="m352.73 346.62-1.13 1.22-3.42-9 1.13-1.22 9.26 2.68-1.12 1.21-2-.56-3.45 3.74zm-2.73-7.26 1.43 3.79 2.46-2.66z" fill="#231f20"/><path d="m362.1 336.06-1 1.13-2.37-2a1.89 1.89 0 0 1 -.49 1.2c-.83 1-2 .88-3 0l-2.73-2.3 1-1.13 2.63 2.23a.84.84 0 0 0 1.3 0 .86.86 0 0 0 -.16-1.27l-2.66-2.24.95-1.13z" fill="#231f20"/><path d="m365.98 331.2-.92 1.15-3.85-3.05 2.67 4.55-.92 1.16-6.75-5.35.92-1.16 3.86 3.06-2.68-4.55.92-1.16z" fill="#231f20"/><path d="m321.23 295.86a23.5 23.5 0 1 1 -23.49 23.49 23.49 23.49 0 0 1 23.49-23.49z" fill="#afd796"/><path d="m321.23 343.22a23.87 23.87 0 1 1 23.87-23.87 23.9 23.9 0 0 1 -23.87 23.87zm0-47a23.12 23.12 0 1 0 23.12 23.11 23.14 23.14 0 0 0 -23.12-23.09z" fill="#231f20"/><path d="m317 314.24h-4v-4h4zm-3.44-.58h2.87v-2.87h-2.83z" fill="#231f20"/><path d="m317.17 314.36h-4.27v-4.26h4.27zm-4-.25h3.77v-3.76h-3.77zm3.45-.32h-3.12v-3.12h3.12zm-2.87-.25h2.62v-2.62h-2.62z" fill="#231f20"/><path d="m317 321.13h-4v-4h4zm-3.44-.58h2.87v-2.87h-2.83z" fill="#231f20"/><path d="m317.17 321.25h-4.27v-4.25h4.27zm-4-.25h3.77v-3.77h-3.77zm3.45-.32h-3.12v-3.12h3.12zm-2.87-.25h2.62v-2.62h-2.62z" fill="#231f20"/><path d="m317 328h-4v-4h4zm-3.44-.57h2.87v-2.87h-2.83z" fill="#231f20"/><path d="m317.17 328.14h-4.27v-4.27h4.27zm-4-.25h3.77v-3.77h-3.77zm3.45-.33h-3.12v-3.12h3.12zm-2.87-.25h2.62v-2.62h-2.62z" fill="#231f20"/><path d="m330.53 332.6h-19.53a1.44 1.44 0 0 1 -1.44-1.43v-24.11a1.44 1.44 0 0 1 1.44-1.43h19.51a1.44 1.44 0 0 1 1.44 1.43v24.11a1.44 1.44 0 0 1 -1.42 1.43zm-20.37-25.54c0 25.21-.44 25 .86 25 20.12 0 20.37.44 20.37-.86 0-25.21.44-25-.86-25-20.12 0-20.37-.43-20.37.86z" fill="#231f20"/><path d="m330.53 332.73h-19.53a1.56 1.56 0 0 1 -1.56-1.56v-24.11a1.56 1.56 0 0 1 1.56-1.56h19.51a1.56 1.56 0 0 1 1.56 1.56v24.11a1.56 1.56 0 0 1 -1.54 1.56zm-19.51-27a1.31 1.31 0 0 0 -1.31 1.31v24.11a1.31 1.31 0 0 0 1.31 1.31h19.51a1.31 1.31 0 0 0 1.31-1.31v-24.09a1.31 1.31 0 0 0 -1.31-1.31zm15.87 26.48-15.89-.05a.7.7 0 0 1 -.56-.17c-.46-.46-.45-2.16-.41-10.32 0-3.49 0-8.26 0-14.61a.82.82 0 0 1 .18-.63c.46-.46 2-.44 8.64-.4l11.72.05a.8.8 0 0 1 .6.16c.45.46.44 2.16.4 10.32 0 3.49-.05 8.26-.05 14.61a.85.85 0 0 1 -.18.64c-.34.33-1.29.42-4.45.42zm-15.89-.3h11.7c6.19.05 8.06.06 8.44-.32.1-.1.11-.24.11-.46 0-6.35 0-11.12.05-14.61 0-7.69.05-9.76-.33-10.14-.09-.09-.21-.1-.42-.09l-11.72-.05c-6.2 0-8.08-.06-8.46.32-.1.1-.11.24-.11.46v14.61c0 7.69-.05 9.76.33 10.15.09.08.2.09.4.09z" fill="#231f20"/><path d="m319.63 311.94h9.18v.57h-9.18z" fill="#231f20"/><path d="m328.94 312.64h-9.44v-.82h9.44zm-9.19-.25h8.94v-.32h-8.94z" fill="#231f20"/><path d="m319.63 318.83h9.18v.57h-9.18z" fill="#231f20"/><path d="m328.94 319.53h-9.44v-.83h9.44zm-9.19-.25h8.94v-.28h-8.94z" fill="#231f20"/><path d="m319.63 325.72h9.18v.57h-9.18z" fill="#231f20"/><path d="m328.94 326.42h-9.44v-.83h9.44zm-9.19-.25h8.94v-.33h-8.94z" fill="#231f20"/><path d="m212.6 212.6 174.32 100.64a200.31 200.31 0 0 0 26.94-100.64z" fill="#a8d26d"/><path d="m397.4 271.07-1.35 4.16-8.19-2.67.46-1.4 6.78 2.21.57-1.76-6.78-2.2.45-1.41 6.79 2.21.32-1 3.39 1.11-.45 1.4z" fill="#231f20"/><path d="m391.01 262.36 1.42.41-.73 2.49 2.01.58.69-2.36 1.42.41-.69 2.36 2.01.59.72-2.49 1.42.42-1.13 3.9-8.28-2.41z" fill="#231f20"/><path d="m398.19 263.45a.92.92 0 0 0 .09-.23c.1-.38-.09-.7-.58-.94a14.69 14.69 0 0 0 -2.55-.85l-3.63-.93 1-4.05 8.34 2.15-.37 1.43-7-1.8-.32 1.25 2.32.6a10.45 10.45 0 0 1 3.46 1.37 1.59 1.59 0 0 1 .72 1.84 2.9 2.9 0 0 1 -.18.52z" fill="#231f20"/><path d="m402.29 252.49-.32 1.44-4.8-1.08 4.38 2.94-.32 1.44-8.4-1.88.32-1.44 4.8 1.07-4.38-2.93.32-1.44z" fill="#231f20"/><path d="m357.75 227.52a23.49 23.49 0 1 1 -23.49 23.48 23.49 23.49 0 0 1 23.49-23.48z" fill="#a8d26d"/><path d="m357.75 274.88a23.87 23.87 0 1 1 23.87-23.88 23.89 23.89 0 0 1 -23.87 23.88zm0-47a23.12 23.12 0 1 0 23.12 23.12 23.13 23.13 0 0 0 -23.12-23.1z" fill="#231f20"/><path d="m357.34 231.78v5a14.08 14.08 0 0 0 -13.66 13.65h-5a.42.42 0 0 0 0 .83h5a14.08 14.08 0 0 0 13.66 13.65v5a.42.42 0 0 0 .83 0v-5a14.07 14.07 0 0 0 13.65-13.65h5a.4.4 0 0 0 .4-.39.41.41 0 0 0 -.41-.44h-5a14.07 14.07 0 0 0 -13.65-13.65v-5a.42.42 0 0 0 -.82 0zm0 5.81v5a8.28 8.28 0 0 0 -7.86 7.85h-5a13.21 13.21 0 0 1 12.86-12.85zm.83 0a13.23 13.23 0 0 1 12.83 12.82h-5a8.27 8.27 0 0 0 -7.85-7.85zm-.83 5.81v7h-7a7.43 7.43 0 0 1 7-7zm.83 0a7.42 7.42 0 0 1 7 7h-7zm-13.66 7.84h5a8.3 8.3 0 0 0 7.86 7.86v5a13.24 13.24 0 0 1 -12.86-12.86zm5.81 0h7v7a7.42 7.42 0 0 1 -7-7zm7.85 0h7a7.41 7.41 0 0 1 -7 7zm7.85 0h5a13.23 13.23 0 0 1 -12.82 12.83v-5a8.29 8.29 0 0 0 7.8-7.83z" fill="#231f20"/><path d="m357.75 270.41a.52.52 0 0 1 -.54-.53v-4.88a14.19 14.19 0 0 1 -13.65-13.64h-4.86a.52.52 0 0 1 -.53-.54.52.52 0 0 1 .53-.54h4.86a14.2 14.2 0 0 1 13.65-13.65v-4.86a.54.54 0 0 1 1.08 0v4.86a14.2 14.2 0 0 1 13.65 13.65h4.87a.53.53 0 0 1 .53.56.52.52 0 0 1 -.52.52h-4.88a14.19 14.19 0 0 1 -13.65 13.64v4.87a.52.52 0 0 1 -.54.54zm-19.05-19.87a.26.26 0 0 0 -.28.29.27.27 0 0 0 .28.29h5.11v.12a14 14 0 0 0 13.53 13.53h.12v5.11a.29.29 0 1 0 .58 0v-5.11h.12a14 14 0 0 0 13.53-13.53v-.12h5.12a.27.27 0 0 0 .27-.27.28.28 0 0 0 -.28-.31h-5.1v-.13a14 14 0 0 0 -13.53-13.53h-.17v-5.1a.29.29 0 1 0 -.58 0v5.1h-.12a14 14 0 0 0 -13.53 13.53v.13zm19.3 13.65v-5.19h.12a8.13 8.13 0 0 0 7.74-7.73v-.12h5.22v.12a13.39 13.39 0 0 1 -12.95 12.95zm.25-5v4.73a13.14 13.14 0 0 0 12.57-12.57h-4.71a8.4 8.4 0 0 1 -7.82 7.86zm-.83 5h-.13a13.38 13.38 0 0 1 -12.94-12.95v-.12h5.22v.11a8.11 8.11 0 0 0 7.73 7.74h.12zm-12.82-12.82a13.15 13.15 0 0 0 12.57 12.57v-4.73a8.37 8.37 0 0 1 -7.85-7.84zm13.4 7v-7.27h7.27v.13a7.56 7.56 0 0 1 -7.14 7.13zm.25-7v6.75a7.3 7.3 0 0 0 6.76-6.75zm-.83 7h-.13a7.55 7.55 0 0 1 -7.13-7.13v-.13h7.27zm-7-7a7.28 7.28 0 0 0 6.75 6.75v-6.75zm20.66-.83h-5.18v-.12a8.13 8.13 0 0 0 -7.74-7.74h-.16v-5.21h.13a13.39 13.39 0 0 1 12.95 12.95zm-5-.25h4.72a13.12 13.12 0 0 0 -12.57-12.57v4.72a8.37 8.37 0 0 1 7.91 7.85zm-.83.25h-7.25v-7.27h.13a7.56 7.56 0 0 1 7.14 7.13zm-7-.25h6.76a7.31 7.31 0 0 0 -6.76-6.76zm-.83.25h-7.27v-.14a7.55 7.55 0 0 1 7.13-7.13h.13zm-7-.25h6.75v-6.76a7.29 7.29 0 0 0 -6.71 6.76zm-.86.25h-5.22v-.13a13.39 13.39 0 0 1 12.94-12.95h.13v5.21h-.12a8.11 8.11 0 0 0 -7.73 7.74zm-5-.25h4.72a8.38 8.38 0 0 1 7.85-7.85v-4.72a13.15 13.15 0 0 0 -12.49 12.57z" fill="#231f20"/><path d="m212.6 212.6h201.26a200.35 200.35 0 0 0 -26.94-100.6z" fill="#cfdf68"/><path d="m395.08 151.24a4.69 4.69 0 0 1 -6.08 2.16 4.34 4.34 0 0 1 -2.34-2.63 4.43 4.43 0 0 1 .38-3.84l1.3.63a3.18 3.18 0 0 0 -.27 2.71 3 3 0 0 0 1.24 1.6 3 3 0 0 0 1.93.43l-1.46-4.11 1.41-.5 1.46 4.11a3 3 0 0 0 1.19-3.57 3.2 3.2 0 0 0 -1.92-1.94l.62-1.3a4.44 4.44 0 0 1 2.71 2.74 4.36 4.36 0 0 1 -.17 3.51z" fill="#231f20"/><path d="m397.9 161.45-1.27-.69a3.23 3.23 0 0 0 .4-2.7 2.92 2.92 0 0 0 -1.48-1.85 3.06 3.06 0 0 0 -4.38 3.6 3.22 3.22 0 0 0 1.82 2l-.68 1.27a4.57 4.57 0 1 1 3.95-8.23 4.32 4.32 0 0 1 2.2 2.74 4.43 4.43 0 0 1 -.56 3.86z" fill="#231f20"/><path d="m399.64 162.41.37 1.45-3.61.92 4.13 1.12.43 1.66-4.84-1.3-3.63 3.46-.42-1.66 3.08-2.96-3.6.92-.37-1.46z" fill="#231f20"/><path d="m393.75 175.41-.32-1.46 4.88-1.07-5.3-.82-.32-1.46 8.54-1.88.32 1.47-4.88 1.07 5.29.81.32 1.47z" fill="#231f20"/><path d="m397.05 177.27-.36.06a1.19 1.19 0 0 0 -1 1.42 1.17 1.17 0 0 0 1.41 1 1.19 1.19 0 0 0 .95-1.55l-.11-.61 1.47-.27.12.61a1.1 1.1 0 1 0 .89-1.14h-.24l-.28-1.47h.25a2.43 2.43 0 0 1 3 2.07 2.51 2.51 0 0 1 -.36 2 2.39 2.39 0 0 1 -1.66 1 2.19 2.19 0 0 1 -2-.65 2.28 2.28 0 0 1 -1.82 1.48 2.54 2.54 0 0 1 -2-.4 3 3 0 0 1 -.71-3.85 2.67 2.67 0 0 1 1.81-1.1l.36-.07z" fill="#231f20"/><circle cx="357.46" cy="173.79" fill="#cfdf68" r="23.49" transform="matrix(.70710678 -.70710678 .70710678 .70710678 -18.19 303.67)"/><path d="m357.46 197.66a23.87 23.87 0 1 1 23.87-23.87 23.89 23.89 0 0 1 -23.87 23.87zm0-47a23.12 23.12 0 1 0 23.12 23.11 23.14 23.14 0 0 0 -23.12-23.09z" fill="#231f20"/><path d="m371.65 164.81a.25.25 0 0 0 -.35.06l-3.6 5.13v-10.61a.25.25 0 0 0 -.25-.25h-20.56a.25.25 0 0 0 -.25.25v29.61a.25.25 0 0 0 .25.24h20.56a.25.25 0 0 0 .25-.24v-14.29c.1-.15 5.87-8.31 5.84-8.49a16.29 16.29 0 0 0 -1.89-1.41zm-9.26 16.65-.93.57c-.11-.09-.56-.47-.67-.54l.21-1c15.31-21.93 2.11-3 9.77-14l1.39 1zm-15.25 7.27v-29.09h20.07v11.09c-7.83 11.21-6.53 8.84-7.24 12.32a.25.25 0 0 0 .38.26c3.09-1.91 1.62-.4 6.86-7.89v13.31zm25.3-21.67-1.38-1 .5-.73 1.39 1z" fill="#231f20"/><path d="m367.45 189.35h-20.56a.38.38 0 0 1 -.37-.37v-29.59a.37.37 0 0 1 .37-.37h20.56a.37.37 0 0 1 .38.37v10.23l3.37-4.82a.37.37 0 0 1 .52-.09l.11.08c1.8 1.22 1.82 1.33 1.84 1.41s0 .21-5.75 8.42l-.09.13v14.25a.38.38 0 0 1 -.38.35zm-20.56-30.08a.12.12 0 0 0 -.12.12v29.61a.12.12 0 0 0 .12.12h20.56a.13.13 0 0 0 .13-.12v-14.33l.14-.2c3.36-4.77 5.47-7.82 5.69-8.24a19.47 19.47 0 0 0 -1.72-1.24l-.12-.08a.12.12 0 0 0 -.17 0l-3.82 5.47v-11a.12.12 0 0 0 -.13-.12zm20.44 29.58h-20.33v-29.34h20.32v11.26l-3.32 4.77c-3.43 4.86-3.43 4.86-3.68 6.41-.05.3-.11.67-.21 1.13a.18.18 0 0 0 .05.13.13.13 0 0 0 .14 0l1-.6c1.4-.82 1.4-.82 3.45-3.82.59-.87 2.6-3.77 2.6-3.77zm-20.07-.25h19.82v-12.78l-2.15 3.11c-2.08 3-2.08 3-3.53 3.89l-1 .6a.36.36 0 0 1 -.41 0 .37.37 0 0 1 -.15-.38c.09-.46.15-.81.2-1.12.26-1.6.26-1.6 3.72-6.51l3.31-4.71v-10.94h-19.81zm14.19-6.41-.15-.13c-.16-.14-.49-.41-.58-.47l-.06-.05.23-1.13 9.85-14.09 1.59 1.11-9.88 14.13zm-.52-.76.53.44.83-.52 9.71-13.86-1.18-.82-9.69 13.87zm11.54-14.2-1.59-1.11.65-.94 1.6 1.12zm-1.24-1.17 1.18.82.37-.52-1.18-.83z" fill="#231f20"/><path d="m350 182.19c0 6 9.14 6 9.14 0s-9.14-6.03-9.14 0zm.5 0c0-5.39 8.14-5.39 8.14 0s-8.12 5.39-8.12.01z" fill="#231f20"/><path d="m354.59 186.85a4.66 4.66 0 1 1 4.69-4.65 4.48 4.48 0 0 1 -4.69 4.65zm0-9.06a4.48 4.48 0 0 0 -3.06 7.71 4.61 4.61 0 0 0 3.06 1.1 4.48 4.48 0 0 0 3.06-7.71 4.61 4.61 0 0 0 -3.06-1.1zm0 8.57a4.17 4.17 0 1 1 0-8.33 4.33 4.33 0 0 1 2.88 1 4.22 4.22 0 0 1 -2.88 7.29zm0-8.08a3.92 3.92 0 1 0 0 7.83 4.1 4.1 0 0 0 2.72-1 4.12 4.12 0 0 0 0-5.87 4.1 4.1 0 0 0 -2.72-.96z" fill="#231f20"/><path d="m365.05 168.13a1.29 1.29 0 0 0 -2.57 0 1.29 1.29 0 0 0 2.57 0zm-.5 0a.79.79 0 0 1 -1.58 0 .79.79 0 0 1 1.58 0z" fill="#231f20"/><path d="m363.76 169.53a1.44 1.44 0 0 1 -1-.35 1.34 1.34 0 0 1 -.44-1.05 1.36 1.36 0 0 1 .44-1 1.5 1.5 0 0 1 1-.35 1.4 1.4 0 1 1 0 2.8zm0-2.55a1.15 1.15 0 1 0 0 2.3 1.22 1.22 0 0 0 .8-.28 1.22 1.22 0 0 0 0-1.73 1.22 1.22 0 0 0 -.8-.27zm0 2.06a.88.88 0 0 1 -.91-.91.92.92 0 0 1 1.83 0 .88.88 0 0 1 -.92.87zm0-1.56a.66.66 0 1 0 0 1.31.66.66 0 1 0 0-1.31z" fill="#231f20"/><path d="m352.62 176.13c.07 0 9.08-3.68 9.15-3.71a.24.24 0 0 0 .13-.32c-.06-.15-4-10-4.16-10s-9.1 3.63-9.25 3.69a.25.25 0 0 0 -.14.32l4 9.9a.25.25 0 0 0 .27.12zm4.89-13.51 3.84 9.44-8.6 3.5-3.84-9.43z" fill="#231f20"/><path d="m352.62 176.26a.38.38 0 0 1 -.35-.24l-4-9.89a.36.36 0 0 1 .2-.48l.22-.1c8.93-3.67 9-3.62 9.13-3.6s.18.08 4.14 9.89l.09.21a.37.37 0 0 1 -.2.49c-.12.03-9.11 3.72-9.23 3.72zm5.06-14c-.53.16-3.81 1.48-8.92 3.58l-.22.09a.11.11 0 0 0 -.07.16l4 9.89a.12.12 0 0 0 .1.07c.46-.16 8.75-3.54 9.12-3.69a.14.14 0 0 0 .07-.17s-3.76-9.46-4.08-9.98zm-5 13.51-3.94-9.66 8.83-3.6 3.94 9.66zm-3.61-9.53 3.75 9.21 8.37-3.41-3.75-9.21z" fill="#231f20"/><path d="m212.6 212.6 174.32-100.6a202.23 202.23 0 0 0 -73.68-73.67z" fill="#ebdc61"/><path d="m329.52 69.28-1.18-.92 2.22-2.86-4.44-3.44-2.22 2.86-1.18-.92 5.36-6.9 1.18.92-2.22 2.85 4.44 3.45 2.22-2.86 1.18.92z" fill="#231f20"/><path d="m331.29 70.76-1.29-1.1 9-3.73 1.3 1.07-2.43 9.46-1.26-1.1.51-2-3.9-3.36zm7.27-3-3.79 1.57 2.77 2.4z" fill="#231f20"/><path d="m341.21 75.73-.21.27a1.18 1.18 0 0 0 0 1.71 1.17 1.17 0 0 0 1.72 0 1.19 1.19 0 0 0 -.13-1.81l-.45-.43 1-1.09.45.43a1.06 1.06 0 0 0 1.64.06 1.05 1.05 0 0 0 0-1.55 1.07 1.07 0 0 0 -1.55 0l-.17.18-1.08-1 .17-.18a2.44 2.44 0 0 1 3.66-.1 2.52 2.52 0 0 1 .84 1.78 2.36 2.36 0 0 1 -.73 1.82 2.18 2.18 0 0 1 -2 .66 2.31 2.31 0 0 1 -.61 2.27 2.51 2.51 0 0 1 -1.87.86 3 3 0 0 1 -2.83-2.7 2.7 2.7 0 0 1 .81-2l.26-.27z" fill="#231f20"/><path d="m348.5 80.67a2.39 2.39 0 0 1 -.71 2.2 2.26 2.26 0 0 1 -1.79.69 2.66 2.66 0 0 1 -1.8-.85l-1.4-1.42 6.2-6.13 1.4 1.43a2.52 2.52 0 0 1 .77 1.72 2.15 2.15 0 0 1 -.7 1.7 2.25 2.25 0 0 1 -1.97.66zm-2-.93-1.6 1.57.35.35a1.1 1.1 0 0 0 1.58 0 1.13 1.13 0 0 0 0-1.56zm1.06-1 .35.36a1 1 0 0 0 1.43 0 1 1 0 0 0 0-1.41l-.35-.36z" fill="#231f20"/><path d="m347.57 86.18-1.12-1.26 9.4-2.6 1.15 1.25-3.57 9.09-1.12-1.24.76-2-3.46-3.84zm7.59-2.1-4 1.09 2.46 2.73z" fill="#231f20"/><path d="m359.19 99.87-.93-1.17 2.82-2.27-3.52-4.37-2.82 2.27-.94-1.17 6.81-5.47.93 1.16-2.81 2.27 3.51 4.38 2.82-2.27.94 1.16z" fill="#231f20"/><path d="m362.8 104.79-.89-1.21 4.03-2.96-5.17 1.4-.89-1.21 7.04-5.17.88 1.2-4.02 2.96 5.17-1.4.89 1.21z" fill="#231f20"/><path d="m372.99 104.16-1.23.85-1.49-2.16-1.75 1.21 1.42 2.05-1.23.85-1.42-2.05-1.74 1.2 1.48 2.16-1.23.85-2.33-3.39 7.18-4.96z" fill="#231f20"/><path d="m319.11 81.64a23.49 23.49 0 1 1 -23.49 23.49 23.5 23.5 0 0 1 23.49-23.49z" fill="#ebdc61"/><path d="m319.12 129a23.87 23.87 0 1 1 23.88-23.87 23.9 23.9 0 0 1 -23.88 23.87zm0-47a23.12 23.12 0 1 0 23.12 23.11 23.14 23.14 0 0 0 -23.13-23.11z" fill="#231f20"/><path d="m318.14 85v5.2a10.36 10.36 0 0 0 -9.83 10.32v16.66a4.37 4.37 0 0 0 4.37 4.37h12a4.37 4.37 0 0 0 4.37-4.37v-16.6a10.37 10.37 0 0 0 -9.83-10.33v-5.25a.55.55 0 1 0 -1.08 0zm3.28 15.3c0 3.62-5.47 3.62-5.47 0s5.47-3.67 5.47-.05zm6.55.33v16.6a3.29 3.29 0 0 1 -3.28 3.28h-12a3.29 3.29 0 0 1 -3.28-3.28v-16.6a9.28 9.28 0 0 1 8.74-9.24v5.14c-4.67.69-4.18 7.59.55 7.59s5.21-6.9.54-7.59v-5.24a9.28 9.28 0 0 1 8.76 9.29z" fill="#231f20"/><path d="m324.69 121.68h-12a4.51 4.51 0 0 1 -4.5-4.5v-16.66a10.46 10.46 0 0 1 9.81-10.44v-5.08a.68.68 0 0 1 1.35 0v5.18a10.47 10.47 0 0 1 9.83 10.45v16.6a4.51 4.51 0 0 1 -4.49 4.45zm-6-37.15a.4.4 0 0 0 -.42.42v5.37h-.12a10.21 10.21 0 0 0 -9.71 10.2v16.66a4.26 4.26 0 0 0 4.25 4.25h12a4.25 4.25 0 0 0 4.25-4.25v-16.6a10.21 10.21 0 0 0 -9.71-10.2h-.12v-5.38a.41.41 0 0 0 -.43-.47zm6 36.05h-12a3.41 3.41 0 0 1 -3.41-3.4v-16.6a9.38 9.38 0 0 1 8.86-9.36h.13v5.38h-.1a3.69 3.69 0 1 0 1 0h-.1v-5.44h.13a9.42 9.42 0 0 1 8.86 9.42v16.6a3.41 3.41 0 0 1 -3.37 3.4zm-6.69-29.1a9.12 9.12 0 0 0 -8.49 9.1v16.6a3.16 3.16 0 0 0 3.16 3.15h12a3.16 3.16 0 0 0 3.16-3.15v-16.6a9.17 9.17 0 0 0 -8.49-9.16v5a3.93 3.93 0 1 1 -1.35 0zm.68 11.61a2.91 2.91 0 0 1 -2-.71 2.91 2.91 0 1 1 2 .71zm0-5.43a2.72 2.72 0 0 0 -1.79.64 2.53 2.53 0 0 0 -.81 2 2.49 2.49 0 0 0 2.61 2.59 2.68 2.68 0 0 0 1.79-.65 2.63 2.63 0 0 0 -1.8-4.53z" fill="#231f20"/><path d="m312.13 108.44h13.11v1.09h-13.11z" fill="#231f20"/><path d="m325.37 109.66h-13.37v-1.34h13.37zm-13.12-.25h12.87v-.84h-12.87z" fill="#231f20"/><path d="m312.13 113.9h13.11v1.09h-13.11z" fill="#231f20"/><path d="m325.37 115.12h-13.37v-1.34h13.37zm-13.12-.25h12.87v-.87h-12.87z" fill="#231f20"/><path d="m212.6 212.6 100.64-174.32a200.31 200.31 0 0 0 -100.64-26.94z" fill="#fbad56"/><path d="m254.16 32.45-1.46-.31 1.06-4.88-2.95 4.47-1.46-.32 1.85-8.53 1.46.31-1.06 4.88 2.95-4.47 1.46.32z" fill="#231f20"/><path d="m255.76 35-1.45-.37.89-3.51.18.05c.84.21 1.25-.36 1.71-2.14l1.17-4.59 4.11 1-1.79 7 1 .26-.9 3.5-1.45-.37.53-2-3.51-.9zm2.78-5.6c-.12.45-.21.77-.28 1a2.84 2.84 0 0 1 -.79 1.31l1.66.42 1.42-5.56-1.21-.3z" fill="#231f20"/><path d="m268.39 27.2-.42 1.44-2.51-.72-.59 2.03 2.39.7-.41 1.44-2.4-.7-.59 2.04 2.52.73-.42 1.44-3.96-1.15 2.43-8.39z" fill="#231f20"/><path d="m268.44 36.37-1.81-.58 3.57-2.42a2.73 2.73 0 0 1 -.77-2.91 2.68 2.68 0 0 1 1.43-1.65 2.91 2.91 0 0 1 2.23-.11l1.66.54-2.69 8.3-1.43-.46.92-2.82zm3.62-3.68.8-2.49-.23-.08a1.31 1.31 0 1 0 -.81 2.49z" fill="#231f20"/><path d="m251.28 43.49a23.49 23.49 0 1 1 -23.49 23.51 23.5 23.5 0 0 1 23.49-23.51z" fill="#fbad56"/><g fill="#231f20"><path d="m251.28 90.85a23.87 23.87 0 1 1 23.87-23.85 23.89 23.89 0 0 1 -23.87 23.85zm0-47a23.12 23.12 0 1 0 23.12 23.15 23.14 23.14 0 0 0 -23.12-23.13z"/><path d="m254.25 83.83c0-1 .77-.86 1.76-.86 0-5.47-.37-6.45.65-7a11 11 0 1 0 -16.38-10 10.94 10.94 0 0 0 5.67 10c1 .63.65 1.47.65 7 1.42 0 1.76-.11 1.76 1.29h6v-.43zm.9-3h-7.73v-.83h7.73zm0-1.76h-7.73v-.86h7.73zm-8.81-3.91a10 10 0 0 1 -5.2-9.2 10.16 10.16 0 1 1 15.09 9.24 2.06 2.06 0 0 0 -1.08 2.15h-7.73a2.17 2.17 0 0 0 -1.08-2.16zm7.09 8.21h-4.3a1.58 1.58 0 0 0 -1.71-1.29v-.39h7.73v.39a1.62 1.62 0 0 0 -1.72 1.32z"/><path d="m254.46 84.39h-6.22v-.13c0-.57-.06-.86-.2-1s-.54-.17-1.15-.16h-.42v-.1c0-1.41 0-2.51 0-3.39.06-2.58.07-3.12-.62-3.55a11.14 11.14 0 1 1 13-17.87 10.91 10.91 0 0 1 3.41 9.24 11.37 11.37 0 0 1 -5.54 8.57c-.7.41-.68 1-.63 3.56 0 .88.05 2 .05 3.38v.13h-.45a1.78 1.78 0 0 0 -1.15.19.71.71 0 0 0 -.16.43h.08zm-6-.25h5.72v-.14h-.08v-.13a.92.92 0 0 1 .24-.72 1.85 1.85 0 0 1 1.33-.27h.19c0-1.33 0-2.39 0-3.24-.05-2.6-.07-3.3.75-3.79a11.12 11.12 0 0 0 5.5-8.44 10.61 10.61 0 0 0 -3.33-9 10.89 10.89 0 1 0 -12.78 17.4c.82.51.81 1.14.75 3.78v3.26h.17c.66 0 1.07 0 1.32.24s.24.48.25 1.05zm5-.61h-4.46v-.1a1.46 1.46 0 0 0 -1.59-1.19h-.13v-.64h8v.64h-.13a1.47 1.47 0 0 0 -1.59 1.19zm-4.31-.25h4.1a1.72 1.72 0 0 1 1.75-1.28v-.14h-7.49v.14a1.68 1.68 0 0 1 1.72 1.28zm6.13-2.28h-8v-1.16h8zm-7.74-.25h7.46v-.65h-7.49zm7.74-1.51h-8v-1.12h8zm-7.74-.24h7.46v-.61h-7.49zm7.74-1.47h-8v-.13a2 2 0 0 0 -1-2.08 10.27 10.27 0 1 1 12-16.45 10.27 10.27 0 0 1 -2 16.49c-.84.4-1 1.1-1 2zm-7.74-.25h7.46a2.09 2.09 0 0 1 1.14-2.14 10.07 10.07 0 1 0 -9.77 0 2.24 2.24 0 0 1 1.17 2.12z"/><path d="m251.28 58.21a8.1 8.1 0 0 0 -8.08 8.08h.86a7.24 7.24 0 0 1 7.22-7.22z"/><path d="m244.19 66.42h-1.11v-.13a8.21 8.21 0 0 1 8.2-8.2h.13v1.11h-.13a7.1 7.1 0 0 0 -7.09 7.09zm-.86-.25h.61a7.35 7.35 0 0 1 7.22-7.17v-.61a8 8 0 0 0 -7.83 7.78z"/><path d="m264.61 66.21h3.87v.86h-3.87z"/><path d="m268.6 67.19h-4.12v-1.11h4.12zm-3.87-.25h3.62v-.61h-3.62z"/><path d="m234.09 66.21h3.87v.86h-3.87z"/><path d="m238.08 67.19h-4.08v-1.11h4.12zm-3.87-.25h3.62v-.61h-3.62z"/><path d="m250.85 49.01h.86v3.87h-.86z"/><path d="m251.84 53h-1.11v-4.11h1.11zm-.86-.25h.61v-3.61h-.59z"/><path d="m260.17 55.16h3.83v.86h-3.83z" transform="matrix(.70710678 -.70710678 .70710678 .70710678 37.45 201.6)"/><path d="m261 57.43-.78-.79 2.88-2.88.78.78zm-.43-.79.43.43 2.53-2.53-.43-.43z"/><path d="m238.55 76.79h3.83v.86h-3.83z" transform="matrix(.70710678 -.70710678 .70710678 .70710678 15.83 192.65)"/><path d="m239.42 79.05-.79-.78 2.88-2.89.79.79zm-.43-.78.43.43 2.58-2.53-.44-.43z"/><path d="m240.06 53.68h.86v3.83h-.86z" transform="matrix(.70710678 -.70710678 .70710678 .70710678 31.13 186.34)"/><path d="m241.54 57.43-2.88-2.88.78-.79 2.88 2.89zm-2.54-2.88 2.53 2.53.43-.43-2.53-2.53z"/><path d="m261.66 75.33h.86v3.83h-.86z" transform="matrix(.70710678 -.70710678 .70710678 .70710678 22.15 207.95)"/><path d="m263.13 79.07-2.88-2.88.79-.78 2.88 2.88zm-2.52-2.88 2.52 2.53.43-.43-2.56-2.53z"/></g><path d="m380.78 212.6a5.69 5.69 0 0 0 -5.67-5.67h-28.94a5.68 5.68 0 0 0 -5.67 5.67 5.68 5.68 0 0 0 5.67 5.67h28.94a5.69 5.69 0 0 0 5.67-5.67z" fill="#faa543"/><path d="m371.58 209.23a1.14 1.14 0 0 1 1.7.32l1.14 1.41c1.19-1.46 1.48-2 2.17-2a1.18 1.18 0 0 1 .93 1.86l-1.93 2.18c0 2.54.09 2.74-.33 3.18a1.16 1.16 0 0 1 -2-.83v-2.35c-1.44-1.63-3-2.8-1.68-3.77z" fill="#333"/><path d="m365.53 215.64a1 1 0 0 1 -.1-.45c0-4.56-.39-6.14 1.18-6.14h2.77a1 1 0 0 1 .85 1.54c-.39.67-1 .51-2.46.51v.62c.75 0 2.39-.24 2.39 1s-1.49 1-2.39 1v.63c.85 0 2.61-.24 2.61 1a1 1 0 0 1 -1.07 1c-2.75.05-3.31.26-3.78-.71z" fill="#333"/><path d="m360.89 216.39a1.21 1.21 0 0 1 -1.23-1.27c0-4.64-.32-6.14 1.18-6.14a1.17 1.17 0 0 1 1.17 1.18v4.2c1.29 0 2.69-.26 2.69 1a1 1 0 0 1 -1 1z" fill="#333"/><path d="m353.52 212.72a1.57 1.57 0 1 0 3.12 0 1.57 1.57 0 1 0 -3.12 0zm-1.63 2.1c-2.49-3.6 2.36-7.89 5.77-4.89a3.68 3.68 0 0 1 1.11 3.88 3.89 3.89 0 0 1 -6.88 1.01z" fill="#333"/><path d="m345.12 212.72a1.58 1.58 0 1 0 3.1-.31 1.56 1.56 0 1 0 -3.1.31zm-1.63 2.1c-2.5-3.62 2.38-7.88 5.77-4.89 4.39 3.85-2.64 9.43-5.77 4.89z" fill="#333"/></svg>