<svg viewBox="0 0 425.2 425.2" xmlns="http://www.w3.org/2000/svg"><path d="m212.6 14.91c-109.18 0-197.69 88.51-197.69 197.69h197.69z" fill="#f06faa"/><g fill="#231f20"><path d="m43.85 193a12.28 12.28 0 0 1 4.61-24.13 12.28 12.28 0 0 1 -4.61 24.13zm.76-4a8.27 8.27 0 1 0 -5.26-3.47 7.94 7.94 0 0 0 5.26 3.54z"/><path d="m50.57 142.53 1.66 3.53a8.64 8.64 0 0 0 -5.22 5.2 8 8 0 0 0 .23 6.39 8.55 8.55 0 0 0 11 4 8 8 0 0 0 4.26-4.76 8.62 8.62 0 0 0 -.67-7.33l3.53-1.66a11.94 11.94 0 0 1 .94 10.37 11.74 11.74 0 0 1 -6.35 7 12.6 12.6 0 0 1 -16.39-5.94 11.67 11.67 0 0 1 -.36-9.47 11.88 11.88 0 0 1 7.37-7.33z"/><path d="m71.72 143.7-1.99 3.52-20.49-11.61 1.97-3.48 13.18-3.41-3.86-13.05 1.97-3.48 20.5 11.6-1.99 3.52-15.55-8.81 3.85 13.01-13.13 3.39z"/><path d="m75.36 109.33.42-.52a7.74 7.74 0 0 1 5.19-3 7.12 7.12 0 0 1 5.65 1.59 7.25 7.25 0 0 1 2.83 5.19 8 8 0 0 1 -1.86 5.71l-2.94 3.67-18.38-14.7 2.52-3.15zm20.85-1.84-2.52 3.16-18.38-14.71 2.52-3.15zm-17.7 4.36 5.49 4.41.42-.52a3.54 3.54 0 1 0 -5.51-4.41z"/><path d="m100 76.59-.12 3.9a8.6 8.6 0 0 0 -7 2.28 8 8 0 0 0 -2.69 5.79 8.55 8.55 0 0 0 8 8.54 7.91 7.91 0 0 0 6-2.31 8.59 8.59 0 0 0 2.7-6.79l3.9.12a11.9 11.9 0 0 1 -3.85 9.67 11.74 11.74 0 0 1 -8.85 3.41 12.6 12.6 0 0 1 -11.93-12.76 11.73 11.73 0 0 1 4-8.62 11.87 11.87 0 0 1 9.84-3.23z"/><path d="m112.36 87.07a2.13 2.13 0 0 0 .6-.31c.87-.63 1-1.64.41-3a36.88 36.88 0 0 0 -3.88-6.25l-6-8.32 9.27-6.7 13.8 19.1-3.29 2.41-11.52-16-2.87 2.07 3.84 5.32q4.05 5.61 4.9 8.92a4.41 4.41 0 0 1 -1.72 5.15 7.25 7.25 0 0 1 -1.28.75z"/><path d="m126.61 54.22 2.03 3.48-6.1 3.57 2.88 4.94 5.81-3.39 2.04 3.49-5.82 3.39 2.89 4.94 6.1-3.56 2.04 3.49-9.6 5.59-11.87-20.35z"/><path d="m162.08 63.99-3.72 1.57-3.8-8.99-13.95 5.91 3.8 8.98-3.72 1.58-9.18-21.7 3.72-1.57 3.81 8.98 13.94-5.9-3.8-8.98 3.72-1.58z"/><path d="m177.38 59.88-3.89 1.1-3.69-12.94-1.33 14.37-3.88 1.11-6.46-22.65 3.88-1.11 3.7 12.95 1.32-14.38 3.88-1.11z"/><path d="m187.04 34.24.7 3.97-6.95 1.23.99 5.63 6.62-1.17.7 3.98-6.62 1.17.99 5.63 6.96-1.23.7 3.98-10.93 1.92-4.09-23.18z"/></g><path d="m14.91 212.6c0 109.18 88.51 197.68 197.69 197.68v-197.68z" fill="#8e91c7"/><path d="m45.82 255.07-8.26 2.36-1.13-4 23.13-6.61 1.32 4.63a8 8 0 0 1 -.53 6.12 7.28 7.28 0 0 1 -4.68 3.77 7.42 7.42 0 0 1 -6-.72 8.11 8.11 0 0 1 -3.67-4.89zm10.91-3.07-6.94 2 .19.66a3.62 3.62 0 1 0 6.94-2z" fill="#231f20"/><path d="m67.66 272.2-3.87 1.43-2.49-6.77-5.48 2.02 2.38 6.45-3.87 1.42-2.38-6.44-5.48 2.01 2.5 6.78-3.87 1.42-3.92-10.64 22.56-8.31z" fill="#231f20"/><path d="m48.38 288.55-2.17-4.1 26.87-.64 2.17 4.1-15.64 21.88-2.15-4.07 3.33-4.72-6.65-12.58zm21.62-.49-11.29.26 4.73 8.93z" fill="#231f20"/><path d="m64.86 309.94a2.22 2.22 0 0 0 .32.61c.65.89 1.68 1 3.06.42a38.36 38.36 0 0 0 6.36-4l8.48-6.15 6.86 9.45-19.46 14.14-2.42-3.34 16.26-11.81-2.11-2.91-5.43 3.93q-5.72 4.16-9.08 5a4.51 4.51 0 0 1 -5.26-1.75 7.22 7.22 0 0 1 -.78-1.3z" fill="#231f20"/><path d="m82.69 338.35-2.75-3.06 10.21-9.19-13.77 5.23-2.76-3.07 17.88-16.07 2.75 3.06-10.21 9.19 13.77-5.23 2.76 3.07z" fill="#231f20"/><path d="m94.13 338.3-.69.77a3.35 3.35 0 0 0 5 4.49c1.29-1.43 1.34-3.33-.49-5l-1.28-1.15 2.76-3.06 1.28 1.15c1.66 1.5 3.3 1.36 4.5 0a2.87 2.87 0 0 0 -.22-4.27 2.92 2.92 0 0 0 -4.24.24l-.46.51-3.06-2.77.46-.51a6.72 6.72 0 0 1 10.07-.53 6.93 6.93 0 0 1 2.51 4.9 6.6 6.6 0 0 1 -1.88 5.06 6.09 6.09 0 0 1 -5.5 2 6.3 6.3 0 0 1 -1.5 6.28 6.9 6.9 0 0 1 -5.08 2.49 7.46 7.46 0 0 1 -5.9-12.64l.69-.76z" fill="#231f20"/><path d="m103.39 356.82-3.84-2.59 23.45-13.23 3.84 2.6-3.48 26.67-3.82-2.58.72-5.73-11.8-8zm18.88-10.65-9.84 5.55 8.38 5.66z" fill="#231f20"/><path d="m138.16 377.26-10.98-5.31 10.47-21.65 3.72 1.8-8.68 17.93 4.63 2.25 8.68-17.94 3.72 1.8-8.69 17.93 2.63 1.28-4.34 8.96-3.71-1.79z" fill="#231f20"/><path d="m158.41 385.08-3.89-1.39 4.63-12.94-9.65 11.15-3.88-1.39 8.1-22.66 3.88 1.39-4.63 12.95 9.65-11.16 3.88 1.39z" fill="#231f20"/><path d="m167 387.45-5.08-1.24 9.29-7.36a7.5 7.5 0 0 1 -2.7-7.83 7.29 7.29 0 0 1 3.57-4.83 8 8 0 0 1 6.1-.78l4.68 1.13-5.67 23.38-4-1 1.93-7.95zm9.18-10.86 1.7-7-.67-.16a3.63 3.63 0 1 0 -1.7 7z" fill="#231f20"/><path d="m212.6 410.28c109.17 0 197.68-88.5 197.68-197.68h-197.68z" fill="#afd796"/><path d="m241.28 382.26 1.54 8.45-4 .74-4.33-23.66 4.74-.87a8 8 0 0 1 6 1.13 7.26 7.26 0 0 1 3.29 5 7.36 7.36 0 0 1 -1.3 5.89 8.11 8.11 0 0 1 -5.25 3.17zm-2-11.16 1.3 7.1.67-.12a3.62 3.62 0 1 0 -1.29-7.1z" fill="#231f20"/><path d="m259.6 387.27-4.41 1.44 3.93-26.6 4.41-1.44 18.91 19.14-4.38 1.43-4.06-4.09-13.53 4.42zm3.2-21.44-1.67 11.17 9.61-3.14z" fill="#231f20"/><path d="m285.69 369.1.45.92a3.35 3.35 0 0 0 6-2.95c-.85-1.73-2.59-2.48-4.82-1.39l-1.54.76-1.82-3.7 1.55-.76c2-1 2.49-2.57 1.7-4.17a2.88 2.88 0 0 0 -4-1.38 2.93 2.93 0 0 0 -1.36 4l.31.62-3.71 1.81-.3-.61c-1.89-3.86-.62-7.66 3.24-9.56a7 7 0 0 1 5.49-.51 6.6 6.6 0 0 1 4 3.63 6.07 6.07 0 0 1 -.2 5.84 6.31 6.31 0 0 1 5.28 3.73 6.9 6.9 0 0 1 .43 5.64 7.46 7.46 0 0 1 -13.93.79l-.45-.93z" fill="#231f20"/><path d="m301.88 359.73 4.54 7.29-3.5 2.18-12.73-20.42 4.08-2.55a8 8 0 0 1 6-1.17 7.28 7.28 0 0 1 4.91 3.46 7.42 7.42 0 0 1 1 6 8.11 8.11 0 0 1 -3.73 4.87zm-6-9.63 3.82 6.12.59-.36a3.63 3.63 0 1 0 -3.82-6.13z" fill="#231f20"/><path d="m320.8 357.63-3.57 3-6.23-26.19 3.57-3 24.63 10.78-3.53 2.94-5.31-2.28-10.89 9.12zm-5-21.09 2.59 11 7.76-6.47z" fill="#231f20"/><path d="m333.14 325.57.47-.51a8 8 0 0 1 5.49-2.76 7.28 7.28 0 0 1 5.66 2 7.41 7.41 0 0 1 2.54 5.48 8.13 8.13 0 0 1 -2.26 5.7l-3.24 3.52-17.8-16.17 8-8.76 3.05 2.78-5.21 5.71zm3.05 2.77 5.34 4.86.46-.51a3.62 3.62 0 1 0 -5.33-4.85z" fill="#231f20"/><path d="m343.87 319.17a12.56 12.56 0 1 1 9.38 2 12.12 12.12 0 0 1 -9.38-2zm2.35-3.39a8.44 8.44 0 1 0 -3.47-5.42 8.16 8.16 0 0 0 3.47 5.42z" fill="#231f20"/><path d="m352.28 292.34-3.66-1.9 6.3-12.21 3.66 1.89-2.2 4.27 17.72 9.14-1.9 3.67-17.71-9.14z" fill="#231f20"/><path d="m355.7 276.54 1.51-3.83 9.56 3.77-7.42-9.17 1.73-4.38 8.69 10.71 13.68-1.87-1.73 4.38-11.66 1.64 9.52 3.76-1.51 3.83z" fill="#231f20"/><path d="m386 264.08-1 4.51-20.57-17.28 1.08-4.51 26.19-6.06-1.08 4.47-5.62 1.34-3.32 13.82zm-16.57-13.95 8.64 7.27 2.36-9.82z" fill="#231f20"/><path d="m212.6 14.91v197.69h197.68c0-109.18-88.51-197.69-197.68-197.69z" fill="#ebdc61"/><path d="m269.5 41.72 3.82 1.28-.92 2.64a9.22 9.22 0 0 1 4.41 4.63 9.35 9.35 0 0 1 -4 11.46 9 9 0 0 1 -6.29.88l-.92 2.64-3.81-1.25.91-2.64a9.16 9.16 0 0 1 -4.42-4.6 8.72 8.72 0 0 1 -.1-6.48 8.61 8.61 0 0 1 4.08-5 9.26 9.26 0 0 1 6.33-.9zm-5.5 15.77 3.2-9.25a5 5 0 0 0 -3.2 9.25zm7-7.93-3.21 9.25a5 5 0 0 0 3.21-9.25z" fill="#231f20"/><path d="m277.66 69.91-4-2.13 21.43-15.3 4 2.13-.65 26.39-4-2.12.11-5.66-12.31-6.53zm17.28-12.31-9 6.42 8.74 4.64z" fill="#231f20"/><path d="m317.59 95.89-3.2-2.47 5.97-7.72-11.99-9.25-5.96 7.72-3.2-2.47 14.4-18.64 3.19 2.47-5.96 7.72 11.99 9.25 5.96-7.72 3.19 2.47z" fill="#231f20"/><path d="m332.72 83.69 2.86-2.85 9.5 9.54-2.86 2.85-3.33-3.34-13.83 13.78-2.85-2.86 13.84-13.78z" fill="#231f20"/><path d="m331.87 110.74-2.74-3.63 25.87-4.83 2.74 3.62-11.69 23.6-2.72-3.6 2.49-5.08-8.4-11.12zm20.86-3.88-10.87 2 6 7.89z" fill="#231f20"/><path d="m354.71 130-.88.49a3.28 3.28 0 0 0 3.17 5.74c1.65-.91 2.3-2.66 1.13-4.78l-.81-1.47 3.53-2 .82 1.47c1.06 1.91 2.62 2.32 4.15 1.47a2.81 2.81 0 0 0 1.16-4 2.87 2.87 0 0 0 -4-1.13l-.59.32-2-3.53.59-.33a6.59 6.59 0 0 1 9.5 2.72 6.8 6.8 0 0 1 .76 5.34 6.46 6.46 0 0 1 -3.36 4.08 6 6 0 0 1 -5.72.09 6.17 6.17 0 0 1 -3.39 5.33 6.77 6.77 0 0 1 -5.5.7 7.31 7.31 0 0 1 -1.43-13.59l.88-.49z" fill="#231f20"/><path d="m359.24 157.46-1.57-3.72 12.39-5.24-14.43.44-1.57-3.72 21.7-9.18 1.57 3.72-12.4 5.24 14.43-.44 1.58 3.72z" fill="#231f20"/><path d="m361.31 163.64-1.5-4.89 10.84 4.14a7.36 7.36 0 0 1 5.25-6.18 7.13 7.13 0 0 1 5.85.6 7.86 7.86 0 0 1 3.7 4.74l1.38 4.51-22.51 6.89-1.19-3.86 7.66-2.34zm13.69 2.36 6.76-2.07-.2-.64a3.54 3.54 0 1 0 -6.75 2.06z" fill="#231f20"/></svg>