<svg xmlns="http://www.w3.org/2000/svg" viewBox="0 0 425.2 425.2"><defs><style>.cls-1{fill:#e184ab;}.cls-2{fill:#231f20;}.cls-3{fill:#a19fce;}.cls-4{fill:#9ecced;}.cls-5{fill:#9dce76;}.cls-6{fill:#ebea76;}.cls-7{fill:#f08754;}</style></defs><g id="six"><g id="_6.summary" data-name="6.summary"><path id="_6" data-name="6" class="cls-1" d="M112,38.32A201.31,201.31,0,0,0,11.33,212.6H212.6Z"/><g id="text"><polygon class="cls-2" points="58.75 161.67 57.58 165.76 43.95 161.87 56.07 171.05 54.91 175.14 31.05 168.32 32.22 164.23 45.85 168.13 33.72 158.95 34.89 154.86 58.75 161.67"/><polygon class="cls-2" points="40.34 151.96 36.38 150.4 41.6 137.21 45.55 138.78 43.73 143.39 62.85 150.95 61.28 154.91 42.16 147.34 40.34 151.96"/><path class="cls-2" d="M54.23,138.56A12.93,12.93,0,1,1,66.88,116a12.93,12.93,0,0,1-12.65,22.56Zm2.08-3.71a8.7,8.7,0,1,0-4.1-5.22A8.36,8.36,0,0,0,56.31,134.85Z"/><polygon class="cls-2" points="81.96 116.88 79.42 120.28 59.53 105.47 66.51 96.09 69.92 98.63 65.48 104.6 81.96 116.88"/><polygon class="cls-2" points="97.22 98.78 94.36 101.93 83.86 92.4 90.67 106 87.81 109.15 69.43 92.48 72.29 89.33 82.79 98.85 75.98 85.26 78.83 82.11 97.22 98.78"/></g></g><g id="_5.details" data-name="5.details"><path id="_5" data-name="5" class="cls-3" d="M212.6,212.6H11.33A201.58,201.58,0,0,0,112,386.9Z"/><g id="text-2" data-name="text"><path class="cls-2" d="M22.49,253.16l-1.07-4.38,10.6-2.6.14.55c.61,2.53,2.74,2.82,8.12,1.5l13.89-3.39,3,12.43L36,262.46l.76,3.11-10.61,2.59-1.07-4.39,6.22-1.52-2.59-10.6Zm18.86-.53c-1.36.33-2.35.53-3,.66a8.82,8.82,0,0,1-4.63-.23l1.23,5L51.75,254l-.89-3.66Z"/><polygon class="cls-2" points="62.88 273.51 58.63 275.05 55.93 267.62 49.91 269.81 52.48 276.89 48.24 278.43 45.66 271.35 39.64 273.54 42.35 280.98 38.1 282.52 33.85 270.83 58.63 261.82 62.88 273.51"/><polygon class="cls-2" points="59.52 277.37 63.59 275.42 70.09 289.01 66.01 290.96 63.74 286.21 44.03 295.62 42.08 291.54 61.79 282.13 59.52 277.37"/><path class="cls-2" d="M50.57,308.31l-2.83-4.23L77,300.36l2.82,4.23L65.2,330.2,62.39,326l3.11-5.52-8.67-13Zm23.56-3-12.28,1.54L68,316.09Z"/><path class="cls-2" d="M71,329.83a2.77,2.77,0,0,0,.42.63c.82.89,2,.92,3.39.08a40.88,40.88,0,0,0,6.45-5.1l8.5-7.73,8.61,9.47-19.5,17.74-3-3.35,16.3-14.82-2.66-2.92-5.44,4.94c-3.81,3.47-6.9,5.67-9.29,6.57a4.94,4.94,0,0,1-5.94-1.27,7.84,7.84,0,0,1-1-1.33Z"/><polygon class="cls-2" points="94.09 358.69 90.7 355.7 100.66 344.4 86.32 351.84 82.93 348.86 100.36 329.08 103.75 332.07 93.79 343.37 108.13 335.93 111.52 338.92 94.09 358.69"/></g></g><g id="_4.work" data-name="4.work"><path id="_4" data-name="4" class="cls-4" d="M112,386.9a201.36,201.36,0,0,0,201.25,0L212.6,212.6Z"/><g id="text-3" data-name="text"><path class="cls-2" d="M146.65,378.53l-3.35,8.8-4.23-1.61,9.39-24.63,4.93,1.87a8.8,8.8,0,0,1,5,4.5,8,8,0,0,1,.23,6.57,8.1,8.1,0,0,1-4.57,4.79,8.88,8.88,0,0,1-6.72,0Zm4.42-11.61-2.81,7.39.7.27a4,4,0,1,0,2.82-7.39Z"/><path class="cls-2" d="M161.14,393.67l-5-1.12,18.61-22.82,5,1.12,7.07,28.61-4.93-1.11-1.55-6.14-15.2-3.43Zm15-18.38-7.84,9.58,10.8,2.43Z"/><path class="cls-2" d="M197.39,383l.75.06a8.78,8.78,0,0,1,6.09,2.88,8.52,8.52,0,0,1-.94,12.13,8.87,8.87,0,0,1-6.45,1.88l-5.26-.4,2-26.29,13,1-.35,4.51-8.45-.65Zm-.35,4.5-.6,7.89.75.06a4,4,0,1,0,.6-7.89Z"/><path class="cls-2" d="M210.17,388a13.75,13.75,0,1,1,4.65,9.44A13.25,13.25,0,0,1,210.17,388Zm4.51-.29A9.25,9.25,0,1,0,217,381,8.91,8.91,0,0,0,214.68,387.66Z"/><polygon class="cls-2" points="238.9 376.84 237.98 372.42 252.73 369.36 253.65 373.79 248.48 374.86 252.92 396.25 248.49 397.17 244.06 375.77 238.9 376.84"/><path class="cls-2" d="M266.81,392.92,262,394.66l3.33-29.27,4.78-1.73,21.4,20.26-4.74,1.72-4.62-4.33-14.65,5.34Zm2.71-23.59-1.41,12.3,10.4-3.79Z"/></g></g><g id="_3.plan" data-name="3.plan"><path id="_3" data-name="3" class="cls-5" d="M413.85,212.6H212.6L313.21,386.89A201.34,201.34,0,0,0,413.85,212.6Z"/><g id="text-4" data-name="text"><polygon class="cls-2" points="341.73 348.95 338.5 352.11 320.07 333.24 330.85 322.71 349.28 341.58 346.04 344.74 330.78 329.11 326.47 333.32 341.73 348.95"/><path class="cls-2" d="M349,335.6a2.75,2.75,0,0,0,.56-.51c.76-.94.63-2.07-.41-3.36a42.1,42.1,0,0,0-6-5.65l-8.89-7.28,8.12-9.91,20.4,16.72-2.87,3.5-17.05-14-2.51,3.06,5.69,4.65c4,3.27,6.62,6,7.86,8.25a4.94,4.94,0,0,1-.39,6.06,8.16,8.16,0,0,1-1.17,1.18Z"/><path class="cls-2" d="M368.6,317.68l-2.6,4.38-16-24.75,2.59-4.37L382,295.05l-2.57,4.34-6.32-.42-7.95,13.4Zm-12.85-20,6.7,10.41,5.64-9.53Z"/><polygon class="cls-2" points="393.1 265.8 391.53 270.04 381.29 266.25 375.4 282.14 385.65 285.93 384.08 290.17 359.35 281.02 360.92 276.78 371.17 280.57 377.05 264.68 366.8 260.89 368.37 256.65 393.1 265.8"/></g></g><g id="_2.image" data-name="2.image"><path id="_2" data-name="2" class="cls-6" d="M413.85,212.6A201.58,201.58,0,0,0,313.22,38.3L212.6,212.6Z"/><g id="text-5" data-name="text"><path class="cls-2" d="M328.87,82a12.93,12.93,0,0,1,18,18.59,12.93,12.93,0,1,1-18-18.59ZM331.82,85A8.72,8.72,0,1,0,338,82.6,8.4,8.4,0,0,0,331.82,85Z"/><path class="cls-2" d="M354.51,105.24l.42.57a8.23,8.23,0,0,1,1.69,6.11,7.49,7.49,0,0,1-3.17,5.33,7.64,7.64,0,0,1-6.05,1.46,8.35,8.35,0,0,1-5.31-3.44l-2.94-4,20-14.72,7.25,9.84L363,108.93l-4.74-6.43Zm-3.42,2.52-6,4.42.42.57a3.74,3.74,0,1,0,6-4.42Z"/><path class="cls-2" d="M358.26,123.29l-7.61,4.54-2.18-3.65,21.31-12.71,2.54,4.26a8.26,8.26,0,0,1,1.09,6.25,7.52,7.52,0,0,1-3.67,5,7.63,7.63,0,0,1-6.17.87,8.39,8.39,0,0,1-4.95-3.94Zm10.05-6-6.4,3.81.37.61a3.74,3.74,0,1,0,6.39-3.81Z"/><path class="cls-2" d="M358.06,140.62l-1.85-4.41L383.88,138l1.85,4.41-18.05,21.07-1.84-4.38,3.85-4.55L364,141Zm22.31,1.45-11.63-.75,4.05,9.6Z"/><path class="cls-2" d="M376.43,166.14l-1,.27a3.46,3.46,0,0,0,1.75,6.69c1.92-.51,3-2.12,2.39-4.59l-.45-1.71,4.11-1.08.45,1.71c.59,2.23,2.08,3,3.87,2.58a3,3,0,0,0,2.22-3.81A3,3,0,0,0,386,164l-.68.18-1.08-4.11.68-.18c4.29-1.13,7.87.94,9,5.22a7.19,7.19,0,0,1-.61,5.66,6.8,6.8,0,0,1-4.48,3.3,6.26,6.26,0,0,1-5.86-1.39,6.53,6.53,0,0,1-4.85,4.57,7.15,7.15,0,0,1-5.8-.72,7.7,7.7,0,0,1,2.05-14.24l1-.27Z"/></g></g><g id="_1.rest" data-name="1.rest"><path id="_1" data-name="1" class="cls-7" d="M212.6,212.6,313.22,38.3a201.36,201.36,0,0,0-201.25,0Z"/><g id="text-6" data-name="text"><path class="cls-2" d="M149.2,49.71a12.92,12.92,0,1,1,16.16,8.56,12.94,12.94,0,0,1-16.16-8.56Zm4.06-1.25a8.68,8.68,0,1,0,12.36-10.21,8.68,8.68,0,0,0-12.36,10.21Z"/><polygon class="cls-2" points="175.94 33.67 175.24 29.48 189.23 27.16 189.93 31.35 185.03 32.16 188.39 52.45 184.2 53.15 180.83 32.86 175.94 33.67"/><path class="cls-2" d="M198.57,57.21l-4.24.24-.57-10.27.53,0c2.44-.13,3.08-2,2.79-7.25l-.75-13.45,12-.67,1.14,20.53,3-.17.57,10.26-4.24.24-.34-6-10.26.57Zm2.75-17.55c.08,1.31.1,2.27.1,2.91a8.24,8.24,0,0,1-1,4.24l4.85-.27-.91-16.27-3.54.19Z"/><path class="cls-2" d="M219.87,34.76l.71.05a8.21,8.21,0,0,1,5.74,2.69,7.46,7.46,0,0,1,2,5.87,7.57,7.57,0,0,1-2.82,5.55,8.35,8.35,0,0,1-6.06,1.8l-5-.36,1.79-24.75,4.25.31Zm-.3,4.24L219,46.42l.71.06a3.74,3.74,0,1,0,.53-7.43Zm14.35,12.77-4.24-.31,1.8-24.75,4.24.31Z"/><polygon class="cls-2" points="241.09 52.98 235.53 51.69 249.22 42.13 241.15 27.52 246.71 28.81 252.69 39.7 262.9 32.57 268.46 33.87 254.78 43.42 262.84 58.04 257.29 56.74 251.26 45.88 241.09 52.98"/></g></g></g></svg>