<svg viewBox="0 0 425.2 425.2" xmlns="http://www.w3.org/2000/svg"><path d="m212.6 413.86c111.15 0 201.26-90.11 201.26-201.26h-402.52c0 111.15 90.11 201.26 201.26 201.26z" fill="#7aa6d8"/><path d="m71.42 317.35-5.82-5.96 34.79-33.95 5.78 5.92-.84 28.01h28.09l5.77 5.84-34.8 33.95-5.81-5.97 26.39-25.68h-27.99l.83-27.91z" fill="#231f20"/><path d="m126.86 364.37-8.67-3.56 40.81-35.76 8.67 3.55 4 54.18-8.61-3.53-.93-11.63-26.59-10.9zm33-28.8-17.19 15 18.88 7.74z" fill="#231f20"/><path d="m187.32 343.19.68-8.32 27.72 2.27-.68 8.31-9.7-.79-3.28 40.17-8.31-.68 3.28-40.17z" fill="#231f20"/><path d="m240.14 334.08 1.02 8.27-14.47 1.79 1.44 11.72 13.79-1.71 1.02 8.27-13.78 1.7 1.44 11.72 14.48-1.79 1.02 8.27-22.74 2.81-5.97-48.24z" fill="#231f20"/><path d="m261.14 360.35 5.66 16.4-7.87 2.72-15.88-45.93 9.19-3.18a16.23 16.23 0 0 1 12.41.41 14.66 14.66 0 0 1 8.11 9 15 15 0 0 1 -.76 12.23 16.42 16.42 0 0 1 -9.53 7.92zm-7.49-21.66 4.76 13.78 1.31-.45c4.27-1.48 6.55-5.5 5.17-9.5s-5.66-5.76-9.93-4.28z" fill="#231f20"/><path d="m318.46 350.91-7.07 4.41-14.71-23.57 5.58 29.26-7.07 4.42-25.74-41.25 7.08-4.41 14.7 23.57-5.57-29.27 7.07-4.41z" fill="#231f20"/><path d="m334.83 336.73-7.4 7.51-3.12-23.74a15.15 15.15 0 0 1 -16.37-3.5 14.66 14.66 0 0 1 -4.65-11.21 16.16 16.16 0 0 1 5-11.38l6.83-6.92 34.62 34.13-5.85 5.93-11.8-11.55zm-9.27-27.19-10.39-10.24-1 1c-3.17 3.22-3.43 7.83-.41 10.81s7.62 2.64 10.79-.57z" fill="#231f20"/><path d="m212.6 11.34c-111.15 0-201.26 90.11-201.26 201.26h402.52c0-111.15-90.11-201.26-201.26-201.26z" fill="#fbad56"/><g fill="#231f20"><path d="m69.56 121.47 2.44 7.47a17.32 17.32 0 0 0 -11.67 9.11 16 16 0 0 0 -1.1 12.8 17.2 17.2 0 0 0 21 10.65 16 16 0 0 0 9.7-8.5 17.34 17.34 0 0 0 .44-14.8l7.46-2.45a24 24 0 0 1 -.65 20.92c-3.22 6.35-8 10.53-14.39 12.53a24.25 24.25 0 0 1 -18.79-1.6 24.23 24.23 0 0 1 -12.5-14.21 23.58 23.58 0 0 1 1.58-19 24 24 0 0 1 16.48-12.92z"/><path d="m89.5 120.19a24.72 24.72 0 0 1 1.59-34.89 24.74 24.74 0 0 1 34.91 1.59 24.72 24.72 0 0 1 -1.6 34.9 24.71 24.71 0 0 1 -34.89-1.6zm6-5.47a16.58 16.58 0 0 0 24.5-22.36 16.58 16.58 0 0 0 -24.5 22.36z"/><path d="m144.87 87.06.85 1.85a6.4 6.4 0 0 0 8.71 3.22 6.33 6.33 0 0 0 3.29-8.73c-1.58-3.45-5-5-9.41-3l-3.08 1.41-3.39-7.38 3.08-1.43c4-1.83 5-4.92 3.57-8.12a5.68 5.68 0 0 0 -7.9-2.92 5.78 5.78 0 0 0 -2.87 7.87l.57 1.23-7.39 3.38-.56-1.23c-3.53-7.69-.83-15.11 6.86-18.64a13.71 13.71 0 0 1 10.8-.7 13 13 0 0 1 7.69 7.34 12 12 0 0 1 -.68 11.49 12.46 12.46 0 0 1 10.19 7.61 13.67 13.67 0 0 1 .58 11.14 16.14 16.14 0 0 1 -19.33 8.87 14.48 14.48 0 0 1 -8.15-8l-.85-1.84z"/><path d="m219.61 84.64-8.06.99-2.39-19.49-30.23 3.72 2.39 19.48-8.06.99-5.78-47.03 8.06-.99 2.39 19.49 30.24-3.72-2.4-19.48 8.06-.99z"/><path d="m228.69 86.09-8.83-2.38 35.14-39.59 8.82 2.38 10.53 51.92-8.76-2.37-2.32-11.14-27.06-7.3zm28.37-31.89-14.79 16.62 19.22 5.18z"/><path d="m311.23 127.88-6.44-4.95 11.94-15.57-24.17-18.54-11.95 15.57-6.44-4.94 28.84-37.6 6.44 4.95-11.94 15.57 24.16 18.54 11.95-15.58 6.45 4.95z"/><path d="m328.08 153.43-4.68-6.64 22.15-15.57-28.18 6.99-4.67-6.64 38.75-27.26 4.67 6.65-22.14 15.57 28.18-6.99 4.67 6.64z"/><path d="m382.29 159.62-7.5 3.13-5.48-13.13-10.62 4.44 5.21 12.5-7.5 3.12-5.21-12.5-10.62 4.44 5.47 13.12-7.5 3.13-8.6-20.62 43.74-18.25z"/></g></svg>