<svg viewBox="0 0 48.19 48.19" xmlns="http://www.w3.org/2000/svg"><rect fill="#94d1e0" height="45.04" rx="22.52" width="45.04" x="1.63" y="1.57"/><g fill="#1d1d1b"><path d="m37.62 17.2a2.18 2.18 0 0 0 -2.18-2.2h-6.08v-1.28a2.17 2.17 0 0 0 -2.17-2.17h-6.08a2.18 2.18 0 0 0 -2.18 2.17v1.28h-6.07a2.18 2.18 0 0 0 -2.18 2.17v13.94a2.18 2.18 0 0 0 2.18 2.17h22.58a2.18 2.18 0 0 0 2.18-2.17zm-16.51-4.78c7.81 0 7.39-.47 7.39 2.61h-8.69c0-1.24-.15-2.61 1.3-2.61zm14.33 3.48c1.66 0 1.31 1.73 1.31 4.78h-25.2v-3.48c0-1.81.19-1.3 23.89-1.3zm-5.21 5.65h1.77v2.17h-1.77zm-13.9 0h1.74v2.17h-1.74zm19.11 10.86c-23.78 0-23.89.49-23.89-1.3v-9.56h3.91v3h3.47v-3h10.43v3h3.47v-3h3.91c0 9.45.44 10.86-1.3 10.86z"/><path d="m23.72 18.07h.87v.87h-.87z"/><path d="m21.98 18.07h.87v.87h-.87z"/><path d="m25.45 18.07h.87v.87h-.87z"/></g></svg>