<svg xmlns="http://www.w3.org/2000/svg" viewBox="0 0 234.4 66"><defs><style>.cls-1{fill:#ffa640;}.cls-2{fill:#333;}</style></defs><g id="Layer_3" data-name="Layer 3"><path class="cls-1" d="M234.4,33a33.1,33.1,0,0,0-33-33H33A33.1,33.1,0,0,0,0,33H0A33.1,33.1,0,0,0,33,66H201.4A33.1,33.1,0,0,0,234.4,33Z"/><path class="cls-2" d="M180.86,13.38c3.59-2.62,7.09-1.58,9.93,1.86l6.63,8.23c6.93-8.51,8.6-11.56,12.64-11.56,5.45,0,8.78,7.09,5.39,10.88L204.24,35.07c0,14.77.53,15.91-2,18.5-4,4.36-11.61,1.57-11.61-4.88V35.07c-8.41-9.2-17.46-16-9.81-21.69Z"/><path class="cls-2" d="M145.66,50.68a6.37,6.37,0,0,1-.55-2.58c0-26.55-2.3-35.73,6.83-35.73h16.15a6,6,0,0,1,4.92,9c-2.24,3.91-5.75,3-14.33,3v3.59c4.4,0,13.94-1.38,13.94,5.83,0,7-8.66,5.79-13.93,5.79v3.71c5,0,15.23-1.42,15.23,6a6.05,6.05,0,0,1-6.23,5.89c-16,0-19.52,1.21-22-4.42Z"/><path class="cls-2" d="M118.65,55.09a7,7,0,0,1-7.12-7.39c0-27-1.91-35.79,6.83-35.79a6.84,6.84,0,0,1,6.83,6.92V43.27c7.52,0,15.66-1.55,15.66,6a5.76,5.76,0,0,1-5.73,5.82Z"/><path class="cls-2" d="M66.27,45.94C51.58,25.13,80,0,99.88,17.44a21.55,21.55,0,0,1,6.47,22.63c-5.77,17.91-29.87,21-40.08,5.87Z"/><path class="cls-2" d="M17.39,45.94C2.62,25,31.24.09,51,17.44c25.57,22.46-15.68,55.12-33.6,28.5Z"/></g></svg>