<svg viewBox="0 0 48.19 48.19" xmlns="http://www.w3.org/2000/svg"><rect fill="#ea5599" height="45.04" rx="22.52" width="45.04" x="1.63" y="1.57"/><g fill="#1d1d1b"><path d="m21 13.72c0-3.55-5.37-3.55-5.37 0s5.37 3.55 5.37 0zm-.67 0a2 2 0 0 1 -4 0 2 2 0 0 1 4 0z"/><path d="m24.76 17.7 4.35-4.35-.47-.48-4.36 4.36c-.86.77-1.28.51-9.42.51-1.83.09-2.57 2.33-1.2 3.82l5.78 5.78.48-.47-5.78-5.77c-1-1.11-.46-2.68.82-2.68 7.8 0 8.65.34 9.8-.72z"/><path d="m23.68 15.68a1.86 1.86 0 0 0 .6-.38l.08-.07v-3.52h12.07v8.05h-12.74v.67h13.41v-9.43h-13.42z"/><path d="m21.67 36.53h.67v-11.41l-.67.68z"/><path d="m18.65 36.53h.67v-8.05l-.67-.67z"/><path d="m15.63 36.53h.67v-10.73l-.67-.68z"/></g></svg>