<svg viewBox="0 0 425.2 425.2" xmlns="http://www.w3.org/2000/svg"><path d="m112 38.32a201.31 201.31 0 0 0 -100.67 174.28h201.27z" fill="#e184ab"/><path d="m58.75 161.67-1.17 4.09-13.63-3.89 12.12 9.18-1.16 4.09-23.86-6.82 1.17-4.09 13.63 3.9-12.13-9.18 1.17-4.09z" fill="#231f20"/><path d="m40.34 151.96-3.96-1.56 5.22-13.19 3.95 1.57-1.82 4.61 19.12 7.56-1.57 3.96-19.12-7.57z" fill="#231f20"/><path d="m54.23 138.56a12.93 12.93 0 1 1 12.65-22.56 12.93 12.93 0 0 1 -12.65 22.56zm2.08-3.71a8.7 8.7 0 1 0 -4.1-5.22 8.36 8.36 0 0 0 4.1 5.22z" fill="#231f20"/><path d="m81.96 116.88-2.54 3.4-19.89-14.81 6.98-9.38 3.41 2.54-4.44 5.97z" fill="#231f20"/><path d="m97.22 98.78-2.86 3.15-10.5-9.53 6.81 13.6-2.86 3.15-18.38-16.67 2.86-3.15 10.5 9.52-6.81-13.59 2.85-3.15z" fill="#231f20"/><path d="m212.6 212.6h-201.27a201.58 201.58 0 0 0 100.67 174.3z" fill="#a19fce"/><g fill="#231f20"><path d="m22.49 253.16-1.07-4.38 10.6-2.6.14.55c.61 2.53 2.74 2.82 8.12 1.5l13.89-3.39 3 12.43-21.17 5.19.76 3.11-10.61 2.59-1.07-4.39 6.22-1.52-2.59-10.6zm18.86-.53c-1.36.33-2.35.53-3 .66a8.82 8.82 0 0 1 -4.63-.23l1.23 5 16.8-4.06-.89-3.66z"/><path d="m62.88 273.51-4.25 1.54-2.7-7.43-6.02 2.19 2.57 7.08-4.24 1.54-2.58-7.08-6.02 2.19 2.71 7.44-4.25 1.54-4.25-11.69 24.78-9.01z"/><path d="m59.52 277.37 4.07-1.95 6.5 13.59-4.08 1.95-2.27-4.75-19.71 9.41-1.95-4.08 19.71-9.41z"/><path d="m50.57 308.31-2.83-4.23 29.26-3.72 2.82 4.23-14.62 25.61-2.81-4.2 3.11-5.52-8.67-13zm23.56-3-12.28 1.54 6.15 9.24z"/><path d="m71 329.83a2.77 2.77 0 0 0 .42.63c.82.89 2 .92 3.39.08a40.88 40.88 0 0 0 6.45-5.1l8.5-7.73 8.61 9.47-19.5 17.74-3-3.35 16.3-14.82-2.66-2.92-5.44 4.94c-3.81 3.47-6.9 5.67-9.29 6.57a4.94 4.94 0 0 1 -5.94-1.27 7.84 7.84 0 0 1 -1-1.33z"/><path d="m94.09 358.69-3.39-2.99 9.96-11.3-14.34 7.44-3.39-2.98 17.43-19.78 3.39 2.99-9.96 11.3 14.34-7.44 3.39 2.99z"/></g><path d="m112 386.9a201.36 201.36 0 0 0 201.25 0l-100.65-174.3z" fill="#9ecced"/><path d="m146.65 378.53-3.35 8.8-4.23-1.61 9.39-24.63 4.93 1.87a8.8 8.8 0 0 1 5 4.5 8 8 0 0 1 .23 6.57 8.1 8.1 0 0 1 -4.57 4.79 8.88 8.88 0 0 1 -6.72 0zm4.42-11.61-2.81 7.39.7.27a4 4 0 1 0 2.82-7.39z" fill="#231f20"/><path d="m161.14 393.67-5-1.12 18.61-22.82 5 1.12 7.07 28.61-4.93-1.11-1.55-6.14-15.2-3.43zm15-18.38-7.84 9.58 10.8 2.43z" fill="#231f20"/><path d="m197.39 383 .75.06a8.78 8.78 0 0 1 6.09 2.88 8.52 8.52 0 0 1 -.94 12.13 8.87 8.87 0 0 1 -6.45 1.88l-5.26-.4 2-26.29 13 1-.35 4.51-8.45-.65zm-.35 4.5-.6 7.89.75.06a4 4 0 1 0 .6-7.89z" fill="#231f20"/><path d="m210.17 388a13.75 13.75 0 1 1 4.65 9.44 13.25 13.25 0 0 1 -4.65-9.44zm4.51-.29a9.25 9.25 0 1 0 2.32-6.71 8.91 8.91 0 0 0 -2.32 6.66z" fill="#231f20"/><path d="m238.9 376.84-.92-4.42 14.75-3.06.92 4.43-5.17 1.07 4.44 21.39-4.43.92-4.43-21.4z" fill="#231f20"/><path d="m266.81 392.92-4.81 1.74 3.33-29.27 4.78-1.73 21.4 20.26-4.74 1.72-4.62-4.33-14.65 5.34zm2.71-23.59-1.41 12.3 10.4-3.79z" fill="#231f20"/><path d="m413.85 212.6h-201.25l100.61 174.29a201.34 201.34 0 0 0 100.64-174.29z" fill="#9dce76"/><path d="m341.73 348.95-3.23 3.16-18.43-18.87 10.78-10.53 18.43 18.87-3.24 3.16-15.26-15.63-4.31 4.21z" fill="#231f20"/><path d="m349 335.6a2.75 2.75 0 0 0 .56-.51c.76-.94.63-2.07-.41-3.36a42.1 42.1 0 0 0 -6-5.65l-8.89-7.28 8.12-9.91 20.4 16.72-2.87 3.5-17.05-14-2.51 3.06 5.69 4.65c4 3.27 6.62 6 7.86 8.25a4.94 4.94 0 0 1 -.39 6.06 8.16 8.16 0 0 1 -1.17 1.18z" fill="#231f20"/><path d="m368.6 317.68-2.6 4.38-16-24.75 2.59-4.37 29.41 2.11-2.57 4.34-6.32-.42-7.95 13.4zm-12.85-20 6.7 10.41 5.64-9.53z" fill="#231f20"/><path d="m393.1 265.8-1.57 4.24-10.24-3.79-5.89 15.89 10.25 3.79-1.57 4.24-24.73-9.15 1.57-4.24 10.25 3.79 5.88-15.89-10.25-3.79 1.57-4.24z" fill="#231f20"/><path d="m413.85 212.6a201.58 201.58 0 0 0 -100.63-174.3l-100.62 174.3z" fill="#ebea76"/><path d="m328.87 82a12.93 12.93 0 0 1 18 18.59 12.93 12.93 0 1 1 -18-18.59zm2.95 3a8.72 8.72 0 1 0 6.18-2.4 8.4 8.4 0 0 0 -6.18 2.4z" fill="#231f20"/><path d="m354.51 105.24.42.57a8.23 8.23 0 0 1 1.69 6.11 7.49 7.49 0 0 1 -3.17 5.33 7.64 7.64 0 0 1 -6.05 1.46 8.35 8.35 0 0 1 -5.31-3.44l-2.94-4 20-14.72 7.25 9.84-3.4 2.54-4.74-6.43zm-3.42 2.52-6 4.42.42.57a3.74 3.74 0 1 0 6-4.42z" fill="#231f20"/><path d="m358.26 123.29-7.61 4.54-2.18-3.65 21.31-12.71 2.54 4.26a8.26 8.26 0 0 1 1.09 6.25 7.52 7.52 0 0 1 -3.67 5 7.63 7.63 0 0 1 -6.17.87 8.39 8.39 0 0 1 -4.95-3.94zm10.05-6-6.4 3.81.37.61a3.74 3.74 0 1 0 6.39-3.81z" fill="#231f20"/><path d="m358.06 140.62-1.85-4.41 27.67 1.79 1.85 4.41-18.05 21.07-1.84-4.38 3.85-4.55-5.69-13.55zm22.31 1.45-11.63-.75 4.05 9.6z" fill="#231f20"/><path d="m376.43 166.14-1 .27a3.46 3.46 0 0 0 1.75 6.69c1.92-.51 3-2.12 2.39-4.59l-.45-1.71 4.11-1.08.45 1.71c.59 2.23 2.08 3 3.87 2.58a3 3 0 0 0 2.22-3.81 3 3 0 0 0 -3.77-2.2l-.68.18-1.08-4.11.68-.18c4.29-1.13 7.87.94 9 5.22a7.19 7.19 0 0 1 -.61 5.66 6.8 6.8 0 0 1 -4.48 3.3 6.26 6.26 0 0 1 -5.86-1.39 6.53 6.53 0 0 1 -4.85 4.57 7.15 7.15 0 0 1 -5.8-.72 7.7 7.7 0 0 1 2.05-14.24l1-.27z" fill="#231f20"/><path d="m212.6 212.6 100.62-174.3a201.36 201.36 0 0 0 -201.25 0z" fill="#f08754"/><path d="m149.2 49.71a12.92 12.92 0 1 1 16.16 8.56 12.94 12.94 0 0 1 -16.16-8.56zm4.06-1.25a8.68 8.68 0 1 0 12.36-10.21 8.68 8.68 0 0 0 -12.36 10.21z" fill="#231f20"/><path d="m175.94 33.67-.7-4.19 13.99-2.32.7 4.19-4.9.81 3.36 20.29-4.19.7-3.37-20.29z" fill="#231f20"/><path d="m198.57 57.21-4.24.24-.57-10.27h.53c2.44-.13 3.08-2 2.79-7.25l-.75-13.45 12-.67 1.14 20.53 3-.17.57 10.26-4.24.24-.34-6-10.26.57zm2.75-17.55c.08 1.31.1 2.27.1 2.91a8.24 8.24 0 0 1 -1 4.24l4.85-.27-.91-16.27-3.54.19z" fill="#231f20"/><path d="m219.87 34.76.71.05a8.21 8.21 0 0 1 5.74 2.69 7.46 7.46 0 0 1 2 5.87 7.57 7.57 0 0 1 -2.82 5.55 8.35 8.35 0 0 1 -6.06 1.8l-5-.36 1.79-24.75 4.25.31zm-.3 4.24-.57 7.42.71.06a3.74 3.74 0 1 0 .53-7.43zm14.35 12.77-4.24-.31 1.8-24.75 4.24.31z" fill="#231f20"/><path d="m241.09 52.98-5.56-1.29 13.69-9.56-8.07-14.61 5.56 1.29 5.98 10.89 10.21-7.13 5.56 1.3-13.68 9.55 8.06 14.62-5.55-1.3-6.03-10.86z" fill="#231f20"/></svg>