<svg viewBox="0 0 526.07 921.57" xmlns="http://www.w3.org/2000/svg"><g fill="none" stroke-width="9"><path d="m210.54 703.38c-3.12 0-4.39-2.21-2.84-4.91l52.5-90.92c1.56-2.7 4.11-2.7 5.67 0l52.5 90.92c1.56 2.7.28 4.91-2.84 4.91z" stroke="#f9c716" stroke-miterlimit="10"/><path d="m263.04 670.73 29.73-17.17" stroke="#f9c716" stroke-miterlimit="10"/><path d="m263.04 670.73-29.74-17.17" stroke="#f9c716" stroke-miterlimit="10"/><path d="m263.04 670.73v34.34" stroke="#f9c716" stroke-miterlimit="10"/><path d="m315.53 412.13c3.12 0 4.4 2.21 2.84 4.91l-52.5 90.96c-1.56 2.7-4.11 2.7-5.67 0l-52.5-91c-1.55-2.7-.28-4.91 2.84-4.91z" stroke="#ff4f00" stroke-miterlimit="10"/><path d="m263.79 445.17 53.11-30.67" stroke="#ff4f00" stroke-miterlimit="10"/><path d="m263.79 445.17-53.12-30.67" stroke="#ff4f00" stroke-miterlimit="10"/><path d="m262.98 445.17v61.33" stroke="#ff4f00" stroke-miterlimit="10"/><path d="m211.16 68.32a5.44 5.44 0 0 1 2.45-4.25l47-27.12a5.44 5.44 0 0 1 4.91 0l47 27.12a5.44 5.44 0 0 1 2.45 4.25v54.23a5.46 5.46 0 0 1 -2.45 4.26l-47 27.11a5.44 5.44 0 0 1 -4.91 0l-47-27.11a5.46 5.46 0 0 1 -2.45-4.26z" stroke="#6b1687" stroke-linejoin="round"/><path d="m263.04 94.53 49-28.29" stroke="#6b1687" stroke-linejoin="round"/><path d="m263.04 94.53-49.01-28.29" stroke="#6b1687" stroke-linejoin="round"/><path d="m263.04 94.53v56.59" stroke="#6b1687" stroke-linejoin="round"/><path d="m185.62 611.49h-114.56a5.64 5.64 0 0 1 -5.62-5.63v-108.92a5.65 5.65 0 0 1 5.62-5.63h114.56" stroke="#4fa0ca" stroke-linecap="round" stroke-linejoin="round"/><path d="m185.62 491.39-18.08-31.31" stroke="#4fa0ca" stroke-linecap="round" stroke-linejoin="round"/><path d="m185.62 491.39-18.08 31.15" stroke="#4fa0ca" stroke-linecap="round" stroke-linejoin="round"/><path d="m95.6 280.32v112.36" stroke="#80c41c" stroke-linecap="round" stroke-linejoin="round"/><path d="m155.45 280.32v29.76" stroke="#80c41c" stroke-linecap="round" stroke-linejoin="round"/><path d="m155.28 280.32h-29.75" stroke="#80c41c" stroke-linecap="round" stroke-linejoin="round"/><path d="m151.65 392.68-50.3-50.3a5.64 5.64 0 0 1 0-8l54.1-54.1" stroke="#80c41c" stroke-linecap="round" stroke-linejoin="round"/><path d="m213.39 272.58 46.83-81.12c1.55-2.68 4.08-2.68 5.63 0l46.83 81.12" stroke="#13007c" stroke-linecap="round" stroke-linejoin="round"/><path d="m296.55 248.26a40.39 40.39 0 0 1 -66.83.2" stroke="#13007c" stroke-linecap="round" stroke-linejoin="round"/><path d="m305.42 854.33a10.7 10.7 0 0 1 -4.95 8.44l-46.23 25.87c-2.72 1.52-5 .22-5-2.9v-73a10.7 10.7 0 0 1 5-8.44l46.23-25.87c2.72-1.52 4.95-.22 4.95 2.9z" stroke="#f00" stroke-linejoin="round"/><path d="m249.43 861.9h-23.11a5.69 5.69 0 0 1 -5.67-5.67v-73a5.69 5.69 0 0 1 5.67-5.67h73.43a5.68 5.68 0 0 1 5.67 5.67v59.46" stroke="#f00" stroke-linejoin="round"/></g><text fill="#13007c" font-family="Lineatura" font-size="33" transform="translate(341.96 229.58)">АДМИНИ-<tspan x="0" y="39.6">СТ</tspan><tspan letter-spacing="-.14em" x="39.1" y="39.6">Р</tspan><tspan letter-spacing="-.09em" x="49.83" y="39.6">А</tspan><tspan letter-spacing="-.04em" x="75.04" y="39.6">Т</tspan><tspan x="88.9" y="39.6">ОР</tspan></text><text fill="#6b1687" font-family="Lineatura" font-size="33" transform="translate(341.96 108.83)">М<tspan letter-spacing="-.06em" x="29.7" y="0">А</tspan><tspan x="55.9" y="0">СТЕР</tspan></text><text fill="#80c41c" font-family="Lineatura" font-size="33" letter-spacing="-.03em" transform="translate(194.79 354)">К<tspan letter-spacing="0em" x="15.71" y="0">У</tspan><tspan letter-spacing="-.14em" x="44.62" y="0">Р</tspan><tspan letter-spacing="-.09em" x="55.34" y="0">А</tspan><tspan letter-spacing="-.04em" x="80.55" y="0">Т</tspan><tspan letter-spacing="0em" x="94.41" y="0">ОР</tspan></text><text fill="#ff4f00" font-family="Lineatura" font-size="33" transform="translate(341.96 473.63)">УМЕЛЕЦ</text><text fill="#4fa0ca" font-family="Lineatura" font-size="33" transform="translate(144.98 572.23)">ПРЕП<tspan letter-spacing="-.02em" x="62.53" y="0">О</tspan><tspan letter-spacing="0em" x="88.6" y="0">ДА</tspan><tspan letter-spacing="-.03em" x="135.27" y="0">В</tspan><tspan letter-spacing="-.09em" x="149.46" y="0">А</tspan><tspan x="174.67" y="0">ТЕЛЬ</tspan></text><text fill="#f9c716" font-family="Lineatura" font-size="33" transform="translate(341.96 670.73)">УЧЕНИК</text><text fill="#f00" font-family="Lineatura" font-size="33" transform="translate(341.96 833.53)"><tspan letter-spacing="-.04em">Г</tspan><tspan x="12.21" y="0">ОСТЬ</tspan></text></svg>