<svg id="_1" data-name="1" xmlns="http://www.w3.org/2000/svg" viewBox="0 0 380.85 380.85"><defs><style>.cls-1,.cls-6{fill:#afd796;}.cls-2{fill:#b5e4fa;}.cls-3{fill:#7aa6d8;}.cls-4,.cls-7{fill:#8e91c7;}.cls-5{fill:#a8d26d;}.cls-10,.cls-11,.cls-6,.cls-7{opacity:0.31;}.cls-8{fill:#967eba;}.cls-9{fill:#cfdf68;}.cls-10,.cls-13{fill:#ebdc61;}.cls-11,.cls-16{fill:#f06faa;}.cls-12{fill:#ed8dba;}.cls-14{fill:#fbad56;}.cls-15{fill:#f26849;}.cls-17{fill:#231f20;}</style></defs><rect class="cls-1" x="285.64" y="285.64" width="95.21" height="95.21"/><rect class="cls-2" x="190.43" y="285.64" width="95.21" height="95.21"/><rect class="cls-3" x="95.21" y="285.64" width="95.21" height="95.21"/><rect class="cls-4" y="285.64" width="95.21" height="95.21"/><rect class="cls-5" x="285.64" y="190.43" width="95.21" height="95.21"/><rect class="cls-6" x="190.43" y="190.43" width="95.21" height="95.21"/><rect class="cls-7" x="95.21" y="190.43" width="95.21" height="95.21"/><rect class="cls-8" y="190.43" width="95.21" height="95.21"/><rect class="cls-9" x="285.64" y="95.21" width="95.21" height="95.21"/><rect class="cls-10" x="190.43" y="95.21" width="95.21" height="95.21"/><rect class="cls-11" x="95.21" y="95.21" width="95.21" height="95.21"/><rect class="cls-12" y="95.21" width="95.21" height="95.21"/><rect class="cls-13" x="285.64" width="95.21" height="95.21"/><rect class="cls-14" x="190.43" width="95.21" height="95.21"/><rect class="cls-15" x="95.21" width="95.21" height="95.21"/><rect class="cls-16" width="95.21" height="95.21"/><path class="cls-17" d="M35.46,31.72a5.76,5.76,0,0,0,6-6,5.83,5.83,0,0,0-6-6,6.18,6.18,0,0,0-4.13,1.5,5.77,5.77,0,0,0-1.9,4.49A5.82,5.82,0,0,0,35.46,31.72Zm-3.85-6a3.67,3.67,0,0,1,3.85-3.81,4,4,0,0,1,2.65.95,3.69,3.69,0,0,1,1.19,2.86,3.67,3.67,0,0,1-3.85,3.8,4,4,0,0,1-2.65-.95A3.65,3.65,0,0,1,31.61,25.74Z"/><path class="cls-17" d="M58.44,25.23l.27-.27-1.55-1.55-9.42,9.42C46.45,34,45.5,34,38.26,33.88c-2.52,0-10.47-.06-10.47-.06v0a4.47,4.47,0,0,0-3.64,2.8,5.43,5.43,0,0,0,.7,5.21h-.13L37.82,55l1.55-1.55L27,41a3.82,3.82,0,0,1-1-2.56,2.11,2.11,0,0,1,.48-1.61c1-1,4.05-1,10.75-.88,2.23,0,4.86.06,8,.06a6,6,0,0,0,4.08-1.6Z"/><path class="cls-17" d="M46.35,19.7V30.43l.54-.21a4.74,4.74,0,0,0,1.37-.86l.28-.28V21.89H73.16V38H46.35v2.2h29V19.7Z"/><polygon class="cls-17" points="42.12 74.1 44.31 74.1 44.31 48.78 42.12 50.97 42.12 74.1"/><polygon class="cls-17" points="35.77 74.1 37.96 74.1 37.96 56.62 35.77 54.42 35.77 74.1"/><polygon class="cls-17" points="29.42 74.1 31.61 74.1 31.61 50.97 29.42 48.78 29.42 74.1"/><path class="cls-17" d="M167,24.84l-3.3.88a5.61,5.61,0,0,0-7.31-1.43c-6,3.56-.94,13.22,5.79,9.48,2.9-1.82,3.06-5.37,2-5.27a.6.6,0,0,0-.66.67,4.18,4.18,0,0,1-7.72,2.07c-.11-.11-.16-.31-.26-.42,1.74-.47,4.07-.66,3.61-2.38l8.24-2.21C168.3,26,167.82,24.62,167,24.84Zm-4.77,1.21-7,1.87A4.18,4.18,0,0,1,162.22,26.05Z"/><path class="cls-17" d="M159.16,35a6,6,0,0,1-3-11,6,6,0,0,1,7.66,1.33l3-.82a1.1,1.1,0,0,1,1.34.82,1.06,1.06,0,0,1-.77,1.33l-7.9,2.11a1.46,1.46,0,0,1-.2.9c-.49.81-1.72,1.09-2.91,1.37l-.34.08a3.82,3.82,0,0,0,4.25,1.59,3.62,3.62,0,0,0,2.73-3.5,1,1,0,0,1,1.11-1.05.87.87,0,0,1,.85.7c.42,1.24-.39,3.86-2.67,5.29A6.6,6.6,0,0,1,159.16,35Zm.07-11.09a5.24,5.24,0,0,0-2.65.71,5,5,0,0,0-1.71,7A5,5,0,0,0,162,33.43c2.06-1.29,2.61-3.54,2.33-4.37,0,0-.06-.17-.12-.17h-.06a.24.24,0,0,0-.19.06.2.2,0,0,0-.07.19,4.44,4.44,0,0,1-3.3,4.27,4.51,4.51,0,0,1-5.13-2,1.09,1.09,0,0,1-.15-.25.74.74,0,0,0-.08-.13l-.41-.47.61-.16c.28-.08.57-.14.86-.21,1-.23,2.1-.49,2.42-1a.86.86,0,0,0,.05-.68l-.1-.38,8.62-2.31a.26.26,0,0,0,.21-.36c0-.12-.15-.36-.38-.27l-3.55,1-.16-.21A5.16,5.16,0,0,0,159.23,23.91Zm-4.57,4.57.19-.67a4.65,4.65,0,0,1,3.31-3.23,4.49,4.49,0,0,1,4.34,1.19l.48.48Zm4.63-3.27a3.71,3.71,0,0,0-.93.12,3.85,3.85,0,0,0-2.48,2l5.51-1.47A3.68,3.68,0,0,0,159.29,25.21Z"/><path class="cls-17" d="M156.7,48.46l1.11-4.05a.7.7,0,1,0-1.36-.34l-1.11,4a.69.69,0,0,0,.51.85A.77.77,0,0,0,156.7,48.46Z"/><path class="cls-17" d="M156,49.38l-.22,0A1.09,1.09,0,0,1,155,48l1.11-4a1.11,1.11,0,0,1,.77-.8,1.19,1.19,0,0,1,1.1.33,1.05,1.05,0,0,1,.25,1l-1.12,4.06A1.18,1.18,0,0,1,156,49.38Zm1.11-5.45H157s-.15,0-.21.25l-1.11,4a.28.28,0,0,0,0,.22.42.42,0,0,0,.21.16.45.45,0,0,0,.38-.26l1.1-4a.23.23,0,0,0-.06-.27A.37.37,0,0,0,157.1,43.93Z"/><path class="cls-17" d="M153.8,37.64c-6.79-1.85-7.7-2.54-9.31-1.75a2.62,2.62,0,0,0,.65,4.78c10.17,2.66,7.29,2.71,15.28.57a.68.68,0,1,0-.35-1.32c-7.78,2.08-4.95,2.07-14.64-.53-1.68-.35-.88-3,.62-2.43,9.34,2.53,6,2.48,15.28,0a3.12,3.12,0,0,1,3.86,3.85C161,56.59,164.7,53,147.87,57.47a.72.72,0,0,0-.5.49c-4.26,16-1.46,14.11-11.29,11.44h0c-1.31-.75,2.6-.56,2.25-1.88-.25-.94-1.61-.27-2.62,0A1.79,1.79,0,0,0,134.48,69c-11.27-3.06-20.27-5.49-20.48-2,2,7.59,7.31,11.61,13.46,12.52.14.07,16.75-4.42,16.91-4.46a5.39,5.39,0,0,0,3-2.16,3.23,3.23,0,0,1,4.11-1,4.6,4.6,0,0,0,5.94-1.59,3.23,3.23,0,0,1,4.16-1.11c1.26.67,4.13.9,3.77-.45a.65.65,0,0,0-.84-.48,3.17,3.17,0,0,1-2.32-.23,4.64,4.64,0,0,0-5.94,1.6,3.23,3.23,0,0,1-4.16,1.11,4.59,4.59,0,0,0-5.91,1.44c-1.35,1.92-2.19,1.58-18.69,6a14.62,14.62,0,0,1-12.14-11c0-.15.21-.27.29-.22,15.94.34,28.35,9.31,29.82,3.89L148.63,59c17-4.55,13.47-1,18.06-17.57a4.77,4.77,0,0,0-.44-3.49C164.12,33.81,159.71,36.05,153.8,37.64Z"/><path class="cls-17" d="M127.41,79.88c-6.85-1-11.88-5.68-13.79-12.81l0-.06V67a1.82,1.82,0,0,1,.78-1.45c2.38-1.7,10,.35,19.81,3a2.15,2.15,0,0,1,1.41-1.36l.57-.17a2.85,2.85,0,0,1,2-.19,1,1,0,0,1,.48.64.91.91,0,0,1-.24.94l4.79-1.29v0c.39-.07.41,0,.47.25s.06.22-.3.38l0,.1-5.91,1.58,2,.63c1.89.6,3,1,3.64.61.78-.44,1.18-2.18,2-5.65.43-1.87,1-4.19,1.76-7.14a1.12,1.12,0,0,1,.78-.77c2.64-.7,4.78-1.21,6.5-1.62,7.41-1.76,7.41-1.76,9-8.7.37-1.61.84-3.61,1.5-6.06a2.47,2.47,0,0,0-.58-2.55,2.73,2.73,0,0,0-2.8-.82c-1.48.4-2.65.74-3.59,1-4.1,1.19-4.18,1.19-8.48-.06-.91-.26-2-.58-3.41-.95a.65.65,0,0,0-.73.08,1.14,1.14,0,0,0-.31,1.06.71.71,0,0,0,.6.52l3.81,1.06c4.35,1.25,4.35,1.24,8.12.18l2.53-.7a1.08,1.08,0,0,1,1.24,1.53,1.05,1.05,0,0,1-.68.55c-1.07.28-1.94.53-2.68.74-4.06,1.15-4.14,1.14-9.13-.28L145,41a2.9,2.9,0,0,1-2.18-2.42,3,3,0,0,1,1.43-3.06c1.37-.68,2.24-.42,5.52.54,1.05.3,2.34.68,4,1.13.93-.25,1.82-.51,2.67-.77C161,35.1,164.66,34,166.6,37.73a5.12,5.12,0,0,1,.47,3.78c-.61,2.24-1.08,4.16-1.45,5.7-2.07,8.44-2.17,8.54-10.5,10.53-1.65.4-3.71.89-6.17,1.55l-3.08,11.58a2.51,2.51,0,0,1-1.21,1.63c-1.8,1-5.16,0-9.81-1.46l-1.58-.48-4.37,1.17,0-.1c-.4.06-.42,0-.46-.18s-.08-.3.29-.44v0l1.07-.29,2.09-.56a61.82,61.82,0,0,0-16-2.86A14.12,14.12,0,0,0,127.5,77.73c4.23-1.13,7.42-2,9.85-2.57,7.08-1.82,7.63-2,8.55-3.26a5,5,0,0,1,6.4-1.56,2.85,2.85,0,0,0,3.65-1,5,5,0,0,1,6.45-1.72,2.76,2.76,0,0,0,2,.19,1,1,0,0,1,1.31.76,1,1,0,0,1-.32,1.09c-.86.69-3,.34-4-.19a2.84,2.84,0,0,0-3.65,1,5,5,0,0,1-6.45,1.72,2.85,2.85,0,0,0-3.61.91,5.74,5.74,0,0,1-3.25,2.31c-14.34,3.87-16.59,4.43-17.06,4.45Zm-13-12.94c1.84,6.76,6.6,11.18,13.08,12.15.75-.13,8.88-2.3,16.74-4.42a5,5,0,0,0,2.87-2,3.6,3.6,0,0,1,4.62-1.15A4.21,4.21,0,0,0,157.12,70a3.61,3.61,0,0,1,4.67-1.25c1,.5,2.69.65,3.15.28.06,0,.11-.1.06-.28s-.16-.25-.36-.2a3.65,3.65,0,0,1-2.6-.26,4.23,4.23,0,0,0-5.43,1.46A3.6,3.6,0,0,1,151.94,71a4.23,4.23,0,0,0-5.41,1.32c-1.1,1.54-1.85,1.73-9,3.57-2.45.62-10,2.61-10,2.61h-.08A15.1,15.1,0,0,1,115,67.2a.55.55,0,0,1,.22-.58.72.72,0,0,1,.51-.13,64.93,64.93,0,0,1,17.56,3.26l1.27-.35-.18,0c-9-2.44-17.42-4.73-19.53-3.23A1.08,1.08,0,0,0,114.39,66.94Zm20.31,3.24.38.12c4.3,1.31,7.69,2.35,9.2,1.51a1.71,1.71,0,0,0,.84-1.15l3.19-12,.22-.06c2.57-.69,4.7-1.2,6.41-1.61,7.94-1.89,7.94-1.89,9.92-9.95.38-1.55.85-3.47,1.45-5.73a4.27,4.27,0,0,0-.41-3.21c-1.63-3.14-4.81-2.19-9.21-.88q-1.33.4-2.79.81l-.1,0s-3.14-.88-4.21-1.2c-3.25-1-3.9-1.11-4.92-.6a2.21,2.21,0,0,0-1,2.25,2.14,2.14,0,0,0,1.6,1.8c1.5.41,2.71.75,3.71,1,4.82,1.38,4.82,1.38,8.7.28l2.68-.75a.27.27,0,0,0,.21-.36.29.29,0,0,0-.12-.18.28.28,0,0,0-.24,0c-1,.26-1.82.5-2.52.69-3.94,1.12-4,1.11-8.54-.18-1-.28-2.23-.63-3.78-1.05a1.47,1.47,0,0,1-1.17-1.08,1.9,1.9,0,0,1,.55-1.85,1.41,1.41,0,0,1,1.49-.24l3.38.95c4.12,1.19,4.12,1.2,8,.06.95-.27,2.12-.61,3.61-1a3.54,3.54,0,0,1,3.58,1,3.27,3.27,0,0,1,.75,3.31c-.65,2.41-1.12,4.4-1.49,6-1.73,7.34-1.82,7.43-9.62,9.28-1.72.41-3.86.92-6.48,1.62a.3.3,0,0,0-.23.24C147,61,146.42,63.31,146,65.17c-.91,3.93-1.29,5.55-2.36,6.16-.91.52-2.11.14-4.27-.54-.88-.28-2-.63-3.28-1Zm2.93-2.75a5.09,5.09,0,0,0-1.21.28c-.21.07-.41.14-.6.19a1.39,1.39,0,0,0-1,1.14l0,.29.6-.16v-.11c.06-.42.53-.55,1.19-.73S138,68,138,67.63c0-.12-.08-.15-.1-.16A.43.43,0,0,0,137.63,67.43ZM115.75,67Z"/><path class="cls-17" d="M141.83,32.29l-8.5,31.62-4.1-15.3a.68.68,0,1,0-1.32.35l4.78,17.81a.74.74,0,0,0,.63.54c.94-.25,9.58-33.66,9.83-34.6S142.1,31.36,141.83,32.29Z"/><path class="cls-17" d="M133.34,67.71l-.09,0a1.1,1.1,0,0,1-.94-.82l-4.77-17.81a1.08,1.08,0,0,1,1.53-1.24,1.07,1.07,0,0,1,.54.68l3.72,13.91,8.13-30.23a1.06,1.06,0,0,1,1.26-.79,1.16,1.16,0,0,1,.81,1.4l-.15.58c-8.86,34-9.57,34.22-9.95,34.32Zm-4.75-19.23-.09,0a.26.26,0,0,0-.21.36l4.77,17.81a.29.29,0,0,0,.12.18c.87-1.75,4.44-14.46,9.45-33.68l.14-.56a.36.36,0,0,0-.24-.46c-.08,0-.25,0-.32.24l-8.88,33-4.48-16.71C128.8,48.52,128.69,48.48,128.59,48.48Z"/><path class="cls-17" d="M143.42,42.19a19,19,0,0,1-2.25,3.22.66.66,0,0,0,.65,1.1c.63-.17,2.44-3.14,2.76-3.71A.66.66,0,1,0,143.42,42.19Z"/><path class="cls-17" d="M141.63,46.92a1,1,0,0,1-.88-.5,1.08,1.08,0,0,1,.15-1.29A17.84,17.84,0,0,0,143.08,42h0a1,1,0,0,1,.93-.56,1.06,1.06,0,0,1,.92.52,1,1,0,0,1,0,1s-2.08,3.65-3,3.89A.92.92,0,0,1,141.63,46.92Zm2.14-4.54a20.41,20.41,0,0,1-2.3,3.28.29.29,0,0,0,0,.36.23.23,0,0,0,.29.11,16.12,16.12,0,0,0,2.51-3.52c.1-.16.05-.24,0-.26a.31.31,0,0,0-.25-.14A.27.27,0,0,0,143.77,42.38Z"/><path class="cls-17" d="M126.4,38.83l15.47-26.71,4.82-1.29c.55,2.56.23,3.07-3.39,16.12a.7.7,0,0,0,1.36.34c6-21.46,4.75-18.6-3.34-16.43-.41.11-15.88,26.93-16.09,27.29a.66.66,0,0,0,.25.93A.67.67,0,0,0,126.4,38.83Z"/><path class="cls-17" d="M125.83,39.56a1.08,1.08,0,0,1-.55-.15,1,1,0,0,1-.5-.64,1,1,0,0,1,.11-.81l.27-.46c15.52-26.88,15.82-27,16.06-27,.93-.25,1.77-.51,2.51-.74,2.18-.68,3.62-1.12,4.43-.35,1.31,1.26.29,5.33-3.12,18a1.08,1.08,0,0,1-.77.79,1.17,1.17,0,0,1-1.1-.32,1.05,1.05,0,0,1-.25-1c.67-2.47,1.22-4.5,1.68-6.17,1.8-6.54,2.1-7.64,1.79-9.35l-4.26,1.14L126.74,39a1.06,1.06,0,0,1-.65.51A1.09,1.09,0,0,1,125.83,39.56Zm15.7-28.36c-.74,1-6.56,10.88-15.7,26.69l-.26.46a.25.25,0,0,0,0,.22.32.32,0,0,0,.14.17.25.25,0,0,0,.22,0,.26.26,0,0,0,.17-.14l15.56-26.84L147,10.35l.08.4c.47,2.17.26,2.92-1.71,10.13-.46,1.67-1,3.69-1.68,6.16a.25.25,0,0,0,.06.28.37.37,0,0,0,.34.11s.15,0,.21-.25c3-11,4.32-16.27,3.33-17.22-.47-.45-1.81,0-3.66.53C143.24,10.71,142.43,11,141.53,11.2Z"/><path class="cls-17" d="M139.75,68.06a.7.7,0,0,0,1.36.35c4.45-16.57.77-12.73,17.13-17.11a.68.68,0,1,0-.35-1.32l-11.75,3.15C142.86,53.86,143.06,56.12,139.75,68.06Z"/><path class="cls-17" d="M140.42,69.31a1.09,1.09,0,0,1-1-1.35c.58-2.14,1-4,1.45-5.54,1.87-7.29,2.31-9,5.24-9.67l11.73-3.15a1.08,1.08,0,1,1,.55,2.08c-2.64.71-4.77,1.2-6.48,1.6-7.05,1.64-7.05,1.64-8.8,8.95-.39,1.67-.89,3.74-1.57,6.28A1.11,1.11,0,0,1,140.42,69.31Zm17.67-19a.18.18,0,0,0-.1,0l-11.75,3.15c-2.4.54-2.78,1.77-4.67,9.11-.4,1.57-.85,3.41-1.44,5.55a.25.25,0,0,0,.18.34.33.33,0,0,0,.44-.23c.66-2.5,1.16-4.57,1.55-6.23,1.84-7.71,1.93-7.79,9.38-9.53,1.71-.4,3.83-.89,6.46-1.6a.3.3,0,0,0,0-.58Z"/><path class="cls-17" d="M127.18,55.73c-5.11-19.06,18.24-31.36,18.62-22.1a.67.67,0,0,0,1.34,0c-.57-12-26.86,1.65-21.28,22.47A.68.68,0,1,0,127.18,55.73Z"/><path class="cls-17" d="M126.51,57a1,1,0,0,1-1-.8c-3.37-12.6,4.85-20.84,7.45-23.07,4.26-3.65,9.08-5.23,12-3.94,1.14.5,2.51,1.68,2.59,4.43a1,1,0,0,1-1,1.07h-.07a1,1,0,0,1-1-1A2.53,2.53,0,0,0,144,31.15c-2.07-.95-6.1.53-9.58,3.48-2.39,2-10,9.54-6.88,21A1.05,1.05,0,0,1,126.8,57,1.35,1.35,0,0,1,126.51,57Zm16.13-27.47c-2.62,0-6.1,1.54-9.2,4.19C130.92,35.86,123,43.83,126.24,56a.27.27,0,0,0,.36.21.28.28,0,0,0,.2-.37c-3.2-11.9,4.65-19.69,7.13-21.79,3.76-3.2,8-4.66,10.41-3.6a3.23,3.23,0,0,1,1.85,3.19.3.3,0,0,0,.28.27c.08,0,.29-.06.28-.25-.06-1.9-.77-3.16-2.12-3.76A5,5,0,0,0,142.64,29.52Z"/><path class="cls-17" d="M244.76,81.64c0-2,1.55-1.73,3.55-1.73,0-11-.76-13,1.3-14.21,13.16-7.77,15.18-25.58,4.42-35.62C240,17,217.17,26.67,216.59,45.59A22.08,22.08,0,0,0,228,65.7c2,1.26,1.3,3,1.3,14.21,2.86,0,3.55-.22,3.55,2.6h12.05v-.87Zm1.82-6H231V73.84h15.6Zm0-3.55H231V70.38h15.6Zm-17.77-7.89a20.15,20.15,0,0,1-10.49-18.54c.59-17.67,21.87-26.18,34.5-14.22a20.48,20.48,0,0,1-4.08,32.85c-1.86.87-2.16,2.52-2.16,4.33H231C231,66.82,230.67,65.23,228.81,64.22Zm14.3,16.56h-8.67a3.19,3.19,0,0,0-3.46-2.6V77.4h15.6v.78A3.26,3.26,0,0,0,243.11,80.78Z"/><path class="cls-17" d="M245.32,82.9H232.49v-.39c0-1.09-.11-1.66-.36-1.91s-1-.31-2.21-.3h-1v-.39c0-2.84,0-5,.08-6.83.11-5.34.09-6.25-1.2-7.06a22.59,22.59,0,1,1,22,0c-1.27.79-1.29,1.82-1.18,7.16,0,1.76.08,4,.08,6.71v.39h-1.59a2.54,2.54,0,0,0-1.67.35,1,1,0,0,0-.27.61h.15Zm-12-.78h11.27V82h-.17v-.39a2.1,2.1,0,0,1,.52-1.56c.62-.6,1.62-.59,2.78-.57h.25c0-2.58,0-4.64-.09-6.3-.1-5.35-.14-6.79,1.57-7.85a21.84,21.84,0,0,0,4.36-35,21.83,21.83,0,1,0-25.54,35c1.72,1.08,1.69,2.36,1.58,7.74,0,1.7-.08,3.79-.08,6.43h.19c1.36,0,2.23,0,2.77.52A2.91,2.91,0,0,1,233.27,82.12Zm10.16-1h-9.31l-.06-.31A2.79,2.79,0,0,0,231,78.57h-.4V77H247v1.56h-.4a2.86,2.86,0,0,0-3.08,2.29Zm-8.68-.78h8.05a3.56,3.56,0,0,1,3.38-2.59H231.37A3.51,3.51,0,0,1,234.75,80.39ZM247,76.05H230.58v-2.6H247Zm-15.6-.78h14.81v-1H231.37ZM247,72.5H230.58V70H247Zm-15.6-.78h14.81v-1H231.37ZM247,69H230.58v-.39c0-1.87-.33-3.19-2-4.07A20.82,20.82,0,0,1,231,27.06a20.89,20.89,0,0,1,28.6,21.82,20.79,20.79,0,0,1-10.62,15.77c-1.64.76-2,2.15-2,4Zm-15.61-.78h14.83c.05-1.65.43-3.38,2.39-4.29a20.06,20.06,0,0,0,4-32.21,20.1,20.1,0,0,0-33.84,13.94A19.89,19.89,0,0,0,229,63.88C230.93,64.91,231.31,66.57,231.36,68.25Z"/><path class="cls-17" d="M238.78,30a16.33,16.33,0,0,0-16.3,16.29h1.74a14.59,14.59,0,0,1,14.56-14.56Z"/><path class="cls-17" d="M224.6,46.67h-2.51v-.39A16.7,16.7,0,0,1,238.78,29.6h.39v2.51h-.39A14.19,14.19,0,0,0,224.6,46.28Zm-1.72-.78h1a15,15,0,0,1,14.56-14.55v-.95A15.91,15.91,0,0,0,222.88,45.89Z"/><rect class="cls-17" x="265.64" y="46.11" width="7.8" height="1.73"/><path class="cls-17" d="M273.83,48.23h-8.58V45.72h8.58Zm-7.8-.78h7v-1h-7Z"/><rect class="cls-17" x="204.11" y="46.11" width="7.8" height="1.73"/><path class="cls-17" d="M212.3,48.23h-8.58V45.72h8.58Zm-7.8-.78h7v-1h-7Z"/><rect class="cls-17" x="237.91" y="11.44" width="1.73" height="7.8"/><path class="cls-17" d="M240,19.63h-2.51V11.05H240Zm-1.73-.78h.95v-7h-.95Z"/><rect class="cls-17" x="256.69" y="23.84" width="7.71" height="1.73" transform="translate(58.84 191.47) rotate(-45)"/><path class="cls-17" d="M258.43,28.6l-1.78-1.77,6-6,1.78,1.78Zm-.67-1.77.67.67,4.9-4.9-.67-.68Z"/><rect class="cls-17" x="213.11" y="67.44" width="7.71" height="1.73" transform="translate(15.24 173.42) rotate(-45)"/><path class="cls-17" d="M214.85,72.2l-1.78-1.78,6-6,1.77,1.78Zm-.68-1.78.68.68,4.9-4.9-.67-.68Z"/><rect class="cls-17" x="216.15" y="20.86" width="1.73" height="7.71" transform="translate(46.08 160.69) rotate(-45)"/><path class="cls-17" d="M219.13,28.61l-6-6,1.78-1.78,6,6Zm-4.9-6,4.9,4.91.67-.68-4.9-4.9Z"/><rect class="cls-17" x="259.69" y="64.5" width="1.73" height="7.71" transform="translate(27.98 204.26) rotate(-45)"/><path class="cls-17" d="M262.67,72.25l-6-6,1.78-1.78,6,6Zm-4.9-6,4.9,4.9.67-.67-4.9-4.9Z"/><path class="cls-17" d="M331.17,6.87V17.44a20.9,20.9,0,0,0-19.83,20.82V71.85a8.84,8.84,0,0,0,8.81,8.81h24.23a8.83,8.83,0,0,0,8.81-8.81V38.37a20.9,20.9,0,0,0-19.82-20.82V6.87A1.1,1.1,0,1,0,331.17,6.87Zm6.6,30.84c0,7.3-11,7.29-11,0S337.77,30.41,337.77,37.71Zm13.22.66V71.85a6.63,6.63,0,0,1-6.61,6.61H320.15a6.64,6.64,0,0,1-6.61-6.61V38.37a18.7,18.7,0,0,1,17.63-18.62V30.11c-9.43,1.38-8.42,15.31,1.1,15.31s10.51-13.93,1.1-15.31V19.64A18.72,18.72,0,0,1,351,38.37Z"/><path class="cls-17" d="M344.38,81.05H320.15a9.21,9.21,0,0,1-9.2-9.2V38.26a21.24,21.24,0,0,1,19.83-21.19V6.87a1.49,1.49,0,0,1,3,0V17.18a21.23,21.23,0,0,1,19.82,21.19V71.85A9.21,9.21,0,0,1,344.38,81.05ZM332.27,6.15a.67.67,0,0,0-.71.72V17.81l-.38,0a20.46,20.46,0,0,0-19.45,20.43V71.85a8.43,8.43,0,0,0,8.42,8.42h24.23a8.43,8.43,0,0,0,8.42-8.42V38.37a20.45,20.45,0,0,0-19.45-20.43l-.37,0v-11A.68.68,0,0,0,332.27,6.15Zm12.11,72.7H320.15a7,7,0,0,1-7-7V38.37a19.07,19.07,0,0,1,18-19l.42,0V30.45l-.34,0A7.11,7.11,0,0,0,325,38.26a7.28,7.28,0,0,0,14.53,0,7.11,7.11,0,0,0-6.22-7.78l-.33,0V19.23l.41,0a19.12,19.12,0,0,1,18,19.12V71.85A7,7,0,0,1,344.38,78.85Zm-13.6-58.68a18.28,18.28,0,0,0-16.85,18.2V71.85a6.23,6.23,0,0,0,6.22,6.22h24.23a6.23,6.23,0,0,0,6.22-6.22V38.37a18.34,18.34,0,0,0-16.84-18.31v9.71a7.85,7.85,0,0,1,6.55,8.55,8.06,8.06,0,0,1-16.08,0,7.84,7.84,0,0,1,6.55-8.55Zm1.49,23.4a6.13,6.13,0,0,1-4-1.46,5.7,5.7,0,0,1-1.85-4.4,5.9,5.9,0,0,1,11.79,0A5.63,5.63,0,0,1,332.27,43.57Zm0-11a4.89,4.89,0,0,0-5.11,5.09,4.92,4.92,0,0,0,1.59,3.81,5.3,5.3,0,0,0,3.53,1.27,4.89,4.89,0,0,0,5.11-5.08,4.92,4.92,0,0,0-1.59-3.82A5.33,5.33,0,0,0,332.26,32.62Z"/><rect class="cls-17" x="319.05" y="54.23" width="26.43" height="2.2"/><path class="cls-17" d="M345.87,56.82H318.66v-3h27.21ZM319.44,56h25.65V54.62H319.44Z"/><rect class="cls-17" x="319.05" y="65.24" width="26.43" height="2.2"/><path class="cls-17" d="M345.87,67.84H318.66v-3h27.21Zm-26.43-.79h25.65V65.63H319.44Z"/><path class="cls-17" d="M366.25,127.24c-.06-.36-.11-.6-4-3.2l-.16-.11a1.23,1.23,0,0,0-1.68.3l-6,8.53V113.58a1.2,1.2,0,0,0-1.2-1.2H311.82a1.21,1.21,0,0,0-1.21,1.2v59.66a1.21,1.21,0,0,0,1.21,1.2h41.46a1.2,1.2,0,0,0,1.2-1.2V144.69C366.37,127.91,366.31,127.55,366.25,127.24Zm-14.18,9c-2.54,3.64-6.61,9.41-6.61,9.41-7,10-7,10-7.56,13.29l0,.23c-.09.55-.2,1.2-.36,2a1.16,1.16,0,0,0,.49,1.22,1.19,1.19,0,0,0,1.33,0c.74-.47,1.36-.83,1.88-1.14l.13-.08c3-1.77,3-1.77,7.32-8.08.92-1.34,2-3,3.42-5V172H313V114.79h39Zm-10.81,22.14-.63-.52.29-1.44,19.22-27.51,1.63,1.14-19.21,27.52Zm22.12-30.61-.22.31-1.64-1.15.22-.31Z"/><path class="cls-17" d="M327.34,149.73c-4.78,0-9.91,3.07-9.91,9.84a9.47,9.47,0,0,0,3.11,7.37,10.25,10.25,0,0,0,6.8,2.46c4.78,0,9.92-3.08,9.92-9.83S332.12,149.73,327.34,149.73Zm7.5,9.84c0,5.1-3.89,7.42-7.5,7.42s-7.5-2.32-7.5-7.42,3.89-7.44,7.5-7.44a7.79,7.79,0,0,1,5.18,1.86A7.18,7.18,0,0,1,334.84,159.57Z"/><path class="cls-17" d="M345.83,134.49a3.26,3.26,0,1,0,0-6.51,3.44,3.44,0,0,0-2.26.81,3.1,3.1,0,0,0-1,2.42A3.18,3.18,0,0,0,345.83,134.49Zm-.88-3.28a.89.89,0,0,1,1.77,0,.81.81,0,0,1-.26.65,1,1,0,0,1-1,.13A.79.79,0,0,1,345,131.21Z"/><path class="cls-17" d="M322.24,147.28a1.18,1.18,0,0,0,1.12.76c.39,0,18.54-7.45,18.72-7.52a1.25,1.25,0,0,0,.66-.66,1.22,1.22,0,0,0,0-.92l-.12-.31c-8.11-20.07-8.29-20.14-8.62-20.28s-.52-.29-19.23,7.42a1.25,1.25,0,0,0-.65.65,1.2,1.2,0,0,0,0,.93ZM332.83,121l7.22,17.71-16,6.53-7.21-17.71Z"/><path class="cls-17" d="M332.3,199.68v10a28.38,28.38,0,0,0-27.53,27.53h-10a.84.84,0,0,0,0,1.67h10a28.38,28.38,0,0,0,27.53,27.53v10a.84.84,0,0,0,1.67,0v-10a28.4,28.4,0,0,0,27.53-27.53h10.09a.8.8,0,0,0,.79-.79.82.82,0,0,0-.83-.88H361.5A28.39,28.39,0,0,0,334,209.73v-10A.84.84,0,0,0,332.3,199.68Zm0,11.72v10a16.7,16.7,0,0,0-15.84,15.84h-10A26.65,26.65,0,0,1,332.3,211.4Zm1.67,0a26.68,26.68,0,0,1,25.86,25.86h-10A16.7,16.7,0,0,0,334,221.42Zm-1.67,11.72v14.14H318.16A15,15,0,0,1,332.3,223.12Zm1.67,0a15,15,0,0,1,14.14,14.14H334Zm-27.53,15.81h10a16.7,16.7,0,0,0,15.84,15.84v10A26.68,26.68,0,0,1,306.44,238.93Zm11.72,0H332.3v14.14A15,15,0,0,1,318.16,238.93Zm15.81,0h14.14A15,15,0,0,1,334,253.07Zm15.84,0h10A26.69,26.69,0,0,1,334,264.79v-10C343.38,254.3,349.81,246.17,349.81,238.93Z"/><path class="cls-17" d="M333.13,277.72a1.18,1.18,0,0,1-1.22-1.22v-9.66a28.79,28.79,0,0,1-27.52-27.52h-9.67a1.23,1.23,0,0,1,0-2.45h9.67a28.79,28.79,0,0,1,27.52-27.52v-9.67a1.23,1.23,0,0,1,2.45,0v9.67a28.79,28.79,0,0,1,27.52,27.52h9.67a1.22,1.22,0,0,1,1.22,1.27,1.18,1.18,0,0,1-1.18,1.18h-9.71a28.79,28.79,0,0,1-27.52,27.52v9.66A1.19,1.19,0,0,1,333.13,277.72Zm-38.41-40.07a.45.45,0,0,0,0,.89h10.43v.38a28,28,0,0,0,27.15,27.15h.38V276.5a.45.45,0,0,0,.89,0V266.08H334a28,28,0,0,0,27.15-27.15v-.38h10.47a.4.4,0,0,0,.4-.4.44.44,0,0,0-.44-.49H361.12v-.38A28,28,0,0,0,334,210.12h-.38V199.68a.45.45,0,0,0-.89,0v10.43h-.38a28,28,0,0,0-27.15,27.15v.38Zm38.86,27.54v-10.8H334c9.25-.46,15.47-8.36,15.47-15.45v-.39h10.81v.4A27.12,27.12,0,0,1,334,265.18Zm.78-10.05v9.24a26.34,26.34,0,0,0,25.06-25.06h-9.23C350,246.57,343.68,254.48,334.36,255.14Zm-1.67,10.05h-.41a27.12,27.12,0,0,1-26.23-26.24v-.4h10.79l0,.37a16.24,16.24,0,0,0,15.46,15.47h.38Zm-25.84-25.87a26.32,26.32,0,0,0,25.06,25.06v-9.24a17,17,0,0,1-15.82-15.82Zm26.73,14.16V238.54h14.94l0,.41A15.36,15.36,0,0,1,334,253.46Zm.78-14.16v13.33a14.58,14.58,0,0,0,13.33-13.33Zm-1.67,14.16-.41,0A15.37,15.37,0,0,1,317.76,239l0-.41h14.95Zm-14.12-14.16a14.59,14.59,0,0,0,13.34,13.33V239.32Zm41.66-1.67h-10.8v-.37A16.24,16.24,0,0,0,334,221.81l-.37,0V211h.4a27.12,27.12,0,0,1,26.24,26.24Zm-10.05-.78h9.24a26.33,26.33,0,0,0-25.06-25.06v9.24A17,17,0,0,1,350.18,236.87Zm-1.66.78H333.58v-15l.41,0a15.36,15.36,0,0,1,14.51,14.51Zm-14.16-.78h13.33a14.59,14.59,0,0,0-13.33-13.34Zm-1.67.78H317.74l0-.41a15.37,15.37,0,0,1,14.52-14.51l.41,0Zm-14.12-.78h13.34V223.53A14.6,14.6,0,0,0,318.57,236.87Zm-1.74.78H306v-.4A27.16,27.16,0,0,1,332.28,211h.41v10.79l-.38,0a16.22,16.22,0,0,0-15.46,15.47Zm-10-.78h9.24a17,17,0,0,1,15.82-15.82v-9.24A26.35,26.35,0,0,0,306.85,236.87Z"/><path class="cls-17" d="M324.7,323.17h-8.1v-8.1h8.1ZM317.75,322h5.79v-5.79h-5.79Z"/><path class="cls-17" d="M325.09,323.56H316.2v-8.88h8.89Zm-8.1-.78h7.31v-7.32H317Zm6.94-.37h-6.57v-6.57h6.57Zm-5.79-.78h5v-5h-5Z"/><path class="cls-17" d="M324.7,337.06h-8.1V329h8.1Zm-6.95-1.16h5.79v-5.78h-5.79Z"/><path class="cls-17" d="M325.09,337.45H316.2v-8.88h8.89Zm-8.1-.78h7.31v-7.32H317Zm6.94-.38h-6.57v-6.56h6.57Zm-5.79-.78h5v-5h-5Z"/><path class="cls-17" d="M324.7,351h-8.1v-8.1h8.1Zm-6.95-1.16h5.79V344h-5.79Z"/><path class="cls-17" d="M325.09,351.34H316.2v-8.88h8.89Zm-8.1-.78h7.31v-7.32H317Zm6.94-.38h-6.57v-6.57h6.57Zm-5.79-.78h5v-5h-5Z"/><path class="cls-17" d="M351.89,360.21H312.55a2.9,2.9,0,0,1-2.9-2.9v-48.6a2.89,2.89,0,0,1,2.9-2.89h39.34a2.89,2.89,0,0,1,2.89,2.89v48.6A2.89,2.89,0,0,1,351.89,360.21Zm-41.08-51.5c0,50.83-.88,50.34,1.74,50.34,40.56,0,41.08.88,41.08-1.74,0-50.82.87-50.34-1.74-50.34C311.33,307,310.81,306.1,310.81,308.71Z"/><path class="cls-17" d="M351.89,360.6H312.55a3.3,3.3,0,0,1-3.29-3.29v-48.6a3.29,3.29,0,0,1,3.29-3.28h39.34a3.28,3.28,0,0,1,3.28,3.28v48.6A3.29,3.29,0,0,1,351.89,360.6Zm-39.34-54.39a2.51,2.51,0,0,0-2.51,2.5v48.6a2.52,2.52,0,0,0,2.51,2.51h39.34a2.51,2.51,0,0,0,2.5-2.51v-48.6a2.5,2.5,0,0,0-2.5-2.5Zm32.08,53.37c-2.22,0-21.91-.14-32.08-.14a1.77,1.77,0,0,1-1.38-.37c-1-1-.95-4-.85-20.87,0-7,.1-16.68.1-29.49a1.76,1.76,0,0,1,.41-1.38c1-1,3.82-.93,17.51-.85,5.66,0,13.4.1,23.55.1a1.73,1.73,0,0,1,1.37.37c1,1,.95,4,.86,20.91-.05,7-.1,16.66-.1,29.45a1.79,1.79,0,0,1-.41,1.39C352.9,359.41,351.13,359.58,344.63,359.58Zm-32.16-.92c10.25,0,18,0,23.66.09,12.11.09,16.2.12,16.93-.61.15-.15.18-.36.18-.83,0-12.79.05-22.42.09-29.45.09-15.07.12-19.62-.62-20.36-.13-.13-.34-.1-.74-.14-10.23,0-18-.05-23.63-.09-12.15-.08-16.23-.12-17,.61-.14.15-.17.37-.17.83,0,12.82-.05,22.45-.1,29.49-.09,15-.11,19.58.63,20.32C311.86,358.65,312,358.69,312.47,358.66Z"/><rect class="cls-17" x="329.9" y="318.55" width="18.52" height="1.16"/><path class="cls-17" d="M348.81,320.09h-19.3v-1.94h19.3Zm-18.52-.78H348v-.37H330.29Z"/><rect class="cls-17" x="329.9" y="332.43" width="18.52" height="1.16"/><path class="cls-17" d="M348.81,334h-19.3V332h19.3Zm-18.52-.78H348v-.38H330.29Z"/><rect class="cls-17" x="329.9" y="346.32" width="18.52" height="1.16"/><path class="cls-17" d="M348.81,347.87h-19.3v-1.94h19.3Zm-18.52-.79H348v-.37H330.29Z"/><path class="cls-17" d="M267.1,319a4.58,4.58,0,0,0-4.57-4.57H249.74v-2.74a4.58,4.58,0,0,0-4.57-4.57h-12.8a4.58,4.58,0,0,0-4.57,4.57v2.74H215a4.58,4.58,0,0,0-4.57,4.57v29.25a4.58,4.58,0,0,0,4.57,4.57h47.51a4.58,4.58,0,0,0,4.57-4.57Zm-21.92-10.06c3,0,2.74,2.88,2.74,5.49H229.64C229.64,308,228.72,308.93,245.18,308.93ZM215,316.25c50,0,50.25-1,50.25,2.74v7.31h-53V319A2.74,2.74,0,0,1,215,316.25Zm36.55,11.88h3.65v4.57h-3.65Zm-29.24,0H226v4.57h-3.65ZM262.53,351c-50,0-50.25,1-50.25-2.74V328.13h8.22v6.4h7.3v-6.4h21.93v6.4H257v-6.4h8.22C265.25,348,266.19,351,262.53,351Z"/><path class="cls-17" d="M262.53,353.2H215a5,5,0,0,1-5-5V319a5,5,0,0,1,5-5h12.39v-2.35a5,5,0,0,1,5-5h12.79a5,5,0,0,1,5,5V314h12.4a5,5,0,0,1,5,5v29.24A5,5,0,0,1,262.53,353.2ZM215,314.81a4.18,4.18,0,0,0-4.18,4.18v29.24a4.19,4.19,0,0,0,4.18,4.19h47.51a4.19,4.19,0,0,0,4.18-4.19V319a4.19,4.19,0,0,0-4.18-4.18H249.35v-3.13a4.19,4.19,0,0,0-4.19-4.18H232.37a4.18,4.18,0,0,0-4.18,4.18v3.13Zm11,36.69c-9.7,0-12.55-.22-13.58-1.25a2.63,2.63,0,0,1-.54-2V327.74h9v6.4h6.52v-6.4h22.71v6.4h6.52v-6.4h9s0,7.59.07,10.31c.09,8.29.13,11.39-1.11,12.64a2.81,2.81,0,0,1-2.07.68C251.79,351.37,228.91,351.5,226,351.5Zm-13.34-23v19.71c0,.74,0,1.17.31,1.47,1.11,1.1,6.36,1.08,23.73,1,6.72,0,15.08-.08,25.82-.08a2,2,0,0,0,1.51-.45c1-1,1-4.48.89-12.08,0-2.63-.07-5.78-.07-9.54h-7.44v6.4h-8.08v-6.4H228.19v6.4h-8.08v-6.4Zm42.94,4.57h-4.44v-5.35h4.44Zm-3.65-.78h2.87v-3.79H252Zm-25.59.78h-4.44v-5.35h4.44Zm-3.65-.78h2.87v-3.79h-2.87Zm42.94-5.62H211.89V319a3.13,3.13,0,0,1,3.13-3.13c10.76,0,19.14-.05,25.86-.09,18.51-.09,22.9-.12,24.24,1.2a2.63,2.63,0,0,1,.54,2Zm-53-.78h52.21V319c0-.73,0-1.16-.31-1.46-1.11-1.1-6.36-1.07-23.68-1-6.73,0-15.11.08-25.87.08a2.35,2.35,0,0,0-2.35,2.35Zm35.64-11.1H229.25v-1.36c0-2,0-3.16.74-3.94,1.08-1.07,3.38-1.05,9.52-1,1.61,0,3.49,0,5.67,0a3,3,0,0,1,2.18.78c1,1,1,2.74.95,4.43ZM230,314h17.5v-.29c0-1.53,0-3.11-.73-3.87a2.17,2.17,0,0,0-1.63-.55c-2.18,0-4.06,0-5.68,0-5.57-.06-8.11-.07-8.95.77-.55.55-.54,1.61-.52,3.38Z"/><rect class="cls-17" x="237.86" y="320.82" width="1.83" height="1.83"/><path class="cls-17" d="M240.08,323h-2.61v-2.61h2.61Zm-1.83-.78h1.05v-1.05h-1.05Z"/><rect class="cls-17" x="234.2" y="320.82" width="1.83" height="1.83"/><path class="cls-17" d="M236.42,323h-2.61v-2.61h2.61Zm-1.83-.78h1v-1.05h-1Z"/><rect class="cls-17" x="241.52" y="320.82" width="1.83" height="1.83"/><path class="cls-17" d="M243.74,323h-2.61v-2.61h2.61Zm-1.83-.78H243v-1.05h-1.05Z"/><path class="cls-17" d="M152.1,331.21H134.77a.86.86,0,0,0-.87.86V345c0,7,19.06,7.07,19.06,0V332.07A.85.85,0,0,0,152.1,331.21Zm-.86,1.72V337H135.63v-4.1ZM135.63,345v-6.25h15.61V345C151.24,349.7,135.63,349.71,135.63,345Zm35.75-24.28c0-7.71-9.92-8.37-9.92-14.79a1,1,0,0,0-2,0c0,7.7,9.92,8.37,9.92,14.79,0,5.41-5.14,6.26-6.44,6.39-1.44-.66-9.68-4.92-9.68-14.64,0-10.29-3.58-16.19-9.83-16.19s-9.83,5.9-9.83,16.19c0,9.84-8.25,14-9.69,14.65-1.14-.09-6.52-.83-6.52-6.4,0-6.43,9.92-7.08,9.92-14.79a1,1,0,0,0-2,0c0,6.43-9.92,7.07-9.92,14.79,0,5.76,4.59,7.88,7.7,8.32,0,30.19-.64,30.65,1,30.65,40.08,0,39.69.64,39.69-1V329C166.88,328.56,171.38,326.43,171.38,320.73Zm-27.95-22.44c6.4,0,7.68,7.84,7.82,13.19H135.62C135.75,306.13,137,298.29,143.43,298.29Zm18.35,59.4H125.09V328.78c2.27-1.14,10-5.72,10.49-15.3h15.71c.5,9.58,8.22,14.16,10.49,15.3Z"/><path class="cls-17" d="M156.89,360.21c-1.94,0-21.52-.12-32.8-.12a1.21,1.21,0,0,1-.93-.29c-.64-.66-.63-2.36-.55-11.79,0-4.39.09-10.38.09-18.62-3.79-.66-7.7-3.25-7.7-8.66,0-4.23,2.9-6.47,5.45-8.45,2.3-1.78,4.47-3.47,4.47-6.34a1.39,1.39,0,0,1,2.78,0c0,4.22-2.89,6.47-5.44,8.45-2.3,1.78-4.48,3.46-4.48,6.34,0,5.08,4.84,5.88,6.06,6,1.77-.81,9.37-4.88,9.37-14.25,0-10.54,3.73-16.58,10.22-16.58s10.22,6,10.22,16.58c0,9.24,7.58,13.4,9.36,14.24,1.54-.17,6-1.09,6-6,0-2.88-2.17-4.56-4.48-6.35-2.55-2-5.44-4.23-5.44-8.44a1.39,1.39,0,0,1,2.78,0c0,2.87,2.17,4.56,4.47,6.34,2.56,2,5.45,4.23,5.45,8.45,0,5.35-3.86,8-7.6,8.64V358.7a1.17,1.17,0,0,1-.26.91C163.43,360.09,162.29,360.21,156.89,360.21Zm-30.58-54.87a.57.57,0,0,0-.61.6c0,3.26-2.42,5.14-4.77,7-2.53,2-5.15,4-5.15,7.83,0,6.54,6.13,7.76,7.36,7.94l.34.05s0,14.85-.09,19.29c-.06,7.87-.09,10.82.33,11.24,0,0,.13.06.37.06,11.28,0,19.29.05,25.14.08,10.25.07,13.7.09,14.13-.33a.73.73,0,0,0,0-.32v-30l.33-.05c3.52-.54,7.27-2.9,7.27-7.92,0-3.84-2.62-5.87-5.15-7.84-2.34-1.81-4.77-3.7-4.77-6.95a.61.61,0,0,0-1.22,0c0,3.83,2.61,5.86,5.14,7.83,2.35,1.82,4.78,3.7,4.78,7,0,5.82-5.66,6.67-6.79,6.78h-.11l-.09,0c-1.66-.77-9.91-5.11-9.91-15,0-10-3.44-15.8-9.44-15.8s-9.44,5.76-9.44,15.8-8.26,14.26-9.92,15l-.09,0h-.1c-1.15-.09-6.88-.87-6.88-6.79,0-3.26,2.43-5.14,4.78-7,2.53-2,5.14-4,5.14-7.83A.57.57,0,0,0,126.31,305.34Zm35.86,52.75H124.7V328.54l.21-.11c2.29-1.15,9.78-5.64,10.28-15l0-.37h16.45l0,.37c.49,9.33,8,13.82,10.28,15l.21.11Zm-36.69-.79h35.91V329c-2.57-1.34-9.8-5.92-10.47-15.15H136c-.68,9.23-7.91,13.81-10.47,15.15Zm18-6.6c-4.79,0-9.94-1.79-9.94-5.69V332.07a1.26,1.26,0,0,1,1.26-1.25H152.1a1.25,1.25,0,0,1,1.25,1.25V345c0,1.8-1.1,3.29-3.18,4.32A15.56,15.56,0,0,1,143.45,350.7Zm-8.68-19.1a.48.48,0,0,0-.48.47V345c0,3.22,4.61,4.9,9.16,4.9a14.69,14.69,0,0,0,6.37-1.28c1.26-.62,2.75-1.75,2.75-3.62V332.07a.47.47,0,0,0-.47-.47Zm8.66,17.32a15.2,15.2,0,0,1-5.51-.91c-1.75-.7-2.68-1.74-2.68-3v-6.64h16.39V345C151.63,347.7,147.38,348.92,143.43,348.92ZM136,339.15V345c0,2.06,3.73,3.13,7.41,3.13s7.42-1.07,7.42-3.13v-5.86Zm15.61-1.73H135.24v-4.87h16.39ZM136,336.64h14.83v-3.31H136Zm15.63-24.77H135.22v-.4c.21-8.75,3.13-13.57,8.2-13.57s8,4.82,8.21,13.57ZM136,311.09h14.82c-.17-4.82-1.39-12.41-7.41-12.41S136.19,306.27,136,311.09Z"/><path class="cls-17" d="M76.51,333.26c0-27.39-33.51-39.7-51.28-17.43l1.67,1.33c16.57-20.8,47.48-9.12,47.48,16L66,326.08l-1.38,1.63,11.47,9.72L85,325.14l-1.73-1.26Zm-.77,1.06-.68-.57h1.09Zm-5,11.74,1.79,1.16C55.16,374,16.26,358.62,20,329.15L12.72,338l-1.65-1.35,9.62-11.76,10.89,10.36-1.47,1.54-8-7.63C18.42,356.19,54.35,371.31,70.74,346.06Z"/><path class="cls-17" d="M48.32,361.44a29.7,29.7,0,0,1-10.07-1.77c-10.42-3.79-20.09-14.26-18.82-29.26l-6.66,8.13-2.25-1.85,10.13-12.38,11.48,10.91-2,2.12L22.38,330c-1.5,13.74,7.29,23.4,16.82,26.94,8.93,3.32,22.47,2.41,31.22-11.07l.21-.32,2.44,1.58-.21.33C66.14,357.81,56.76,361.44,48.32,361.44ZM20.51,327.85l-.17,1.35c-1.91,15.27,7.75,25.94,18.18,29.74,9.61,3.51,24.1,2.54,33.47-11.61l-1.13-.73c-9,13.54-22.8,14.43-31.93,11-10-3.71-19.2-14-17.23-28.54l.1-.75,8.29,7.88.93-1-10.3-9.79-9.1,11.12,1,.86ZM76.18,338,64.09,327.76,66,325.53l8,6.78a25.87,25.87,0,0,0-17.32-24c-10.7-3.75-22-.25-29.45,9.12l-.25.31-2.27-1.82.25-.3c8.26-10.37,20.8-14.22,32.71-10a28.75,28.75,0,0,1,19.24,26.54l6.35-8.75,2.35,1.71Zm-11-10.34L76,336.86l8.45-11.64-1.09-.79-7.6,10.46-9.73-8.26Zm9.58,5.7h1.35v-.1c0-12.41-7.36-23-18.73-27s-23.55-.38-31.61,9.49l1,.84c7.69-9.41,19.17-12.88,30.08-9.06a26.67,26.67,0,0,1,17.86,25.61Z"/><path class="cls-17" d="M47.45,203.62a33.93,33.93,0,1,0,33.93,33.93A33.93,33.93,0,0,0,47.45,203.62Zm0,1.58A32.35,32.35,0,1,1,15.1,237.55,32.35,32.35,0,0,1,47.45,205.2Zm-.79,15v16.57H30.09a.79.79,0,1,0,0,1.58H46.66v16.57a.79.79,0,1,0,1.58,0V238.34H64.81a.79.79,0,1,0,0-1.58H48.24V220.19a.79.79,0,1,0-1.58,0Z"/><path class="cls-17" d="M47.45,271.86a34.32,34.32,0,1,1,34.32-34.31A34.35,34.35,0,0,1,47.45,271.86Zm0-67.84A33.53,33.53,0,1,0,81,237.55,33.57,33.57,0,0,0,47.45,204Zm0,66.27a32.74,32.74,0,1,1,32.74-32.74A32.78,32.78,0,0,1,47.45,270.29Zm0-64.7a32,32,0,1,0,32,32A32,32,0,0,0,47.45,205.59Zm0,50.5a1.23,1.23,0,0,1-.62-.17,1.12,1.12,0,0,1-.56-1V238.73H30.09a1.12,1.12,0,0,1-1.06-.52,1.3,1.3,0,0,1,0-1.32,1.06,1.06,0,0,1,1.1-.52H46.27V220.2a1.16,1.16,0,0,1,.35-.87,1.17,1.17,0,0,1,1.7,0,1.19,1.19,0,0,1,.31.84v16.17H64.82a1.17,1.17,0,0,1,.83.34,1.18,1.18,0,0,1-.83,2H48.63v16.18a1.11,1.11,0,0,1-.55,1A1.27,1.27,0,0,1,47.45,256.09ZM46.66,238h.39v17a.37.37,0,0,0,.17.34.5.5,0,0,0,.46,0,.35.35,0,0,0,.17-.34V238h17a.41.41,0,0,0,.41-.4.38.38,0,0,0-.12-.28.39.39,0,0,0-.28-.12h-17v-17a.4.4,0,0,0-.11-.3.39.39,0,0,0-.29-.13.38.38,0,0,0-.28.12.42.42,0,0,0-.12.3v17h-17a.34.34,0,0,0-.4.15.55.55,0,0,0,0,.5.36.36,0,0,0,.37.15Z"/><path class="cls-17" d="M48.05,110.39a31.68,31.68,0,1,0,31.68,31.68A31.71,31.71,0,0,0,48.05,110.39Zm0,61.47a29.79,29.79,0,1,1,29.79-29.79A29.82,29.82,0,0,1,48.05,171.86Z"/><path class="cls-17" d="M48.05,174.14a32.07,32.07,0,1,1,32.07-32.07A32.11,32.11,0,0,1,48.05,174.14Zm0-63.36a31.29,31.29,0,1,0,31.29,31.29A31.33,31.33,0,0,0,48.05,110.78Zm0,61.47a30.18,30.18,0,1,1,30.18-30.18A30.21,30.21,0,0,1,48.05,172.25Zm0-59.58a29.4,29.4,0,1,0,29.4,29.4A29.43,29.43,0,0,0,48.05,112.67Z"/><path class="cls-17" d="M45.23,152.63,33.14,140.84a1.18,1.18,0,0,1,1.65-1.69l11.25,11,15.05-15a1.18,1.18,0,0,1,1.66,1.67l-15.87,15.8A1.18,1.18,0,0,1,45.23,152.63Z"/><path class="cls-17" d="M46.05,153.36a1.58,1.58,0,0,1-1.09-.44l-12.09-11.8a1.5,1.5,0,0,1-.44-1.47,1.67,1.67,0,0,1,1.16-1.18,1.49,1.49,0,0,1,1.47.4l11,10.72,14.77-14.71a1.54,1.54,0,0,1,1.48-.42,1.67,1.67,0,0,1,1.16,1.17,1.5,1.5,0,0,1-.43,1.48L47.16,152.9A1.56,1.56,0,0,1,46.05,153.36Zm-.55-1a.79.79,0,0,0,1.11,0l15.86-15.8a.7.7,0,0,0,.23-.72.94.94,0,0,0-.62-.62.73.73,0,0,0-.71.23L46,150.69,34.52,139.43a.69.69,0,0,0-.72-.21.9.9,0,0,0-.61.63.69.69,0,0,0,.23.71Z"/></svg>