<svg id="Layer_1" data-name="Layer 1" xmlns="http://www.w3.org/2000/svg" viewBox="0 0 100 100">
  <defs>
    <style>
      .cls-1 {
        fill: #fff;
        stroke: #6dcef5;
        stroke-miterlimit: 10;
      }

      .cls-2 {
        fill: #6dcef5;
      }
    </style>
  </defs>
  <title>Air inv</title>
  <g>
    <polygon class="cls-1" points="85.58 72.21 48.52 93.6 11.47 72.21 11.47 29.42 48.52 8.03 85.58 29.42 85.58 72.21"/>
    <g>
      <path class="cls-2" d="M68.87,36.5l-.53.45a26.66,26.66,0,0,0,1.54,4.51,8.65,8.65,0,0,0,1.4,2,4.7,4.7,0,0,0,0,.83c.16,3.94,1.86,8.4,5.29,10.6.37.24.76-.33.38-.57C74.39,52.68,73,49.91,72.35,47A11.43,11.43,0,0,1,71.9,44,5.27,5.27,0,0,0,74,45c2.59.58,4.91-2.44,3.13-4.58-.91-1.09-2.61-1-3.74-.4a4.11,4.11,0,0,0-1.91,2.64,7.48,7.48,0,0,1-1.19-2c-.56-1.31-1.38-4.15-1.38-4.15Zm4,7.34a6.38,6.38,0,0,1-.84-.65,4,4,0,0,1,.12-.41c.52-1.54,2.41-3.59,4.18-2.16a2,2,0,0,1-.59,3.46A3.12,3.12,0,0,1,72.83,43.84Z"/>
      <path class="cls-2" d="M49.31,35.71c-1.58,3.95-.92,8-.8,12.08,0,.36.1.82.1,1.17l.58-.49a74.26,74.26,0,0,1-.28-8c.29-4,2.22-8.63,6.26-10.12a9,9,0,0,1,6.81.33,14.85,14.85,0,0,1,4.34,3c-6.45,5.61-41,35.65-41.1,35.78-.21.38-.2.45.3.28S69.88,35.48,69.88,35.48s2.05-1.53.67-3-3.19.4-3.19.4l-.5.43a12.84,12.84,0,0,0-9.45-4C53.62,29.51,50.68,32.29,49.31,35.71Zm15.57.88,2.2-1.9a6,6,0,0,1,.52.93l.5-.48a6.15,6.15,0,0,0-.5-.9l1.12-1a.59.59,0,1,1,.77.89l-3.83,3.32a.59.59,0,0,1-.77-.89Z"/>
      <path class="cls-2" d="M49,51.9l-.64.55a12.11,12.11,0,0,1-.12,1.26A8.75,8.75,0,0,1,43.34,61c-.39.21-.09.82.29.62C47.71,59.42,48.81,55.83,49,51.9Z"/>
    </g>
    <g>
      <path class="cls-2" d="M42.42,50c-.06.13,19.82,16.28,29.6,24.33l.48-.54c-8.38-8.14-24.94-24-27.69-26.42C44.14,48,43.2,49.25,42.42,50Z"/>
      <path class="cls-2" d="M25.32,31.39c1,1,2,2.23,3.47,2.65,4.6,1.37,5.07,2.81,7.45,6.41l-1.49,1.68c-4.27-1.2-7.62-5.07-9.73-8.37-1.69-2.69-2.12-5.59-1.93-5.61A24.62,24.62,0,0,0,25.32,31.39Z"/>
      <path class="cls-2" d="M35.63,43l1.67-1.88c2.59-.35,5.62,3.54,6.55,5.13L41.41,49.1C41.29,49.24,35.51,46.35,35.63,43Z"/>
    </g>
  </g>
</svg>
