<svg id="Layer_1" data-name="Layer 1" xmlns="http://www.w3.org/2000/svg" viewBox="0 0 100 100">
  <defs>
    <style>
      .cls-1 {
        fill: #fff;
        stroke: #52bb7f;
        stroke-miterlimit: 10;
      }

      .cls-2 {
        fill: #52bb7f;
      }
    </style>
  </defs>
  <title>Water inv</title>
  <g>
    <path class="cls-1" d="M46.9,7.67q1.29,0,2.57,0a41.47,41.47,0,0,1,34,19.61q.68,1.09,1.29,2.23a41.47,41.47,0,0,1,0,39.23q-.61,1.13-1.29,2.23a41.47,41.47,0,0,1-34,19.61q-1.29,0-2.57,0A41.47,41.47,0,0,1,12.93,71q-.68-1.09-1.29-2.23a41.47,41.47,0,0,1,0-39.23q.61-1.13,1.29-2.23A41.47,41.47,0,0,1,46.9,7.67Z"/>
    <g>
      <path class="cls-2" d="M77,50.69a11.13,11.13,0,0,1-.83,4.81,19.84,19.84,0,0,0-.57,2,7.07,7.07,0,0,1-.88,2,3.84,3.84,0,0,0-.51,1.13A12.86,12.86,0,0,1,72,64.95c-.78,1-1.5,2.12-2.34,3.11A22.79,22.79,0,0,1,66.77,71a4.15,4.15,0,0,1-3.92,1,2.15,2.15,0,0,0-2.14.37c-.43.38-1,.64-1.4,1A8,8,0,0,1,55.87,75c-.75.18-1.5.38-2.23.62a4.05,4.05,0,0,1-2.45.21,7.09,7.09,0,0,0-2.84-.06,3.33,3.33,0,0,1-2.23-.32,2.48,2.48,0,0,0-2.58.16,5,5,0,0,1-4.49.57c-.91-.29-1.78-.61-2.68-.94s-1.83-.78-2.77-1.13A4.14,4.14,0,0,1,32,73.2a8.08,8.08,0,0,0-1.45-.94,6.16,6.16,0,0,1-1.78-1.9,18.06,18.06,0,0,0-1.51-2.15,4.09,4.09,0,0,1-1.1-2.93,3.07,3.07,0,0,0-.41-1.5A21,21,0,0,0,23,59.58a11.57,11.57,0,0,1-2.68-6.79c-.08-1.4,0-2.82-.08-4.22A5.42,5.42,0,0,0,20,45.86a7,7,0,0,1,.73-3.31c.48-.91,1-1.8,1.5-2.69A6.75,6.75,0,0,0,22.6,39c.67-1.59,1.32-3.14,1.94-4.76.57-1.39,1-2.87,1.55-4.27a4.14,4.14,0,0,1,3.2-2.66,10.46,10.46,0,0,0,3-1.13,14.06,14.06,0,0,1,2.9-1.34,6.54,6.54,0,0,0,1.18-.65c.08-.06.18-.19.25-.25a16.35,16.35,0,0,1,4.73-2,4.23,4.23,0,0,1,1,0c1,.08,1.91.18,2.87.3a4.12,4.12,0,0,0,2-.16A3.79,3.79,0,0,1,48.81,22a7,7,0,0,0,3.38-.33,4.28,4.28,0,0,1,1.91-.1c.81.1,1.63.37,2.44.54a2.87,2.87,0,0,1,1.7,1.27c.13.21.24.37.37.59a4.69,4.69,0,0,0,3.31,2.57,11,11,0,0,1,1.72.61,3.14,3.14,0,0,1,2,2.72c0,.3.11.59.14.92a2.5,2.5,0,0,0,.76,1.34,10.14,10.14,0,0,1,1.53,2,14.94,14.94,0,0,0,3.6,4.54A9.42,9.42,0,0,1,74,41.68c.83,1.8,1.67,3.6,2.52,5.39a3.45,3.45,0,0,1,.25.88C76.84,48.87,76.9,49.76,77,50.69ZM29,62.11a2.26,2.26,0,0,1-.16-.46.4.4,0,0,1-.13.08c.08.13.21.24.29.38.19.38.33.78.51,1.13A14.28,14.28,0,0,0,32.72,67c1.2,1.12,2.45,2.17,3.62,3.35a5.94,5.94,0,0,0,3.86,1.78c.88.08,1.72.24,2.6.35a4.41,4.41,0,0,0,1,.08c1.8,0,3.6-.13,5.37-.19a6.25,6.25,0,0,0,.94,0A16.21,16.21,0,0,0,58,68.95a9.06,9.06,0,0,1,2.1-1.34A39.58,39.58,0,0,1,64.28,66a9.5,9.5,0,0,0,2.93-1.69,14.46,14.46,0,0,0,2.36-2.49,9,9,0,0,0,1.86-4.11,6,6,0,0,1,1.45-3.06,2.8,2.8,0,0,0,.65-.92,9.68,9.68,0,0,0,.57-4.51,12,12,0,0,0-3.54-6.79,2.65,2.65,0,0,0-.76-.46c0-.48-.4-.7-.72-1a18.17,18.17,0,0,1-3.19-3.84,7.52,7.52,0,0,0-3.46-3.36,11.49,11.49,0,0,1-1.51-.83c-1.31-.91-2.57-1.77-3.82-2.71a5.75,5.75,0,0,0-3.19-1.12C53,29,52.17,29,51.31,29a3.4,3.4,0,0,1-1.72-.51,9.91,9.91,0,0,0-1.88-.83c-1-.32-2-.57-3-.81a18.46,18.46,0,0,0-4-.72A5.1,5.1,0,0,0,37,27.31a15.64,15.64,0,0,0-1.82,1.88,3.92,3.92,0,0,1-2.07,1.34,5.67,5.67,0,0,0-2.82,1.83,14.86,14.86,0,0,0-1.51,2.57,33.35,33.35,0,0,0-3,7,8.31,8.31,0,0,0-.27,1.34,37.05,37.05,0,0,1-1.07,5.61,9.59,9.59,0,0,0-.27,3.3,12,12,0,0,0,1.74,5.15,18.19,18.19,0,0,0,2.29,3.11,1,1,0,0,1,.08.19c0-.06-.08-.11-.1-.16-.37-1.42-.73-2.8-1.08-4.22a4.18,4.18,0,0,0-.33-.72,14.18,14.18,0,0,1-1.45-3.35,6.92,6.92,0,0,1-.16-4.57A56.71,56.71,0,0,0,26.88,41a12.87,12.87,0,0,1,1.27-3.28,26.89,26.89,0,0,1,5.32-6.55,5.1,5.1,0,0,1,.83-.57,17.24,17.24,0,0,1,6-2.07,13.29,13.29,0,0,1,6.64.67c1.43.57,2.9,1.1,4.38,1.59a25.37,25.37,0,0,0,6.34,1.4,5.69,5.69,0,0,1,4.37,2.17,12.56,12.56,0,0,1,1,1.53A6.91,6.91,0,0,0,64.9,38l3.82,3.08c.4.27.75.54,1.12.81s.45.7.67,1.05a13.84,13.84,0,0,1,.89,1.47c.57,1.07,1.1,2.2,1.63,3.28a3.93,3.93,0,0,1,.37,2.2,14.9,14.9,0,0,1-.88,3.2A34.6,34.6,0,0,1,70,59.83c-1.37,2.63-3.31,4.65-6.33,5.34a11.31,11.31,0,0,0-4.13,1.94,48,48,0,0,1-4.4,2.84c-2.66,1.48-5.37,2.5-8.49,2.1a10.23,10.23,0,0,1-3.59-1,9.44,9.44,0,0,0-1.9-.81,12.37,12.37,0,0,1-4.35-2,53.33,53.33,0,0,1-5.05-3.71C30.9,63.67,30,62.92,29,62.11Zm-.72-3.65a.45.45,0,0,0-.06-.19,1.07,1.07,0,0,0,.11.18,6.33,6.33,0,0,0,2.1,4.06,24.51,24.51,0,0,0,3.76,3.15c.84.51,1.61,1.16,2.44,1.75a10.23,10.23,0,0,0,3.62,1.9,14.6,14.6,0,0,1,3.09,1.2,6.3,6.3,0,0,0,1.67.65,11.86,11.86,0,0,0,6.45-.24,29.21,29.21,0,0,0,7-3.79,16.83,16.83,0,0,1,5.29-2.64A7.84,7.84,0,0,0,68,61.78a15,15,0,0,0,2.39-4.38c.69-1.88,1.29-3.76,1.94-5.62a4.55,4.55,0,0,0,.24-2.47,18.22,18.22,0,0,0-2.07-5.54,1.62,1.62,0,0,0-.38-.43A20.51,20.51,0,0,0,66,39.56a11.15,11.15,0,0,1-3.79-4.19,3.89,3.89,0,0,0-.62-.83,5.48,5.48,0,0,0-3.65-1.69,17.15,17.15,0,0,1-2-.27A57.53,57.53,0,0,1,47,29.84a12.59,12.59,0,0,0-4.8-1,16.22,16.22,0,0,0-4.59.86,10.1,10.1,0,0,0-4.49,2.61C32,33.54,30.95,34.77,30,36.09a12.45,12.45,0,0,0-2.29,4.7c-.41,1.77-.89,3.54-1.35,5.31-.18.72-.43,1.4-.57,2.1A7.12,7.12,0,0,0,26,52.47c.35.81.69,1.63,1,2.41a5.29,5.29,0,0,0,.49.78c.08-.14.14-.22.13-.29-.14-1.94.18-4-.59-5.85A1.5,1.5,0,0,1,27,49a10.77,10.77,0,0,1,.7-4.7,18,18,0,0,1,3.6-5.93,6.36,6.36,0,0,0,1.13-1.7,8.62,8.62,0,0,1,3.08-3.59A19,19,0,0,1,40.14,31a3.07,3.07,0,0,1,.69-.14,12.22,12.22,0,0,1,3.41,0,17.26,17.26,0,0,1,6.28,1.56,14,14,0,0,0,2.17.76,12,12,0,0,1,3.06,1.21c1.15.7,2.29,1.35,3.46,2a10.76,10.76,0,0,1,3.62,3.09,4.57,4.57,0,0,0,1.29,1.12c1.08.7,2.23,1.35,3.23,2.15a6,6,0,0,1,2.42,5.18c0,.84-.13,1.67-.21,2.5a30.34,30.34,0,0,1-1.15,6.31,6.27,6.27,0,0,1-2.6,3.36c-1.34.83-2.68,1.63-4,2.49-2,1.34-4,2.76-6,4.11a20.19,20.19,0,0,1-8.35,3.57,5.18,5.18,0,0,1-3.52-.51c-1.74-1-3.54-1.8-5.29-2.74-.78-.38-1.53-.84-2.29-1.31a31.59,31.59,0,0,1-5.39-4.38A12.7,12.7,0,0,1,28.89,59,2.73,2.73,0,0,0,28.32,58.46Zm15.12-27a7.06,7.06,0,0,0-4.41.67,5.24,5.24,0,0,1-1,.37A10.49,10.49,0,0,0,32.79,37a7.9,7.9,0,0,1-1.15,1.72,16.85,16.85,0,0,0-4.06,8.81,4.83,4.83,0,0,0,.1,2.14,9.13,9.13,0,0,1,.48,3.39,18,18,0,0,0,0,2.07,7.12,7.12,0,0,0,2.1,4.7c.83.8,1.66,1.59,2.44,2.39a22.9,22.9,0,0,0,5.61,4c1.94,1.08,3.92,2,5.91,3a4.57,4.57,0,0,0,1.26.45,10.44,10.44,0,0,0,5.26-.86,29.43,29.43,0,0,0,5.34-3c1.23-.86,2.42-1.77,3.65-2.58,1.07-.72,2.17-1.31,3.25-2,.69-.41,1.32-.88,2-1.26a6.85,6.85,0,0,0,3.33-5.08,41.9,41.9,0,0,0,.84-7A5.42,5.42,0,0,0,66.7,43c-.83-.54-1.66-1.07-2.49-1.59a6.75,6.75,0,0,1-2.21-2,8.59,8.59,0,0,0-1.66-1.56,64.77,64.77,0,0,0-6-3.47,10.5,10.5,0,0,0-1.4-.51c-1-.37-2-.76-3-1.13-.4-.16-.78-.32-1.15-.45A13.89,13.89,0,0,0,43.44,31.42Zm-5.08-6a2.81,2.81,0,0,0-1.85.76,6.87,6.87,0,0,1-1,.59c-1.29.57-2.6,1.08-3.89,1.67a4.94,4.94,0,0,0-2.6,2.45,9.48,9.48,0,0,1-.54.84,18.83,18.83,0,0,0-1.91,3.12,21.89,21.89,0,0,1-1.32,2.76,7.46,7.46,0,0,0-.73,3.09c0,.33,0,.69,0,1a2.12,2.12,0,0,1-.75,1.8,2.39,2.39,0,0,0-.62,1.31,3.53,3.53,0,0,0,0,1.35,5.22,5.22,0,0,1-.06,2.28c-.14.91-.25,1.8-.46,2.71a4.35,4.35,0,0,0,.29,2.9,14.18,14.18,0,0,1,.81,2.26,4.63,4.63,0,0,0,.78,1.74,19.09,19.09,0,0,1,2.15,3.65,4.13,4.13,0,0,0,.48.76,4,4,0,0,1,.83,2.57,2.64,2.64,0,0,0,.59,1.58,14.68,14.68,0,0,0,3.22,3.22,7.62,7.62,0,0,1,1.82,1.69,5.82,5.82,0,0,0,3.54,1.88,1.61,1.61,0,0,0,1-.16,2.83,2.83,0,0,1,2.53.08A2.13,2.13,0,0,0,43,73.09a22.25,22.25,0,0,0-3.17-.45,6.12,6.12,0,0,1-3.46-1.07c-.91-.76-1.69-1.63-2.53-2.45-1-1.05-2-2.12-3-3.17a14.61,14.61,0,0,1-1.75-2.26C28,61.84,27,60,25.7,58.17a11.59,11.59,0,0,1-1.88-10,48.84,48.84,0,0,0,1-4.83,19.62,19.62,0,0,1,1.94-5.93c.57-1.24,1.23-2.47,1.8-3.71a6.6,6.6,0,0,1,4.16-3.82,5.07,5.07,0,0,0,2.37-1.69,6.92,6.92,0,0,1,3.17-2.5A.55.55,0,0,0,38.36,25.46Zm4.29.13c.89.21,1.83.41,2.74.65A16.12,16.12,0,0,1,50,27.93a3.46,3.46,0,0,0,1.55.38c1.12.14,2.26.18,3.41.3a4.16,4.16,0,0,1,1.39.45,33.89,33.89,0,0,1,3,2.06,19.07,19.07,0,0,0,3.35,2.17,8.13,8.13,0,0,1,3.76,3.55,17.16,17.16,0,0,0,2.77,3.46c1,1,2,2,2.87,3.11A10.7,10.7,0,0,1,74.7,51c-.1,1.63-.33,3.19-1.66,4.37a2.16,2.16,0,0,0-.51.75,2.33,2.33,0,0,0-.13.61,2.27,2.27,0,0,0,1.35-1.13l1.07-1.88a6.18,6.18,0,0,0,.59-4.22,20,20,0,0,0-1.39-4A25.73,25.73,0,0,0,72,41.59a14.68,14.68,0,0,0-2.12-2.82c-1.51-1.58-3.08-3.14-4.41-4.81a25.39,25.39,0,0,0-4-3.73,11.11,11.11,0,0,0-2.36-1.34,28.49,28.49,0,0,1-4.3-2.31,11.1,11.1,0,0,0-4.09-1.7,2.26,2.26,0,0,0-.92,0,6.47,6.47,0,0,1-2.71,0A6.47,6.47,0,0,0,42.64,25.59ZM71.82,58.92a7.83,7.83,0,0,0-.65,1.32,6.61,6.61,0,0,1-1.74,2.64,13.57,13.57,0,0,1-4.13,3.23c-1.2.51-2.37,1-3.62,1.43a11.18,11.18,0,0,0-3.57,2,12.5,12.5,0,0,1-5.39,2.66,5.23,5.23,0,0,0-1.69.59,11,11,0,0,0,4.19-.32,5.21,5.21,0,0,0,3-1.93L59.44,69a1.37,1.37,0,0,1,1.42-.48,4.94,4.94,0,0,0,.92.13,8.29,8.29,0,0,0,6.07-2.49c.32-.27.51-.65.83-.92A9.52,9.52,0,0,0,71.82,58.92ZM48.28,73v0h1.15v0Z"/>
      <path class="cls-2" d="M44.67,32.23a15.48,15.48,0,0,1,6.05,1.5,36.85,36.85,0,0,1,8,4.65c.86.67,1.64,1.48,2.45,2.25,1.39,1.34,2.79,2.69,4.16,4.06a8.35,8.35,0,0,1,2.37,5,11.19,11.19,0,0,1-.48,4.72c-.14.51-.3,1-.46,1.53A3.24,3.24,0,0,1,64.63,58c-.69.19-1.32.41-2,.54a4.26,4.26,0,0,0-2.69,1.78,3.09,3.09,0,0,0-.33.46,5.93,5.93,0,0,1-3,2.57c-1.48.73-3.08,1.32-4.59,2-1.69.8-3.39,1.59-5,2.47a3,3,0,0,1-2.61.22,12.05,12.05,0,0,1-4.06-2.47,21.9,21.9,0,0,0-5.05-3.35,12,12,0,0,1-6-6.93,3.69,3.69,0,0,1-.24-1c-.18-1.42-.4-2.8-.43-4.19a14.15,14.15,0,0,1,.89-5.85,23.12,23.12,0,0,1,2.74-4.86,36.73,36.73,0,0,1,2.31-3.12,5.89,5.89,0,0,1,2.79-1.86c1.69-.53,3.36-1.23,5-1.88A4.22,4.22,0,0,1,44.67,32.23ZM67.05,50.69c0-.16,0-.35,0-.53a6,6,0,0,0-.56-2.77,10.12,10.12,0,0,0-2.07-2.71c-1.66-1.59-3.31-3.15-4.92-4.8a17.13,17.13,0,0,0-2.69-2.12c-.4-.22-.8-.41-1.2-.67a35.39,35.39,0,0,0-5.94-3.15c-2.39-1.05-4.84-.72-7.3-.59a1.21,1.21,0,0,0-.25,0,42.36,42.36,0,0,0-4.83,1.69,4.34,4.34,0,0,0-1.8,1.16,32.62,32.62,0,0,0-2.77,3.63,20.74,20.74,0,0,0-2.87,5.45,7.25,7.25,0,0,0-.35,1.55,28.41,28.41,0,0,0,.06,7,9.24,9.24,0,0,0,.45,1.88,11.46,11.46,0,0,0,5.74,6.12,23.56,23.56,0,0,1,3.12,1.83c1,.64,1.78,1.45,2.68,2.15A9.49,9.49,0,0,0,45,67.57a2.17,2.17,0,0,0,1.86-.18,42.32,42.32,0,0,1,5.35-2.58c1.55-.73,3.12-1.45,4.67-2.18A4.37,4.37,0,0,0,58.75,61c.4-.57.84-1.08,1.27-1.63a3.61,3.61,0,0,1,2.25-1.24c.64-.14,1.24-.3,1.88-.48A2.72,2.72,0,0,0,66,56C66.61,54.24,67.32,52.58,67.05,50.69Z"/>
      <path class="cls-2" d="M41.86,63.5a1.29,1.29,0,0,0-.35,0,5.25,5.25,0,0,1-4-1.53,27,27,0,0,1-2.82-3.43,17,17,0,0,0-1.59-1.94,6.54,6.54,0,0,1-1.8-3.11,10.69,10.69,0,0,1,.18-5.75,25.79,25.79,0,0,1,2.5-5.11,23.29,23.29,0,0,0,1.74-3.73,8,8,0,0,1,.62-1.35,4,4,0,0,1,3.09-2.25c1.86-.25,3.68-.57,5.56-.89a4,4,0,0,1,1.67.18c1.74.46,3.09,1.61,4.62,2.47a11.43,11.43,0,0,0,1.93,1,11.15,11.15,0,0,1,3.6,1.94c1.18,1,2.49,1.88,3.7,2.85.75.59,1.47,1.2,2.17,1.85a4.87,4.87,0,0,1,1.23,1.91,11.1,11.1,0,0,0,1.42,2.85,1.53,1.53,0,0,1,0,1.83c-.49.75-1,1.48-1.53,2.25a5.27,5.27,0,0,1-2.07,1.9c-.83.43-1.63.91-2.41,1.35a9.37,9.37,0,0,0-3.12,2.95,4.12,4.12,0,0,1-1.56,1.45A12.45,12.45,0,0,1,51,62.35c-1.7.29-3.38.54-5.08.8-1.35.18-2.72.29-4.08.4ZM31.6,50.94a7.07,7.07,0,0,0,2.33,5.74A7.55,7.55,0,0,1,35,58.13a18,18,0,0,0,2.39,3,5.71,5.71,0,0,0,4.11,1.72,35.1,35.1,0,0,0,3.66-.25c1.93-.25,3.84-.49,5.75-.89a21.73,21.73,0,0,0,3.12-1,2.52,2.52,0,0,0,1.35-1.21,10.16,10.16,0,0,1,3.73-3.44c.56-.27,1.1-.59,1.63-.88A5.57,5.57,0,0,0,63.24,53,8.5,8.5,0,0,1,64.63,51a.88.88,0,0,0,.11-1.34,8.76,8.76,0,0,1-1.26-2.53,8,8,0,0,0-3-3.66c-1.4-1-2.87-2-4.22-3.14a10.5,10.5,0,0,0-2.92-1.56A19.61,19.61,0,0,1,51,37.59a17,17,0,0,1-2-1.32,6.41,6.41,0,0,0-5.11-1.1c-1.21.25-2.47.45-3.7.61a4.1,4.1,0,0,0-3.51,2.57c-.1.24-.24.49-.35.73a23.84,23.84,0,0,1-2,4.13,23.49,23.49,0,0,0-2.2,4.38A10.64,10.64,0,0,0,31.6,50.94Z"/>
      <path class="cls-2" d="M50,60c-.51,0-1.07,0-1.59,0a12.57,12.57,0,0,0-1.35.14c-1.26.21-2.47.54-3.71.65a10.08,10.08,0,0,1-7-2.2,2,2,0,0,1-.37-.46,12.49,12.49,0,0,1-2.53-5.42,10.08,10.08,0,0,1,.41-6.05,18.29,18.29,0,0,1,2.33-5.07,24.31,24.31,0,0,1,4.32-4.54,5,5,0,0,1,5.88-.29,16,16,0,0,0,4.45,2.1,18.93,18.93,0,0,1,2.45.92A8.89,8.89,0,0,1,55.1,41,16.8,16.8,0,0,1,60,47.26,12.36,12.36,0,0,1,61,51.69a3.25,3.25,0,0,1-.43,1.86,8,8,0,0,1-2.37,2.69,23.73,23.73,0,0,0-3.12,2.52A4.58,4.58,0,0,1,52,60.07H50Zm9.18-5.66c1.05-.94,1.34-1.42,1.34-2.53a12.23,12.23,0,0,0-3.54-8.22c-.48-.51-1-1-1.56-1.51a7.27,7.27,0,0,0-2.77-1.7A29.72,29.72,0,0,1,47,38.07c-.46-.3-1-.56-1.47-.86a3.57,3.57,0,0,0-2.66-.43A5.24,5.24,0,0,0,40.43,38c-.35.33-.73.64-1.07,1a16.72,16.72,0,0,0-3.86,5.08c-.27.62-.56,1.24-.8,1.88-.91,2.25-1.47,4.51-.69,6.92.08.27.06.53.14.8a7.68,7.68,0,0,0,5.37,6,10.21,10.21,0,0,0,5.53.22,20.84,20.84,0,0,1,6.34-.51s.06,0,.13,0a4.62,4.62,0,0,0,3.59-1.45c.38-.4.84-.76,1.27-1.13s.7-.56,1-.84a13.28,13.28,0,0,0-1.85.64,7,7,0,0,1-3.92.45,5.24,5.24,0,0,0-3.9.84,5.31,5.31,0,0,1-2.8.89,15,15,0,0,1-3.86-.41,9.72,9.72,0,0,1-3.71-1.64,3.19,3.19,0,0,1-1.26-1.59A4.57,4.57,0,0,1,36,52.58a16.8,16.8,0,0,0,.64-5A1.75,1.75,0,0,1,37.48,46,8.32,8.32,0,0,1,39,45.14a24.42,24.42,0,0,1,2.5-.86,2.73,2.73,0,0,0,2-1.72,8.67,8.67,0,0,0,.48-1,1.58,1.58,0,0,1,.8-.92,6.28,6.28,0,0,1,1.51-.51,17.42,17.42,0,0,1,2.37-.25A5.08,5.08,0,0,1,52,40.89c1,.78,1.94,1.59,2.88,2.44s1.93,1.86,2.84,2.84a6.38,6.38,0,0,1,1.78,5.32C59.44,52.42,59.28,53.36,59.13,54.35Zm-6.6,2a10.38,10.38,0,0,0,4.88-1.45,2.38,2.38,0,0,0,1.42-2.06c0-.41.14-.84.16-1.26a6,6,0,0,0-1.55-4.94c-1.72-1.78-3.65-3.36-5.5-5a4.17,4.17,0,0,0-3.06-1.05A25.59,25.59,0,0,0,45.7,41a1.75,1.75,0,0,0-1.4,1.23,9.13,9.13,0,0,1-.54,1.13,2.79,2.79,0,0,1-1.86,1.55c-.67.21-1.31.4-2,.65a11.59,11.59,0,0,0-1.75.8,1.76,1.76,0,0,0-1,1.9,7.14,7.14,0,0,1-.33,2.95,14.25,14.25,0,0,0-.4,2.58,1.79,1.79,0,0,0,.48,1.5,6.39,6.39,0,0,0,1.47,1.24,12.49,12.49,0,0,0,7.19,1.4,4,4,0,0,0,1.8-.69,5.82,5.82,0,0,1,4.45-1A4.48,4.48,0,0,0,52.54,56.33Z"/>
      <path class="cls-2" d="M44.38,56.8c-1.07-.11-1.8-.16-2.52-.25a3.33,3.33,0,0,1-2.36-1.47,5.38,5.38,0,0,1-1.12-3.41,6.08,6.08,0,0,1,.83-3.62,9,9,0,0,1,4.24-3.38,12.2,12.2,0,0,1,1.15-.43,5.92,5.92,0,0,0,2-1.23,3.83,3.83,0,0,1,5.54,0c1,1,2,1.94,3,3a4.09,4.09,0,0,1,1.18,2.52,18.33,18.33,0,0,1,.19,3.08,4.28,4.28,0,0,1-4.67,3.84,7.09,7.09,0,0,0-4.13.56A5.91,5.91,0,0,1,44.38,56.8ZM39,51.5a4,4,0,0,0,2.77,4.11,7.16,7.16,0,0,0,5.67-.18A7.6,7.6,0,0,1,52,54.84a3.26,3.26,0,0,0,1.66-.22,4.32,4.32,0,0,0,1.94-1.86,2.35,2.35,0,0,0,.49-1.59c-.08-1-.11-2-.29-3A3.73,3.73,0,0,0,55,46.72a24.59,24.59,0,0,0-3.14-3.17,3.75,3.75,0,0,0-1.72-.86,3,3,0,0,0-2.87.73A6.73,6.73,0,0,1,44.57,45a10.47,10.47,0,0,0-2.07.91C40.38,47.2,38.91,48.87,39,51.5Z"/>
      <path class="cls-2" d="M50.32,53.68a16,16,0,0,0-4.06.51,9,9,0,0,1-3.52.16,2.67,2.67,0,0,1-2.45-2.57,5.47,5.47,0,0,1,0-1.69,3.48,3.48,0,0,1,1.53-2.58c.8-.51,1.59-1.05,2.44-1.5a12.87,12.87,0,0,0,3-1.91,1.76,1.76,0,0,1,1.8-.38,6.37,6.37,0,0,1,3.76,2.42,16.85,16.85,0,0,1,1.35,2,3.92,3.92,0,0,1-1,5,2.33,2.33,0,0,1-1.48.54Zm-.49-.61c.53,0,1,0,1.51,0A2.84,2.84,0,0,0,54,50.54a3.73,3.73,0,0,0-.75-3q-.36-.45-.67-.91a6.11,6.11,0,0,0-3.25-2.21,1.72,1.72,0,0,0-1.8.38,10.25,10.25,0,0,1-2.88,1.78A13.06,13.06,0,0,0,42.1,48.1c-1.31.89-1.4,3.08-1.15,4.17a1.83,1.83,0,0,0,1.13,1.21,4.72,4.72,0,0,0,1.31.3,7.27,7.27,0,0,0,2.74-.25A12.08,12.08,0,0,1,49.83,53.08Z"/>
      <path class="cls-2" d="M46.43,52.55a5.16,5.16,0,0,1-3.76-2.1,2.59,2.59,0,0,1-.35-1.77A.72.72,0,0,1,43,48a8.49,8.49,0,0,0,3.54-1.2,3.88,3.88,0,0,1,3.52.21,3,3,0,0,1,1.13.75,2.84,2.84,0,0,1-.51,4.13,1.3,1.3,0,0,1-.73.27c-1,.13-2.06.21-3.08.3A2.6,2.6,0,0,1,46.43,52.55Zm-3.22-3.76a1.15,1.15,0,0,0,0,1.31c.61.94,2.6,2.1,3.87,1.75a10.67,10.67,0,0,1,2.25-.37,1.84,1.84,0,0,0,1.93-1.8,1.59,1.59,0,0,0-.88-1.8,5.61,5.61,0,0,0-2.07-.65,3,3,0,0,0-2.36.92c.49,0,.76,0,1,0a2,2,0,0,1,1.74,1.1.88.88,0,0,1-.54,1.37,3,3,0,0,1-1.23.14c-.84-.06-1.13-.37-1.29-1.2-.06-.4-.14-.78-.22-1.26C44.62,48.5,43.92,48.65,43.22,48.79Zm3.84,1.37a6.92,6.92,0,0,0,.81-.27.41.41,0,0,0,.11-.72,1.43,1.43,0,0,0-1.27-.3.52.52,0,0,0-.29.89A2.39,2.39,0,0,0,47.06,50.16Z"/>
    </g>
  </g>
</svg>
