<?xml version="1.0" encoding="UTF-8"?> <svg xmlns="http://www.w3.org/2000/svg" xmlns:xlink="http://www.w3.org/1999/xlink" id="Logo" viewBox="0 0 145.67 145.67"><defs><style>.cls-1{fill:url(#Безымянный_градиент_7);}.cls-2{fill:#d94385;}.cls-3{fill:#fff;}.cls-4{fill:none;stroke:#4b3941;stroke-miterlimit:10;stroke-width:2px;}.cls-5{fill:#4b3941;}</style><linearGradient id="Безымянный_градиент_7" x1="72.75" y1="140.68" x2="218.42" y2="140.68" gradientUnits="userSpaceOnUse"><stop offset="0" stop-color="#ffd03c"></stop><stop offset="0.54" stop-color="#f3ca3a"></stop><stop offset="1" stop-color="#e8ff00"></stop></linearGradient></defs><title>LogoZS</title><path class="cls-1" d="M218.42,140.68c0,2.38-2,4.64-2.24,7s1.31,5,.85,7.25-2.87,4.15-3.55,6.39.31,5.12-.59,7.28-3.63,3.5-4.73,5.57-.7,5.07-2,7-4.24,2.72-5.73,4.53-1.67,4.84-3.33,6.5-4.69,1.84-6.51,3.34-2.57,4.42-4.53,5.73-4.94.89-7,2-3.39,3.83-5.57,4.74-5-.1-7.28.59-4.06,3.09-6.38,3.55-4.9-1.08-7.26-.85-4.58,2.23-6.95,2.23-4.64-2-7-2.23-5,1.3-7.26.85-4.14-2.87-6.38-3.55-5.12.3-7.28-.59-3.5-3.63-5.57-4.74-5.07-.7-7-2-2.72-4.24-4.54-5.73-4.83-1.68-6.5-3.34-1.84-4.68-3.33-6.5-4.42-2.57-5.73-4.53-.89-5-2-7-3.83-3.38-4.73-5.56.09-5-.59-7.28-3.09-4.06-3.55-6.39,1.08-4.89.85-7.25-2.24-4.58-2.24-7,2-4.63,2.24-7-1.31-5-.85-7.26,2.87-4.15,3.55-6.39-.31-5.12.59-7.28,3.63-3.5,4.73-5.56.7-5.08,2-7,4.24-2.71,5.73-4.53,1.67-4.84,3.33-6.5,4.69-1.84,6.51-3.34,2.57-4.41,4.53-5.72,4.94-.9,7-2,3.38-3.83,5.57-4.74,5,.1,7.28-.59,4.06-3.09,6.38-3.55,4.9,1.08,7.26.85,4.58-2.23,7-2.23,4.63,2,6.95,2.23,5-1.3,7.26-.85,4.15,2.88,6.38,3.55,5.12-.3,7.29.6S177,77,179,78.11s5.07.7,7,2,2.71,4.23,4.53,5.73,4.83,1.67,6.5,3.33,1.84,4.68,3.33,6.5,4.42,2.58,5.73,4.53.89,5,2,7,3.83,3.38,4.73,5.56-.09,5,.59,7.29,3.09,4.06,3.55,6.38-1.08,4.89-.85,7.26S218.42,138.3,218.42,140.68Z" transform="translate(-72.75 -67.85)"></path><path class="cls-2" d="M213.34,140.68a67.76,67.76,0,1,1-67.75-67.76A67.76,67.76,0,0,1,213.34,140.68Z" transform="translate(-72.75 -67.85)"></path><ellipse class="cls-3" cx="72.46" cy="72.51" rx="56.92" ry="56.85"></ellipse><path class="cls-3" d="M145.59,81.44a59.24,59.24,0,1,0,59.24,59.24A59.25,59.25,0,0,0,145.59,81.44Zm0,114.31a55.07,55.07,0,1,1,55.06-55.07A55.07,55.07,0,0,1,145.59,195.75Z" transform="translate(-72.75 -67.85)"></path><path class="cls-4" d="M204.83,140.68a59.25,59.25,0,1,1-59.24-59.24A59.24,59.24,0,0,1,204.83,140.68Z" transform="translate(-72.75 -67.85)"></path><path class="cls-5" d="M146.56,86.26a1,1,0,1,1-1-1A1,1,0,0,1,146.56,86.26Z" transform="translate(-72.75 -67.85)"></path><path class="cls-5" d="M140.86,86.45a1,1,0,0,1-.87,1.07,1,1,0,1,1-.2-1.93A1,1,0,0,1,140.86,86.45Z" transform="translate(-72.75 -67.85)"></path><path class="cls-5" d="M135.22,87.24a1,1,0,0,1-1.91.41,1,1,0,1,1,1.91-.41Z" transform="translate(-72.75 -67.85)"></path><path class="cls-5" d="M129.69,88.62a1,1,0,1,1-1.86.6,1,1,0,0,1,1.86-.6Z" transform="translate(-72.75 -67.85)"></path><path class="cls-5" d="M124.33,90.57a1,1,0,0,1-.49,1.28,1,1,0,1,1,.49-1.28Z" transform="translate(-72.75 -67.85)"></path><path class="cls-5" d="M119.21,93.06a1,1,0,0,1-.36,1.33,1,1,0,1,1,.36-1.33Z" transform="translate(-72.75 -67.85)"></path><path class="cls-5" d="M114.38,96.08a1,1,0,0,1-.22,1.36,1,1,0,0,1-1.36-.21,1,1,0,0,1,.22-1.36A1,1,0,0,1,114.38,96.08Z" transform="translate(-72.75 -67.85)"></path><path class="cls-5" d="M109.89,99.59a1,1,0,0,1-1.45,1.31,1,1,0,0,1,1.45-1.31Z" transform="translate(-72.75 -67.85)"></path><path class="cls-5" d="M105.79,103.55a1,1,0,0,1,.07,1.37,1,1,0,1,1-1.45-1.3A1,1,0,0,1,105.79,103.55Z" transform="translate(-72.75 -67.85)"></path><path class="cls-5" d="M102.12,107.91a1,1,0,0,1,.22,1.36,1,1,0,0,1-1.37.22,1,1,0,0,1-.21-1.37A1,1,0,0,1,102.12,107.91Z" transform="translate(-72.75 -67.85)"></path><path class="cls-5" d="M98.93,112.63a1,1,0,1,1-1.33.36A1,1,0,0,1,98.93,112.63Z" transform="translate(-72.75 -67.85)"></path><path class="cls-5" d="M96.26,117.66a1,1,0,1,1-.8,1.78,1,1,0,0,1,.8-1.78Z" transform="translate(-72.75 -67.85)"></path><path class="cls-5" d="M94.12,123a1,1,0,0,1,.62,1.22,1,1,0,1,1-.62-1.22Z" transform="translate(-72.75 -67.85)"></path><path class="cls-5" d="M92.55,128.42a1,1,0,1,1-1.16.75A1,1,0,0,1,92.55,128.42Z" transform="translate(-72.75 -67.85)"></path><path class="cls-5" d="M91.55,134a1,1,0,0,1,.87,1.07,1,1,0,1,1-.87-1.07Z" transform="translate(-72.75 -67.85)"></path><path class="cls-5" d="M91.16,139.72a1,1,0,0,1,1,1,1,1,0,1,1-1-1Z" transform="translate(-72.75 -67.85)"></path><path class="cls-5" d="M91.35,145.41a1,1,0,1,1-.87,1.07A1,1,0,0,1,91.35,145.41Z" transform="translate(-72.75 -67.85)"></path><path class="cls-5" d="M92.14,151.06a1,1,0,1,1-.75,1.15A1,1,0,0,1,92.14,151.06Z" transform="translate(-72.75 -67.85)"></path><path class="cls-5" d="M93.52,156.59a1,1,0,0,1,1.23.62,1,1,0,0,1-.63,1.23,1,1,0,1,1-.6-1.85Z" transform="translate(-72.75 -67.85)"></path><path class="cls-5" d="M95.47,161.94a1,1,0,0,1,.79,1.78,1,1,0,1,1-.79-1.78Z" transform="translate(-72.75 -67.85)"></path><path class="cls-5" d="M98,167.07a1,1,0,1,1,1,1.68,1,1,0,0,1-1.34-.36A1,1,0,0,1,98,167.07Z" transform="translate(-72.75 -67.85)"></path><path class="cls-5" d="M101,171.9a1,1,0,0,1,1.36.22,1,1,0,1,1-1.36-.22Z" transform="translate(-72.75 -67.85)"></path><path class="cls-5" d="M104.49,176.39a1,1,0,0,1,1.37.07,1,1,0,1,1-1.45,1.3A1,1,0,0,1,104.49,176.39Z" transform="translate(-72.75 -67.85)"></path><path class="cls-5" d="M108.44,180.49a1,1,0,1,1,.07,1.38A1,1,0,0,1,108.44,180.49Z" transform="translate(-72.75 -67.85)"></path><path class="cls-5" d="M112.81,184.16a1,1,0,0,1,1.36-.22,1,1,0,1,1-1.36.22Z" transform="translate(-72.75 -67.85)"></path><path class="cls-5" d="M117.53,187.35a1,1,0,0,1,1.33-.36,1,1,0,1,1-1,1.68A1,1,0,0,1,117.53,187.35Z" transform="translate(-72.75 -67.85)"></path><path class="cls-5" d="M122.56,190a1,1,0,1,1,.49,1.29A1,1,0,0,1,122.56,190Z" transform="translate(-72.75 -67.85)"></path><path class="cls-5" d="M127.84,192.16a1,1,0,0,1,1.86.6,1,1,0,0,1-1.86-.6Z" transform="translate(-72.75 -67.85)"></path><path class="cls-5" d="M133.32,193.73a1,1,0,0,1,1.16-.75,1,1,0,0,1,.75,1.15,1,1,0,0,1-1.91-.4Z" transform="translate(-72.75 -67.85)"></path><path class="cls-5" d="M138.93,194.72a1,1,0,1,1,.87,1.07A1,1,0,0,1,138.93,194.72Z" transform="translate(-72.75 -67.85)"></path><path class="cls-5" d="M144.62,195.12a1,1,0,0,1,1-1,1,1,0,0,1,1,1,1,1,0,0,1-1.95,0Z" transform="translate(-72.75 -67.85)"></path><path class="cls-5" d="M150.31,194.93a1,1,0,0,1,.87-1.08,1,1,0,0,1,1.07.87,1,1,0,0,1-1.94.21Z" transform="translate(-72.75 -67.85)"></path><path class="cls-5" d="M156,194.13a1,1,0,0,1,1.91-.4,1,1,0,0,1-1.91.4Z" transform="translate(-72.75 -67.85)"></path><path class="cls-5" d="M161.48,192.76a1,1,0,0,1,1.86-.61,1,1,0,0,1-.63,1.23A1,1,0,0,1,161.48,192.76Z" transform="translate(-72.75 -67.85)"></path><path class="cls-5" d="M166.84,190.81a1,1,0,0,1,.5-1.28,1,1,0,0,1,1.28.49,1,1,0,0,1-1.78.79Z" transform="translate(-72.75 -67.85)"></path><path class="cls-5" d="M172,188.32a1,1,0,1,1,1.69-1,1,1,0,0,1-1.69,1Z" transform="translate(-72.75 -67.85)"></path><path class="cls-5" d="M176.8,185.3a1,1,0,1,1,1.35.21A1,1,0,0,1,176.8,185.3Z" transform="translate(-72.75 -67.85)"></path><path class="cls-5" d="M181.29,181.79a1,1,0,0,1,.07-1.38,1,1,0,0,1,1.38.08,1,1,0,0,1-1.45,1.3Z" transform="translate(-72.75 -67.85)"></path><path class="cls-5" d="M185.39,177.83a1,1,0,0,1-.07-1.37,1,1,0,0,1,1.37-.08,1,1,0,0,1-1.3,1.45Z" transform="translate(-72.75 -67.85)"></path><path class="cls-5" d="M189.05,173.47a1,1,0,1,1,1.36-.22A1,1,0,0,1,189.05,173.47Z" transform="translate(-72.75 -67.85)"></path><path class="cls-5" d="M192.24,168.75a1,1,0,1,1,1.33-.36A1,1,0,0,1,192.24,168.75Z" transform="translate(-72.75 -67.85)"></path><path class="cls-5" d="M194.92,163.72a1,1,0,0,1,.79-1.78,1,1,0,0,1,.49,1.28A1,1,0,0,1,194.92,163.72Z" transform="translate(-72.75 -67.85)"></path><path class="cls-5" d="M197.05,158.43a1,1,0,0,1-.62-1.23,1,1,0,0,1,1.23-.62,1,1,0,1,1-.61,1.85Z" transform="translate(-72.75 -67.85)"></path><path class="cls-5" d="M198.63,153a1,1,0,1,1,1.15-.75A1,1,0,0,1,198.63,153Z" transform="translate(-72.75 -67.85)"></path><path class="cls-5" d="M199.62,147.34a1,1,0,0,1-.87-1.07,1,1,0,0,1,1.07-.86,1,1,0,1,1-.2,1.93Z" transform="translate(-72.75 -67.85)"></path><path class="cls-5" d="M200,141.66a1,1,0,0,1-1-1,1,1,0,1,1,1,1Z" transform="translate(-72.75 -67.85)"></path><path class="cls-5" d="M199.82,136a1,1,0,0,1-.2-1.94,1,1,0,0,1,1.07.87A1,1,0,0,1,199.82,136Z" transform="translate(-72.75 -67.85)"></path><path class="cls-5" d="M199,130.32a1,1,0,1,1,.75-1.15A1,1,0,0,1,199,130.32Z" transform="translate(-72.75 -67.85)"></path><path class="cls-5" d="M197.65,124.79a1,1,0,0,1-1.22-.63,1,1,0,1,1,1.22.63Z" transform="translate(-72.75 -67.85)"></path><path class="cls-5" d="M195.71,119.44a1,1,0,1,1-.79-1.78,1,1,0,0,1,1.28.5A1,1,0,0,1,195.71,119.44Z" transform="translate(-72.75 -67.85)"></path><path class="cls-5" d="M193.21,114.31a1,1,0,0,1-1.33-.35,1,1,0,0,1,.36-1.33,1,1,0,1,1,1,1.68Z" transform="translate(-72.75 -67.85)"></path><path class="cls-5" d="M190.19,109.48a1,1,0,0,1-1.36-.22,1,1,0,0,1,.22-1.36,1,1,0,0,1,1.14,1.58Z" transform="translate(-72.75 -67.85)"></path><path class="cls-5" d="M186.69,105a1,1,0,1,1,.07-1.37A1,1,0,0,1,186.69,105Z" transform="translate(-72.75 -67.85)"></path><path class="cls-5" d="M182.73,100.89a1,1,0,0,1-1.38.07,1,1,0,0,1-.07-1.38,1,1,0,0,1,1.45,1.31Z" transform="translate(-72.75 -67.85)"></path><path class="cls-5" d="M178.37,97.22a1,1,0,1,1-.22-1.35A1,1,0,0,1,178.37,97.22Z" transform="translate(-72.75 -67.85)"></path><path class="cls-5" d="M173.64,94a1,1,0,1,1-1.68-1,1,1,0,0,1,1.68,1Z" transform="translate(-72.75 -67.85)"></path><path class="cls-5" d="M168.61,91.36a1,1,0,0,1-1.28.49,1,1,0,0,1-.5-1.29,1,1,0,0,1,1.78.8Z" transform="translate(-72.75 -67.85)"></path><path class="cls-5" d="M163.33,89.22a1,1,0,1,1-1.85-.6,1,1,0,0,1,1.85.6Z" transform="translate(-72.75 -67.85)"></path><path class="cls-5" d="M157.85,87.65a1,1,0,0,1-1.15.75,1,1,0,0,1-.75-1.16,1,1,0,0,1,1.9.41Z" transform="translate(-72.75 -67.85)"></path><path class="cls-5" d="M152.24,86.66a1,1,0,0,1-1.07.86,1,1,0,1,1,1.07-.86Z" transform="translate(-72.75 -67.85)"></path><path class="cls-2" d="M106.05,122.71a5.53,5.53,0,0,1-.26.85,4.5,4.5,0,0,1-.37.81l-3.65.55,3,1.15a4.66,4.66,0,0,1-.56,1.48l-3-1.15,2.37,2.84a4.75,4.75,0,0,1-.25.86,5.7,5.7,0,0,1-.37.8l-2.58-3.11-3.77.62a4.68,4.68,0,0,1,.25-.85,5.33,5.33,0,0,1,.37-.81l3.46-.54-2.84-1.08a4.09,4.09,0,0,1,.56-1.48l2.85,1.07L99,122a6.75,6.75,0,0,1,.26-.85,4.75,4.75,0,0,1,.37-.8l2.43,3Z" transform="translate(-72.75 -67.85)"></path><path class="cls-2" d="M108.35,116.3a4.43,4.43,0,0,1,1.19.73l-2.34,3.82-5.83-3.56,2.35-3.82a4.14,4.14,0,0,1,1.19.73l-1.52,2.47,1.1.67,1.34-2.18a4.12,4.12,0,0,1,1.19.72l-1.34,2.19,1.15.71Z" transform="translate(-72.75 -67.85)"></path><path class="cls-2" d="M108.5,107.47a4.59,4.59,0,0,1,1-1.2l5.15,4.48a4.23,4.23,0,0,1-1,1.19l-2.07-1.8-1.75,2,2.07,1.8a4.14,4.14,0,0,1-1,1.2l-5.15-4.47a4.29,4.29,0,0,1,1-1.2l2,1.75,1.75-2Z" transform="translate(-72.75 -67.85)"></path><path class="cls-2" d="M119.53,104.19a1.76,1.76,0,0,1,.51.53,3.07,3.07,0,0,1,.44.66,3.92,3.92,0,0,1-3.91,2.48,3.76,3.76,0,0,1-3.17-4,3.9,3.9,0,0,1,3.28-3.26,3.9,3.9,0,0,1,.54.57,1.81,1.81,0,0,1,.41.62,3.36,3.36,0,0,0-1.87.66,2.06,2.06,0,0,0-.81,1.4,2.15,2.15,0,0,0,.52,1.61,2.11,2.11,0,0,0,1.46.86,2,2,0,0,0,1.54-.47A3.51,3.51,0,0,0,119.53,104.19Z" transform="translate(-72.75 -67.85)"></path><path class="cls-2" d="M127.87,101.54a6.11,6.11,0,0,1-.8.5,5,5,0,0,1-.85.38l-3.5-1.83,1.55,2.89a4.56,4.56,0,0,1-1.39.75l-3.25-6a4.22,4.22,0,0,1,1.4-.75l1.47,2.71.41-3.73a5.2,5.2,0,0,1,.8-.5,5.32,5.32,0,0,1,.85-.39l-.46,4Z" transform="translate(-72.75 -67.85)"></path><path class="cls-2" d="M135.73,98.84a4.51,4.51,0,0,1-1.56.49l-.82-1.09L131.1,99l0,1.37a4.51,4.51,0,0,1-1.56.49l.43-7.29a3.68,3.68,0,0,1,1.24-.4ZM132.45,97l-1.24-1.66-.06,2.07Z" transform="translate(-72.75 -67.85)"></path><path class="cls-2" d="M142.78,97.84a4.16,4.16,0,0,1-1.57.19l-.28-2.29-.61.08-1.13,2.46a4.52,4.52,0,0,1-.85.17,5.47,5.47,0,0,1-.86,0l1.24-2.73a2.15,2.15,0,0,1-1-.68,2.31,2.31,0,0,1-.47-1.16,2.16,2.16,0,0,1,.45-1.7,2.45,2.45,0,0,1,1.65-.84l2.59-.31Zm-3.22-5.07a.73.73,0,0,0-.54.29.83.83,0,0,0-.16.66.79.79,0,0,0,.91.76l1-.13-.21-1.7Z" transform="translate(-72.75 -67.85)"></path><path class="cls-2" d="M157,92.24a4.43,4.43,0,0,1,1.56.28l-1.21,6.72-8.2-1.48L150.31,91a4.43,4.43,0,0,1,1.56.28l-1,5.35,1.77.31,1-5.34a4.39,4.39,0,0,1,1.56.28l-1,5.34,1.77.32Z" transform="translate(-72.75 -67.85)"></path><path class="cls-2" d="M164.9,102.29a5.78,5.78,0,0,1-.89-.3,4.83,4.83,0,0,1-.83-.42l-.79-3.88-1.26,3a4.57,4.57,0,0,1-1.46-.61l2.63-6.3a4.27,4.27,0,0,1,1.46.61l-1.19,2.85,3.16-2a5.65,5.65,0,0,1,.89.31,5.41,5.41,0,0,1,.84.42L164,98.13Z" transform="translate(-72.75 -67.85)"></path><path class="cls-2" d="M174.53,101.28a3.59,3.59,0,0,1-.59,2.64,3.63,3.63,0,0,1-2.2,1.6,3.45,3.45,0,0,1-4.11-2.7,3.86,3.86,0,0,1,2.79-4.24,3.45,3.45,0,0,1,4.11,2.7ZM170.88,100a2.64,2.64,0,0,0-1.73,2.64,1.66,1.66,0,0,0,2.13,1.4,2.3,2.3,0,0,0,1.31-1,2.34,2.34,0,0,0,.43-1.61,1.66,1.66,0,0,0-2.14-1.4Z" transform="translate(-72.75 -67.85)"></path><path class="cls-2" d="M177.82,112.15a4.3,4.3,0,0,1-1.14-1.11l3.78-3.89L179.28,106l-2.68,2.28c-1.07.9-2,1-2.73.26a2.31,2.31,0,0,1-.45-.59,4.35,4.35,0,0,1,1-1,1.24,1.24,0,0,0,.18.22c.27.26.6.24,1-.08l3.63-3.08,3.36,3.26Z" transform="translate(-72.75 -67.85)"></path><path class="cls-2" d="M183,119.09a4.46,4.46,0,0,1-.94-1.33l.79-1.12-1.37-1.92-1.32.38a4.59,4.59,0,0,1-.94-1.33l7.08-1.83a3.82,3.82,0,0,1,.75,1.07Zm.71-3.67,1.2-1.69-2,.58Z" transform="translate(-72.75 -67.85)"></path><path class="cls-5" d="M173.2,146.2a4.53,4.53,0,0,1,1.21-.54,3.91,3.91,0,0,1,2,0,2.72,2.72,0,0,1,2,2.26,5.11,5.11,0,0,1-.26,2.79s0,0,0,0l0,0a2.75,2.75,0,0,0,1.24-.83,7.61,7.61,0,0,0,1.5-2.62c0-.1.07-.2.1-.3a.9.9,0,0,1,.77-.64.51.51,0,0,0,.2-.06.83.83,0,0,1,.93.15.72.72,0,0,1,.22.85,2.92,2.92,0,0,0,0,2,1.1,1.1,0,0,0,1.85.57,2.92,2.92,0,0,0,1-1.38c.06-.15.19-.34.14-.47s-.29-.08-.45-.11a2.76,2.76,0,0,1-2.27-2.66,3.7,3.7,0,0,1,1.1-2.84,4.93,4.93,0,0,1,3.61-1.58,2.42,2.42,0,0,1,1.5.46,2.14,2.14,0,0,1,.44-.76,1.43,1.43,0,0,1,1.5-.45,1.19,1.19,0,0,1,.84,1.06,2.93,2.93,0,0,1-.15,1.1c-.22.74-.54,1.44-.73,2.19a8.29,8.29,0,0,0-.3,2.8,2.77,2.77,0,0,0,.27,1.06.62.62,0,0,0,.89.36,2.22,2.22,0,0,0,.9-.67,9.24,9.24,0,0,0,1.53-2.63c.14-.35.27-.7.39-1.06a.92.92,0,0,1,1.24-.55.67.67,0,0,1,.4.89,11.71,11.71,0,0,1-2.58,4.76,4.13,4.13,0,0,1-2.54,1.39,2.58,2.58,0,0,1-3-1.91c-.06-.21-.1-.43-.16-.65-.05,0-.06.11-.09.17a7.34,7.34,0,0,1-1.78,2.65,4.43,4.43,0,0,1-2.78,1.16,2.52,2.52,0,0,1-2.57-1.76c0-.05,0-.1-.05-.16s-.1.1-.14.15a5.28,5.28,0,0,1-2.53,2,4.35,4.35,0,0,1-1.6.24.24.24,0,0,0-.19.1,5.11,5.11,0,0,1-4.43,1.28,3.08,3.08,0,0,1-2.18-1.53c-.06,0-.07.07-.1.11A7.13,7.13,0,0,1,167.7,155a3.85,3.85,0,0,1-2.54.54,2.47,2.47,0,0,1-2.1-2.16,5.9,5.9,0,0,1,.12-2c.15-.79.37-1.56.49-2.35a2.53,2.53,0,0,0-.07-1.28c-.11-.31-.22-.37-.53-.28a2.22,2.22,0,0,0-1,.59,7.13,7.13,0,0,0-1.51,2.39,10.25,10.25,0,0,0-.56,2.31,9.36,9.36,0,0,0,0,3.08.67.67,0,0,1-.19.57,1.86,1.86,0,0,1-1.81.52.91.91,0,0,1-.68-.76,7.89,7.89,0,0,1,0-2.52c.16-1.14.44-2.26.63-3.39a2.74,2.74,0,0,0,0-1.42c-.12-.34-.22-.41-.57-.31a3.13,3.13,0,0,0-1.32.89,7.79,7.79,0,0,0-1.8,3,9.52,9.52,0,0,0-.39,2.05c-.09.85-.13,1.7-.15,2.55a.93.93,0,0,1-.42.76,1.83,1.83,0,0,1-1.61.32.78.78,0,0,1-.65-.86V157l-.19.22a5,5,0,0,1-2,1.45,3.3,3.3,0,0,1-1.81.2,2.39,2.39,0,0,1-1.65-1.14l-.07-.12s0,0,0,0a8.36,8.36,0,0,1-.93,1.2,3.73,3.73,0,0,1-2.78,1.23,2.45,2.45,0,0,1-2.37-1.57,1.82,1.82,0,0,1-.08-.19l-.35.51a6.51,6.51,0,0,1-2.09,2,3.58,3.58,0,0,1-2.35.45,2.46,2.46,0,0,1-1.94-1.54l-.06-.14c-.07,0-.07.08-.09.12a6.31,6.31,0,0,1-1.64,2.06,3.6,3.6,0,0,1-3,.67,2.42,2.42,0,0,1-1.81-1.57l-.06-.16-.33.57a6,6,0,0,1-1.16,1.53,3.66,3.66,0,0,1-3.3.85,2.7,2.7,0,0,1-2.09-2.26,9.39,9.39,0,0,1,0-2.75,58.82,58.82,0,0,1,1.18-5.88.24.24,0,0,0,0-.15c-.3.23-.61.45-.9.68a10.89,10.89,0,0,0-1.79,1.6,2.58,2.58,0,0,0-.66,1.28,1.69,1.69,0,0,0,.18,1,.8.8,0,0,0,.5.38c.15.06.32.1.47.17a.88.88,0,0,1,.1,1.52,2,2,0,0,1-1.37.24,2.63,2.63,0,0,1-2.23-2.18,3.13,3.13,0,0,1,.4-2.33,9.43,9.43,0,0,1,1.92-2.21c1.2-1,2.47-2,3.71-3a1,1,0,0,0,.35-.55,4.29,4.29,0,0,1,.86-1.83,1.9,1.9,0,0,1,1.65-.66,1.34,1.34,0,0,1,1.2,1.73,2.86,2.86,0,0,1-.77,1.31.41.41,0,0,0-.12.2,48.28,48.28,0,0,0-1.71,6.48,22.7,22.7,0,0,0-.4,2.71,4.5,4.5,0,0,0,.15,1.86.85.85,0,0,0,1.43.44,3.4,3.4,0,0,0,.87-1,12.84,12.84,0,0,0,1.39-3.31c.52-1.77.91-3.56,1.33-5.36.34-1.44.66-2.89,1.08-4.31a2.47,2.47,0,0,1,.63-1.14,1.35,1.35,0,0,1,2,.06,1.5,1.5,0,0,1,.27.94,7.36,7.36,0,0,1-.39,2.23c-.36,1.3-.85,2.56-1.24,3.85a18.18,18.18,0,0,0-.86,4.5,4.84,4.84,0,0,0,.2,1.85l.09.23a.73.73,0,0,0,1.16.31,2.76,2.76,0,0,0,.82-.88,11.2,11.2,0,0,0,1.55-3.79c.38-1.7.72-3.4,1.15-5.09.4-1.53.79-3.07,1.32-4.57a2.44,2.44,0,0,1,.43-.75,1.39,1.39,0,0,1,1.32-.5,1.21,1.21,0,0,1,1,1.24,6.9,6.9,0,0,1-.32,2.16c-.38,1.36-.87,2.69-1.3,4a18,18,0,0,0-.87,4.53,4.79,4.79,0,0,0,.2,1.84c.24.74.65.9,1.33.52a3.44,3.44,0,0,0,1-1,10.51,10.51,0,0,0,2-4.84c.21-.91.44-1.82.72-2.72a1.67,1.67,0,0,1,1.55-1.22,1.21,1.21,0,0,1,1.22,1.16,3.48,3.48,0,0,1-.27,1.39,17.8,17.8,0,0,0-.73,2.28,8,8,0,0,0-.19,2.43,2.69,2.69,0,0,0,.3,1,.71.71,0,0,0,1.07.27,2.19,2.19,0,0,0,.72-.7,9.87,9.87,0,0,0,1.23-2.63,19.33,19.33,0,0,0,.66-3.11,11.66,11.66,0,0,1,.44-2,2,2,0,0,1,.52-.8,1.4,1.4,0,0,1,1.56-.26,1.32,1.32,0,0,1,.67,1.38,6.63,6.63,0,0,1-.5,1.68,9,9,0,0,0-.64,3.67,3.4,3.4,0,0,0,.31,1.4.61.61,0,0,0,1,.3,3,3,0,0,0,.94-.87,11.18,11.18,0,0,0,1.61-3.08c.36-1,.53-2,.83-3,.16-.55.3-1.1.46-1.64a1.7,1.7,0,0,1,1.92-1.17,1,1,0,0,1,.78.85l.54-.44a4.23,4.23,0,0,1,2.4-1,2.41,2.41,0,0,1,1.44.3,2,2,0,0,1,.66.72q.3-.32.6-.6a5.3,5.3,0,0,1,2.15-1.33,3.4,3.4,0,0,1,1.52-.12,2,2,0,0,1,1.64,1.73,5.06,5.06,0,0,1-.16,2.32c-.18.71-.4,1.4-.52,2.12a2.87,2.87,0,0,0,.12,1.51.67.67,0,0,0,.89.47,2.16,2.16,0,0,0,1-.62,8.47,8.47,0,0,0,1.85-2.94,6.78,6.78,0,0,0,.31-1.42c.26-1.26.55-2.52.91-3.76a1.53,1.53,0,0,1,1.29-1.15,1.24,1.24,0,0,1,1.42,1.5c-.07.39-.22.75-.32,1.12v0Zm2.54,3.17a2.85,2.85,0,0,0-.32-1.37.84.84,0,0,0-1.07-.43,1.64,1.64,0,0,0-.52.24,3.73,3.73,0,0,0-1.43,2.05,2.17,2.17,0,0,0,.14,1.62,1.17,1.17,0,0,0,1.13.75,1.55,1.55,0,0,0,1.15-.5.25.25,0,0,0,.07-.27,1.25,1.25,0,0,1,.58-1.5.5.5,0,0,0,.27-.53Zm10.08-4.51a2.32,2.32,0,0,0,0,.24,1.07,1.07,0,0,0,.79,1,1.61,1.61,0,0,0,1.62-.64,4.81,4.81,0,0,0,.5-1.25.25.25,0,0,0,0-.12,2.29,2.29,0,0,0-.29-.75.94.94,0,0,0-1-.47A2,2,0,0,0,185.82,144.86Z" transform="translate(-72.75 -67.85)"></path><path class="cls-5" d="M103.19,137.61l-1.52,1.2a5.46,5.46,0,0,0-1.42,1.53,1.9,1.9,0,0,0-.2,1.49.89.89,0,0,0,.64.67l.41.14a.8.8,0,0,1,.52.79.79.79,0,0,1-.47.8,2.11,2.11,0,0,1-1.21.21,2.65,2.65,0,0,1-2.28-2.11,3.34,3.34,0,0,1,.61-2.78,12.33,12.33,0,0,1,2.15-2.24c1.1-.95,2.27-1.82,3.4-2.74a.47.47,0,0,0,.15-.24,5.23,5.23,0,0,1,.7-1.75,1.94,1.94,0,0,1,1.6-.94,1.36,1.36,0,0,1,1.44,1.81,2.85,2.85,0,0,1-.74,1.22.69.69,0,0,0-.13.2,21,21,0,0,0-1.37,4.85v0a6.06,6.06,0,0,0,.91-.3,7.14,7.14,0,0,0,4.54-5.22,11.2,11.2,0,0,0,.31-3.16,1.18,1.18,0,0,1,.91-1.25,1.73,1.73,0,0,1,1.32.07.78.78,0,0,1,.47.77,14.79,14.79,0,0,1-.74,4.33,10.06,10.06,0,0,1-4.56,5.61c-.16.09-.15.15-.07.29a24.5,24.5,0,0,1,1.1,2.38,10.85,10.85,0,0,0,1.39,2.43,2.94,2.94,0,0,0,1.85,1.18l.16,0c.09,0,.11,0,.12-.11.17-1.54.36-3.07.57-4.61a29,29,0,0,1,.83-4.52,3.46,3.46,0,0,1,.69-1.43,1.33,1.33,0,0,1,2.09.07c.07.09.1.06.16,0a4,4,0,0,1,2.29-1,3.18,3.18,0,0,1,3.44,2,6.2,6.2,0,0,1,.4,2.92,7.85,7.85,0,0,1-.68,2.52.46.46,0,0,0,0,.09,3.55,3.55,0,0,0,1.25-.65,6.15,6.15,0,0,0,2-2.7,4.17,4.17,0,0,0,.09-.72,6.8,6.8,0,0,1,3.54-5.08,5.11,5.11,0,0,1,3.16-.62,3.3,3.3,0,0,1,2.85,2.46,6.61,6.61,0,0,1-.33,4.75l-.1.21c.09,0,.15,0,.22,0a4.74,4.74,0,0,0,2.14-1.77,8.83,8.83,0,0,0,1-2,13.94,13.94,0,0,0,.41-1.81c.21-.87.42-1.74.69-2.6a1.67,1.67,0,0,1,1.52-1.2,1.22,1.22,0,0,1,1.24,1.16,3.5,3.5,0,0,1-.3,1.5,14,14,0,0,0-.77,2.54,6.63,6.63,0,0,0-.05,2.47,2,2,0,0,0,.25.63.71.71,0,0,0,1,.26,2.25,2.25,0,0,0,.69-.65,9.42,9.42,0,0,0,1.22-2.56,17,17,0,0,0,.71-3.24,10.09,10.09,0,0,1,.45-2,1.65,1.65,0,0,1,1-1.12,1.28,1.28,0,0,1,1.71,1.46,5.35,5.35,0,0,1-.4,1.38,10,10,0,0,0-.69,2.67,6.32,6.32,0,0,0,.09,2.21,2,2,0,0,0,.19.5.59.59,0,0,0,.9.29,2.34,2.34,0,0,0,.75-.61,8.86,8.86,0,0,0,2.09-4.62c.23-1.13.51-2.25.83-3.36a1.36,1.36,0,0,1,.83-.87,2,2,0,0,1,1-.18.94.94,0,0,1,.9,1.16c0,.07,0,.14,0,.25a10.72,10.72,0,0,1,.92-.77,5.74,5.74,0,0,1,2.05-1,1.26,1.26,0,0,1,.72,0,.84.84,0,0,1,.4,1.3,1.62,1.62,0,0,1-.83.58,4.36,4.36,0,0,0-1.61,1,7.8,7.8,0,0,0-1.07,1.23.22.22,0,0,0-.07.17,9.51,9.51,0,0,0,.73,3,2.52,2.52,0,0,0,.46.69,1.07,1.07,0,0,0,1.17.33,3.12,3.12,0,0,0,1.53-1.09,11.87,11.87,0,0,0,1.74-3.06,10.38,10.38,0,0,0,.44-1.81c.21-.95.44-1.89.74-2.81a1.67,1.67,0,0,1,1.06-1.12,1.25,1.25,0,0,1,1.71,1.19,3.72,3.72,0,0,1-.29,1.32,15.49,15.49,0,0,0-.73,2.31,7.14,7.14,0,0,0-.15,2.52,2,2,0,0,0,.29.87.69.69,0,0,0,1,.28,2.17,2.17,0,0,0,.82-.8,10.19,10.19,0,0,0,1.2-2.62,20.05,20.05,0,0,0,.66-3.17,8.72,8.72,0,0,1,.45-2,1.59,1.59,0,0,1,1.21-1.11,1.23,1.23,0,0,1,1.51,1.17,3.93,3.93,0,0,1-.34,1.55,12,12,0,0,0-.66,2.19,7.13,7.13,0,0,0,0,2.8,1.8,1.8,0,0,0,.3.71.53.53,0,0,0,.62.21,2,2,0,0,0,.86-.6,9.45,9.45,0,0,0,1.73-2.93c.11-.29.21-.59.31-.89a.93.93,0,0,1,1.34-.49.74.74,0,0,1,.3.87,12,12,0,0,1-2.51,4.66,4.49,4.49,0,0,1-2.5,1.47,2.58,2.58,0,0,1-2.86-1.29l-.18.28a5.3,5.3,0,0,1-1.75,1.71,3.46,3.46,0,0,1-2.18.43,2.47,2.47,0,0,1-2-1.56c0-.07,0-.14-.09-.23a12.23,12.23,0,0,1-.78,1.07,6,6,0,0,1-2.12,1.69,3.57,3.57,0,0,1-2.55.22,2.85,2.85,0,0,1-1.53-1.2,7.82,7.82,0,0,1-.77-1.46c0,.18,0,.35-.06.53,0,.65-.11,1.3-.11,1.95a1.09,1.09,0,0,1-.62,1,1.87,1.87,0,0,1-1.39.19.8.8,0,0,1-.68-.86,1,1,0,0,0,0-.18c-.21.25-.4.46-.6.66a4.26,4.26,0,0,1-2.22,1.2,2.56,2.56,0,0,1-2.71-1l-.09-.15a.66.66,0,0,1-.09-.15,8.12,8.12,0,0,1-.77,1,3.9,3.9,0,0,1-2.48,1.39,2.56,2.56,0,0,1-3-1.85.19.19,0,0,0-.06-.13c-.17.2-.34.41-.53.61a5.79,5.79,0,0,1-3.1,1.86,3.8,3.8,0,0,1-1.16.1.46.46,0,0,0-.33.11A5.67,5.67,0,0,1,130,144a3.48,3.48,0,0,1-3.22-1.88l-.07-.11a7.19,7.19,0,0,1-2,1.89,5,5,0,0,1-3.07.87.27.27,0,0,0-.19.08,4.89,4.89,0,0,1-3,1.37,3.2,3.2,0,0,1-2.45-.7.18.18,0,0,1-.07-.05h0l-.09.71c-.14,1.49-.27,3-.43,4.48-.1,1-.26,2-.44,3a1.19,1.19,0,0,1-.54.77,2,2,0,0,1-1.56.28.7.7,0,0,1-.59-.84c.13-.95.28-1.89.41-2.84.08-.58.15-1.17.22-1.76,0-.11,0-.16-.14-.17a4.91,4.91,0,0,1-3.23-1.36,8.32,8.32,0,0,1-1.43-1.85c-.43-.73-.73-1.52-1.11-2.27-.28-.56-.53-1.14-.86-1.67-.08-.13-.15-.19-.31-.13a3.74,3.74,0,0,1-.57.17c-.1,0-.13.07-.15.17a22.92,22.92,0,0,1-.69,3.49,8.68,8.68,0,0,1-.92,2.09,4.58,4.58,0,0,1-3.76,2.19,2.32,2.32,0,0,1-2.28-1.12,2.06,2.06,0,0,1-.35-1.47,1.07,1.07,0,0,1,1-.88.74.74,0,0,1,.79.59l0,.14a.86.86,0,0,0,1.18.72,1.78,1.78,0,0,0,1.09-.81,5.36,5.36,0,0,0,.69-1.86c.26-1.18.42-2.38.59-3.58s.41-2.53.72-3.78c0-.07.06-.14,0-.21s0,0,0,0Zm30.17.24a5.74,5.74,0,0,0,0-.71,3.31,3.31,0,0,0-.56-1.57,1.14,1.14,0,0,0-1.18-.49,2.23,2.23,0,0,0-1.3.75,5,5,0,0,0-1.27,4,3.09,3.09,0,0,0,.51,1.47,1.31,1.31,0,0,0,.87.6,1.94,1.94,0,0,0,1.67-.6c.06-.05,0-.11,0-.17a1.31,1.31,0,0,1,0-.59,1.46,1.46,0,0,1,.9-1,.3.3,0,0,0,.17-.21A5.42,5.42,0,0,0,133.36,137.85ZM121,140.14a4.93,4.93,0,0,0-.08-1,3.11,3.11,0,0,0-.53-1.41.92.92,0,0,0-1-.36,2.2,2.2,0,0,0-.87.42,4.7,4.7,0,0,0-1.88,3.87,3.46,3.46,0,0,0,.39,1.73,1.56,1.56,0,0,0,2.7.24.14.14,0,0,0,0-.15,1.4,1.4,0,0,1,.92-1.65c.11,0,.14-.1.17-.19A5.71,5.71,0,0,0,121,140.14Z" transform="translate(-72.75 -67.85)"></path><path class="cls-5" d="M143.61,129.65a2.31,2.31,0,0,1-2.42-2.45,1,1,0,0,1,.83-1.09.88.88,0,0,1,1,.58,1.82,1.82,0,0,1,0,.33.63.63,0,0,0,.63.71,1.72,1.72,0,0,0,1.73-1.15,2.13,2.13,0,0,0,.06-.45.94.94,0,0,1,.94-.82.86.86,0,0,1,.89.77,2,2,0,0,1-.09.81,3.54,3.54,0,0,1-2.93,2.69A2.7,2.7,0,0,1,143.61,129.65Z" transform="translate(-72.75 -67.85)"></path><path class="cls-5" d="M173.2,146.2l0,0v0Z" transform="translate(-72.75 -67.85)"></path><path class="cls-5" d="M178.15,150.73l0,0s0,0,0,0Z" transform="translate(-72.75 -67.85)"></path><path class="cls-5" d="M103.19,137.61h0s0,0,0,0Z" transform="translate(-72.75 -67.85)"></path><path class="cls-3" d="M142.87,165.23c-.91,3.29-2.32,8.57-3.38,12.54,1.41-3.81,3.27-8.87,4.43-12.08l-.48-.21C143.25,165.38,143.06,165.31,142.87,165.23Z" transform="translate(-72.75 -67.85)"></path><path class="cls-3" d="M158.17,121.94c-.47,1.09-.83,2.22-1.21,3.37l.08,0,.77-2.39a8.87,8.87,0,0,1,.51-1.25c.51-1,1-2,1.42-3-.37.74-.75,1.48-1.16,2.22C158.47,121.19,158.34,121.54,158.17,121.94Z" transform="translate(-72.75 -67.85)"></path><path class="cls-3" d="M159.84,109.19c0-.13.09-.26.15-.39a17.63,17.63,0,0,1,.72-1.61,1.42,1.42,0,0,1,1.48-.84,1.08,1.08,0,0,0-.77.22.94.94,0,0,1,.64,0,1,1,0,0,1,.67,1.16,72,72,0,0,1-3.18,10h0a.9.9,0,0,1-1.17.5,1,1,0,0,1-.54-.47,1.06,1.06,0,0,0,.12.34.82.82,0,0,0,.73.42.84.84,0,0,1-.81-.37,1.41,1.41,0,0,1-.26-.92,14.53,14.53,0,0,1,.31-1.77c.25-1.15.54-2.27.88-3.38a.56.56,0,0,0,0-.12,1.36,1.36,0,0,1-.29-.18,60.82,60.82,0,0,0-2.13,9.24,9.08,9.08,0,0,1-.3,1.32l-.72,2.29a4.81,4.81,0,0,1,.75.28l.2.1c.36-1.12.71-2.26,1.17-3.36.61-1.5,1.15-2.18,1.31-2.12s.06.39-.15,1c1-2.31,1.83-4.55,2.6-6.83.41-1.22.8-2.45,1.17-3.7.19-.63.37-1.26.55-1.9a5.42,5.42,0,0,0,.21-1,1.3,1.3,0,0,0-.26-1,1.43,1.43,0,0,1,.34,1.19c0-.17.08-.35.11-.52a1.11,1.11,0,0,0-.71-1.21l-.61-.22a1,1,0,0,0-1.25.48c-.48,1-.93,2.09-1.34,3.18l.09,0Z" transform="translate(-72.75 -67.85)"></path><path class="cls-5" d="M157.93,115.46a14.53,14.53,0,0,0-.31,1.77,1.41,1.41,0,0,0,.26.92.84.84,0,0,0,.81.37.82.82,0,0,1-.73-.42,1.06,1.06,0,0,1-.12-.34,1,1,0,0,0,.54.47.9.9,0,0,0,1.17-.5h0a72,72,0,0,0,3.18-10,1,1,0,0,0-.67-1.16.94.94,0,0,0-.64,0,1.08,1.08,0,0,1,.77-.22,1.42,1.42,0,0,0-1.48.84,17.63,17.63,0,0,0-.72,1.61c-.06.13-1.17,3.31-1.22,3.44.28.1.71-.08.87,0,.29-.82,1.47-4.3,1.74-5a.41.41,0,0,1,.55-.21.46.46,0,0,1,.29.52,71.32,71.32,0,0,1-3.15,9.93h0a.43.43,0,0,1-.54.22.47.47,0,0,1-.29-.53c.45-1.75,1-3.54,1.48-5.21l0,0a1.25,1.25,0,0,1-.51.09,1,1,0,0,1-.33-.1.56.56,0,0,1,0,.12C158.47,113.19,158.18,114.31,157.93,115.46Z" transform="translate(-72.75 -67.85)"></path><path class="cls-5" d="M162.85,105.17l-.61-.23a1.48,1.48,0,0,0-1.87.73c-.52,1.11-2,5.21-2.44,6.39.17,0,.28,0,.48.07.42-1.08,2-5.19,2.43-6.22a1,1,0,0,1,1.25-.48l.61.22a1.11,1.11,0,0,1,.71,1.21c0,.17-.07.35-.11.52a1.43,1.43,0,0,0-.34-1.19,1.3,1.3,0,0,1,.26,1,5.42,5.42,0,0,1-.21,1c-.18.64-.36,1.27-.55,1.9-.37,1.25-.76,2.48-1.17,3.7-.77,2.28-1.63,4.52-2.6,6.83.21-.65.26-1,.15-1s-.7.62-1.31,2.12c-.46,1.1-.81,2.24-1.17,3.36l-.2-.1a4.81,4.81,0,0,0-.75-.28l.72-2.29a9.08,9.08,0,0,0,.3-1.32,60.82,60.82,0,0,1,2.13-9.24h0s-.47.18-.61.21a61.19,61.19,0,0,0-2,8.92,9.15,9.15,0,0,1-.29,1.25l-.74,2.37a1.28,1.28,0,0,0-.27,0,4.35,4.35,0,0,0-1.53.11c.51.14,1,.23,1.47.37a11.2,11.2,0,0,1,1.36.52,6.14,6.14,0,0,0,1.47.56,2.79,2.79,0,0,0,1.55-.12c-.38-.07-.74-.15-1.09-.25l-.33-.1.78-2.42a8,8,0,0,1,.49-1.18,55.27,55.27,0,0,0,5.13-15A1.64,1.64,0,0,0,162.85,105.17Zm-4.53,16.54a8.87,8.87,0,0,0-.51,1.25l-.77,2.39-.08,0c.38-1.15.74-2.28,1.21-3.37.17-.4.3-.75.41-1,.41-.74.79-1.48,1.16-2.22C159.3,119.68,158.83,120.69,158.32,121.71Z" transform="translate(-72.75 -67.85)"></path><path class="cls-3" d="M157.85,125.67c.35.1.71.18,1.09.25Z" transform="translate(-72.75 -67.85)"></path><path class="cls-2" d="M99.63,157.58a2.89,2.89,0,0,0,0-.58l0-.14a1.56,1.56,0,0,0-.31-.6,2.09,2.09,0,0,0-.17-1.15H99a2.29,2.29,0,0,1,.19,1.11c-.21.64-.65,1.07-.8,1.63a1.47,1.47,0,0,1-.32-.76,1.12,1.12,0,0,1,.11-.72,8.61,8.61,0,0,0,.82-1.26h-.14a6.12,6.12,0,0,1-.76,1.19s0,0,0,.05a1.17,1.17,0,0,1-.15-1.18h-.24l0,.06a1.17,1.17,0,0,0,.25,1.18,1.72,1.72,0,0,0,0,.65,1.66,1.66,0,0,0,.33.83h.12l.12,0c.14-.51.59-.9.72-1.54a1.43,1.43,0,0,1,.21,1.39l.14,0h.14Z" transform="translate(-72.75 -67.85)"></path><path class="cls-2" d="M100.44,160.13a4.31,4.31,0,0,0-.06-.58l0-.14a1.54,1.54,0,0,0-.36-.57,1.35,1.35,0,0,0-.08-.61,2.44,2.44,0,0,0-.21-.53h-.14a3.28,3.28,0,0,1,.2.52,1.39,1.39,0,0,1,.09.58c-.13.66-.52,1.13-.61,1.7a1.52,1.52,0,0,1-.4-.73,1.05,1.05,0,0,1,0-.73,9.74,9.74,0,0,0,.68-1.34l-.14,0a6.82,6.82,0,0,1-.63,1.27s0,0,0,.05a1.17,1.17,0,0,1-.27-1.17l-.1,0h-.14l0,.06a1.15,1.15,0,0,0,.37,1.15,1.8,1.8,0,0,0,.45,1.46l.08,0h0l.12,0c.08-.53.49-1,.55-1.61a1.45,1.45,0,0,1,.35,1.38l.14,0h0l.07,0h.06Z" transform="translate(-72.75 -67.85)"></path><path class="cls-2" d="M101.5,162.62a5,5,0,0,0-.12-.58l-.06-.13a1.79,1.79,0,0,0-.42-.55,1.65,1.65,0,0,0-.14-.6,2.45,2.45,0,0,0-.26-.51h-.06l0,0h0a2.67,2.67,0,0,1,.25.51,1.5,1.5,0,0,1,.15.57c-.06.67-.4,1.18-.43,1.76a1.73,1.73,0,0,1-.47-.7,1.14,1.14,0,0,1,0-.74,8.39,8.39,0,0,0,.54-1.4l-.14,0a6.43,6.43,0,0,1-.49,1.32s0,0,0,.05a1.19,1.19,0,0,1-.38-1.14l-.1,0h0l-.08,0,0,.06a1.23,1.23,0,0,0,.48,1.13,1.59,1.59,0,0,0,.11.65,1.71,1.71,0,0,0,.49.77l.08,0h0l.12,0c0-.53.38-1,.37-1.65a1.5,1.5,0,0,1,.5,1.34l.12,0h0l.08,0,0,0Z" transform="translate(-72.75 -67.85)"></path><path class="cls-2" d="M102.8,165a4.8,4.8,0,0,0-.17-.57l-.08-.13a1.77,1.77,0,0,0-.47-.51,2.41,2.41,0,0,0-.51-1.08l0,0,0,0h0a2.36,2.36,0,0,1,.51,1c0,.68-.27,1.22-.24,1.81a1.82,1.82,0,0,1-.53-.67,1.11,1.11,0,0,1-.12-.73,9.42,9.42,0,0,0,.38-1.45l-.12,0a6.35,6.35,0,0,1-.16.75,4.43,4.43,0,0,1-.2.62s0,0,0,.06a1.22,1.22,0,0,1-.49-1.12l-.1,0h0l-.08,0,.05.06a1.24,1.24,0,0,0,.59,1.08,1.9,1.9,0,0,0,.17.65,1.83,1.83,0,0,0,.58.73l.07,0h0l.11-.05c0-.54.27-1,.2-1.69a1.54,1.54,0,0,1,.62,1.3l.12-.05h0l.07,0,0,0Z" transform="translate(-72.75 -67.85)"></path><path class="cls-2" d="M104.34,167.32a4.23,4.23,0,0,0-.23-.56l-.09-.12a1.78,1.78,0,0,0-.52-.47,2.44,2.44,0,0,0-.61-1l0,0,0,0,0,0a2.44,2.44,0,0,1,.61,1c.08.68-.14,1.24,0,1.83a1.7,1.7,0,0,1-.6-.62,1.18,1.18,0,0,1-.2-.73c0-.23.1-.44.14-.68a5.55,5.55,0,0,0,.09-.8l-.12.05a6,6,0,0,1-.21,1.41s0,0,0,0a.81.81,0,0,1-.39-.36,1.85,1.85,0,0,1-.21-.71l-.09,0,0,0-.07,0,.05.05a1.28,1.28,0,0,0,.69,1,2.07,2.07,0,0,0,.88,1.31l.07,0,0,0,.1-.06c-.09-.54.16-1.06,0-1.71a1.6,1.6,0,0,1,.76,1.25l.11-.06h0l.07,0,0,0Z" transform="translate(-72.75 -67.85)"></path><path class="cls-2" d="M106.1,169.48a6,6,0,0,0-.29-.53l-.1-.12a1.66,1.66,0,0,0-.57-.42,2.37,2.37,0,0,0-.71-1l0,0,0,0,0,0a2.51,2.51,0,0,1,.7.95c.15.67,0,1.26.15,1.84a1.76,1.76,0,0,1-.66-.57,1.22,1.22,0,0,1-.27-.71c0-.24.06-.46.07-.7a5.34,5.34,0,0,0,0-.81l-.11.06a6.36,6.36,0,0,1-.07,1.43s0,0,0,.06a.89.89,0,0,1-.42-.33,1.94,1.94,0,0,1-.29-.7l-.09.05,0,0-.07,0,.06,0a1.3,1.3,0,0,0,.79,1,2.14,2.14,0,0,0,1,1.24l.07-.05,0,0,.1-.07a16.68,16.68,0,0,0-.16-1.72,1.66,1.66,0,0,1,.88,1.19l.11-.07h0l.07,0,0,0Z" transform="translate(-72.75 -67.85)"></path><path class="cls-2" d="M107.31,170.57l-.07.24a.78.78,0,0,0-.36-.27,2.5,2.5,0,0,0-.71-1l0,0-.05,0h0a2.76,2.76,0,0,1,.69,1,3.55,3.55,0,0,1,.06.79l.12,0a2.19,2.19,0,0,0-.1-.65c.24.12.19.09.35.34.06,0,0-.31.1-.32S107.05,170,107.31,170.57Z" transform="translate(-72.75 -67.85)"></path><path class="cls-2" d="M106,171.14c0-.24,0-.46.06-.7a5.35,5.35,0,0,0,0-.83l-.1.07a6.34,6.34,0,0,1-.09,1.44s0,0,0,.06a1,1,0,0,1-.42-.33,1.37,1.37,0,0,1-.18-.59l-.16,0-.08-.06-.07,0,.06,0a1.32,1.32,0,0,0,.79,1,1.92,1.92,0,0,0,.28.58l.11-.11A1,1,0,0,1,106,171.14Z" transform="translate(-72.75 -67.85)"></path><path class="cls-2" d="M113.63,177.35a3.28,3.28,0,0,0-.35-.47l-.11-.1a1.63,1.63,0,0,0-.61-.32c0-.09.15,0,.08-.07l-.24.22s0,.33,0-.14c0,.07,0,0,0,.05.22.64.13,1.25.34,1.79a1.61,1.61,0,0,1-.71-.44l-.12-.15a1,1,0,0,0-.08.14.35.35,0,0,0,.08.1,1.64,1.64,0,0,0,.76.48l.06-.05,0,0,.09-.08c-.2-.5-.07-1.08-.34-1.67.41.11.7.33,1,1l.09-.1h0l.06,0,0,0Z" transform="translate(-72.75 -67.85)"></path><path class="cls-2" d="M111.86,177.85h0a1,1,0,0,1,.08-.14l0,0A1.11,1.11,0,0,1,111.86,177.85Z" transform="translate(-72.75 -67.85)"></path><path class="cls-2" d="M115.79,179a4.78,4.78,0,0,0-.39-.45l-.12-.08a1.77,1.77,0,0,0-.64-.26,2.27,2.27,0,0,0-.9-.77l0,0,0,0,0,0a2.26,2.26,0,0,1,.89.74c.29.61.26,1.22.53,1.74a1.63,1.63,0,0,1-.76-.37,1.12,1.12,0,0,1-.41-.62c0-.24,0-.46-.09-.69a4.7,4.7,0,0,0-.16-.8l-.09.1a6.84,6.84,0,0,1,.24,1.4s0,0,0,.06a.8.8,0,0,1-.48-.21,2,2,0,0,1-.43-.59l-.07.07,0,0-.06.05.07,0a1.21,1.21,0,0,0,1,.74,1.75,1.75,0,0,0,.42.52,1.69,1.69,0,0,0,.81.41l.05-.06,0,0,.08-.09c-.25-.48-.18-1.06-.51-1.63.42.08.73.27,1.1.92l.09-.1h0l.05-.06,0-.05Z" transform="translate(-72.75 -67.85)"></path><path class="cls-2" d="M117.93,180.58a3.24,3.24,0,0,0-.4-.44l-.12-.09a1.7,1.7,0,0,0-.64-.26,2.24,2.24,0,0,0-.89-.77l0,0,0,0h0a2.31,2.31,0,0,1,.87.75c.29.61.26,1.22.53,1.75a1.76,1.76,0,0,1-.75-.37,1.14,1.14,0,0,1-.41-.63c0-.23,0-.45-.09-.68a4.63,4.63,0,0,0-.15-.82l-.07.09a6.79,6.79,0,0,1,.2,1.42s0,0,0,.06a.84.84,0,0,1-.48-.2c-.16-.14-.18-.27-.3-.52L115,180l-.1,0-.05.06.07,0a1.16,1.16,0,0,0,1,.74,1.66,1.66,0,0,0,.42.52,1.77,1.77,0,0,0,.82.41l.05-.06,0,0,.08-.1c-.25-.47-.19-1.06-.52-1.62a1.51,1.51,0,0,1,1.11.91l.08-.1h0l.05-.06,0,0Z" transform="translate(-72.75 -67.85)"></path><path class="cls-2" d="M120.19,182a3.36,3.36,0,0,0-.42-.4l-.13-.07a1.69,1.69,0,0,0-.65-.2,2.33,2.33,0,0,0-1-.68l0,0,0,.05,0,0a2.31,2.31,0,0,1,.94.65c.33.58.35,1.19.66,1.69a1.58,1.58,0,0,1-.78-.3c-.25-.19-.45-.41-.46-.58s-.08-.45-.14-.68a4.06,4.06,0,0,0-.22-.78l-.08.1a6.13,6.13,0,0,1,.34,1.38s0,0,0,.06a.83.83,0,0,1-.49-.16,1.71,1.71,0,0,1-.44-.56l-.1.09,0,0,0,0,.06,0a1.13,1.13,0,0,0,1,.64,1.88,1.88,0,0,0,.46.48,1.63,1.63,0,0,0,.85.33l0-.06,0,0,.07-.1c-.28-.46-.26-1.05-.64-1.58a1.46,1.46,0,0,1,1.17.81l.08-.11h0l0-.06,0,0Z" transform="translate(-72.75 -67.85)"></path><path class="cls-2" d="M122.44,183.36a3.36,3.36,0,0,0-.42-.4l-.13-.07a1.74,1.74,0,0,0-.66-.2,2.11,2.11,0,0,0-.94-.68l-.05,0,0,0h0a2.25,2.25,0,0,1,.92.66c.33.58.35,1.19.66,1.69a1.58,1.58,0,0,1-.78-.3c-.25-.19-.45-.41-.46-.58s-.08-.45-.14-.68a4.82,4.82,0,0,0-.2-.79l-.07.1a6.55,6.55,0,0,1,.31,1.39s0,0,0,.06a.83.83,0,0,1-.49-.16c-.17-.12-.2-.25-.34-.48l-.14.08-.09,0,0,.06.06,0a1.15,1.15,0,0,0,1,.64,1.72,1.72,0,0,0,.46.48,1.63,1.63,0,0,0,.85.33l0-.06,0,0,.07-.1c-.28-.46-.26-1-.64-1.58a1.48,1.48,0,0,1,1.17.81l.08-.11h0l0-.06,0-.05Z" transform="translate(-72.75 -67.85)"></path><path class="cls-2" d="M124.79,184.54a4,4,0,0,0-.43-.37l-.13-.06a1.54,1.54,0,0,0-.66-.14,2.13,2.13,0,0,0-1-.57l0,0,0,0,0,0a2.16,2.16,0,0,1,1,.55c.35.56.39,1.17.72,1.64a1.51,1.51,0,0,1-.79-.22c-.25-.18-.45-.38-.47-.55s-.1-.44-.16-.67a7.12,7.12,0,0,0-.27-.76l-.1.12a6.41,6.41,0,0,1,.43,1.34s0,0,0,.06a.76.76,0,0,1-.5-.11,1.67,1.67,0,0,1-.48-.53l-.07.1,0,0-.05.07.07,0a1.1,1.1,0,0,0,1,.55,1.64,1.64,0,0,0,.47.43,1.59,1.59,0,0,0,.85.26l0-.07,0,0,.07-.11c-.3-.43-.3-1-.7-1.53a1.39,1.39,0,0,1,1.19.71l.08-.12h0l0-.07,0-.05Z" transform="translate(-72.75 -67.85)"></path><path class="cls-2" d="M127.24,185.52a4.4,4.4,0,0,0-.47-.32l-.14,0a1.74,1.74,0,0,0-.68-.08,2.11,2.11,0,0,0-1-.5l0,.05,0,0v0a2.13,2.13,0,0,1,1,.47c.41.52.51,1.12.89,1.55a1.6,1.6,0,0,1-.81-.15c-.27-.15-.5-.33-.54-.49s-.14-.43-.23-.65a5.43,5.43,0,0,0-.32-.73l-.08.12a6.69,6.69,0,0,1,.54,1.3s0,0,0,0a.79.79,0,0,1-.51-.06,1.68,1.68,0,0,1-.54-.47l-.06.09,0,.05,0,.07h.07a1.14,1.14,0,0,0,1.11.45,1.53,1.53,0,0,0,.52.38,1.59,1.59,0,0,0,.87.18l0-.07,0,0,0-.11c-.34-.39-.4-1-.85-1.43a1.41,1.41,0,0,1,1.27.58l.18.16.09-.11.06-.12-.2-.19Z" transform="translate(-72.75 -67.85)"></path><path class="cls-2" d="M127.63,186.83c-.07-.23,0-.21,0-.43a4.55,4.55,0,0,0-.32-.75l-.05.12a4.18,4.18,0,0,1,.44,1.11c-.16-.17-.23.16-.22.19-.14,0,0,.08-.21,0s-.23-.21-.4-.42l-.12.11h-.1l0,.07h.08c.31.4.49.4.81.31-.71.12-.36.1-.29.16s.63-.67.65-.73S127.65,186.9,127.63,186.83Z" transform="translate(-72.75 -67.85)"></path><path class="cls-2" d="M136.8,189.77c-.23.07-.3,0-.57-.1-.1,0,.1-.24,0-.28s.13.73.11.78-.12-.17,0-.14c.29.08.17,0,.45-.11l0-.08v0l0-.13a3.12,3.12,0,0,1-.53-.73l-.09.09A3.11,3.11,0,0,0,136.8,189.77Z" transform="translate(-72.75 -67.85)"></path><path class="cls-2" d="M137.14,188.47a1.67,1.67,0,0,0-.35-.18.89.89,0,0,1-.08.17,2.62,2.62,0,0,1,.47.29l0-.13h0l0-.08,0-.06Z" transform="translate(-72.75 -67.85)"></path><path class="cls-2" d="M139.73,188.76a4.62,4.62,0,0,0-.53-.19h-.15a1.72,1.72,0,0,0-.67.11,2,2,0,0,0-1.11-.2l0,.06,0,.05v0a1.92,1.92,0,0,1,1.08.18c.51.39.74.94,1.2,1.26a1.5,1.5,0,0,1-.82.07c-.3-.07-.56-.18-.63-.33s-.23-.38-.36-.56a3.9,3.9,0,0,0-.47-.62l0,.13a6.28,6.28,0,0,1,.79,1.12s0,0,0,0a.8.8,0,0,1-.51.08,1.51,1.51,0,0,1-.62-.31l0,.1v.06l0,.08h.07A1.05,1.05,0,0,0,138,190a1.39,1.39,0,0,0,.58.24,1.57,1.57,0,0,0,.89-.07l0-.08v0l0-.12c-.42-.29-.6-.84-1.13-1.16a1.35,1.35,0,0,1,1.36.22l0-.14h0l0-.08,0-.06Z" transform="translate(-72.75 -67.85)"></path><path class="cls-2" d="M142.27,189a2.68,2.68,0,0,0-.52-.18h-.15a1.55,1.55,0,0,0-.67.11,1.91,1.91,0,0,0-1.11-.21l0,.06,0,.06h0a2,2,0,0,1,1.07.2c.51.39.74.94,1.2,1.26a1.63,1.63,0,0,1-.83.08,1,1,0,0,1-.62-.33c-.12-.2-.23-.38-.36-.57a4.58,4.58,0,0,0-.46-.64l0,.12a6.23,6.23,0,0,1,.77,1.15s0,0,0,0a.81.81,0,0,1-.51.07c-.2,0-.27-.14-.48-.3l-.1.14-.1,0,0,.07h.07a1.07,1.07,0,0,0,1.17.14,1.53,1.53,0,0,0,.58.23,1.58,1.58,0,0,0,.89-.07l0-.08v0l0-.13c-.42-.29-.6-.84-1.13-1.16a1.38,1.38,0,0,1,1.36.22l0-.13v0l0-.07,0-.06Z" transform="translate(-72.75 -67.85)"></path><path class="cls-2" d="M144.85,189.07a2.64,2.64,0,0,0-.54-.13h-.14a1.7,1.7,0,0,0-.66.17,2,2,0,0,0-1.14-.08v.14a2,2,0,0,1,1.09.07c.54.34.8.87,1.28,1.14a1.53,1.53,0,0,1-.81.16.91.91,0,0,1-.64-.27c-.14-.18-.26-.35-.41-.52a4.32,4.32,0,0,0-.51-.58l0,.13a5.66,5.66,0,0,1,.88,1s0,0,0,0a.81.81,0,0,1-.5.12,1.45,1.45,0,0,1-.62-.27l0,.13v.06l0,.07h.07a1.06,1.06,0,0,0,1.17,0,1.46,1.46,0,0,0,.6.18,1.56,1.56,0,0,0,.88-.16l0-.08v0l0-.13c-.44-.25-.66-.78-1.21-1a1.35,1.35,0,0,1,1.36.09l0-.14h0V189Z" transform="translate(-72.75 -67.85)"></path><path class="cls-2" d="M147.41,189.1a2.64,2.64,0,0,0-.54-.13h-.14a1.71,1.71,0,0,0-.66.18,1.89,1.89,0,0,0-1.12-.1l0,.06v.06h0a2,2,0,0,1,1.09.1c.54.34.8.87,1.28,1.14a1.53,1.53,0,0,1-.81.15.91.91,0,0,1-.64-.27c-.14-.18-.26-.35-.41-.52a3.79,3.79,0,0,0-.51-.6l0,.13a5.31,5.31,0,0,1,.86,1.07s0,0,0,0a.81.81,0,0,1-.5.12c-.2,0-.28-.11-.5-.25l-.09.15-.09,0,0,.08.07,0a1.06,1.06,0,0,0,1.17,0,1.46,1.46,0,0,0,.6.17,1.65,1.65,0,0,0,.88-.15l0-.08v0l0-.13c-.44-.24-.66-.78-1.21-1a1.32,1.32,0,0,1,1.37.09l0-.14v-.16Z" transform="translate(-72.75 -67.85)"></path><path class="cls-2" d="M150,188.78a3,3,0,0,0-.54-.07l-.15,0a1.88,1.88,0,0,0-.64.26,2,2,0,0,0-1.13.09v.08l0,.05a2.09,2.09,0,0,1,1.11-.08c.56.27.88.76,1.38,1a1.58,1.58,0,0,1-.79.26c-.3,0-.57-.06-.66-.19s-.3-.32-.46-.47a3.72,3.72,0,0,0-.58-.49l0,.13a5.68,5.68,0,0,1,1,.91s0,0,0,0a.81.81,0,0,1-.48.19,1.6,1.6,0,0,1-.68-.16l0,.1v.15l.08,0a1.05,1.05,0,0,0,1.17-.13,1.47,1.47,0,0,0,.62.1,1.64,1.64,0,0,0,.86-.26V190c-.46-.19-.73-.69-1.31-.89a1.37,1.37,0,0,1,1.37-.08v-.14h0v-.15Z" transform="translate(-72.75 -67.85)"></path><path class="cls-2" d="M152.54,188.49a2.78,2.78,0,0,0-.55-.06l-.14,0a1.68,1.68,0,0,0-.64.25,2,2,0,0,0-1.12,0v.15a2,2,0,0,1,1.09,0c.56.27.88.77,1.38,1a1.68,1.68,0,0,1-.79.25,1,1,0,0,1-.67-.18c-.15-.17-.29-.33-.45-.48a4.09,4.09,0,0,0-.56-.52V189a5.35,5.35,0,0,1,.95,1s0,0,0,0a.92.92,0,0,1-.49.18A1.11,1.11,0,0,1,150,190l-.07.16-.09,0,0,.08.07,0a1.09,1.09,0,0,0,1.17-.13,1.42,1.42,0,0,0,.61.1,1.65,1.65,0,0,0,.87-.27v-.24c-.46-.2-.73-.7-1.31-.89a1.32,1.32,0,0,1,1.37-.08v-.15h0v-.14Z" transform="translate(-72.75 -67.85)"></path><path class="cls-2" d="M154.4,189.6c-.3,0-.57,0-.67-.12l-.49-.43a4.46,4.46,0,0,0-.6-.45v.14a4.77,4.77,0,0,1,1,.83s0,0,0,0a.83.83,0,0,1-.47.23,1.31,1.31,0,0,1-.65-.12l0,.14V190l.07,0a1.07,1.07,0,0,0,1.15-.24,1.53,1.53,0,0,0,.62,0l.05,0c0-.05,0-.11,0-.16Z" transform="translate(-72.75 -67.85)"></path><path class="cls-2" d="M154.58,189a.86.86,0,0,0,0-.15,2.07,2.07,0,0,0-.75-.4,1.56,1.56,0,0,1,.35-.2l-.2,0a1.64,1.64,0,0,0-.22.14,2,2,0,0,0-1.13.17v.14a2.11,2.11,0,0,1,1.08-.17A3.64,3.64,0,0,1,154.58,189Z" transform="translate(-72.75 -67.85)"></path><path class="cls-2" d="M164.48,186.63a1.73,1.73,0,0,0,.78-.49V186l0-.12c-.48-.07-.86-.48-1.46-.51a1.39,1.39,0,0,1,1.32-.45l0-.14v-.16l-.11.08a2.93,2.93,0,0,0-.55.09l-.13.06a1.79,1.79,0,0,0-.57.42c-.32,0-.32-.17-.59,0,0,0,0,.35.07.38.22-.1.23-.19.5-.2.6.11,1,.5,1.55.57a1.79,1.79,0,0,1-.72.46,1.46,1.46,0,0,1-.48.06c.05.05.09.12.14.17A1.47,1.47,0,0,0,164.48,186.63Z" transform="translate(-72.75 -67.85)"></path><path class="cls-2" d="M167.26,183.5a2.66,2.66,0,0,0-.54.14l-.13.07a2,2,0,0,0-.53.48,2.17,2.17,0,0,0-1.06.47l0,.05v.09a2.2,2.2,0,0,1,1-.46c.61,0,1,.4,1.59.42a1.81,1.81,0,0,1-.68.53c-.29.1-.56.15-.68.06l-.57-.28a3.7,3.7,0,0,0-.68-.27l0,.14a4.31,4.31,0,0,1,1.18.52s0,0,.05,0a.91.91,0,0,1-.41.35,1.42,1.42,0,0,1-.66.06v.27l.06,0a1.16,1.16,0,0,0,1.07-.55,1.32,1.32,0,0,0,.61-.13,1.8,1.8,0,0,0,.74-.57l0-.08v0l0-.13c-.49,0-.89-.38-1.49-.36a1.43,1.43,0,0,1,1.27-.58l0-.14h0l0-.08v-.06Z" transform="translate(-72.75 -67.85)"></path><path class="cls-2" d="M169.59,182.3a2.66,2.66,0,0,0-.54.14l-.13.07a1.73,1.73,0,0,0-.53.48,1.92,1.92,0,0,0-1,.45v.14a2,2,0,0,1,1-.44c.61.05,1.05.4,1.58.41a1.62,1.62,0,0,1-.67.53c-.29.11-.56.16-.68.07s-.37-.2-.57-.28a3.57,3.57,0,0,0-.68-.29l0,.12a5.11,5.11,0,0,1,1.17.55s0,0,.05,0a1,1,0,0,1-.41.35c-.19.08-.3,0-.55,0l0,.18-.08.07V185l.06-.05a1.12,1.12,0,0,0,1.07-.55,1.32,1.32,0,0,0,.61-.13,1.85,1.85,0,0,0,.74-.56l0-.08v0l0-.12c-.49,0-.89-.39-1.49-.36a1.41,1.41,0,0,1,1.27-.58l0-.14h0l0-.08,0-.06Z" transform="translate(-72.75 -67.85)"></path><path class="cls-2" d="M171.82,180.87a2.32,2.32,0,0,0-.51.18l-.13.08a1.84,1.84,0,0,0-.49.51,2.07,2.07,0,0,0-1,.58v.06l0,0,0,.05a2.13,2.13,0,0,1,1-.57c.61,0,1.06.35,1.59.34a1.66,1.66,0,0,1-.63.57c-.27.12-.54.19-.67.11a4.17,4.17,0,0,0-.57-.26,3.64,3.64,0,0,0-.7-.21l0,.16a4.75,4.75,0,0,1,1.21.41s0,0,.05,0a1,1,0,0,1-.38.37,1.39,1.39,0,0,1-.66.13l0,.11v.06l0,.09,0-.06a1.1,1.1,0,0,0,1-.61,1.3,1.3,0,0,0,.59-.17,1.69,1.69,0,0,0,.69-.61l0-.08v0l0-.13c-.48,0-.9-.34-1.49-.29a1.34,1.34,0,0,1,1.21-.65l0-.14h0l0-.08,0-.06Z" transform="translate(-72.75 -67.85)"></path><path class="cls-2" d="M174,179.24a3.16,3.16,0,0,0-.51.24l-.12.1a2.06,2.06,0,0,0-.45.56,2.23,2.23,0,0,0-1,.64l0,.06,0,.06v0a2.17,2.17,0,0,1,.94-.64c.61-.06,1.09.21,1.62.13a1.89,1.89,0,0,1-.59.64c-.27.16-.53.26-.67.19s-.39-.13-.59-.18a4.25,4.25,0,0,0-.71-.14l0,.14a4.73,4.73,0,0,1,1.23.29s0,0,0,0a1,1,0,0,1-.35.42,1.47,1.47,0,0,1-.65.21l0,.1,0,.06,0,.08,0-.06a1.19,1.19,0,0,0,1-.73,1.46,1.46,0,0,0,.58-.24,1.87,1.87,0,0,0,.65-.69l0-.08v0l-.05-.12c-.48.08-.93-.22-1.52-.09a1.51,1.51,0,0,1,1.17-.8l-.05-.13h0l0-.07,0-.06Z" transform="translate(-72.75 -67.85)"></path><path class="cls-2" d="M176.11,177.64a3.88,3.88,0,0,0-.51.23l-.11.1a1.92,1.92,0,0,0-.46.56,2.15,2.15,0,0,0-1,.64l0,.06,0,.06h0a2.19,2.19,0,0,1,.95-.61c.61-.07,1.09.2,1.62.12a1.91,1.91,0,0,1-.59.65c-.27.15-.53.25-.67.19s-.39-.13-.59-.18a3.31,3.31,0,0,0-.72-.17l0,.12a4.29,4.29,0,0,1,1.23.34s0,0,0,0a1,1,0,0,1-.35.42,1,1,0,0,1-.54.11v.18l-.07.08,0,.08,0-.06a1.19,1.19,0,0,0,1-.73,1.33,1.33,0,0,0,.58-.24,1.87,1.87,0,0,0,.65-.69l0-.07v0l-.05-.11c-.48.07-.93-.23-1.52-.1a1.48,1.48,0,0,1,1.17-.79l-.05-.13v0l0-.07,0-.06Z" transform="translate(-72.75 -67.85)"></path><path class="cls-2" d="M178.12,175.81a2.84,2.84,0,0,0-.49.29l-.11.1a2.33,2.33,0,0,0-.41.61,2.25,2.25,0,0,0-.92.75l0,0,0,.05v0a2.5,2.5,0,0,1,.89-.73c.6-.12,1.11.1,1.63,0a2.1,2.1,0,0,1-.54.7c-.26.18-.51.3-.65.25s-.4-.09-.61-.12a3.74,3.74,0,0,0-.72-.07l0,.12a5,5,0,0,1,1.26.18s0,0,0,0a1.07,1.07,0,0,1-.32.46,1.54,1.54,0,0,1-.63.24l0,.13,0,.06,0,.06.05,0a1.24,1.24,0,0,0,.92-.83,1.37,1.37,0,0,0,.56-.29,3,3,0,0,0,.86-.88l-.12-.11h0l0-.22c-.48.12-1.16.11-1.73.3a1.5,1.5,0,0,1,1.11-.91l-.06-.13h0l0-.07,0-.05Z" transform="translate(-72.75 -67.85)"></path><path class="cls-2" d="M185.7,167.84l-.07-.11h0l0-.07,0-.05-.07.13a3.54,3.54,0,0,0-.44.37l-.1.12a2.75,2.75,0,0,0-.17.29.47.47,0,0,1,.1.1A1.64,1.64,0,0,1,185.7,167.84Z" transform="translate(-72.75 -67.85)"></path><path class="cls-2" d="M186.25,168.72a2.12,2.12,0,0,1-.43.79c-.09.09-.26-.11-.35,0s.42.16.46.19-.12.08-.05,0a2,2,0,0,0,.49-.85l-.05-.06,0,0-.07-.1a8.31,8.31,0,0,1-1.22.22.93.93,0,0,1,.05.1A4.56,4.56,0,0,0,186.25,168.72Z" transform="translate(-72.75 -67.85)"></path><path class="cls-2" d="M187,165.41a3.3,3.3,0,0,0-.42.41l-.08.13a2.2,2.2,0,0,0-.28.71,2.42,2.42,0,0,0-.73,1l0,0,0,0,0,0a2.55,2.55,0,0,1,.71-.94c.56-.29,1.09-.21,1.57-.48a2.07,2.07,0,0,1-.38.83c-.21.24-.43.43-.57.42s-.41,0-.62.05a3.51,3.51,0,0,0-.71.12l.07.11a4.72,4.72,0,0,1,1.26-.17s0,0,.05,0a1.09,1.09,0,0,1-.21.53,1.67,1.67,0,0,1-.56.4l.06.12,0,.05,0,.06,0-.07a1.29,1.29,0,0,0,.71-1.05,1.5,1.5,0,0,0,.49-.44,2.22,2.22,0,0,0,.42-.89l0-.06,0,0-.08-.09c-.44.25-1,.13-1.47.47a1.68,1.68,0,0,1,.88-1.19l-.08-.1h0l-.05-.06,0,0Z" transform="translate(-72.75 -67.85)"></path><path class="cls-2" d="M188.59,163.11a3.06,3.06,0,0,0-.41.41l-.09.13a3.41,3.41,0,0,1-1,1.66l0,.06,0,0v0a2.38,2.38,0,0,1,.72-.93c.56-.29,1.1-.21,1.58-.48a2.22,2.22,0,0,1-.38.83c-.21.24-.43.43-.58.42s-.4,0-.61,0a2.94,2.94,0,0,0-.73.11l.08.09a4.64,4.64,0,0,1,1.27-.14s0,0,.05,0a1.2,1.2,0,0,1-.21.53,1.16,1.16,0,0,1-.48.3l0,.17,0,.1,0,.07,0-.08a1.32,1.32,0,0,0,.72-1.05,1.62,1.62,0,0,0,.49-.44,2.08,2.08,0,0,0,.41-.89l-.05-.06,0,0-.08-.09c-.43.25-.94.13-1.46.47a1.68,1.68,0,0,1,.88-1.19l-.09-.1h0l-.05-.06,0,0Z" transform="translate(-72.75 -67.85)"></path><path class="cls-2" d="M190,160.87a3.46,3.46,0,0,0-.39.39l-.08.13a2.36,2.36,0,0,0-.24.69,2.31,2.31,0,0,0-.69,1l0,0v.08l0,0a2.27,2.27,0,0,1,.68-.9c.55-.26,1.1-.17,1.56-.43a1.87,1.87,0,0,1-.33.82c-.2.24-.41.42-.56.4s-.41,0-.61,0a3.21,3.21,0,0,0-.73.06l.07.13a4.54,4.54,0,0,1,1.28-.1s0,0,0,0a1,1,0,0,1-.18.52c-.13.17-.32.18-.54.29l.09.08v.19l0,0,0,0a1.11,1.11,0,0,0,.69-.94,1.48,1.48,0,0,0,.46-.42,1.93,1.93,0,0,0,.38-.88l-.06-.06,0,0-.08-.1c-.43.24-1,.11-1.46.43a1.49,1.49,0,0,1,.83-1.15l-.09-.11h0l0-.06,0,0Z" transform="translate(-72.75 -67.85)"></path><path class="cls-2" d="M191.31,158.39a2.86,2.86,0,0,0-.36.45l-.07.14a2,2,0,0,0-.18.72,2.32,2.32,0,0,0-.62,1l0,0,0,.05,0,0a2.48,2.48,0,0,1,.58-1c.53-.34,1.07-.32,1.51-.64a2,2,0,0,1-.27.86c-.18.27-.38.48-.52.48s-.4.06-.61.11a3.7,3.7,0,0,0-.69.2l.09.11a4.75,4.75,0,0,1,1.22-.31s0,0,.06,0a1.23,1.23,0,0,1-.15.54,1.67,1.67,0,0,1-.5.49l.06.08,0,.05.06.06,0-.08a1.29,1.29,0,0,0,.58-1.12,1.46,1.46,0,0,0,.43-.48,2.18,2.18,0,0,0,.31-.93l-.06-.06,0,0-.09-.09c-.41.3-.93.24-1.41.63a1.63,1.63,0,0,1,.74-1.27l-.1-.1h0l0-.05-.05,0Z" transform="translate(-72.75 -67.85)"></path><path class="cls-2" d="M192.58,155.94a3.41,3.41,0,0,0-.36.45l-.07.14a2.06,2.06,0,0,0-.18.73,2.37,2.37,0,0,0-.63,1l0,.06,0,0h0a2.6,2.6,0,0,1,.6-1c.53-.33,1.07-.32,1.51-.64a2,2,0,0,1-.27.87c-.18.26-.38.47-.52.48a6,6,0,0,0-.61.11,3.89,3.89,0,0,0-.71.18l.09.09a4.64,4.64,0,0,1,1.24-.27s0,0,.05,0a1.12,1.12,0,0,1-.14.55c-.12.18-.23.21-.44.34l.07.17,0,.1.06.06,0-.07a1.3,1.3,0,0,0,.58-1.12,1.51,1.51,0,0,0,.43-.49,2.18,2.18,0,0,0,.31-.93l-.06-.05,0,0-.09-.09c-.41.29-.93.23-1.41.62a1.63,1.63,0,0,1,.74-1.27l-.1-.09h0l-.05-.05,0,0Z" transform="translate(-72.75 -67.85)"></path><path class="cls-2" d="M193.65,153.35a4.68,4.68,0,0,0-.32.49l-.06.15a2.3,2.3,0,0,0-.13.74,2.66,2.66,0,0,0-.53,1.11l0,0,0,0,0,0a2.57,2.57,0,0,1,.5-1.07c.5-.39,1-.42,1.45-.79a2.07,2.07,0,0,1-.21.89c-.15.28-.33.51-.48.53s-.39.1-.59.17a3.24,3.24,0,0,0-.67.27l.09.09a4.68,4.68,0,0,1,1.2-.42s0,0,.05,0a1.13,1.13,0,0,1-.11.56,1.72,1.72,0,0,1-.47.51l.09.1,0,.05,0,0,0-.07a1.35,1.35,0,0,0,.5-1.17,2,2,0,0,0,.39-.53,2.3,2.3,0,0,0,.23-1l-.06-.05,0,0-.09-.08c-.38.33-.91.32-1.35.76a1.71,1.71,0,0,1,.63-1.34l-.1-.09h0l-.06-.05,0,0Z" transform="translate(-72.75 -67.85)"></path><path class="cls-2" d="M180.64,139l0,0a4.92,4.92,0,0,1-.58.83,2.49,2.49,0,0,1-.46.4,1.85,1.85,0,0,1-.92.34,1.57,1.57,0,0,1-.57,0,1.3,1.3,0,0,1-.73-.55,1.74,1.74,0,0,1-.24-.62,3.09,3.09,0,0,1-.08-.61,4.46,4.46,0,0,1,0-.73,9.05,9.05,0,0,1,.12-.91,18.08,18.08,0,0,1,.48-2,.9.9,0,0,1,.39-.52.59.59,0,0,1,.56-.08.54.54,0,0,1,.37.46,1.39,1.39,0,0,1-.06.57c-.1.31-.21.62-.33.92a3.74,3.74,0,0,0-.12.45,5.24,5.24,0,0,0-.15.79,3.48,3.48,0,0,0,0,.72,2.39,2.39,0,0,0,.11.65,1.05,1.05,0,0,0,.2.34.5.5,0,0,0,.34.18.52.52,0,0,0,.3-.06,1.14,1.14,0,0,0,.36-.26,3,3,0,0,0,.38-.55,7.28,7.28,0,0,0,.44-1,8.5,8.5,0,0,0,.35-1.34c.05-.27.09-.55.13-.82a8.43,8.43,0,0,1,.2-1l.06-.19a1.09,1.09,0,0,1,.29-.41A.66.66,0,0,1,182,134a.52.52,0,0,1,.4.46,1.31,1.31,0,0,1-.05.59c-.1.32-.22.63-.34.94,0,.12-.07.25-.1.38a6.56,6.56,0,0,0-.14.87,4.43,4.43,0,0,0,0,.73,2.65,2.65,0,0,0,.14.68,1,1,0,0,0,.16.29.43.43,0,0,0,.39.15.87.87,0,0,0,.26-.08,1.5,1.5,0,0,0,.34-.27,3.75,3.75,0,0,0,.55-.71,7.11,7.11,0,0,0,.69-1.54s0-.08,0-.11a.37.37,0,0,1,.28-.26.43.43,0,0,1,.25,0,.25.25,0,0,1,.15.24.27.27,0,0,1,0,.13,7.93,7.93,0,0,1-.85,1.93,4.63,4.63,0,0,1-.67.86,2.54,2.54,0,0,1-.81.57,1.78,1.78,0,0,1-.91.16,1.25,1.25,0,0,1-1-.71A2,2,0,0,1,180.64,139Z" transform="translate(-72.75 -67.85)"></path><path class="cls-5" d="M138.64,188.55a1.14,1.14,0,0,0-2,.52,1.64,1.64,0,0,0,.18,1.23.81.81,0,0,0,.45.41c.17,0,.51,0,.56-.26.06.32-.25.53-.55.57a1,1,0,0,1-.8-.37,2.06,2.06,0,0,1-.43-1.84,1.42,1.42,0,0,1,1.22-1.12A1.4,1.4,0,0,1,138.64,188.55Z" transform="translate(-72.75 -67.85)"></path><path class="cls-5" d="M152.58,190.46a1.14,1.14,0,0,0,1.62-1.25,1.74,1.74,0,0,0-.65-1.07A.85.85,0,0,0,153,188c-.18,0-.49.16-.42.45-.18-.26,0-.58.28-.73a1,1,0,0,1,.88,0,2,2,0,0,1,1.12,1.52,1.33,1.33,0,0,1-2.26,1.24Z" transform="translate(-72.75 -67.85)"></path><path class="cls-5" d="M165,184.35a1.23,1.23,0,0,0-1.2.46,1.21,1.21,0,0,0-.11,1.11,1.71,1.71,0,0,0,.86.9.8.8,0,0,0,.6.07c.17-.06.45-.25.31-.53a.54.54,0,0,1-.12.78,1,1,0,0,1-.87.16,2.06,2.06,0,0,1-1.41-1.26,1.33,1.33,0,0,1,1.94-1.69Z" transform="translate(-72.75 -67.85)"></path><path class="cls-5" d="M178,178.33a1.14,1.14,0,0,0,.6-2,1.72,1.72,0,0,0-1.15-.5.87.87,0,0,0-.58.17c-.13.12-.31.41-.08.62a.55.55,0,0,1-.19-.77,1,1,0,0,1,.74-.49,2.06,2.06,0,0,1,1.79.61,1.33,1.33,0,0,1-1.13,2.31Z" transform="translate(-72.75 -67.85)"></path><path class="cls-5" d="M185.39,166.93a1.23,1.23,0,0,0-.66,1.1,1.26,1.26,0,0,0,.61.94,1.69,1.69,0,0,0,1.24.17.82.82,0,0,0,.51-.32c.09-.15.19-.48-.09-.61.32,0,.44.38.39.68a1,1,0,0,1-.58.67,2.05,2.05,0,0,1-1.88-.1,1.33,1.33,0,0,1,.46-2.53Z" transform="translate(-72.75 -67.85)"></path><path class="cls-5" d="M194.52,155.78a1.24,1.24,0,0,0,.32-1.25,1.27,1.27,0,0,0-.86-.73,1.75,1.75,0,0,0-1.23.19.89.89,0,0,0-.4.46c0,.17,0,.51.26.56-.31.06-.53-.24-.57-.55a1,1,0,0,1,.37-.8,2,2,0,0,1,1.83-.44,1.33,1.33,0,0,1,.28,2.56Z" transform="translate(-72.75 -67.85)"></path><path class="cls-3" d="M152,76.63l0,.46-4.64-.29,0-.47Z" transform="translate(-72.75 -67.85)"></path><path class="cls-3" d="M161.26,78.23l-.09.46-4.56-1,.1-.45Z" transform="translate(-72.75 -67.85)"></path><path class="cls-3" d="M170.2,81.18l-.16.44L165.68,80l.16-.44Z" transform="translate(-72.75 -67.85)"></path><path class="cls-3" d="M178.6,85.41l-.22.41-4.08-2.25.22-.4Z" transform="translate(-72.75 -67.85)"></path><path class="cls-3" d="M186.31,90.82l-.29.38-3.7-2.82.28-.37Z" transform="translate(-72.75 -67.85)"></path><path class="cls-3" d="M193.13,97.29l-.34.33-3.26-3.33.34-.32Z" transform="translate(-72.75 -67.85)"></path><path class="cls-3" d="M198.94,104.68l-.37.27-2.75-3.76.38-.28Z" transform="translate(-72.75 -67.85)"></path><path class="cls-3" d="M203.62,112.83l-.41.22L201,108.92l.41-.21Z" transform="translate(-72.75 -67.85)"></path><path class="cls-3" d="M207.06,121.57l-.44.15-1.54-4.39.44-.15Z" transform="translate(-72.75 -67.85)"></path><path class="cls-3" d="M209.17,130.72l-.46.09-.88-4.57.46-.09Z" transform="translate(-72.75 -67.85)"></path><path class="cls-3" d="M209.93,140.11l-.47,0-.2-4.65.46,0Z" transform="translate(-72.75 -67.85)"></path><path class="cls-3" d="M209.33,149.48l-.46,0,.46-4.63.47,0Z" transform="translate(-72.75 -67.85)"></path><path class="cls-3" d="M207.37,158.68l-.45-.11,1.14-4.52.45.12Z" transform="translate(-72.75 -67.85)"></path><path class="cls-3" d="M204.08,167.49l-.43-.18,1.79-4.3.43.18Z" transform="translate(-72.75 -67.85)"></path><path class="cls-3" d="M199.54,175.72l-.4-.24,2.4-4,.4.24Z" transform="translate(-72.75 -67.85)"></path><path class="cls-3" d="M193.85,183.2l-.36-.29,2.95-3.6.36.29Z" transform="translate(-72.75 -67.85)"></path><path class="cls-3" d="M187.14,189.78l-.31-.35,3.44-3.13.31.34Z" transform="translate(-72.75 -67.85)"></path><path class="cls-3" d="M179.53,195.31l-.26-.38,3.87-2.6.26.38Z" transform="translate(-72.75 -67.85)"></path><path class="cls-3" d="M171.22,199.68l-.2-.42,4.19-2,.21.42Z" transform="translate(-72.75 -67.85)"></path><path class="cls-3" d="M162.34,202.78l-.13-.44,4.45-1.37.13.44Z" transform="translate(-72.75 -67.85)"></path><path class="cls-3" d="M153.1,204.55l-.07-.46,4.6-.7.07.46Z" transform="translate(-72.75 -67.85)"></path><path class="cls-3" d="M143.76,205v-.46l4.66-.08v.47Z" transform="translate(-72.75 -67.85)"></path><path class="cls-3" d="M134.38,204l.06-.46,4.61.64-.06.46Z" transform="translate(-72.75 -67.85)"></path><path class="cls-3" d="M125.26,201.71l.13-.45,4.47,1.31-.13.45Z" transform="translate(-72.75 -67.85)"></path><path class="cls-3" d="M116.57,198.08l.2-.42,4.22,2-.19.43Z" transform="translate(-72.75 -67.85)"></path><path class="cls-3" d="M108.52,193.24l.25-.39,3.9,2.54-.26.39Z" transform="translate(-72.75 -67.85)"></path><path class="cls-3" d="M101.26,187.28l.31-.35,3.49,3.08-.31.35Z" transform="translate(-72.75 -67.85)"></path><path class="cls-3" d="M94.94,180.33l.36-.3,3,3.55-.36.3Z" transform="translate(-72.75 -67.85)"></path><path class="cls-3" d="M89.68,172.51l.4-.25,2.45,4-.39.25Z" transform="translate(-72.75 -67.85)"></path><path class="cls-3" d="M85.64,164l.42-.19,1.85,4.27-.42.19Z" transform="translate(-72.75 -67.85)"></path><path class="cls-3" d="M82.87,155l.45-.12,1.2,4.5-.45.12Z" transform="translate(-72.75 -67.85)"></path><path class="cls-3" d="M81.45,145.76l.47,0,.53,4.62-.46.06Z" transform="translate(-72.75 -67.85)"></path><path class="cls-3" d="M81.39,136.35l.47,0L81.72,141h-.47Z" transform="translate(-72.75 -67.85)"></path><path class="cls-3" d="M82.7,127l.46.08-.82,4.59-.46-.09Z" transform="translate(-72.75 -67.85)"></path><path class="cls-3" d="M85.34,118l.44.15-1.47,4.41-.45-.14Z" transform="translate(-72.75 -67.85)"></path><path class="cls-3" d="M89.29,109.49l.41.21-2.11,4.15-.41-.21Z" transform="translate(-72.75 -67.85)"></path><path class="cls-3" d="M94.44,101.62l.38.27-2.7,3.8-.38-.27Z" transform="translate(-72.75 -67.85)"></path><path class="cls-3" d="M100.67,94.58l.34.33L97.8,98.27,97.46,98Z" transform="translate(-72.75 -67.85)"></path><path class="cls-3" d="M107.86,88.53l.29.37-3.67,2.86-.29-.36Z" transform="translate(-72.75 -67.85)"></path><path class="cls-3" d="M115.86,83.58l.23.4-4,2.3-.23-.4Z" transform="translate(-72.75 -67.85)"></path><path class="cls-3" d="M124.48,79.85l.17.44L120.31,82l-.17-.43Z" transform="translate(-72.75 -67.85)"></path><path class="cls-3" d="M133.56,77.43l.11.45-4.54,1-.11-.46Z" transform="translate(-72.75 -67.85)"></path><path class="cls-3" d="M142.92,76.36l0,.47-4.65.35,0-.46Z" transform="translate(-72.75 -67.85)"></path><rect class="cls-3" x="156.55" y="112.03" width="3.37" height="1.4" transform="translate(35.93 -142.98) rotate(39.75)"></rect><ellipse class="cls-2" cx="51.06" cy="40.9" rx="0.13" ry="0.15"></ellipse><path class="cls-2" d="M126.56,107.5a2.81,2.81,0,0,1-.38.34l-.11.06a1.08,1.08,0,0,1-.55.1,4.28,4.28,0,0,1-1.67.85v-.07l.77-.34,0,0a1.26,1.26,0,0,0,.8-.48c.34-.54.43-1.15.74-1.6a1,1,0,0,0-.65.19,1.06,1.06,0,0,0-.44.51c-.13.47-1,1.2-1.24,1.77l0-.16c.24-.56,1.07-1.16,1.18-1.64,0,0,0,0,0-.06-.21,0-1.16,1.31-1.2,1.7h0l-.12.09.49-1.35c.26-.42.61-.63.86-.57a1.57,1.57,0,0,1,.43-.42,1.13,1.13,0,0,1,.71-.21l0,.07v0l0,.11c-.28.42-.35,1-.71,1.49.35,0,.62-.1,1-.65l.05.12h0l0,.07,0,.06Z" transform="translate(-72.75 -67.85)"></path><path class="cls-2" d="M128.65,106.65c-.18.16-.34.24-.41.3l-.12,0a1.08,1.08,0,0,1-.56,0,1,1,0,0,1-.44.29,2,2,0,0,1-.45.15l0-.06,0,0v0a2.23,2.23,0,0,0,.44-.13,1.34,1.34,0,0,0,.43-.27c.39-.49.53-1.09.88-1.5a1.22,1.22,0,0,0-.68.11,1.12,1.12,0,0,0-.48.46,9.61,9.61,0,0,1-.59,1.33l-.05-.12a7,7,0,0,0,.57-1.25s0,0,0,0c-.21-.09-.61,0-.91.46l0-.09,0,0,0-.07h.06a.86.86,0,0,1,.94-.38,1.51,1.51,0,0,1,.46-.35,1.14,1.14,0,0,1,.73-.14l0,.08v0l0,.11c-.32.38-.43,1-.84,1.39.35.06.63,0,1.09-.52l0,.13h0l0,.07,0,0Z" transform="translate(-72.75 -67.85)"></path><path class="cls-2" d="M130.81,106.05a2.28,2.28,0,0,1-.44.24l-.12,0a1.06,1.06,0,0,1-.56,0,1.11,1.11,0,0,1-.47.24,1.5,1.5,0,0,1-.46.09l0,0v-.08a2.24,2.24,0,0,0,.45-.09,1.05,1.05,0,0,0,.45-.22c.43-.44.62-1,1-1.38a1.15,1.15,0,0,0-.68,0,.94.94,0,0,0-.52.4,9.81,9.81,0,0,1-.7,1.25l0-.13a7.34,7.34,0,0,0,.67-1.18s0,0,0,0c-.2-.11-.6,0-.94.36l0-.09,0,0,0-.08h.06a.86.86,0,0,1,1-.28,1.32,1.32,0,0,1,.49-.3,1.18,1.18,0,0,1,.74,0l0,.07v0l0,.12c-.35.34-.51.9-1,1.28.34.09.63,0,1.13-.4l0,.13v0l0,.07V106Z" transform="translate(-72.75 -67.85)"></path><path class="cls-2" d="M133,105.7a3.51,3.51,0,0,1-.46.19h-.12a1.05,1.05,0,0,1-.56-.08,1.65,1.65,0,0,1-1,.22v-.14a1.66,1.66,0,0,0,.93-.2c.46-.39.7-.93,1.12-1.25a1.22,1.22,0,0,0-.69,0,.91.91,0,0,0-.56.33,8.13,8.13,0,0,1-.8,1.16l0-.13a5.55,5.55,0,0,0,.44-.56c.11-.16.21-.32.33-.52,0,0,0,0,0,0a.87.87,0,0,0-1,.25l0-.1v-.05l0-.07h.06a.86.86,0,0,1,1-.16,1.47,1.47,0,0,1,.52-.24,1.1,1.1,0,0,1,.74,0v.23c-.37.29-.58.82-1,1.15.33.13.63.12,1.17-.26v.13h0v.13Z" transform="translate(-72.75 -67.85)"></path><path class="cls-2" d="M135.27,105.59a2.59,2.59,0,0,1-.48.14h-.13a1.18,1.18,0,0,1-.55-.14,1.61,1.61,0,0,1-1,.11v-.14a1.65,1.65,0,0,0,.95-.09c.5-.34.78-.85,1.22-1.11a1.18,1.18,0,0,0-.69-.13.93.93,0,0,0-.58.27,5,5,0,0,1-.4.51,4.08,4.08,0,0,1-.5.55v-.13a7.16,7.16,0,0,0,.85-1s0,0,0,0a.64.64,0,0,0-.42-.1,1.5,1.5,0,0,0-.58.25v-.23H133a.89.89,0,0,1,1,0,1.38,1.38,0,0,1,.53-.18,1.33,1.33,0,0,1,.75.12v.23c-.4.25-.65.76-1.15,1,.33.18.63.19,1.19-.12v.13h0v.14Z" transform="translate(-72.75 -67.85)"></path><path class="cls-2" d="M137.52,105.74a3.09,3.09,0,0,1-.49.09l-.12,0a1.26,1.26,0,0,1-.54-.2,1.67,1.67,0,0,1-1,0v-.15a1.65,1.65,0,0,0,1,0c.52-.27.85-.74,1.31-1a1.24,1.24,0,0,0-.68-.2.88.88,0,0,0-.6.2l-.44.46a5.57,5.57,0,0,1-.55.49v-.13a5.8,5.8,0,0,0,.94-.89s0,0,0,0a.7.7,0,0,0-.42-.14,1.34,1.34,0,0,0-.6.17v-.23l.06,0a.88.88,0,0,1,1,.06,1.31,1.31,0,0,1,.55-.12,1.23,1.23,0,0,1,.74.2v.23c-.42.2-.71.67-1.23.88a1.1,1.1,0,0,0,1.2,0v.28Z" transform="translate(-72.75 -67.85)"></path><path class="cls-2" d="M139.75,105.89a2.06,2.06,0,0,1-.49.08h-.13a1.24,1.24,0,0,1-.54-.21,1.57,1.57,0,0,1-1,0v-.12h0a1.74,1.74,0,0,0,1,0c.52-.27.84-.75,1.3-1a1.13,1.13,0,0,0-.67-.2.91.91,0,0,0-.61.2c-.15.16-.28.31-.44.46a4.5,4.5,0,0,1-.54.51v-.12a5.69,5.69,0,0,0,.92-.92s0,0,0,0a.64.64,0,0,0-.41-.15,1.12,1.12,0,0,0-.48.2l0-.14-.08,0v-.08l.06,0a.88.88,0,0,1,1,.07,1.18,1.18,0,0,1,.55-.12,1.27,1.27,0,0,1,.74.2v.23c-.42.2-.71.67-1.24.88a1.12,1.12,0,0,0,1.21,0v.13h0v.13Z" transform="translate(-72.75 -67.85)"></path><path class="cls-2" d="M141.94,106.28a2.42,2.42,0,0,1-.49,0l-.12,0a1.36,1.36,0,0,1-.52-.27,1.61,1.61,0,0,1-1-.1v-.14a1.6,1.6,0,0,0,.95.11c.53-.22.88-.66,1.35-.83a1.1,1.1,0,0,0-.65-.27.82.82,0,0,0-.61.14c-.16.14-.3.28-.46.41a4,4,0,0,1-.58.44v-.12a6,6,0,0,0,1-.81s0,0,0,0a.68.68,0,0,0-.39-.19,1.47,1.47,0,0,0-.6.15v-.25h.05a.88.88,0,0,1,1,.17,1.39,1.39,0,0,1,.55-.06,1.25,1.25,0,0,1,.71.28v.23c-.43.16-.75.61-1.28.76a1.08,1.08,0,0,0,1.18.14v.13h0v.13Z" transform="translate(-72.75 -67.85)"></path><path class="cls-2" d="M144.12,106.66a2.42,2.42,0,0,1-.49,0l-.12,0a1.22,1.22,0,0,1-.52-.26,1.51,1.51,0,0,1-1-.09v-.12h0a1.58,1.58,0,0,0,.94.09c.54-.22.89-.67,1.36-.84a1.24,1.24,0,0,0-.65-.27.85.85,0,0,0-.61.14,6.14,6.14,0,0,1-.47.42,4.06,4.06,0,0,1-.57.46v-.12a6.07,6.07,0,0,0,1-.83s0,0,0,0a.68.68,0,0,0-.4-.19,1,1,0,0,0-.48.15l0-.15-.08,0v-.07l.05,0a.86.86,0,0,1,1,.17,1.2,1.2,0,0,1,.55-.06,1.27,1.27,0,0,1,.71.28v.23c-.43.15-.75.6-1.28.76a1.1,1.1,0,0,0,1.18.14v.13h0v.13Z" transform="translate(-72.75 -67.85)"></path><path class="cls-2" d="M146.24,107.22a2.7,2.7,0,0,1-.48,0l-.12,0a1.22,1.22,0,0,1-.48-.3,1.55,1.55,0,0,1-.94-.19v-.13a1.5,1.5,0,0,0,.91.18c.53-.2.9-.63,1.36-.77a1.1,1.1,0,0,0-.61-.32.77.77,0,0,0-.6.1,6,6,0,0,1-.48.4,3.46,3.46,0,0,1-.58.41v-.14a6.28,6.28,0,0,0,1-.75s0,0,0,0a.61.61,0,0,0-.37-.23,1.29,1.29,0,0,0-.58.11v-.23h.06a.79.79,0,0,1,.95.24,1.07,1.07,0,0,1,.54,0,1.14,1.14,0,0,1,.67.34v.23c-.43.13-.76.57-1.29.7a1,1,0,0,0,1.14.22l0,.13h0v.14Z" transform="translate(-72.75 -67.85)"></path><path class="cls-2" d="M148.31,108a1.91,1.91,0,0,1-.47-.06l-.12,0a1.23,1.23,0,0,1-.46-.36,1.56,1.56,0,0,1-.93-.27v-.15a1.54,1.54,0,0,0,.89.28c.55-.12.94-.5,1.42-.59a1.23,1.23,0,0,0-.59-.39.76.76,0,0,0-.61,0c-.17.12-.33.23-.5.33a4.28,4.28,0,0,1-.61.34l0-.13a5.11,5.11,0,0,0,1.05-.63s0,0,0,0a.69.69,0,0,0-.36-.27,1.31,1.31,0,0,0-.59,0v-.23l.05,0a.85.85,0,0,1,.94.36,1.13,1.13,0,0,1,.54,0,1.28,1.28,0,0,1,.65.41l0,.08v0l0,.12c-.43.08-.8.48-1.33.54a1.07,1.07,0,0,0,1.12.35l0,.13h0l0,.08v0Z" transform="translate(-72.75 -67.85)"></path><path class="cls-2" d="M150.36,108.81a2.88,2.88,0,0,1-.48-.06l-.11,0a1.34,1.34,0,0,1-.46-.36,1.56,1.56,0,0,1-.93-.27V108h0a1.56,1.56,0,0,0,.9.26c.54-.13.94-.51,1.42-.59a1.24,1.24,0,0,0-.59-.4.8.8,0,0,0-.61,0l-.5.34a4.42,4.42,0,0,1-.62.36l0-.12a5.14,5.14,0,0,0,1-.67s0,0,0,0a.61.61,0,0,0-.35-.26c-.17,0-.27,0-.49.06v-.16l-.07-.05v-.08l0,0a.84.84,0,0,1,.94.36,1.12,1.12,0,0,1,.54,0,1.29,1.29,0,0,1,.65.42l0,.08v0l0,.12c-.43.08-.8.47-1.33.53a1,1,0,0,0,1.12.36l0,.13h0v.08l0,.05Z" transform="translate(-72.75 -67.85)"></path><path class="cls-2" d="M152.32,109.82a2,2,0,0,1-.46-.1l-.11-.06a1.43,1.43,0,0,1-.43-.42,1.53,1.53,0,0,1-.89-.38l0,0v-.09a1.5,1.5,0,0,0,.85.38c.55-.07,1-.41,1.44-.45a1.25,1.25,0,0,0-.55-.46.71.71,0,0,0-.6,0,5.21,5.21,0,0,1-.52.28,3,3,0,0,1-.62.28l0-.12a4.94,4.94,0,0,0,1.08-.53s0,0,0,0a.71.71,0,0,0-.33-.31,1.23,1.23,0,0,0-.58,0v-.13l0-.06v-.06l.05,0a.85.85,0,0,1,.9.46,1.06,1.06,0,0,1,.53.09,1.36,1.36,0,0,1,.6.49l0,.07v0l0,.11c-.43,0-.82.4-1.35.41a1.05,1.05,0,0,0,1.07.47l0,.13h0l0,.07,0,.06Z" transform="translate(-72.75 -67.85)"></path><path class="cls-2" d="M154.28,110.83a2.53,2.53,0,0,1-.47-.11l-.1-.06a1.4,1.4,0,0,1-.43-.41,1.52,1.52,0,0,1-.89-.37v-.12h0a1.55,1.55,0,0,0,.86.36c.54-.08,1-.42,1.44-.46a1.31,1.31,0,0,0-.55-.46.79.79,0,0,0-.6,0c-.18.1-.34.2-.52.29a4.1,4.1,0,0,1-.63.3l0-.12a4.82,4.82,0,0,0,1.09-.56s0,0,0,0a.7.7,0,0,0-.33-.3.87.87,0,0,0-.48,0v-.16l-.07-.06,0-.08,0,0a.83.83,0,0,1,.9.45,1.16,1.16,0,0,1,.53.09,1.31,1.31,0,0,1,.6.49l0,.08v0l0,.12c-.43,0-.82.39-1.35.4a1.08,1.08,0,0,0,1.08.47l0,.13h0l0,.08,0,.05Z" transform="translate(-72.75 -67.85)"></path><path class="cls-2" d="M156.13,112a1.74,1.74,0,0,1-.44-.14l-.1-.07a1.18,1.18,0,0,1-.39-.44,1.58,1.58,0,0,1-.85-.5v-.08l0,0a1.52,1.52,0,0,0,.82.47c.53,0,1-.37,1.43-.38a1.23,1.23,0,0,0-.51-.5c-.23-.1-.46-.15-.58-.06s-.34.18-.52.26a4.31,4.31,0,0,1-.64.23l0-.16a4.51,4.51,0,0,0,1.1-.43s0,0,.05,0a.78.78,0,0,0-.3-.33,1.19,1.19,0,0,0-.58-.08l0-.11v-.05l0-.08,0,0a.82.82,0,0,1,.84.53,1,1,0,0,1,.51.12,1.28,1.28,0,0,1,.55.53l0,.08,0,0,0,.12c-.43,0-.83.36-1.34.33a1,1,0,0,0,1,.55l-.05.13h0l0,.07,0,.06Z" transform="translate(-72.75 -67.85)"></path><path class="cls-2" d="M157.9,113.44a2.07,2.07,0,0,1-.43-.19l-.1-.08a1.45,1.45,0,0,1-.35-.51,1.56,1.56,0,0,1-.81-.54l0-.06,0,0v0a1.63,1.63,0,0,0,.78.54c.53,0,1-.24,1.44-.18a1.29,1.29,0,0,0-.47-.57.73.73,0,0,0-.57-.15,4.93,4.93,0,0,1-.54.19,3.29,3.29,0,0,1-.64.17l.05-.13a4.11,4.11,0,0,0,1.12-.33s0,0,0,0a.73.73,0,0,0-.27-.38,1.23,1.23,0,0,0-.56-.16l0-.1,0-.05,0-.08,0,.06a.87.87,0,0,1,.8.63,1,1,0,0,1,.5.19,1.39,1.39,0,0,1,.51.61l0,.07v0l-.05.11c-.43,0-.85.25-1.36.16a1.1,1.1,0,0,0,1,.68l-.06.12h0l0,.07,0,0Z" transform="translate(-72.75 -67.85)"></path><path class="cls-2" d="M189.39,124.38a2.23,2.23,0,0,1,.44-.18H190a1.15,1.15,0,0,1,.57.1,1.44,1.44,0,0,1,.91-.22l0,.06,0,.06h0a1.5,1.5,0,0,0-.89.2c-.4.39-.56.92-.92,1.23a1.14,1.14,0,0,0,.69.07c.25-.07.46-.19.5-.33s.17-.37.27-.54a4.46,4.46,0,0,1,.35-.63l0,.12a5,5,0,0,0-.58,1.11s0,0,0,0a.59.59,0,0,0,.43.06c.16,0,.22-.14.38-.29l.09.14h.09l0,.07h-.06a.78.78,0,0,1-1,.14,1.09,1.09,0,0,1-.48.24,1.28,1.28,0,0,1-.75-.06l0-.08v0l0-.12c.33-.29.45-.82.88-1.13a1,1,0,0,0-1.13.23l0-.14h0l0-.08,0,0Z" transform="translate(-72.75 -67.85)"></path><path class="cls-2" d="M187.24,124.44a2,2,0,0,1,.43-.14h.12a1.15,1.15,0,0,1,.56.15,1.48,1.48,0,0,1,1-.08l0,0v.09a1.42,1.42,0,0,0-.91.07c-.42.36-.59.89-1,1.17a1.12,1.12,0,0,0,.68.12c.24,0,.45-.14.5-.28s.19-.36.29-.53a3.73,3.73,0,0,1,.4-.57l0,.15a4.62,4.62,0,0,0-.66,1s0,0,0,0a.62.62,0,0,0,.42.11,1.11,1.11,0,0,0,.51-.27l0,.11,0,.06,0,.08-.06,0a.76.76,0,0,1-1,.06,1.05,1.05,0,0,1-.48.19,1.17,1.17,0,0,1-.73-.12l0-.08v0l0-.12c.34-.26.48-.79.91-1.07a.93.93,0,0,0-1.11.13l0-.14h0v-.08l0-.06Z" transform="translate(-72.75 -67.85)"></path><path class="cls-2" d="M185.05,124.3a1.88,1.88,0,0,1,.46-.09h.12a1.4,1.4,0,0,1,.56.22,1.44,1.44,0,0,1,.94,0l0,.06v.09a1.55,1.55,0,0,0-.93,0c-.44.28-.67.78-1.07,1a1.27,1.27,0,0,0,.69.21.72.72,0,0,0,.54-.21,5.78,5.78,0,0,1,.33-.48,3.93,3.93,0,0,1,.44-.52l0,.14a4.49,4.49,0,0,0-.73.93s0,0,0,0a.69.69,0,0,0,.42.15,1.08,1.08,0,0,0,.54-.18l0,.1v.06l0,.08-.06,0a.82.82,0,0,1-1-.06,1,1,0,0,1-.51.13,1.41,1.41,0,0,1-.74-.21v-.12l0-.12c.37-.21.56-.71,1-.93a1,1,0,0,0-1.16,0l0-.14h0v-.14Z" transform="translate(-72.75 -67.85)"></path><path class="cls-2" d="M182.89,124.15a1.88,1.88,0,0,1,.46-.09h.12a1.4,1.4,0,0,1,.56.22,1.44,1.44,0,0,1,.94,0l0,.06v.06h0a1.49,1.49,0,0,0-.91,0c-.45.29-.67.78-1.08,1a1.27,1.27,0,0,0,.69.2c.25,0,.47-.08.54-.21s.22-.32.34-.48a3.18,3.18,0,0,1,.42-.54l0,.13a4.72,4.72,0,0,0-.71,1s0,0,0,0a.69.69,0,0,0,.42.16c.17,0,.24-.09.42-.21l.08.15.08,0,0,.08-.06,0a.82.82,0,0,1-1-.07,1,1,0,0,1-.51.13,1.25,1.25,0,0,1-.74-.21v-.11l0-.13c.37-.21.56-.7,1-.92a1,1,0,0,0-1.15,0l0-.14h0v-.13Z" transform="translate(-72.75 -67.85)"></path><path class="cls-2" d="M180.73,123.75a2.1,2.1,0,0,1,.46,0l.12,0a1.4,1.4,0,0,1,.54.28,1.51,1.51,0,0,1,1,.1v.14a1.58,1.58,0,0,0-.93-.11c-.47.24-.72.7-1.14.88a1.37,1.37,0,0,0,.68.28c.25,0,.48,0,.55-.15s.24-.3.37-.44a4.13,4.13,0,0,1,.47-.46l0,.13a4.18,4.18,0,0,0-.8.85s0,0,0,0a.75.75,0,0,0,.42.2,1.07,1.07,0,0,0,.54-.16l0,.14v.12H183a.85.85,0,0,1-1-.18,1,1,0,0,1-.51.07,1.33,1.33,0,0,1-.73-.29v-.24c.38-.16.6-.63,1.08-.8a1,1,0,0,0-1.16-.14v-.28Z" transform="translate(-72.75 -67.85)"></path><path class="cls-2" d="M178.57,123.37a1.74,1.74,0,0,1,.46,0l.12,0a1.35,1.35,0,0,1,.55.27,1.44,1.44,0,0,1,.94.09l0,.06v.06h0a1.53,1.53,0,0,0-.92-.08c-.47.23-.73.69-1.14.87a1.22,1.22,0,0,0,.67.28c.25,0,.48,0,.56-.15a5,5,0,0,1,.37-.43,3,3,0,0,1,.46-.49V124a4.11,4.11,0,0,0-.78.87s0,0,0,0a.72.72,0,0,0,.41.2c.17,0,.25-.06.44-.16l.06.16.08,0,0,.08-.06,0a.85.85,0,0,1-1-.17,1,1,0,0,1-.52.07,1.5,1.5,0,0,1-.73-.3v-.24c.38-.16.6-.63,1.08-.8a1,1,0,0,0-1.15-.13v-.14h0v-.14Z" transform="translate(-72.75 -67.85)"></path><path class="cls-2" d="M176.44,122.78a2.17,2.17,0,0,1,.45,0l.12,0a1.5,1.5,0,0,1,.52.32,1.45,1.45,0,0,1,.93.19v.13a1.53,1.53,0,0,0-.9-.18c-.48.21-.75.66-1.17.81a1.26,1.26,0,0,0,.65.33c.25,0,.48,0,.55-.11a5.08,5.08,0,0,1,.39-.41,2.59,2.59,0,0,1,.48-.44l0,.15a4.21,4.21,0,0,0-.83.79s0,0,0,0a.8.8,0,0,0,.4.24,1.07,1.07,0,0,0,.53-.12l0,.14v.1h-.05a.83.83,0,0,1-1-.25,1,1,0,0,1-.51,0,1.36,1.36,0,0,1-.71-.35V124c.39-.14.62-.6,1.1-.74a1,1,0,0,0-1.13-.22v-.14h0v-.14Z" transform="translate(-72.75 -67.85)"></path><path class="cls-2" d="M174.3,122a2.21,2.21,0,0,1,.47.05l.12,0a1.78,1.78,0,0,1,.51.38,1.58,1.58,0,0,1,.93.29v.15a1.73,1.73,0,0,0-.91-.3c-.5.14-.81.54-1.25.63a1.6,1.6,0,0,0,.64.41c.26.06.49.07.58,0a3.39,3.39,0,0,1,.42-.35,2.64,2.64,0,0,1,.52-.36V123a3.81,3.81,0,0,0-.89.66s0,0,0,0a1,1,0,0,0,.39.28,1.23,1.23,0,0,0,.57,0v.24l0,0a.91.91,0,0,1-1-.37,1.05,1.05,0,0,1-.52,0,1.63,1.63,0,0,1-.7-.44v-.24c.4-.08.68-.49,1.18-.56a1.14,1.14,0,0,0-1.14-.37V122h0v-.14Z" transform="translate(-72.75 -67.85)"></path><path class="cls-2" d="M172.2,121.14a2.89,2.89,0,0,1,.46.06l.12,0a2.32,2.32,0,0,0,1.45.66V122h0a1.67,1.67,0,0,0-.91-.27c-.49.14-.8.54-1.24.63a1.47,1.47,0,0,0,.64.41c.25.06.48.06.57,0s.27-.24.42-.35a3.9,3.9,0,0,1,.52-.38v.13a4.1,4.1,0,0,0-.89.69s0,0,0,0a.78.78,0,0,0,.39.28c.17,0,.25,0,.45-.07l0,.17.07.06v.08l-.06,0a.91.91,0,0,1-1-.37,1.1,1.1,0,0,1-.53,0,1.49,1.49,0,0,1-.69-.43v-.24c.4-.08.67-.5,1.17-.56a1.11,1.11,0,0,0-1.14-.37v-.14h0v-.14Z" transform="translate(-72.75 -67.85)"></path><path class="cls-2" d="M170.13,120.09a1.53,1.53,0,0,1,.46.11l.11.06a1.67,1.67,0,0,1,.49.43,1.76,1.76,0,0,1,.93.4v.14a1.72,1.72,0,0,0-.89-.39c-.51.07-.85.43-1.3.47a1.62,1.62,0,0,0,.62.48c.25.09.48.12.58,0a4.27,4.27,0,0,1,.44-.3,2.82,2.82,0,0,1,.55-.29v.13a3.65,3.65,0,0,0-.94.56s0,0,0,0a.92.92,0,0,0,.38.31,1,1,0,0,0,.56,0v.26l-.05,0a1,1,0,0,1-.95-.48,1.06,1.06,0,0,1-.52-.09,1.72,1.72,0,0,1-.67-.51v-.23c.41,0,.71-.42,1.22-.43a1.2,1.2,0,0,0-1.12-.49V120Z" transform="translate(-72.75 -67.85)"></path><path class="cls-2" d="M168.07,119a2.59,2.59,0,0,1,.46.11l.12.07a1.77,1.77,0,0,1,.48.43,1.6,1.6,0,0,1,.92.38v.14a1.76,1.76,0,0,0-.89-.38c-.51.08-.85.44-1.29.48a1.52,1.52,0,0,0,.61.48c.25.09.48.12.58,0s.29-.21.44-.3a2.4,2.4,0,0,1,.55-.31v.12a3.69,3.69,0,0,0-.94.59s0,0,0,0a.79.79,0,0,0,.37.32c.17.07.25,0,.46,0l0,.17.08.06v.08l-.05,0A.94.94,0,0,1,169,121a1,1,0,0,1-.52-.09,1.58,1.58,0,0,1-.67-.51v-.24c.41,0,.71-.41,1.22-.42a1.2,1.2,0,0,0-1.12-.49v-.14h0V119Z" transform="translate(-72.75 -67.85)"></path><path class="cls-2" d="M166.12,118a2.27,2.27,0,0,1,.44.11l.11.06a1.64,1.64,0,0,1,.46.45,1.56,1.56,0,0,1,.89.41v0l0,.07h0a1.5,1.5,0,0,0-.85-.36c-.49.08-.83.46-1.26.51a1.54,1.54,0,0,0,.58.49c.23.08.46.12.55,0s.29-.22.44-.31a2.59,2.59,0,0,1,.53-.36v.15a3.5,3.5,0,0,0-.93.62s0,0,0,0a.84.84,0,0,0,.35.32c.16.07.3,0,.5-.06l0,.12.07.16,0,0h0a.8.8,0,0,1-.88-.4,1,1,0,0,1-.5-.09,1.58,1.58,0,0,1-.63-.52v-.12l0-.12c.39-.05.7-.44,1.19-.46a1.07,1.07,0,0,0-1.07-.49l0-.14v-.16Z" transform="translate(-72.75 -67.85)"></path><path class="cls-2" d="M164.17,116.64a2.72,2.72,0,0,1,.45.17l.11.08a1.9,1.9,0,0,1,.43.5,1.77,1.77,0,0,1,.87.51v.16a1.79,1.79,0,0,0-.84-.52c-.5,0-.87.33-1.31.31a1.64,1.64,0,0,0,.55.56c.24.12.47.19.57.11a5.06,5.06,0,0,1,.46-.24,2.26,2.26,0,0,1,.57-.22l0,.14a3.22,3.22,0,0,0-1,.42s0,0,0,0a.93.93,0,0,0,.33.36,1.13,1.13,0,0,0,.56.14l0,.1v.14l-.05,0a1,1,0,0,1-.88-.61,1,1,0,0,1-.51-.16,1.94,1.94,0,0,1-.61-.6l0-.08v0l0-.12c.41,0,.74-.33,1.24-.27a1.24,1.24,0,0,0-1.05-.64l0-.13h0v-.08l0-.06Z" transform="translate(-72.75 -67.85)"></path><path class="cls-2" d="M162.25,115.32a2.72,2.72,0,0,1,.45.17l.1.08a1.93,1.93,0,0,1,.44.5,1.75,1.75,0,0,1,.87.5v.13h0a1.73,1.73,0,0,0-.84-.49c-.5,0-.87.33-1.31.31a1.64,1.64,0,0,0,.55.56c.24.12.46.19.57.11a5.06,5.06,0,0,1,.46-.24,2.72,2.72,0,0,1,.57-.25l0,.12a3.58,3.58,0,0,0-1,.47s0,0,0,0a.85.85,0,0,0,.34.37c.16.09.25,0,.45,0l0,.17.07.08,0,.08,0,0a1,1,0,0,1-.88-.61,1,1,0,0,1-.51-.16,1.94,1.94,0,0,1-.61-.6l0-.08v0l0-.12c.41,0,.74-.33,1.24-.27a1.22,1.22,0,0,0-1-.64l0-.13v-.09l0-.06Z" transform="translate(-72.75 -67.85)"></path><path class="cls-2" d="M161.85,116.63l.05.05v-.26a1.78,1.78,0,0,1-.61-.22c0,.06-.06.14-.07.2A1.56,1.56,0,0,0,161.85,116.63Z" transform="translate(-72.75 -67.85)"></path><path class="cls-2" d="M162.13,115.51l0-.12a2.34,2.34,0,0,0-.58.15h0s0,.12,0,.16A2.32,2.32,0,0,1,162.13,115.51Z" transform="translate(-72.75 -67.85)"></path><path class="cls-2" d="M161.8,114.89s0,.11,0,.13h0a1,1,0,0,1,.39.36v-.09l0,0A1.66,1.66,0,0,0,161.8,114.89Z" transform="translate(-72.75 -67.85)"></path><path class="cls-2" d="M158.57,112.24a2.69,2.69,0,0,1,.43.22l.11.09a1.9,1.9,0,0,1,.4.55,2.27,2.27,0,0,1,.93.68l0,.1,0,.05h0a2.38,2.38,0,0,0-.88-.68c-.51,0-.89.22-1.33.15a1.63,1.63,0,0,0,.52.62c.22.15.45.24.55.17s.32-.13.49-.18a1.85,1.85,0,0,1,.69-.19l-.06.16a3.9,3.9,0,0,0-1.09.32s0,0,0,0a1.14,1.14,0,0,0,.31.4,1.05,1.05,0,0,0,.53.11L160,115h0l0,.1h0a2.78,2.78,0,0,0-1.3-.92,2.27,2.27,0,0,1-.72-.66l0-.13,0,0,.09-.08c.4.07.86-.22,1.35-.1a1.29,1.29,0,0,0-1-.73l0-.16h0l0-.08,0,0Z" transform="translate(-72.75 -67.85)"></path><path class="cls-5" d="M145,165.55c-.44-.18-.87-.42-1.35-.65a4.61,4.61,0,0,0-1.53-.43,4.39,4.39,0,0,0-1.54.11c.51.14,1,.23,1.47.37l.29.1c-1.6,5.8-4.76,17.76-4.8,17.9a.28.28,0,0,0,.18.33.25.25,0,0,0,.32-.14c.05-.15,4.3-11.58,6.34-17.25a3,3,0,0,0,2.06,0,10.31,10.31,0,0,1-1.09-.25A2,2,0,0,1,145,165.55Zm-5.54,12.22c1.06-4,2.47-9.25,3.38-12.54.19.08.38.15.57.25l.48.21C142.76,168.9,140.9,174,139.49,177.77Z" transform="translate(-72.75 -67.85)"></path><path class="cls-5" d="M99.83,156.64a1.13,1.13,0,0,0-1.43-1.46,1.66,1.66,0,0,0-1,.76.82.82,0,0,0-.13.59c0,.18.21.47.5.37-.25.21-.58,0-.77-.2a1,1,0,0,1-.07-.88,2,2,0,0,1,1.39-1.28,1.33,1.33,0,0,1,1.49,2.1Z" transform="translate(-72.75 -67.85)"></path><path class="cls-5" d="M189.84,126a1.23,1.23,0,0,0,1.29,0,1.2,1.2,0,0,0,.48-1,1.7,1.7,0,0,0-.49-1.15.85.85,0,0,0-.54-.27c-.18,0-.51.09-.48.39-.14-.28.1-.57.38-.69a1,1,0,0,1,.87.15,2.06,2.06,0,0,1,.9,1.67,1.33,1.33,0,0,1-2.41.92Z" transform="translate(-72.75 -67.85)"></path><path class="cls-2" d="M125.5,127.23a.32.32,0,0,1-.28.37.33.33,0,0,1-.37-.28.33.33,0,0,1,.28-.37A.33.33,0,0,1,125.5,127.23Z" transform="translate(-72.75 -67.85)"></path><path class="cls-2" d="M135.54,125.9a.33.33,0,1,1-.65.09.32.32,0,0,1,.28-.37A.33.33,0,0,1,135.54,125.9Z" transform="translate(-72.75 -67.85)"></path><path class="cls-2" d="M127.42,125.63a.33.33,0,1,1-.37-.28A.34.34,0,0,1,127.42,125.63Z" transform="translate(-72.75 -67.85)"></path><path class="cls-2" d="M133.31,124.86a.34.34,0,0,1-.29.37.33.33,0,0,1-.08-.65A.33.33,0,0,1,133.31,124.86Z" transform="translate(-72.75 -67.85)"></path><path class="cls-2" d="M130.27,123.23a.57.57,0,0,1-1.14.15.57.57,0,1,1,1.14-.15Z" transform="translate(-72.75 -67.85)"></path><path class="cls-2" d="M134,130.84l.33-1,.13-.52.26-1,.12-.51.52-1.94L133.24,128l-.22-3.25L131.75,128l-2.07-4.85-.7,5.05L127,125.54l.64,3.19-2.57-1.53,1,1.73.26.47.52.93.26.46.72,1.33A4.91,4.91,0,0,1,134,130.84Z" transform="translate(-72.75 -67.85)"></path><path class="cls-5" d="M104.47,170.39a1.25,1.25,0,0,0,.8,1,1.27,1.27,0,0,0,1.09-.23,1.73,1.73,0,0,0,.61-1.09.86.86,0,0,0-.12-.6c-.11-.14-.38-.35-.6-.14.14-.29.52-.27.78-.11a.93.93,0,0,1,.41.78,2,2,0,0,1-.77,1.72,1.47,1.47,0,0,1-1.66.15A1.42,1.42,0,0,1,104.47,170.39Z" transform="translate(-72.75 -67.85)"></path><path class="cls-5" d="M114.43,177.75a1.24,1.24,0,0,0-.86-1,1.26,1.26,0,0,0-1.08.31,1.71,1.71,0,0,0-.52,1.13.8.8,0,0,0,.16.58c.11.14.4.33.6.1-.12.3-.49.31-.77.17a1,1,0,0,1-.46-.75,2,2,0,0,1,.65-1.77,1.44,1.44,0,0,1,1.64-.27A1.41,1.41,0,0,1,114.43,177.75Z" transform="translate(-72.75 -67.85)"></path><path class="cls-5" d="M125.18,186.71a1.13,1.13,0,0,0,2-.16,1.65,1.65,0,0,0,.05-1.24.84.84,0,0,0-.37-.48c-.17-.08-.5-.14-.6.15,0-.32.34-.48.64-.46a1,1,0,0,1,.72.51,2.06,2.06,0,0,1,.1,1.89,1.45,1.45,0,0,1-1.41.88A1.43,1.43,0,0,1,125.18,186.71Z" transform="translate(-72.75 -67.85)"></path></svg> 