<svg xmlns="http://www.w3.org/2000/svg" viewBox="0 0 425.2 425.2"><defs><style>.cls-1{fill:#f06faa;}.cls-2{fill:#231f20;}.cls-3{fill:#8e91c7;}.cls-4{fill:#afd796;}.cls-5{fill:#ebdc61;}</style></defs><g id="six"><g id="_4.comprehence" data-name="4.comprehence"><path id="_4" data-name="4" class="cls-1" d="M212.6,14.91c-109.18,0-197.69,88.51-197.69,197.69H212.6Z"/><g id="text"><path class="cls-2" d="M43.85,193a12.28,12.28,0,0,1,4.61-24.13A12.28,12.28,0,0,1,43.85,193Zm.76-4a8.27,8.27,0,1,0-5.26-3.47A7.94,7.94,0,0,0,44.61,189.07Z"/><path class="cls-2" d="M50.57,142.53l1.66,3.53a8.64,8.64,0,0,0-5.22,5.2,8,8,0,0,0,.23,6.39,8.55,8.55,0,0,0,11,4,8,8,0,0,0,4.26-4.76,8.62,8.62,0,0,0-.67-7.33l3.53-1.66a11.94,11.94,0,0,1,.94,10.37,11.74,11.74,0,0,1-6.35,7,12.6,12.6,0,0,1-16.39-5.94,11.67,11.67,0,0,1-.36-9.47A11.88,11.88,0,0,1,50.57,142.53Z"/><polygon class="cls-2" points="71.72 143.7 69.73 147.22 49.24 135.61 51.21 132.13 64.39 128.72 60.53 115.67 62.5 112.19 83 123.79 81.01 127.31 65.46 118.5 69.31 131.51 56.18 134.9 71.72 143.7"/><path class="cls-2" d="M75.36,109.33l.42-.52a7.74,7.74,0,0,1,5.19-3,7.12,7.12,0,0,1,5.65,1.59,7.25,7.25,0,0,1,2.83,5.19,8,8,0,0,1-1.86,5.71l-2.94,3.67-18.38-14.7,2.52-3.15Zm20.85-1.84-2.52,3.16L75.31,95.94l2.52-3.15Zm-17.7,4.36L84,116.26l.42-.52a3.54,3.54,0,1,0-5.51-4.41Z"/><path class="cls-2" d="M100,76.59l-.12,3.9a8.6,8.6,0,0,0-7,2.28,8,8,0,0,0-2.69,5.79,8.55,8.55,0,0,0,8,8.54,7.91,7.91,0,0,0,6-2.31A8.59,8.59,0,0,0,106.89,88l3.9.12a11.9,11.9,0,0,1-3.85,9.67,11.74,11.74,0,0,1-8.85,3.41A12.6,12.6,0,0,1,86.16,88.44a11.73,11.73,0,0,1,4-8.62A11.87,11.87,0,0,1,100,76.59Z"/><path class="cls-2" d="M112.36,87.07a2.13,2.13,0,0,0,.6-.31c.87-.63,1-1.64.41-3a36.88,36.88,0,0,0-3.88-6.25l-6-8.32,9.27-6.7,13.8,19.1L123.27,84,111.75,68l-2.87,2.07,3.84,5.32q4.05,5.61,4.9,8.92a4.41,4.41,0,0,1-1.72,5.15,7.25,7.25,0,0,1-1.28.75Z"/><polygon class="cls-2" points="126.61 54.22 128.64 57.7 122.54 61.27 125.42 66.21 131.23 62.82 133.27 66.31 127.45 69.7 130.34 74.64 136.44 71.08 138.48 74.57 128.88 80.16 117.01 59.81 126.61 54.22"/><polygon class="cls-2" points="162.08 63.99 158.36 65.56 154.56 56.57 140.61 62.48 144.41 71.46 140.69 73.04 131.51 51.34 135.23 49.77 139.04 58.75 152.98 52.85 149.18 43.87 152.9 42.29 162.08 63.99"/><polygon class="cls-2" points="177.38 59.88 173.49 60.98 169.8 48.04 168.47 62.41 164.59 63.52 158.13 40.87 162.01 39.76 165.71 52.71 167.03 38.33 170.91 37.22 177.38 59.88"/><polygon class="cls-2" points="187.04 34.24 187.74 38.21 180.79 39.44 181.78 45.07 188.4 43.9 189.1 47.88 182.48 49.05 183.47 54.68 190.43 53.45 191.13 57.43 180.2 59.35 176.11 36.17 187.04 34.24"/></g></g><g id="_3.realization" data-name="3.realization"><path id="_3" data-name="3" class="cls-3" d="M14.91,212.6c0,109.18,88.51,197.68,197.69,197.68V212.6Z"/><g id="text-2" data-name="text"><path class="cls-2" d="M45.82,255.07l-8.26,2.36-1.13-4,23.13-6.61,1.32,4.63a8,8,0,0,1-.53,6.12,7.28,7.28,0,0,1-4.68,3.77,7.42,7.42,0,0,1-6-.72A8.11,8.11,0,0,1,46,255.73ZM56.73,252l-6.94,2,.19.66a3.62,3.62,0,1,0,6.94-2Z"/><polygon class="cls-2" points="67.66 272.2 63.79 273.63 61.3 266.86 55.82 268.88 58.2 275.33 54.33 276.75 51.95 270.31 46.47 272.32 48.97 279.1 45.1 280.52 41.18 269.88 63.74 261.57 67.66 272.2"/><path class="cls-2" d="M48.38,288.55l-2.17-4.1,26.87-.64,2.17,4.1L59.61,309.79l-2.15-4.07L60.79,301l-6.65-12.58ZM70,288.06l-11.29.26,4.73,8.93Z"/><path class="cls-2" d="M64.86,309.94a2.22,2.22,0,0,0,.32.61c.65.89,1.68,1,3.06.42a38.36,38.36,0,0,0,6.36-4l8.48-6.15,6.86,9.45L70.48,324.41l-2.42-3.34,16.26-11.81-2.11-2.91-5.43,3.93q-5.72,4.16-9.08,5a4.51,4.51,0,0,1-5.26-1.75,7.22,7.22,0,0,1-.78-1.3Z"/><polygon class="cls-2" points="82.69 338.35 79.94 335.29 90.15 326.1 76.38 331.33 73.62 328.26 91.5 312.19 94.25 315.25 84.04 324.44 97.81 319.21 100.57 322.28 82.69 338.35"/><path class="cls-2" d="M94.13,338.3l-.69.77a3.35,3.35,0,0,0,5,4.49c1.29-1.43,1.34-3.33-.49-5l-1.28-1.15,2.76-3.06,1.28,1.15c1.66,1.5,3.3,1.36,4.5,0a2.87,2.87,0,0,0-.22-4.27,2.92,2.92,0,0,0-4.24.24l-.46.51-3.06-2.77.46-.51a6.72,6.72,0,0,1,10.07-.53,6.93,6.93,0,0,1,2.51,4.9,6.6,6.6,0,0,1-1.88,5.06,6.09,6.09,0,0,1-5.5,2,6.3,6.3,0,0,1-1.5,6.28,6.9,6.9,0,0,1-5.08,2.49,7.46,7.46,0,0,1-5.9-12.64l.69-.76Z"/><path class="cls-2" d="M103.39,356.82l-3.84-2.59L123,341l3.84,2.6-3.48,26.67-3.82-2.58.72-5.73-11.8-8Zm18.88-10.65-9.84,5.55,8.38,5.66Z"/><polygon class="cls-2" points="138.16 377.26 127.18 371.95 137.65 350.3 141.37 352.1 132.69 370.03 137.32 372.28 146 354.34 149.72 356.14 141.03 374.07 143.66 375.35 139.32 384.31 135.61 382.52 138.16 377.26"/><polygon class="cls-2" points="158.41 385.08 154.52 383.69 159.15 370.75 149.5 381.9 145.62 380.51 153.72 357.85 157.6 359.24 152.97 372.19 162.62 361.03 166.5 362.42 158.41 385.08"/><path class="cls-2" d="M167,387.45l-5.08-1.24,9.29-7.36a7.5,7.5,0,0,1-2.7-7.83,7.29,7.29,0,0,1,3.57-4.83,8,8,0,0,1,6.1-.78l4.68,1.13-5.67,23.38-4-1,1.93-7.95Zm9.18-10.86,1.7-7-.67-.16a3.63,3.63,0,1,0-1.7,7Z"/></g></g><g id="_2.development" data-name="2.development"><path id="_2" data-name="2" class="cls-4" d="M212.6,410.28c109.17,0,197.68-88.5,197.68-197.68H212.6Z"/><g id="text-3" data-name="text"><path class="cls-2" d="M241.28,382.26l1.54,8.45-4,.74-4.33-23.66,4.74-.87a8,8,0,0,1,6,1.13,7.26,7.26,0,0,1,3.29,5,7.36,7.36,0,0,1-1.3,5.89,8.11,8.11,0,0,1-5.25,3.17Zm-2-11.16,1.3,7.1.67-.12a3.62,3.62,0,1,0-1.29-7.1Z"/><path class="cls-2" d="M259.6,387.27l-4.41,1.44,3.93-26.6,4.41-1.44,18.91,19.14-4.38,1.43L274,377.15l-13.53,4.42Zm3.2-21.44L261.13,377l9.61-3.14Z"/><path class="cls-2" d="M285.69,369.1l.45.92a3.35,3.35,0,0,0,6-2.95c-.85-1.73-2.59-2.48-4.82-1.39l-1.54.76-1.82-3.7,1.55-.76c2-1,2.49-2.57,1.7-4.17a2.88,2.88,0,0,0-4-1.38,2.93,2.93,0,0,0-1.36,4l.31.62-3.71,1.81-.3-.61c-1.89-3.86-.62-7.66,3.24-9.56a7,7,0,0,1,5.49-.51,6.6,6.6,0,0,1,4,3.63,6.07,6.07,0,0,1-.2,5.84,6.31,6.31,0,0,1,5.28,3.73,6.9,6.9,0,0,1,.43,5.64,7.46,7.46,0,0,1-13.93.79l-.45-.93Z"/><path class="cls-2" d="M301.88,359.73l4.54,7.29-3.5,2.18-12.73-20.42,4.08-2.55a8,8,0,0,1,6-1.17,7.28,7.28,0,0,1,4.91,3.46,7.42,7.42,0,0,1,1,6,8.11,8.11,0,0,1-3.73,4.87Zm-6-9.63,3.82,6.12.59-.36a3.63,3.63,0,1,0-3.82-6.13Z"/><path class="cls-2" d="M320.8,357.63l-3.57,3L311,334.44l3.57-3,24.63,10.78-3.53,2.94-5.31-2.28L319.47,352Zm-5-21.09,2.59,11,7.76-6.47Z"/><path class="cls-2" d="M333.14,325.57l.47-.51a8,8,0,0,1,5.49-2.76,7.28,7.28,0,0,1,5.66,2,7.41,7.41,0,0,1,2.54,5.48,8.13,8.13,0,0,1-2.26,5.7L341.8,339,324,322.83l8-8.76,3.05,2.78-5.21,5.71Zm3.05,2.77,5.34,4.86.46-.51a3.62,3.62,0,1,0-5.33-4.85Z"/><path class="cls-2" d="M343.87,319.17a12.56,12.56,0,1,1,9.38,2A12.12,12.12,0,0,1,343.87,319.17Zm2.35-3.39a8.44,8.44,0,1,0-3.47-5.42A8.16,8.16,0,0,0,346.22,315.78Z"/><polygon class="cls-2" points="352.28 292.34 348.62 290.44 354.92 278.23 358.58 280.12 356.38 284.39 374.1 293.53 372.2 297.2 354.49 288.06 352.28 292.34"/><polygon class="cls-2" points="355.7 276.54 357.21 272.71 366.77 276.48 359.35 267.31 361.08 262.93 369.77 273.64 383.45 271.77 381.72 276.15 370.06 277.79 379.58 281.55 378.07 285.38 355.7 276.54"/><path class="cls-2" d="M386,264.08,385,268.59l-20.57-17.28,1.08-4.51,26.19-6.06-1.08,4.47L385,246.55l-3.32,13.82Zm-16.57-13.95,8.64,7.27,2.36-9.82Z"/></g></g><g id="_1.fantasy" data-name="1.fantasy"><path id="_1" data-name="1" class="cls-5" d="M212.6,14.91V212.6H410.28C410.28,103.42,321.77,14.91,212.6,14.91Z"/><g id="text-4" data-name="text"><path class="cls-2" d="M269.5,41.72,273.32,43l-.92,2.64a9.22,9.22,0,0,1,4.41,4.63,9.35,9.35,0,0,1-4,11.46,9,9,0,0,1-6.29.88l-.92,2.64L261.79,64l.91-2.64a9.16,9.16,0,0,1-4.42-4.6,8.72,8.72,0,0,1-.1-6.48,8.61,8.61,0,0,1,4.08-5,9.26,9.26,0,0,1,6.33-.9ZM264,57.49l3.2-9.25a5,5,0,0,0-3.2,9.25Zm7-7.93-3.21,9.25a5,5,0,0,0,3.21-9.25Z"/><path class="cls-2" d="M277.66,69.91l-4-2.13,21.43-15.3,4,2.13L298.44,81l-4-2.12.11-5.66-12.31-6.53ZM294.94,57.6l-9,6.42,8.74,4.64Z"/><polygon class="cls-2" points="317.59 95.89 314.39 93.42 320.36 85.7 308.37 76.45 302.41 84.17 299.21 81.7 313.61 63.06 316.8 65.53 310.84 73.25 322.83 82.5 328.79 74.78 331.98 77.25 317.59 95.89"/><polygon class="cls-2" points="332.72 83.69 335.58 80.84 345.08 90.38 342.22 93.23 338.89 89.89 325.06 103.67 322.21 100.81 336.05 87.03 332.72 83.69"/><path class="cls-2" d="M331.87,110.74l-2.74-3.63L355,102.28l2.74,3.62-11.69,23.6-2.72-3.6,2.49-5.08-8.4-11.12Zm20.86-3.88-10.87,2,6,7.89Z"/><path class="cls-2" d="M354.71,130l-.88.49a3.28,3.28,0,0,0,3.17,5.74c1.65-.91,2.3-2.66,1.13-4.78l-.81-1.47,3.53-2,.82,1.47c1.06,1.91,2.62,2.32,4.15,1.47a2.81,2.81,0,0,0,1.16-4,2.87,2.87,0,0,0-4-1.13l-.59.32-2-3.53.59-.33a6.59,6.59,0,0,1,9.5,2.72,6.8,6.8,0,0,1,.76,5.34,6.46,6.46,0,0,1-3.36,4.08,6,6,0,0,1-5.72.09,6.17,6.17,0,0,1-3.39,5.33,6.77,6.77,0,0,1-5.5.7,7.31,7.31,0,0,1-1.43-13.59l.88-.49Z"/><polygon class="cls-2" points="359.24 157.46 357.67 153.74 370.06 148.5 355.63 148.94 354.06 145.22 375.76 136.04 377.33 139.76 364.93 145 379.36 144.56 380.94 148.28 359.24 157.46"/><path class="cls-2" d="M361.31,163.64l-1.5-4.89,10.84,4.14a7.36,7.36,0,0,1,5.25-6.18,7.13,7.13,0,0,1,5.85.6,7.86,7.86,0,0,1,3.7,4.74l1.38,4.51-22.51,6.89-1.19-3.86,7.66-2.34ZM375,166l6.76-2.07-.2-.64a3.54,3.54,0,1,0-6.75,2.06Z"/></g></g></g></svg>