<svg xmlns="http://www.w3.org/2000/svg" viewBox="0 0 380.85 380.85"><defs><style>.cls-1{fill:#afd796;}.cls-2{fill:#8e91c7;}.cls-3{fill:#ebdc61;}.cls-4{fill:#f06faa;}.cls-5{fill:#231f20;}</style></defs><g id="_1" data-name="1"><rect class="cls-1" x="190.43" y="190.43" width="190.43" height="190.43"/><rect class="cls-2" y="190.43" width="190.43" height="190.43"/><rect class="cls-3" x="190.43" width="190.43" height="190.43"/><rect class="cls-4" width="190.43" height="190.43"/></g><g id="Layer_2" data-name="Layer 2"><path class="cls-5" d="M24.26,96.88a8,8,0,0,1,8-8,8,8,0,1,1-5.68,13.72A7.78,7.78,0,0,1,24.26,96.88Zm2.65,0a5.38,5.38,0,0,0,9.2,3.8,5.38,5.38,0,1,0-7.62-7.61A5.17,5.17,0,0,0,26.91,96.88Z"/><path class="cls-5" d="M56.29,91.72l-1.8,1.81a5.63,5.63,0,0,0-4.36-2,5.4,5.4,0,1,0,0,10.79,5.63,5.63,0,0,0,4.36-2l1.8,1.81a8.14,8.14,0,0,1-11.91.55,8.25,8.25,0,0,1,0-11.41,8.14,8.14,0,0,1,11.91.55Z"/><path class="cls-5" d="M60.91,104.58H58.27V89.17h2.62l6.19,6.41,6.19-6.41h2.62v15.41H73.24V92.89l-6.16,6.39-6.17-6.39Z"/><path class="cls-5" d="M80.72,94.67h.45a5.14,5.14,0,0,1,3.67,1.41,4.68,4.68,0,0,1,1.5,3.55,4.75,4.75,0,0,1-1.5,3.57,5.2,5.2,0,0,1-3.67,1.38H78.08V89.17h2.64Zm0,2.65v4.62h.45a2.32,2.32,0,1,0,0-4.62Zm9.47,7.26H87.55V89.17h2.64Z"/><path class="cls-5" d="M106.37,91.72l-1.8,1.81a5.63,5.63,0,0,0-4.36-2A5.22,5.22,0,0,0,96.33,93a5.6,5.6,0,0,0,0,7.67,5.22,5.22,0,0,0,3.88,1.56,5.63,5.63,0,0,0,4.36-2l1.8,1.81a7.78,7.78,0,0,1-6.16,2.88,7.69,7.69,0,0,1-5.75-2.33,8.25,8.25,0,0,1,0-11.41,7.69,7.69,0,0,1,5.75-2.33A7.78,7.78,0,0,1,106.37,91.72Z"/><path class="cls-5" d="M107.69,102.05a1.62,1.62,0,0,0,.44.07c.7,0,1.17-.49,1.36-1.44a24.27,24.27,0,0,0,.33-4.8V89.17h7.49v15.41h-2.64V91.7h-2.31V96a19.33,19.33,0,0,1-.82,6.6,2.88,2.88,0,0,1-2.88,2.07,4.43,4.43,0,0,1-1-.09Z"/><path class="cls-5" d="M126.78,89.17v2.64h-4.63v3.74h4.41V98.2h-4.41v3.74h4.63v2.64h-7.27V89.17Z"/><path class="cls-5" d="M144.17,104.58h-2.64V98.2h-9.91v6.38H129V89.17h2.65v6.38h9.91V89.17h2.64Z"/><path class="cls-5" d="M155.06,104.58h-2.64V95.77L149,104.58h-2.65V89.17H149V98l3.41-8.81h2.64Z"/><path class="cls-5" d="M164.53,89.17v2.64H159.9v3.74h4.41V98.2H159.9v3.74h4.63v2.64h-7.27V89.17Z"/><path class="cls-5" d="M234.43,88.5h2.64v1.82a6,6,0,0,1,3.72,1.92,6.14,6.14,0,0,1,0,8,5.9,5.9,0,0,1-3.7,1.89v1.83h-2.64v-1.83a6,6,0,0,1-3.72-1.89,5.74,5.74,0,0,1-1.46-4,5.65,5.65,0,0,1,1.46-4,6,6,0,0,1,3.72-1.92Zm0,10.92V93a3.29,3.29,0,0,0,0,6.41ZM237.07,93v6.41a3.3,3.3,0,0,0,0-6.41Z"/><path class="cls-5" d="M246.09,103.91h-3L250.8,88.5h3l7.7,15.41h-3l-1.67-3.3h-9.12Zm6.21-12.42L249.07,98h6.47Z"/><path class="cls-5" d="M278,103.91h-2.64V97.52h-9.91v6.39H262.8V88.5h2.64v6.38h9.91V88.5H278Z"/><path class="cls-5" d="M279.75,91.14V88.5h8.81v2.64h-3.09v12.77h-2.64V91.14Z"/><path class="cls-5" d="M292.41,103.91h-3l7.69-15.41h3l7.71,15.41h-2.95l-1.68-3.3h-9.11Zm6.21-12.42L295.38,98h6.47Z"/><path class="cls-5" d="M311.31,98.8v.66a2.09,2.09,0,0,0,2.14,2.14,2.07,2.07,0,0,0,2.16-2.14,2.1,2.1,0,0,0-2.38-2.16h-1.1V94.66h1.1c1.43,0,2.16-.77,2.16-1.91a1.85,1.85,0,0,0-1.94-1.94,1.89,1.89,0,0,0-1.92,1.94v.44h-2.64v-.44a4.3,4.3,0,0,1,4.56-4.58,4.42,4.42,0,0,1,3.3,1.25A4.23,4.23,0,0,1,318,92.64a3.89,3.89,0,0,1-1.76,3.3,4.05,4.05,0,0,1,2,3.63,4.44,4.44,0,0,1-1.34,3.37,4.78,4.78,0,0,1-8.24-3.48V98.8Z"/><path class="cls-5" d="M328.93,103.91h-2.65V95.1l-3.41,8.81h-2.64V88.5h2.64v8.8l3.41-8.8h2.65Z"/><path class="cls-5" d="M333.59,103.91h-3.35l4.67-6a4.8,4.8,0,0,1-2.86-4.47,4.64,4.64,0,0,1,1.5-3.54,5.09,5.09,0,0,1,3.67-1.41h3.09v15.41h-2.65V98.67Zm4.07-8.15V91.14h-.44a2.32,2.32,0,1,0,0,4.62Z"/><path class="cls-5" d="M224.15,289.87v5.51h-2.64V280h3.08a5.1,5.1,0,0,1,3.68,1.41,4.64,4.64,0,0,1,1.5,3.54,4.75,4.75,0,0,1-1.5,3.57,5.21,5.21,0,0,1-3.68,1.38Zm0-7.26v4.62h.44a2.32,2.32,0,1,0,0-4.62Z"/><path class="cls-5" d="M233.84,295.38h-3L238.55,280h3l7.71,15.41h-2.95l-1.67-3.3h-9.12ZM240.05,283l-3.24,6.47h6.48Z"/><path class="cls-5" d="M252.75,290.27v.66a2.15,2.15,0,1,0,1.91-2.16h-1.1v-2.64h1.1c1.43,0,2.16-.77,2.16-1.91a1.85,1.85,0,0,0-1.94-1.94,1.88,1.88,0,0,0-1.91,1.94v.44h-2.64v-.44a4.3,4.3,0,0,1,4.55-4.58,4.46,4.46,0,0,1,3.31,1.25,4.24,4.24,0,0,1,1.27,3.22,3.89,3.89,0,0,1-1.76,3.3,4.05,4.05,0,0,1,2,3.63,4.44,4.44,0,0,1-1.34,3.37,4.78,4.78,0,0,1-8.23-3.48v-.66Z"/><path class="cls-5" d="M264.3,289.87v5.51h-2.64V280h3.08a5.1,5.1,0,0,1,3.68,1.41,4.64,4.64,0,0,1,1.5,3.54,4.75,4.75,0,0,1-1.5,3.57,5.21,5.21,0,0,1-3.68,1.38Zm0-7.26v4.62h.44a2.32,2.32,0,1,0,0-4.62Z"/><path class="cls-5" d="M274,295.38h-3L278.7,280h3l7.71,15.41h-2.95l-1.67-3.3h-9.12ZM280.2,283,277,289.43h6.48Z"/><path class="cls-5" d="M293.34,285.47h.44a5.12,5.12,0,0,1,3.68,1.41,4.66,4.66,0,0,1,1.49,3.55,4.71,4.71,0,0,1-1.49,3.56,5.19,5.19,0,0,1-3.68,1.39H290.7V280h7.59v2.64h-5Zm0,2.64v4.63h.44a2.32,2.32,0,1,0,0-4.63Z"/><path class="cls-5" d="M300.71,287.67a8.06,8.06,0,1,1,2.36,5.68A7.74,7.74,0,0,1,300.71,287.67Zm2.64,0a5.4,5.4,0,0,0,10.79,0,5.4,5.4,0,0,0-10.79,0Z"/><path class="cls-5" d="M318.32,282.61V280h8.81v2.64h-3.08v12.77H321.4V282.61Z"/><path class="cls-5" d="M328.89,280h2.64v6.58l3.72-6.58h3l-4.34,7.7,4.34,7.71h-3l-3.72-6.56v6.56h-2.64Z"/><path class="cls-5" d="M342.12,295.38h-3L346.83,280h3l7.71,15.41h-2.95l-1.68-3.3h-9.11ZM348.33,283l-3.24,6.47h6.47Z"/><path class="cls-5" d="M33.3,290.2v5.51H30.66V280.3h3.08a5.15,5.15,0,0,1,3.68,1.4,4.67,4.67,0,0,1,1.49,3.55,4.75,4.75,0,0,1-1.49,3.57,5.22,5.22,0,0,1-3.68,1.38Zm0-7.26v4.62h.44a2.32,2.32,0,1,0,0-4.62Z"/><path class="cls-5" d="M48.16,280.3v2.64H43.53v3.74h4.41v2.64H43.53v3.75h4.63v2.64H40.89V280.3Z"/><path class="cls-5" d="M52.45,295.71h-3l7.68-15.41h3l7.71,15.41h-3l-1.67-3.3H54.1Zm6.21-12.42-3.24,6.47h6.47Z"/><path class="cls-5" d="M68.49,293.18a1.74,1.74,0,0,0,.45.06c.7,0,1.16-.48,1.36-1.43a24.34,24.34,0,0,0,.33-4.8V280.3h7.49v15.41H75.47V282.83H73.16v4.29a19.41,19.41,0,0,1-.81,6.61,2.9,2.9,0,0,1-2.89,2.07,4.43,4.43,0,0,1-1-.09Z"/><path class="cls-5" d="M89,295.71H86.37V286.9L83,295.71H80.32V280.3H83v8.8l3.41-8.8H89Z"/><path class="cls-5" d="M93.41,290.6v.66a2.09,2.09,0,0,0,2.14,2.14,2.07,2.07,0,0,0,2.16-2.14,2.11,2.11,0,0,0-2.38-2.16h-1.1v-2.64h1.1c1.43,0,2.16-.77,2.16-1.91a1.85,1.85,0,0,0-1.94-1.94,1.89,1.89,0,0,0-1.92,1.94V285H91v-.44A4.3,4.3,0,0,1,95.55,280a4.44,4.44,0,0,1,3.3,1.25,4.23,4.23,0,0,1,1.28,3.22,3.91,3.91,0,0,1-1.76,3.3,4.05,4.05,0,0,1,2,3.63A4.44,4.44,0,0,1,99,294.74a4.78,4.78,0,0,1-8.24-3.48v-.66Z"/><path class="cls-5" d="M104.42,295.71h-3l7.68-15.41h3l7.71,15.41h-3l-1.67-3.3h-9.12Zm6.21-12.42-3.24,6.47h6.48Z"/><path class="cls-5" d="M128.94,295.71h-7.81V280.3h2.64v12.77h3.3V280.3h2.64v12.77h1.87v6.38h-2.64Z"/><path class="cls-5" d="M141.82,295.71h-2.64V286.9l-3.42,8.81h-2.64V280.3h2.64v8.8l3.42-8.8h2.64Z"/><path class="cls-5" d="M146.48,295.71h-3.34l4.67-6a4.81,4.81,0,0,1-2.87-4.47,4.68,4.68,0,0,1,1.5-3.55,5.14,5.14,0,0,1,3.68-1.4h3.08v15.41h-2.64v-5.24Zm4.08-8.15v-4.62h-.44a2.32,2.32,0,1,0,0,4.62Z"/></g></svg>