<svg viewBox="0 0 380.85 380.85" xmlns="http://www.w3.org/2000/svg"><path d="m190.43 190.43h190.43v190.43h-190.43z" fill="#afd796"/><path d="m0 190.43h190.43v190.43h-190.43z" fill="#8e91c7"/><path d="m190.43 0h190.43v190.43h-190.43z" fill="#ebdc61"/><path d="m0 0h190.43v190.43h-190.43z" fill="#f06faa"/><g fill="#231f20"><path d="m24.26 96.88a8 8 0 0 1 8-8 8 8 0 1 1 -5.68 13.72 7.78 7.78 0 0 1 -2.32-5.72zm2.65 0a5.38 5.38 0 0 0 9.2 3.8 5.38 5.38 0 1 0 -7.62-7.61 5.17 5.17 0 0 0 -1.58 3.81z"/><path d="m56.29 91.72-1.8 1.81a5.63 5.63 0 0 0 -4.36-2 5.4 5.4 0 1 0 0 10.79 5.63 5.63 0 0 0 4.36-2l1.8 1.81a8.14 8.14 0 0 1 -11.91.55 8.25 8.25 0 0 1 0-11.41 8.14 8.14 0 0 1 11.91.55z"/><path d="m60.91 104.58h-2.64v-15.41h2.62l6.19 6.41 6.19-6.41h2.62v15.41h-2.65v-11.69l-6.16 6.39-6.17-6.39z"/><path d="m80.72 94.67h.45a5.14 5.14 0 0 1 3.67 1.41 4.68 4.68 0 0 1 1.5 3.55 4.75 4.75 0 0 1 -1.5 3.57 5.2 5.2 0 0 1 -3.67 1.38h-3.09v-15.41h2.64zm0 2.65v4.62h.45a2.32 2.32 0 1 0 0-4.62zm9.47 7.26h-2.64v-15.41h2.64z"/><path d="m106.37 91.72-1.8 1.81a5.63 5.63 0 0 0 -4.36-2 5.22 5.22 0 0 0 -3.88 1.47 5.6 5.6 0 0 0 0 7.67 5.22 5.22 0 0 0 3.88 1.56 5.63 5.63 0 0 0 4.36-2l1.8 1.81a7.78 7.78 0 0 1 -6.16 2.88 7.69 7.69 0 0 1 -5.75-2.33 8.25 8.25 0 0 1 0-11.41 7.69 7.69 0 0 1 5.75-2.33 7.78 7.78 0 0 1 6.16 2.87z"/><path d="m107.69 102.05a1.62 1.62 0 0 0 .44.07c.7 0 1.17-.49 1.36-1.44a24.27 24.27 0 0 0 .33-4.8v-6.71h7.49v15.41h-2.64v-12.88h-2.31v4.3a19.33 19.33 0 0 1 -.82 6.6 2.88 2.88 0 0 1 -2.88 2.07 4.43 4.43 0 0 1 -1-.09z"/><path d="m126.78 89.17v2.64h-4.63v3.74h4.41v2.65h-4.41v3.74h4.63v2.64h-7.27v-15.41z"/><path d="m144.17 104.58h-2.64v-6.38h-9.91v6.38h-2.62v-15.41h2.65v6.38h9.91v-6.38h2.64z"/><path d="m155.06 104.58h-2.64v-8.81l-3.42 8.81h-2.65v-15.41h2.65v8.83l3.41-8.81h2.64z"/><path d="m164.53 89.17v2.64h-4.63v3.74h4.41v2.65h-4.41v3.74h4.63v2.64h-7.27v-15.41z"/><path d="m234.43 88.5h2.64v1.82a6 6 0 0 1 3.72 1.92 6.14 6.14 0 0 1 0 8 5.9 5.9 0 0 1 -3.7 1.89v1.83h-2.64v-1.83a6 6 0 0 1 -3.72-1.89 5.74 5.74 0 0 1 -1.46-4 5.65 5.65 0 0 1 1.46-4 6 6 0 0 1 3.72-1.92zm0 10.92v-6.42a3.29 3.29 0 0 0 0 6.41zm2.64-6.42v6.41a3.3 3.3 0 0 0 0-6.41z"/><path d="m246.09 103.91h-3l7.71-15.41h3l7.7 15.41h-3l-1.67-3.3h-9.12zm6.21-12.42-3.23 6.51h6.47z"/><path d="m278 103.91h-2.64v-6.39h-9.91v6.39h-2.65v-15.41h2.64v6.38h9.91v-6.38h2.65z"/><path d="m279.75 91.14v-2.64h8.81v2.64h-3.09v12.77h-2.64v-12.77z"/><path d="m292.41 103.91h-3l7.69-15.41h3l7.71 15.41h-2.95l-1.68-3.3h-9.11zm6.21-12.42-3.24 6.51h6.47z"/><path d="m311.31 98.8v.66a2.09 2.09 0 0 0 2.14 2.14 2.07 2.07 0 0 0 2.16-2.14 2.1 2.1 0 0 0 -2.38-2.16h-1.1v-2.64h1.1c1.43 0 2.16-.77 2.16-1.91a1.85 1.85 0 0 0 -1.94-1.94 1.89 1.89 0 0 0 -1.92 1.94v.44h-2.64v-.44a4.3 4.3 0 0 1 4.56-4.58 4.42 4.42 0 0 1 3.3 1.25 4.23 4.23 0 0 1 1.25 3.22 3.89 3.89 0 0 1 -1.76 3.3 4.05 4.05 0 0 1 2 3.63 4.44 4.44 0 0 1 -1.34 3.37 4.78 4.78 0 0 1 -8.24-3.48v-.66z"/><path d="m328.93 103.91h-2.65v-8.81l-3.41 8.81h-2.64v-15.41h2.64v8.8l3.41-8.8h2.65z"/><path d="m333.59 103.91h-3.35l4.67-6a4.8 4.8 0 0 1 -2.86-4.47 4.64 4.64 0 0 1 1.5-3.54 5.09 5.09 0 0 1 3.67-1.41h3.09v15.41h-2.65v-5.23zm4.07-8.15v-4.62h-.44a2.32 2.32 0 1 0 0 4.62z"/><path d="m224.15 289.87v5.51h-2.64v-15.38h3.08a5.1 5.1 0 0 1 3.68 1.41 4.64 4.64 0 0 1 1.5 3.54 4.75 4.75 0 0 1 -1.5 3.57 5.21 5.21 0 0 1 -3.68 1.38zm0-7.26v4.62h.44a2.32 2.32 0 1 0 0-4.62z"/><path d="m233.84 295.38h-3l7.71-15.38h3l7.71 15.41h-2.95l-1.67-3.3h-9.12zm6.21-12.38-3.24 6.47h6.48z"/><path d="m252.75 290.27v.66a2.15 2.15 0 1 0 1.91-2.16h-1.1v-2.64h1.1c1.43 0 2.16-.77 2.16-1.91a1.85 1.85 0 0 0 -1.94-1.94 1.88 1.88 0 0 0 -1.91 1.94v.44h-2.64v-.44a4.3 4.3 0 0 1 4.55-4.58 4.46 4.46 0 0 1 3.31 1.25 4.24 4.24 0 0 1 1.27 3.22 3.89 3.89 0 0 1 -1.76 3.3 4.05 4.05 0 0 1 2 3.63 4.44 4.44 0 0 1 -1.34 3.37 4.78 4.78 0 0 1 -8.23-3.48v-.66z"/><path d="m264.3 289.87v5.51h-2.64v-15.38h3.08a5.1 5.1 0 0 1 3.68 1.41 4.64 4.64 0 0 1 1.5 3.54 4.75 4.75 0 0 1 -1.5 3.57 5.21 5.21 0 0 1 -3.68 1.38zm0-7.26v4.62h.44a2.32 2.32 0 1 0 0-4.62z"/><path d="m274 295.38h-3l7.7-15.38h3l7.71 15.41h-2.95l-1.67-3.3h-9.12zm6.2-12.38-3.2 6.43h6.48z"/><path d="m293.34 285.47h.44a5.12 5.12 0 0 1 3.68 1.41 4.66 4.66 0 0 1 1.49 3.55 4.71 4.71 0 0 1 -1.49 3.56 5.19 5.19 0 0 1 -3.68 1.39h-3.08v-15.38h7.59v2.64h-5zm0 2.64v4.63h.44a2.32 2.32 0 1 0 0-4.63z"/><path d="m300.71 287.67a8.06 8.06 0 1 1 2.36 5.68 7.74 7.74 0 0 1 -2.36-5.68zm2.64 0a5.4 5.4 0 0 0 10.79 0 5.4 5.4 0 0 0 -10.79 0z"/><path d="m318.32 282.61v-2.61h8.81v2.64h-3.08v12.77h-2.65v-12.8z"/><path d="m328.89 280h2.64v6.58l3.72-6.58h3l-4.34 7.7 4.34 7.71h-3l-3.72-6.56v6.56h-2.64z"/><path d="m342.12 295.38h-3l7.71-15.38h3l7.71 15.41h-2.95l-1.68-3.3h-9.11zm6.21-12.38-3.24 6.47h6.47z"/><path d="m33.3 290.2v5.51h-2.64v-15.41h3.08a5.15 5.15 0 0 1 3.68 1.4 4.67 4.67 0 0 1 1.49 3.55 4.75 4.75 0 0 1 -1.49 3.57 5.22 5.22 0 0 1 -3.68 1.38zm0-7.26v4.62h.44a2.32 2.32 0 1 0 0-4.62z"/><path d="m48.16 280.3v2.64h-4.63v3.74h4.41v2.64h-4.41v3.75h4.63v2.64h-7.27v-15.41z"/><path d="m52.45 295.71h-3l7.68-15.41h3l7.71 15.41h-3l-1.67-3.3h-9.07zm6.21-12.42-3.24 6.47h6.47z"/><path d="m68.49 293.18a1.74 1.74 0 0 0 .45.06c.7 0 1.16-.48 1.36-1.43a24.34 24.34 0 0 0 .33-4.8v-6.71h7.49v15.41h-2.65v-12.88h-2.31v4.29a19.41 19.41 0 0 1 -.81 6.61 2.9 2.9 0 0 1 -2.89 2.07 4.43 4.43 0 0 1 -1-.09z"/><path d="m89 295.71h-2.63v-8.81l-3.37 8.81h-2.68v-15.41h2.68v8.8l3.41-8.8h2.59z"/><path d="m93.41 290.6v.66a2.09 2.09 0 0 0 2.14 2.14 2.07 2.07 0 0 0 2.16-2.14 2.11 2.11 0 0 0 -2.38-2.16h-1.1v-2.64h1.1c1.43 0 2.16-.77 2.16-1.91a1.85 1.85 0 0 0 -1.94-1.94 1.89 1.89 0 0 0 -1.92 1.94v.45h-2.63v-.44a4.3 4.3 0 0 1 4.55-4.56 4.44 4.44 0 0 1 3.3 1.25 4.23 4.23 0 0 1 1.28 3.22 3.91 3.91 0 0 1 -1.76 3.3 4.05 4.05 0 0 1 2 3.63 4.44 4.44 0 0 1 -1.37 3.34 4.78 4.78 0 0 1 -8.24-3.48v-.66z"/><path d="m104.42 295.71h-3l7.68-15.41h3l7.71 15.41h-3l-1.67-3.3h-9.12zm6.21-12.42-3.24 6.47h6.48z"/><path d="m128.94 295.71h-7.81v-15.41h2.64v12.77h3.3v-12.77h2.64v12.77h1.87v6.38h-2.64z"/><path d="m141.82 295.71h-2.64v-8.81l-3.42 8.81h-2.64v-15.41h2.64v8.8l3.42-8.8h2.64z"/><path d="m146.48 295.71h-3.34l4.67-6a4.81 4.81 0 0 1 -2.87-4.47 4.68 4.68 0 0 1 1.5-3.55 5.14 5.14 0 0 1 3.68-1.4h3.08v15.41h-2.64v-5.24zm4.08-8.15v-4.62h-.44a2.32 2.32 0 1 0 0 4.62z"/></g></svg>