<svg viewBox="0 0 425.2 425.2" xmlns="http://www.w3.org/2000/svg"><path d="m43.71 115a195.09 195.09 0 0 0 168.89 292.69v-195.19z" fill="#ed8dba"/><g fill="#231f20"><path d="m38.14 192.92.52-6.14 14.84 1.22-.06.77c-.3 3.53 2.32 4.84 9.85 5.46l19.45 1.63-1.46 17.41-29.69-2.47-.36 4.35-14.85-1.24.52-6.15 8.7.73 1.24-14.84zm24.63 7.48c-1.89-.16-3.27-.33-4.18-.45a12 12 0 0 1 -5.9-2.31l-.58 7 23.54 2 .43-5.11z"/><path d="m82.74 235.87-6.14.51-.9-10.74-8.7.72.86 10.24-6.15.52-.85-10.24-8.71.73.9 10.75-6.14.51-1.42-16.89 35.84-3z"/><path d="m71.52 256.37-21.85-2.82-1.47-6 34.91-8.55 1.47 6-20 4.9 21.85 2.82 1.47 6-34.9 8.54-1.47-6zm23.32-12.71a2.58 2.58 0 1 0 1.22 5l1.47 6a7.39 7.39 0 0 1 -6.13-1.08 8.88 8.88 0 0 1 -3.68-5.5 9.06 9.06 0 0 1 .7-6.62 7.51 7.51 0 0 1 4.94-3.76z"/><path d="m97 293.12-5.62-2a13.12 13.12 0 0 0 -.12-11.23 12.14 12.14 0 0 0 -7.2-6.56 12.58 12.58 0 0 0 -15.46 17.48 13.16 13.16 0 0 0 8.72 7.09l-2 5.62a18.18 18.18 0 0 1 -12.3-10 17.81 17.81 0 0 1 -.92-14.43 19.23 19.23 0 0 1 24-11.56 17.91 17.91 0 0 1 10.72 9.71 18.16 18.16 0 0 1 .18 15.88z"/><path d="m98.51 294.79 4.89-3.74 12.48 16.31-4.9 3.74-4.37-5.71-23.65 18.08-3.74-4.89 23.65-18.08z"/><path d="m115.85 331.62a9.79 9.79 0 0 1 -2.67 9.09 9.32 9.32 0 0 1 -7.26 3.07 11 11 0 0 1 -7.48-3.25l-5.93-5.68 24.84-26 5.93 5.68a10.35 10.35 0 0 1 3.39 7 8.88 8.88 0 0 1 -2.64 7.06 9.34 9.34 0 0 1 -8.18 3.03zm-8.28-3.6-6.35 6.64 1.48 1.42a4.56 4.56 0 0 0 6.5-.11 4.7 4.7 0 0 0 0-6.42zm4.26-4.45 1.48 1.42a4.13 4.13 0 0 0 5.72-6l-1.49-1.42z"/><path d="m129.32 364.68-5.08-3.48 11.63-16.94-18.19 12.43-5.08-3.49 20.34-29.63 5.08 3.49-11.62 16.93 18.18-12.42 5.08 3.48z"/><path d="m167.72 343.77-2.64 5.56-9.74-4.62-3.74 7.88 9.27 4.41-2.63 5.56-9.28-4.4-3.74 7.88 9.74 4.62-2.64 5.57-15.3-7.26 15.39-32.46z"/></g><path d="m381.49 115-168.89 97.5v195.19a195.06 195.06 0 0 0 168.89-292.69z" fill="#b5e4fa"/><path d="m278.05 357.6.73 1.35a5 5 0 0 0 8.82-4.73c-1.36-2.53-4-3.55-7.27-1.81l-2.26 1.22-2.91-5.43 2.26-1.22c2.94-1.57 3.58-4 2.32-6.31a4.31 4.31 0 0 0 -6.11-1.84 4.38 4.38 0 0 0 -1.8 6.09l.48.9-5.42 2.91-.49-.9c-3-5.65-1.34-11.39 4.31-14.43a10.42 10.42 0 0 1 8.17-1.06 9.89 9.89 0 0 1 6.17 5.19 9.08 9.08 0 0 1 0 8.73 9.42 9.42 0 0 1 8.08 5.28 10.35 10.35 0 0 1 1 8.4 11.15 11.15 0 0 1 -20.75 1.93l-.73-1.36z" fill="#231f20"/><path d="m333.19 332.33-4.66 4.03-9.75-11.26-17.47 15.12 9.75 11.26-4.66 4.04-23.53-27.19 4.66-4.03 9.75 11.26 17.47-15.12-9.74-11.26 4.66-4.03z" fill="#231f20"/><path d="m343.67 319.69-3.8 5.79-20.25-34.69 3.79-5.8 39.93 4.66-3.77 5.76-8.59-1-11.64 17.79zm-16.3-28 8.5 14.59 8.27-12.64z" fill="#231f20"/><path d="m377.37 246.77-1.81 5.89-14.24-4.37-6.78 22.1 14.24 4.37-1.81 5.89-34.38-10.54 1.81-5.89 14.24 4.36 6.78-22.1-14.24-4.36 1.81-5.9z" fill="#231f20"/><path d="m380.07 216.38-.49 6.14-20.47-1.63 19.83 9.56-.48 6.14-35.83-2.85.49-6.14 20.47 1.63-19.84-9.57.5-6.14z" fill="#231f20"/><path d="m342.82 193.65 6.14-.48.82 10.75 8.7-.67-.79-10.24 6.14-.46.79 10.23 8.7-.67-.82-10.74 6.13-.48 1.3 16.89-35.81 2.75z" fill="#231f20"/><path d="m212.6 17.51a195 195 0 0 0 -168.89 97.49l168.89 97.5 168.89-97.5a195 195 0 0 0 -168.89-97.49z" fill="#ebdc61"/><path d="m123.56 110.92-5.5 3.95-2.67-20.16-18.36-9 5.51-3.96 15.63 7.49-8.88-12.34 5.01-3.6 8.87 12.34-2.12-17.2 5.51-3.95 2.68 20.27 18.3 8.92-5.55 3.99-15.55-7.48 8.84 12.3-5 3.59-8.85-12.29z" fill="#231f20"/><path d="m151.63 54.12 2.45 5.65-9.89 4.29 3.48 8.01 9.42-4.09 2.45 5.65-9.42 4.09 3.48 8 9.89-4.29 2.45 5.65-15.53 6.75-14.32-32.96z" fill="#231f20"/><path d="m166.48 80.37a3.26 3.26 0 0 0 1-.1c1.59-.4 2.37-1.75 2.28-4a55.75 55.75 0 0 0 -2-11.06l-3.7-15.21 16.94-4.21 8.68 34.89-6 1.49-7.23-29.17-5.23 1.31 2.42 9.69c1.7 6.82 2.34 12 1.88 15.41s-2.23 5.53-5.36 6.31a11.81 11.81 0 0 1 -2.25.35z" fill="#231f20"/><path d="m197.5 79.25h-6.93l17.74-36h6.93l18.15 35.86h-6.88l-3.94-7.61h-21.25zm14.34-29-7.47 15.09h15.09z" fill="#231f20"/><path d="m268.13 89.61-5.91-1.73 4.17-14.29-22.18-6.48-4.18 14.29-5.91-1.73 10.09-34.5 5.91 1.73-4.18 14.29 22.18 6.48 4.18-14.29 5.92 1.73z" fill="#231f20"/><path d="m288.44 101.57-5.37-3.02 10.06-17.9-17 14.01-5.37-3.02 17.61-31.33 5.37 3.02-10.06 17.9 17-14 5.37 3.02z" fill="#231f20"/><path d="m327.14 86.3-3.85 4.81-8.42-6.73-5.45 6.81 8.02 6.42-3.86 4.8-8.01-6.41-5.46 6.81 8.42 6.73-3.85 4.81-13.23-10.59 22.47-28.04z" fill="#231f20"/></svg>