<svg xmlns="http://www.w3.org/2000/svg" viewBox="0 0 425.2 425.2"><defs><style>.cls-1{fill:#ed8dba;}.cls-2{fill:#231f20;}.cls-3{fill:#b5e4fa;}.cls-4{fill:#ebdc61;}</style></defs><g id="six"><g id="_3.do" data-name="3.do"><path id="_3" data-name="3" class="cls-1" d="M43.71,115A195.09,195.09,0,0,0,212.6,407.69V212.5Z"/><g id="text"><path class="cls-2" d="M38.14,192.92l.52-6.14L53.5,188l-.06.77c-.3,3.53,2.32,4.84,9.85,5.46l19.45,1.63-1.46,17.41L51.59,210.8l-.36,4.35-14.85-1.24.52-6.15,8.7.73,1.24-14.84Zm24.63,7.48c-1.89-.16-3.27-.33-4.18-.45a12,12,0,0,1-5.9-2.31l-.58,7,23.54,2,.43-5.11Z"/><polygon class="cls-2" points="82.74 235.87 76.6 236.38 75.7 225.64 67 226.36 67.86 236.6 61.71 237.12 60.86 226.88 52.15 227.61 53.05 238.36 46.91 238.87 45.49 221.98 81.33 218.98 82.74 235.87"/><path class="cls-2" d="M71.52,256.37l-21.85-2.82-1.47-6L83.11,239l1.47,6-20,4.9,21.85,2.82,1.47,6L53,267.26l-1.47-6Zm23.32-12.71a2.58,2.58,0,1,0,1.22,5l1.47,6a7.39,7.39,0,0,1-6.13-1.08,8.88,8.88,0,0,1-3.68-5.5,9.06,9.06,0,0,1,.7-6.62,7.51,7.51,0,0,1,4.94-3.76Z"/><path class="cls-2" d="M97,293.12l-5.62-2a13.12,13.12,0,0,0-.12-11.23,12.14,12.14,0,0,0-7.2-6.56,12.58,12.58,0,0,0-15.46,17.48,13.16,13.16,0,0,0,8.72,7.09l-2,5.62a18.18,18.18,0,0,1-12.3-10,17.81,17.81,0,0,1-.92-14.43,19.23,19.23,0,0,1,24-11.56,17.91,17.91,0,0,1,10.72,9.71A18.16,18.16,0,0,1,97,293.12Z"/><polygon class="cls-2" points="98.51 294.79 103.4 291.05 115.88 307.36 110.98 311.1 106.61 305.39 82.96 323.47 79.22 318.58 102.87 300.5 98.51 294.79"/><path class="cls-2" d="M115.85,331.62a9.79,9.79,0,0,1-2.67,9.09,9.32,9.32,0,0,1-7.26,3.07,11,11,0,0,1-7.48-3.25l-5.93-5.68,24.84-26,5.93,5.68a10.35,10.35,0,0,1,3.39,7,8.88,8.88,0,0,1-2.64,7.06A9.34,9.34,0,0,1,115.85,331.62Zm-8.28-3.6-6.35,6.64,1.48,1.42a4.56,4.56,0,0,0,6.5-.11,4.7,4.7,0,0,0,0-6.42Zm4.26-4.45,1.48,1.42a4.13,4.13,0,0,0,5.72-6l-1.49-1.42Z"/><polygon class="cls-2" points="129.32 364.68 124.24 361.2 135.87 344.26 117.68 356.69 112.6 353.2 132.94 323.57 138.02 327.06 126.4 343.99 144.58 331.57 149.66 335.05 129.32 364.68"/><polygon class="cls-2" points="167.72 343.77 165.08 349.33 155.34 344.71 151.6 352.59 160.87 357 158.24 362.56 148.96 358.16 145.22 366.04 154.96 370.66 152.32 376.23 137.02 368.97 152.41 336.51 167.72 343.77"/></g></g><g id="_2.know" data-name="2.know"><path id="_2" data-name="2" class="cls-3" d="M381.49,115,212.6,212.5V407.69A195.06,195.06,0,0,0,381.49,115Z"/><g id="text-2" data-name="text"><path class="cls-2" d="M278.05,357.6l.73,1.35a5,5,0,0,0,8.82-4.73c-1.36-2.53-4-3.55-7.27-1.81l-2.26,1.22-2.91-5.43,2.26-1.22c2.94-1.57,3.58-4,2.32-6.31a4.31,4.31,0,0,0-6.11-1.84,4.38,4.38,0,0,0-1.8,6.09l.48.9-5.42,2.91-.49-.9c-3-5.65-1.34-11.39,4.31-14.43a10.42,10.42,0,0,1,8.17-1.06,9.89,9.89,0,0,1,6.17,5.19,9.08,9.08,0,0,1,0,8.73,9.42,9.42,0,0,1,8.08,5.28,10.35,10.35,0,0,1,1,8.4,11.15,11.15,0,0,1-20.75,1.93l-.73-1.36Z"/><polygon class="cls-2" points="333.19 332.33 328.53 336.36 318.78 325.1 301.31 340.22 311.06 351.48 306.4 355.52 282.87 328.33 287.53 324.3 297.28 335.56 314.75 320.44 305.01 309.18 309.67 305.15 333.19 332.33"/><path class="cls-2" d="M343.67,319.69l-3.8,5.79-20.25-34.69,3.79-5.8,39.93,4.66-3.77,5.76-8.59-1-11.64,17.79Zm-16.3-28,8.5,14.59,8.27-12.64Z"/><polygon class="cls-2" points="377.37 246.77 375.56 252.66 361.32 248.29 354.54 270.39 368.78 274.76 366.97 280.65 332.59 270.11 334.4 264.22 348.64 268.58 355.42 246.48 341.18 242.12 342.99 236.22 377.37 246.77"/><polygon class="cls-2" points="380.07 216.38 379.58 222.52 359.11 220.89 378.94 230.45 378.46 236.59 342.63 233.74 343.12 227.6 363.59 229.23 343.75 219.66 344.25 213.52 380.07 216.38"/><polygon class="cls-2" points="342.82 193.65 348.96 193.17 349.78 203.92 358.48 203.25 357.69 193.01 363.83 192.55 364.62 202.78 373.32 202.11 372.5 191.37 378.63 190.89 379.93 207.78 344.12 210.53 342.82 193.65"/></g></g><g id="_1.will" data-name="1.will"><path id="_1" data-name="1" class="cls-4" d="M212.6,17.51A195,195,0,0,0,43.71,115L212.6,212.5,381.49,115A195,195,0,0,0,212.6,17.51Z"/><g id="text-3" data-name="text"><polygon class="cls-2" points="123.56 110.92 118.06 114.87 115.39 94.71 97.03 85.71 102.54 81.75 118.17 89.24 109.29 76.9 114.3 73.3 123.17 85.64 121.05 68.44 126.56 64.49 129.24 84.76 147.54 93.68 141.99 97.67 126.44 90.19 135.28 102.49 130.28 106.08 121.43 93.79 123.56 110.92"/><polygon class="cls-2" points="151.63 54.12 154.08 59.77 144.19 64.06 147.67 72.07 157.09 67.98 159.54 73.63 150.12 77.72 153.6 85.72 163.49 81.43 165.94 87.08 150.41 93.83 136.09 60.87 151.63 54.12"/><path class="cls-2" d="M166.48,80.37a3.26,3.26,0,0,0,1-.1c1.59-.4,2.37-1.75,2.28-4a55.75,55.75,0,0,0-2-11.06L164.06,50,181,45.79l8.68,34.89-6,1.49L176.45,53l-5.23,1.31L173.64,64c1.7,6.82,2.34,12,1.88,15.41s-2.23,5.53-5.36,6.31a11.81,11.81,0,0,1-2.25.35Z"/><path class="cls-2" d="M197.5,79.25h-6.93l17.74-36h6.93l18.15,35.86h-6.88l-3.94-7.61H201.32Zm14.34-29-7.47,15.09h15.09Z"/><polygon class="cls-2" points="268.13 89.61 262.22 87.88 266.39 73.59 244.21 67.11 240.03 81.4 234.12 79.67 244.21 45.17 250.12 46.9 245.94 61.19 268.12 67.67 272.3 53.38 278.22 55.11 268.13 89.61"/><polygon class="cls-2" points="288.44 101.57 283.07 98.55 293.13 80.65 276.13 94.66 270.76 91.64 288.37 60.31 293.74 63.33 283.68 81.23 300.68 67.23 306.05 70.25 288.44 101.57"/><polygon class="cls-2" points="327.14 86.3 323.29 91.11 314.87 84.38 309.42 91.19 317.44 97.61 313.58 102.41 305.57 96 300.11 102.81 308.53 109.54 304.68 114.35 291.45 103.76 313.92 75.72 327.14 86.3"/></g></g></g></svg>