<svg viewBox="0 0 100 100" xmlns="http://www.w3.org/2000/svg"><path d="m50.27 10.07 42.73 74h-85.45z" fill="#fff" stroke="#f05a25" stroke-miterlimit="10"/><g fill="#f05a25"><path d="m57.67 50.8a8.14 8.14 0 0 1 -1-8.34c-2.27 2.23-3.55 5-2.66 7.76a6.65 6.65 0 0 1 .24 1.05v.43h-.13l-.54-1.23a9.78 9.78 0 0 1 -.13-6.59c1.5-4.45-.46-8.82-4-12.32a13.15 13.15 0 0 1 -1.84 13.33 14.29 14.29 0 0 0 -1.61 2.54l-.25.56v-.15c.67-2.87-.79-5.47-3.23-7.43a8.24 8.24 0 0 1 -.38 8.42c-1.54 3-1.93 6.64-.73 9.36 1.89 3.94 4.4 5.76 7.8 5.85a10.74 10.74 0 0 0 1.53-.04c2.78-.3 6.26-1.66 7.38-4.88 1.1-2.79 1.63-5.62-.45-8.32z"/><path d="m31.12 67.16a5.14 5.14 0 1 1 -3.12 9.22l3.58-1a2.12 2.12 0 0 0 .6-.94 4 4 0 0 0 -1.28-4.44 2.07 2.07 0 0 0 -1-.55l-3.56 1a5.14 5.14 0 0 1 4.78-3.29zm31.88 2.15a9.48 9.48 0 0 1 -4 .93h-18.53a9.19 9.19 0 0 1 -3.91-.93 6 6 0 0 1 0 5.84 9.74 9.74 0 0 1 4-1h18.5a9.7 9.7 0 0 1 4 1 6.05 6.05 0 0 1 0-5.84zm10.57 4-4.07 1.14a3.61 3.61 0 0 1 -.44-.38 3.67 3.67 0 0 1 -.87-3.82l.06-.16 4.09-1.18a5.16 5.16 0 1 0 -6.74 7.72 5.1 5.1 0 0 0 2.91.89 5.16 5.16 0 0 0 5.07-4.25z"/></g></svg>